<svg xmlns="http://www.w3.org/2000/svg" xmlns:xlink="http://www.w3.org/1999/xlink" viewBox="0 0 1000 700">
  <g class="build">
    <g class="row-1 piece-1 primary piece">
      <polygon class="standard" points="521.5 340.23 590.5 326.23 590.5 376.23 521.5 390.23 521.5 340.23" />
      <polygon class="dark" points="521.5 340.23 495.5 330.23 495.5 380.23 521.5 390.23 521.5 340.23" />
      <polygon class="light" points="495.5 330.23 521.5 340.23 590.5 326.23 564.5 316.23 495.5 330.23" />
      <path class="gradient" d="M513.14,322.08c0,1.9,5.82,3.44,13,3.44s13-1.54,13-3.44v10.56c-14.5,6.62-26,0-26,0Z" />
      <ellipse class="light" cx="526.14" cy="322.08" rx="13" ry="3.44" />
      <path class="gradient" d="M549.08,315.33c0,1.9,5.82,3.44,13,3.44s13-1.54,13-3.44v10.56c-14.5,6.62-26,0-26,0Z" />
      <ellipse class="light" cx="562.08" cy="315.33" rx="13" ry="3.44" />
    </g>
    <g class="row-1 piece-2 primary piece">
      <polygon class="standard" points="382.5 368.23 451.5 354.23 451.5 404.23 382.5 418.23 382.5 368.23" />
      <polygon class="dark" points="382.5 368.23 356.5 358.23 356.5 408.23 382.5 418.23 382.5 368.23" />
      <polygon class="light" points="356.5 358.23 382.5 368.23 451.5 354.23 425.5 344.23 356.5 358.23" />
      <path class="gradient" d="M374.14,350.08c0,1.9,5.82,3.44,13,3.44s13-1.54,13-3.44v10.56c-14.5,6.62-26,0-26,0Z" />
      <ellipse class="light" cx="387.14" cy="350.08" rx="13" ry="3.44" />
      <path class="gradient" d="M410.08,343.33c0,1.9,5.82,3.44,13,3.44s13-1.54,13-3.44v10.56c-14.5,6.62-26,0-26,0Z" />
      <ellipse class="light" cx="423.08" cy="343.33" rx="13" ry="3.44" />
    </g>
    <g class="row-1 piece-3 primary piece">
      <polygon class="standard" points="651 329.37 720 315.37 720 365.37 651 379.37 651 329.37" />
      <polygon class="dark" points="651 329.37 625 319.37 625 369.37 651 379.37 651 329.37" />
      <polygon class="light" points="625 319.37 651 329.37 720 315.37 694 305.37 625 319.37" />
      <path class="gradient" d="M678.58,304.47c0,1.9,5.82,3.44,13,3.44s13-1.54,13-3.44V315c-14.5,6.62-26,0-26,0Z" />
      <ellipse class="light" cx="691.58" cy="304.47" rx="13" ry="3.44" />
      <path class="gradient" d="M642.64,311.22c0,1.9,5.82,3.44,13,3.44s13-1.54,13-3.44v10.56c-14.5,6.62-26,0-26,0Z" />
      <ellipse class="light" cx="655.64" cy="311.22" rx="13" ry="3.44" />
    </g>
    <g class="row-1 piece-4 primary piece">
      <polygon class="standard" points="513 357.37 651 329.37 651 379.37 513 407.37 513 357.37" />
      <polygon class="dark" points="513 357.37 487 347.37 487 397.37 513 407.37 513 357.37" />
      <polygon class="light" points="487 347.37 513 357.37 651 329.37 625 319.37 487 347.37" />
      <path class="gradient" d="M504.64,339.22c0,1.9,5.82,3.44,13,3.44s13-1.54,13-3.44v10.56c-14.5,6.62-26,0-26,0Z" />
      <ellipse class="light" cx="517.64" cy="339.22" rx="13" ry="3.44" />
      <path class="gradient" d="M540.58,332.47c0,1.9,5.82,3.44,13,3.44s13-1.54,13-3.44V343c-14.5,6.62-26,0-26,0Z" />
      <ellipse class="light" cx="553.58" cy="332.47" rx="13" ry="3.44" />
      <path class="gradient" d="M574.64,325.22c0,1.9,5.82,3.44,13,3.44s13-1.54,13-3.44v10.56c-14.5,6.62-26,0-26,0Z" />
      <ellipse class="light" cx="587.64" cy="325.22" rx="13" ry="3.44" />
      <path class="gradient" d="M609.58,318.47c0,1.9,5.82,3.44,13,3.44s13-1.54,13-3.44V329c-14.5,6.62-26,0-26,0Z" />
      <ellipse class="light" cx="622.58" cy="318.47" rx="13" ry="3.44" />
    </g>
    <g class="row-1 piece-5 primary piece">
      <polygon class="standard" points="375 385.37 513 357.37 513 407.37 375 435.37 375 385.37" />
      <polygon class="dark" points="375 385.37 349 375.37 349 425.37 375 435.37 375 385.37" />
      <polygon class="light" points="349 375.37 375 385.37 513 357.37 487 347.37 349 375.37" />
      <path class="gradient" d="M366.64,367.22c0,1.9,5.82,3.44,13,3.44s13-1.54,13-3.44v10.56c-14.5,6.62-26,0-26,0Z" />
      <ellipse class="light" cx="379.64" cy="367.22" rx="13" ry="3.44" />
      <path class="gradient" d="M402.58,360.47c0,1.9,5.82,3.44,13,3.44s13-1.54,13-3.44V371c-14.5,6.62-26,0-26,0Z" />
      <ellipse class="light" cx="415.58" cy="360.47" rx="13" ry="3.44" />
      <path class="gradient" d="M436.64,353.22c0,1.9,5.82,3.44,13,3.44s13-1.54,13-3.44v10.56c-14.5,6.62-26,0-26,0Z" />
      <ellipse class="light" cx="449.64" cy="353.22" rx="13" ry="3.44" />
      <path class="gradient" d="M471.58,346.47c0,1.9,5.82,3.44,13,3.44s13-1.54,13-3.44V357c-14.5,6.62-26,0-26,0Z" />
      <ellipse class="light" cx="484.58" cy="346.47" rx="13" ry="3.44" />
    </g>
    <g class="row-1 piece-6 primary piece">
      <polygon class="standard" points="306 399.37 375 385.37 375 435.37 306 449.37 306 399.37" />
      <polygon class="dark" points="306 399.37 280 389.37 280 439.37 306 449.37 306 399.37" />
      <polygon class="light" points="280 389.37 306 399.37 375 385.37 349 375.37 280 389.37" />
      <path class="gradient" d="M333.58,374.47c0,1.9,5.82,3.44,13,3.44s13-1.54,13-3.44V385c-14.5,6.62-26,0-26,0Z" />
      <ellipse class="light" cx="346.58" cy="374.47" rx="13" ry="3.44" />
      <path class="gradient" d="M297.64,381.22c0,1.9,5.82,3.44,13,3.44s13-1.54,13-3.44v10.56c-14.5,6.62-26,0-26,0Z" />
      <ellipse class="light" cx="310.64" cy="381.22" rx="13" ry="3.44" />
    </g>
    <g class="row-2 piece-1 primary piece">
      <polygon class="standard" points="685.5 272.23 720 265.37 720 315.37 685.5 322.23 685.5 272.23" />
      <polygon class="dark" points="685.5 272.23 659.5 262.23 659.5 312.23 685.5 322.23 685.5 272.23" />
      <polygon class="light" points="659.5 262.23 685.5 272.23 720 265.37 694 255.37 659.5 262.23" />
      <path class="gradient" d="M677.14,254.08c0,1.9,5.82,3.44,13,3.44s13-1.54,13-3.44v10.56c-14.5,6.62-26,0-26,0Z" />
      <ellipse class="light" cx="690.14" cy="254.08" rx="13" ry="3.44" />
    </g>
    <g class="row-2 piece-2 contrast piece">
      <polygon class="standard" points="651 279.09 685.5 272.23 685.5 322.23 651 329.09 651 279.09" />
      <polygon class="dark" points="651 279.09 625 269.09 625 319.09 651 329.09 651 279.09" />
      <polygon class="light" points="625 269.09 651 279.09 685.5 272.23 659.5 262.23 625 269.09" />
      <path class="gradient" d="M642.64,260.94c0,1.9,5.82,3.44,13,3.44s13-1.54,13-3.44V271.5c-14.5,6.62-26,0-26,0Z" />
      <ellipse class="light" cx="655.64" cy="260.94" rx="13" ry="3.44" />
    </g>
    <g class="row-2 piece-3 contrast piece">
      <polygon class="standard" points="582 293.37 651 279.37 651 329.37 582 343.37 582 293.37" />
      <polygon class="dark" points="582 293.37 556 283.37 556 333.37 582 343.37 582 293.37" />
      <polygon class="light" points="556 283.37 582 293.37 651 279.37 625 269.37 556 283.37" />
      <path class="gradient" d="M609.58,268.47c0,1.9,5.82,3.44,13,3.44s13-1.54,13-3.44V279c-14.5,6.62-26,0-26,0Z" />
      <ellipse class="light" cx="622.58" cy="268.47" rx="13" ry="3.44" />
      <path class="gradient" d="M573.64,275.22c0,1.9,5.82,3.44,13,3.44s13-1.54,13-3.44v10.56c-14.5,6.62-26,0-26,0Z" />
      <ellipse class="light" cx="586.64" cy="275.22" rx="13" ry="3.44" />
    </g>
    <g class="row-2 piece-4 primary piece">
      <polygon class="standard" points="547.5 300.23 582 293.37 582 343.37 547.5 350.23 547.5 300.23" />
      <polygon class="dark" points="547.5 300.23 495.5 280.23 495.5 330.23 547.5 350.23 547.5 300.23" />
      <polygon class="light" points="495.5 280.23 547.5 300.23 582 293.37 530 273.37 495.5 280.23" />
      <path class="gradient" d="M513.14,272.08c0,1.9,5.82,3.44,13,3.44s13-1.54,13-3.44v10.56c-14.5,6.62-26,0-26,0Z" />
      <ellipse class="light" cx="526.14" cy="272.08" rx="13" ry="3.44" />
      <path class="gradient" d="M539.14,282.08c0,1.9,5.82,3.44,13,3.44s13-1.54,13-3.44v10.56c-14.5,6.62-26,0-26,0Z" />
      <ellipse class="light" cx="552.14" cy="282.08" rx="13" ry="3.44" />
    </g>
    <g class="row-2 piece-5 contrast piece">
      <polygon class="standard" points="478.5 314.23 547.5 300.23 547.5 350.23 478.5 364.23 478.5 314.23" />
      <polygon class="dark" points="478.5 314.23 452.5 304.23 452.5 354.23 478.5 364.23 478.5 314.23" />
      <polygon class="light" points="452.5 304.23 478.5 314.23 547.5 300.23 521.5 290.23 452.5 304.23" />
      <path class="gradient" d="M470.14,296.08c0,1.9,5.82,3.44,13,3.44s13-1.54,13-3.44v10.56c-14.5,6.62-26,0-26,0Z" />
      <ellipse class="light" cx="483.14" cy="296.08" rx="13" ry="3.44" />
      <path class="gradient" d="M506.08,289.33c0,1.9,5.82,3.44,13,3.44s13-1.54,13-3.44v10.56c-14.5,6.62-26,0-26,0Z" />
      <ellipse class="light" cx="519.08" cy="289.33" rx="13" ry="3.44" />
    </g>
    <g class="row-2 piece-6 contrast piece">
      <polygon class="standard" points="444 321.37 478.5 314.51 478.5 364.51 444 371.37 444 321.37" />
      <polygon class="dark" points="444 321.37 392 301.37 392 351.37 444 371.37 444 321.37" />
      <polygon class="light" points="392 301.37 444 321.37 478.5 314.51 426.5 294.51 392 301.37" />
      <path class="gradient" d="M409.64,293.22c0,1.9,5.82,3.44,13,3.44s13-1.54,13-3.44v10.56c-14.5,6.62-26,0-26,0Z" />
      <ellipse class="light" cx="422.64" cy="293.22" rx="13" ry="3.44" />
      <path class="gradient" d="M435.64,303.22c0,1.9,5.82,3.44,13,3.44s13-1.54,13-3.44v10.56c-14.5,6.62-26,0-26,0Z" />
      <ellipse class="light" cx="448.64" cy="303.22" rx="13" ry="3.44" />
    </g>
    <g class="row-2 piece-7 primary piece">
      <polygon class="standard" points="306 349.37 444 321.37 444 371.37 306 399.37 306 349.37" />
      <polygon class="dark" points="306 349.37 280 339.37 280 389.37 306 399.37 306 349.37" />
      <polygon class="light" points="280 339.37 306 349.37 444 321.37 418 311.37 280 339.37" />
      <path class="gradient" d="M297.64,331.22c0,1.9,5.82,3.44,13,3.44s13-1.54,13-3.44v10.56c-14.5,6.62-26,0-26,0Z" />
      <ellipse class="light" cx="310.64" cy="331.22" rx="13" ry="3.44" />
      <path class="gradient" d="M333.58,324.47c0,1.9,5.82,3.44,13,3.44s13-1.54,13-3.44V335c-14.5,6.62-26,0-26,0Z" />
      <ellipse class="light" cx="346.58" cy="324.47" rx="13" ry="3.44" />
      <path class="gradient" d="M367.64,317.22c0,1.9,5.82,3.44,13,3.44s13-1.54,13-3.44v10.56c-14.5,6.62-26,0-26,0Z" />
      <ellipse class="light" cx="380.64" cy="317.22" rx="13" ry="3.44" />
      <path class="gradient" d="M402.58,310.47c0,1.9,5.82,3.44,13,3.44s13-1.54,13-3.44V321c-14.5,6.62-26,0-26,0Z" />
      <ellipse class="light" cx="415.58" cy="310.47" rx="13" ry="3.44" />
    </g>
  </g>
  <g class="list">
    <rect class="background" x="10" y="100" width="145" height="385.5" />
    <text transform="translate(30 466.48)">1x</text>
    <g class="piece primary">
      <polygon class="standard" points="46.9 410.52 136.6 392.32 136.6 424.82 46.9 443.02 46.9 410.52" />
      <polygon class="dark" points="46.9 410.52 30 404.02 30 436.52 46.9 443.02 46.9 410.52" />
      <polygon class="light" points="30 404.02 46.9 410.52 136.6 392.32 119.7 385.82 30 404.02" />
      <path class="gradient" d="M41.47,398.73c0,1.23,3.78,2.23,8.45,2.23s8.45-1,8.45-2.23v6.86a19.35,19.35,0,0,1-16.9,0Z" />
      <ellipse class="light" cx="49.92" cy="398.73" rx="8.45" ry="2.24" />
      <path class="gradient" d="M64.83,394.34c0,1.24,3.78,2.24,8.45,2.24s8.45-1,8.45-2.24v6.86a19.35,19.35,0,0,1-16.9,0Z" />
      <ellipse class="light" cx="73.28" cy="394.34" rx="8.45" ry="2.24" />
      <path class="gradient" d="M87,389.63c0,1.23,3.78,2.23,8.45,2.23s8.45-1,8.45-2.23v6.86a19.35,19.35,0,0,1-16.9,0Z" />
      <ellipse class="light" cx="95.42" cy="389.63" rx="8.45" ry="2.24" />
      <path class="gradient" d="M109.68,385.24c0,1.24,3.78,2.24,8.45,2.24s8.45-1,8.45-2.24v6.86a19.35,19.35,0,0,1-16.9,0Z" />
      <ellipse class="light" cx="118.13" cy="385.24" rx="8.45" ry="2.24" />
    </g>
    <text transform="translate(30 371.48)">1x</text>
    <g class="piece contrast">
      <polygon class="standard" points="46.9 315.43 91.75 306.32 91.75 338.82 46.9 347.93 46.9 315.43" />
      <polygon class="dark" points="46.9 315.43 30 308.93 30 341.43 46.9 347.93 46.9 315.43" />
      <polygon class="light" points="30 308.93 46.9 315.43 91.75 306.32 74.85 299.82 30 308.93" />
      <path class="gradient" d="M64.83,299.24c0,1.24,3.78,2.24,8.45,2.24s8.45-1,8.45-2.24v6.86a19.35,19.35,0,0,1-16.9,0Z" />
      <ellipse class="light" cx="73.28" cy="299.24" rx="8.45" ry="2.24" />
      <path class="gradient" d="M41.47,303.63c0,1.23,3.78,2.23,8.45,2.23s8.45-1,8.45-2.23v6.86a19.35,19.35,0,0,1-16.9,0Z" />
      <ellipse class="light" cx="49.92" cy="303.63" rx="8.45" ry="2.24" />
    </g>
    <text transform="translate(30 275.48)">1x</text>
    <g class="piece contrast">
      <polygon class="standard" points="46.81 219.06 69.2 214.4 69.5 246.89 47.12 251.56 46.81 219.06" />
      <polygon class="dark" points="46.81 219.06 29.85 212.72 30.16 245.22 47.12 251.56 46.81 219.06" />
      <polygon class="light" points="29.85 212.72 46.81 219.06 69.2 214.4 52.24 208.05 29.85 212.72" />
      <path class="gradient" d="M41.27,207.32c0,1.23,3.81,2.2,8.47,2.16s8.44-1.09,8.43-2.32l.07,6.86a19.35,19.35,0,0,1-16.9.16Z" />
      <ellipse class="light" cx="49.72" cy="207.24" rx="8.45" ry="2.24" transform="translate(-1.93 0.47) rotate(-0.53)" />
    </g>
    <text transform="translate(30 184.48)">1x</text>
    <g class="piece primary">
      <polygon class="standard" points="46.9 129.04 69.33 124.58 69.33 157.08 46.9 161.54 46.9 129.04" />
      <polygon class="dark" points="46.9 129.04 30 122.54 30 155.04 46.9 161.54 46.9 129.04" />
      <polygon class="light" points="30 122.54 46.9 129.04 69.33 124.58 52.42 118.08 30 122.54" />
      <path class="gradient" d="M41.47,117.24c0,1.24,3.78,2.24,8.45,2.24s8.45-1,8.45-2.24v6.86a19.35,19.35,0,0,1-16.9,0Z" />
      <ellipse class="light" cx="49.92" cy="117.24" rx="8.45" ry="2.24" />
    </g>
  </g>
  <text transform="translate(30 72.24)">3</text>
</svg>
