<svg xmlns="http://www.w3.org/2000/svg" xmlns:xlink="http://www.w3.org/1999/xlink" viewBox="0 0 1000 700">
  <g class="build">
    <g class="row-1 piece-1 primary piece">
      <polygon class="standard" points="521.5 365.23 590.5 351.23 590.5 401.23 521.5 415.23 521.5 365.23" />
      <polygon class="dark" points="521.5 365.23 495.5 355.23 495.5 405.23 521.5 415.23 521.5 365.23" />
      <polygon class="light" points="495.5 355.23 521.5 365.23 590.5 351.23 564.5 341.23 495.5 355.23" />
      <path class="gradient" d="M513.14,347.08c0,1.9,5.82,3.44,13,3.44s13-1.54,13-3.44v10.56c-14.5,6.62-26,0-26,0Z" />
      <ellipse class="light" cx="526.14" cy="347.08" rx="13" ry="3.44" />
      <path class="gradient" d="M549.08,340.33c0,1.9,5.82,3.44,13,3.44s13-1.54,13-3.44v10.56c-14.5,6.62-26,0-26,0Z" />
      <ellipse class="light" cx="562.08" cy="340.33" rx="13" ry="3.44" />
    </g>
    <g class="row-1 piece-2 primary piece">
      <polygon class="standard" points="382.5 393.23 451.5 379.23 451.5 429.23 382.5 443.23 382.5 393.23" />
      <polygon class="dark" points="382.5 393.23 356.5 383.23 356.5 433.23 382.5 443.23 382.5 393.23" />
      <polygon class="light" points="356.5 383.23 382.5 393.23 451.5 379.23 425.5 369.23 356.5 383.23" />
      <path class="gradient" d="M374.14,375.08c0,1.9,5.82,3.44,13,3.44s13-1.54,13-3.44v10.56c-14.5,6.62-26,0-26,0Z" />
      <ellipse class="light" cx="387.14" cy="375.08" rx="13" ry="3.44" />
      <path class="gradient" d="M410.08,368.33c0,1.9,5.82,3.44,13,3.44s13-1.54,13-3.44v10.56c-14.5,6.62-26,0-26,0Z" />
      <ellipse class="light" cx="423.08" cy="368.33" rx="13" ry="3.44" />
    </g>
    <g class="row-1 piece-3 primary piece">
      <polygon class="standard" points="651 354.37 720 340.37 720 390.37 651 404.37 651 354.37" />
      <polygon class="dark" points="651 354.37 625 344.37 625 394.37 651 404.37 651 354.37" />
      <polygon class="light" points="625 344.37 651 354.37 720 340.37 694 330.37 625 344.37" />
      <path class="gradient" d="M678.58,329.47c0,1.9,5.82,3.44,13,3.44s13-1.54,13-3.44V340c-14.5,6.62-26,0-26,0Z" />
      <ellipse class="light" cx="691.58" cy="329.47" rx="13" ry="3.44" />
      <path class="gradient" d="M642.64,336.22c0,1.9,5.82,3.44,13,3.44s13-1.54,13-3.44v10.56c-14.5,6.62-26,0-26,0Z" />
      <ellipse class="light" cx="655.64" cy="336.22" rx="13" ry="3.44" />
    </g>
    <g class="row-1 piece-4 primary piece">
      <polygon class="standard" points="513 382.37 651 354.37 651 404.37 513 432.37 513 382.37" />
      <polygon class="dark" points="513 382.37 487 372.37 487 422.37 513 432.37 513 382.37" />
      <polygon class="light" points="487 372.37 513 382.37 651 354.37 625 344.37 487 372.37" />
      <path class="gradient" d="M504.64,364.22c0,1.9,5.82,3.44,13,3.44s13-1.54,13-3.44v10.56c-14.5,6.62-26,0-26,0Z" />
      <ellipse class="light" cx="517.64" cy="364.22" rx="13" ry="3.44" />
      <path class="gradient" d="M540.58,357.47c0,1.9,5.82,3.44,13,3.44s13-1.54,13-3.44V368c-14.5,6.62-26,0-26,0Z" />
      <ellipse class="light" cx="553.58" cy="357.47" rx="13" ry="3.44" />
      <path class="gradient" d="M574.64,350.22c0,1.9,5.82,3.44,13,3.44s13-1.54,13-3.44v10.56c-14.5,6.62-26,0-26,0Z" />
      <ellipse class="light" cx="587.64" cy="350.22" rx="13" ry="3.44" />
      <path class="gradient" d="M609.58,343.47c0,1.9,5.82,3.44,13,3.44s13-1.54,13-3.44V354c-14.5,6.62-26,0-26,0Z" />
      <ellipse class="light" cx="622.58" cy="343.47" rx="13" ry="3.44" />
    </g>
    <g class="row-1 piece-5 primary piece">
      <polygon class="standard" points="375 410.37 513 382.37 513 432.37 375 460.37 375 410.37" />
      <polygon class="dark" points="375 410.37 349 400.37 349 450.37 375 460.37 375 410.37" />
      <polygon class="light" points="349 400.37 375 410.37 513 382.37 487 372.37 349 400.37" />
      <path class="gradient" d="M366.64,392.22c0,1.9,5.82,3.44,13,3.44s13-1.54,13-3.44v10.56c-14.5,6.62-26,0-26,0Z" />
      <ellipse class="light" cx="379.64" cy="392.22" rx="13" ry="3.44" />
      <path class="gradient" d="M402.58,385.47c0,1.9,5.82,3.44,13,3.44s13-1.54,13-3.44V396c-14.5,6.62-26,0-26,0Z" />
      <ellipse class="light" cx="415.58" cy="385.47" rx="13" ry="3.44" />
      <path class="gradient" d="M436.64,378.22c0,1.9,5.82,3.44,13,3.44s13-1.54,13-3.44v10.56c-14.5,6.62-26,0-26,0Z" />
      <ellipse class="light" cx="449.64" cy="378.22" rx="13" ry="3.44" />
      <path class="gradient" d="M471.58,371.47c0,1.9,5.82,3.44,13,3.44s13-1.54,13-3.44V382c-14.5,6.62-26,0-26,0Z" />
      <ellipse class="light" cx="484.58" cy="371.47" rx="13" ry="3.44" />
    </g>
    <g class="row-1 piece-6 primary piece">
      <polygon class="standard" points="306 424.37 375 410.37 375 460.37 306 474.37 306 424.37" />
      <polygon class="dark" points="306 424.37 280 414.37 280 464.37 306 474.37 306 424.37" />
      <polygon class="light" points="280 414.37 306 424.37 375 410.37 349 400.37 280 414.37" />
      <path class="gradient" d="M333.58,399.47c0,1.9,5.82,3.44,13,3.44s13-1.54,13-3.44V410c-14.5,6.62-26,0-26,0Z" />
      <ellipse class="light" cx="346.58" cy="399.47" rx="13" ry="3.44" />
      <path class="gradient" d="M297.64,406.22c0,1.9,5.82,3.44,13,3.44s13-1.54,13-3.44v10.56c-14.5,6.62-26,0-26,0Z" />
      <ellipse class="light" cx="310.64" cy="406.22" rx="13" ry="3.44" />
    </g>
    <g class="row-2 piece-1 primary piece">
      <polygon class="standard" points="685.5 297.23 720 290.37 720 340.37 685.5 347.23 685.5 297.23" />
      <polygon class="dark" points="685.5 297.23 659.5 287.23 659.5 337.23 685.5 347.23 685.5 297.23" />
      <polygon class="light" points="659.5 287.23 685.5 297.23 720 290.37 694 280.37 659.5 287.23" />
      <path class="gradient" d="M677.14,279.08c0,1.9,5.82,3.44,13,3.44s13-1.54,13-3.44v10.56c-14.5,6.62-26,0-26,0Z" />
      <ellipse class="light" cx="690.14" cy="279.08" rx="13" ry="3.44" />
    </g>
    <g class="row-2 piece-2 contrast piece">
      <polygon class="standard" points="651 304.09 685.5 297.23 685.5 347.23 651 354.09 651 304.09" />
      <polygon class="dark" points="651 304.09 625 294.09 625 344.09 651 354.09 651 304.09" />
      <polygon class="light" points="625 294.09 651 304.09 685.5 297.23 659.5 287.23 625 294.09" />
      <path class="gradient" d="M642.64,285.94c0,1.9,5.82,3.44,13,3.44s13-1.54,13-3.44V296.5c-14.5,6.62-26,0-26,0Z" />
      <ellipse class="light" cx="655.64" cy="285.94" rx="13" ry="3.44" />
    </g>
    <g class="row-2 piece-3 contrast piece">
      <polygon class="standard" points="582 318.37 651 304.37 651 354.37 582 368.37 582 318.37" />
      <polygon class="dark" points="582 318.37 556 308.37 556 358.37 582 368.37 582 318.37" />
      <polygon class="light" points="556 308.37 582 318.37 651 304.37 625 294.37 556 308.37" />
      <path class="gradient" d="M609.58,293.47c0,1.9,5.82,3.44,13,3.44s13-1.54,13-3.44V304c-14.5,6.62-26,0-26,0Z" />
      <ellipse class="light" cx="622.58" cy="293.47" rx="13" ry="3.44" />
      <path class="gradient" d="M573.64,300.22c0,1.9,5.82,3.44,13,3.44s13-1.54,13-3.44v10.56c-14.5,6.62-26,0-26,0Z" />
      <ellipse class="light" cx="586.64" cy="300.22" rx="13" ry="3.44" />
    </g>
    <g class="row-2 piece-4 primary piece">
      <polygon class="standard" points="547.5 325.23 582 318.37 582 368.37 547.5 375.23 547.5 325.23" />
      <polygon class="dark" points="547.5 325.23 495.5 305.23 495.5 355.23 547.5 375.23 547.5 325.23" />
      <polygon class="light" points="495.5 305.23 547.5 325.23 582 318.37 530 298.37 495.5 305.23" />
      <path class="gradient" d="M513.14,297.08c0,1.9,5.82,3.44,13,3.44s13-1.54,13-3.44v10.56c-14.5,6.62-26,0-26,0Z" />
      <ellipse class="light" cx="526.14" cy="297.08" rx="13" ry="3.44" />
      <path class="gradient" d="M539.14,307.08c0,1.9,5.82,3.44,13,3.44s13-1.54,13-3.44v10.56c-14.5,6.62-26,0-26,0Z" />
      <ellipse class="light" cx="552.14" cy="307.08" rx="13" ry="3.44" />
    </g>
    <g class="row-2 piece-5 contrast piece">
      <polygon class="standard" points="478.5 339.23 547.5 325.23 547.5 375.23 478.5 389.23 478.5 339.23" />
      <polygon class="dark" points="478.5 339.23 452.5 329.23 452.5 379.23 478.5 389.23 478.5 339.23" />
      <polygon class="light" points="452.5 329.23 478.5 339.23 547.5 325.23 521.5 315.23 452.5 329.23" />
      <path class="gradient" d="M470.14,321.08c0,1.9,5.82,3.44,13,3.44s13-1.54,13-3.44v10.56c-14.5,6.62-26,0-26,0Z" />
      <ellipse class="light" cx="483.14" cy="321.08" rx="13" ry="3.44" />
      <path class="gradient" d="M506.08,314.33c0,1.9,5.82,3.44,13,3.44s13-1.54,13-3.44v10.56c-14.5,6.62-26,0-26,0Z" />
      <ellipse class="light" cx="519.08" cy="314.33" rx="13" ry="3.44" />
    </g>
    <g class="row-2 piece-6 contrast piece">
      <polygon class="standard" points="444 346.37 478.5 339.51 478.5 389.51 444 396.37 444 346.37" />
      <polygon class="dark" points="444 346.37 392 326.37 392 376.37 444 396.37 444 346.37" />
      <polygon class="light" points="392 326.37 444 346.37 478.5 339.51 426.5 319.51 392 326.37" />
      <path class="gradient" d="M409.64,318.22c0,1.9,5.82,3.44,13,3.44s13-1.54,13-3.44v10.56c-14.5,6.62-26,0-26,0Z" />
      <ellipse class="light" cx="422.64" cy="318.22" rx="13" ry="3.44" />
      <path class="gradient" d="M435.64,328.22c0,1.9,5.82,3.44,13,3.44s13-1.54,13-3.44v10.56c-14.5,6.62-26,0-26,0Z" />
      <ellipse class="light" cx="448.64" cy="328.22" rx="13" ry="3.44" />
    </g>
    <g class="row-2 piece-7 primary piece">
      <polygon class="standard" points="306 374.37 444 346.37 444 396.37 306 424.37 306 374.37" />
      <polygon class="dark" points="306 374.37 280 364.37 280 414.37 306 424.37 306 374.37" />
      <polygon class="light" points="280 364.37 306 374.37 444 346.37 418 336.37 280 364.37" />
      <path class="gradient" d="M297.64,356.22c0,1.9,5.82,3.44,13,3.44s13-1.54,13-3.44v10.56c-14.5,6.62-26,0-26,0Z" />
      <ellipse class="light" cx="310.64" cy="356.22" rx="13" ry="3.44" />
      <path class="gradient" d="M333.58,349.47c0,1.9,5.82,3.44,13,3.44s13-1.54,13-3.44V360c-14.5,6.62-26,0-26,0Z" />
      <ellipse class="light" cx="346.58" cy="349.47" rx="13" ry="3.44" />
      <path class="gradient" d="M367.64,342.22c0,1.9,5.82,3.44,13,3.44s13-1.54,13-3.44v10.56c-14.5,6.62-26,0-26,0Z" />
      <ellipse class="light" cx="380.64" cy="342.22" rx="13" ry="3.44" />
      <path class="gradient" d="M402.58,335.47c0,1.9,5.82,3.44,13,3.44s13-1.54,13-3.44V346c-14.5,6.62-26,0-26,0Z" />
      <ellipse class="light" cx="415.58" cy="335.47" rx="13" ry="3.44" />
    </g>
    <g class="row-3 piece-1 primary piece">
      <polygon class="standard" points="685.5 247.23 720 240.37 720 290.37 685.5 297.23 685.5 247.23" />
      <polygon class="dark" points="685.5 247.23 659.5 237.23 659.5 287.23 685.5 297.23 685.5 247.23" />
      <polygon class="light" points="659.5 237.23 685.5 247.23 720 240.37 694 230.37 659.5 237.23" />
      <path class="gradient" d="M677.14,229.08c0,1.9,5.82,3.44,13,3.44s13-1.54,13-3.44v10.56c-14.5,6.62-26,0-26,0Z" />
      <ellipse class="light" cx="690.14" cy="229.08" rx="13" ry="3.44" />
    </g>
    <g class="row-3 piece-2 contrast piece">
      <polygon class="standard" points="651 287.42 685.5 280.56 685.5 297.23 651 304.09 651 287.42" />
      <polygon class="dark" points="651 287.42 625 277.42 625 294.09 651 304.09 651 287.42" />
      <polygon class="light" points="625 277.42 651 287.42 685.5 280.56 659.5 270.56 625 277.42" />
      <path class="gradient" d="M642.64,269.27c0,1.9,5.82,3.44,13,3.44s13-1.54,13-3.44v10.56c-14.5,6.62-26,0-26,0Z" />
      <ellipse class="light" cx="655.64" cy="269.27" rx="13" ry="3.44" />
    </g>
    <g class="row-3 piece-3 contrast piece">
      <polygon class="standard" points="651 271.06 685.5 264.2 685.5 280.87 651 287.73 651 271.06" />
      <polygon class="dark" points="651 271.06 625 261.06 625 277.73 651 287.73 651 271.06" />
      <polygon class="light" points="625 261.06 651 271.06 685.5 264.2 659.5 254.2 625 261.06" />
      <path class="gradient" d="M642.64,252.91c0,1.9,5.82,3.45,13,3.45s13-1.55,13-3.45v10.56c-14.5,6.63-26,0-26,0Z" />
      <ellipse class="light" cx="655.64" cy="252.91" rx="13" ry="3.44" />
    </g>
    <g class="row-3 piece-4 primary piece">
      <polygon class="standard" points="582 301.42 651 287.42 651 304.09 582 318.09 582 301.42" />
      <polygon class="dark" points="582 301.42 556 291.42 556 308.09 582 318.09 582 301.42" />
      <polygon class="light" points="556 291.42 582 301.42 651 287.42 625 277.42 556 291.42" />
      <path class="gradient" d="M573.64,283.27c0,1.9,5.82,3.44,13,3.44s13-1.54,13-3.44v10.56c-14.5,6.62-26,0-26,0Z" />
      <ellipse class="light" cx="586.64" cy="283.27" rx="13" ry="3.44" />
      <path class="gradient" d="M609.58,276.52c0,1.9,5.82,3.44,13,3.44s13-1.54,13-3.44v10.56c-14.5,6.62-26,0-26,0Z" />
      <ellipse class="light" cx="622.58" cy="276.52" rx="13" ry="3.44" />
    </g>
    <g class="row-3 piece-5 primary piece">
      <polygon class="standard" points="582 284.76 651 270.76 651 287.42 582 301.42 582 284.76" />
      <polygon class="dark" points="582 284.76 556 274.76 556 291.42 582 301.42 582 284.76" />
      <polygon class="light" points="556 274.76 582 284.76 651 270.76 625 260.76 556 274.76" />
      <path class="gradient" d="M573.64,266.6c0,1.91,5.82,3.45,13,3.45s13-1.54,13-3.45v10.56c-14.5,6.63-26,0-26,0Z" />
      <ellipse class="light" cx="586.64" cy="266.6" rx="13" ry="3.44" />
      <path class="gradient" d="M609.58,259.85c0,1.91,5.82,3.45,13,3.45s13-1.54,13-3.45v10.56c-14.5,6.63-26,0-26,0Z" />
      <ellipse class="light" cx="622.58" cy="259.85" rx="13" ry="3.44" />
    </g>
    <g class="row-3 piece-6 contrast piece">
      <polygon class="standard" points="581 268.09 685.5 246.84 685.5 263.5 581 284.76 581 268.09" />
      <polygon class="dark" points="581 268.09 555 258.09 555 274.76 581 284.76 581 268.09" />
      <polygon class="light" points="555 258.09 581 268.09 685.5 246.84 659.5 236.84 555 258.09" />
      <path class="gradient" d="M608.58,243.19c0,1.9,5.82,3.44,13,3.44s13-1.54,13-3.44v10.56c-14.5,6.62-26,0-26,0Z" />
      <ellipse class="light" cx="621.58" cy="243.19" rx="13" ry="3.44" />
      <path class="gradient" d="M572.64,249.94c0,1.9,5.82,3.44,13,3.44s13-1.54,13-3.44V260.5c-14.5,6.62-26,0-26,0Z" />
      <ellipse class="light" cx="585.64" cy="249.94" rx="13" ry="3.44" />
      <path class="gradient" d="M644.08,235.94c0,1.9,5.82,3.44,13,3.44s13-1.54,13-3.44V246.5c-14.5,6.62-26,0-26,0Z" />
      <ellipse class="light" cx="657.08" cy="235.94" rx="13" ry="3.44" />
    </g>
    <g class="row-3 piece-7 primary piece">
      <polygon class="standard" points="547.5 275.23 582 268.37 582 318.37 547.5 325.23 547.5 275.23" />
      <polygon class="dark" points="547.5 275.23 521.5 265.23 521.5 315.23 547.5 325.23 547.5 275.23" />
      <polygon class="light" points="521.5 265.23 547.5 275.23 582 268.37 556 258.37 521.5 265.23" />
      <path class="gradient" d="M539.14,257.08c0,1.9,5.82,3.44,13,3.44s13-1.54,13-3.44v10.56c-14.5,6.62-26,0-26,0Z" />
      <ellipse class="light" cx="552.14" cy="257.08" rx="13" ry="3.44" />
    </g>
    <g class="row-3 piece-8 contrast piece">
      <polygon class="standard" points="513 282.09 547.5 275.23 547.5 325.23 513 332.09 513 282.09" />
      <polygon class="dark" points="513 282.09 487 272.09 487 322.09 513 332.09 513 282.09" />
      <polygon class="light" points="487 272.09 513 282.09 547.5 275.23 521.5 265.23 487 272.09" />
      <path class="gradient" d="M504.64,263.94c0,1.9,5.82,3.44,13,3.44s13-1.54,13-3.44V274.5c-14.5,6.62-26,0-26,0Z" />
      <ellipse class="light" cx="517.64" cy="263.94" rx="13" ry="3.44" />
    </g>
    <g class="row-3 piece-9 primary piece">
      <polygon class="standard" points="478.5 288.95 513 282.09 513 332.09 478.5 338.95 478.5 288.95" />
      <polygon class="dark" points="478.5 288.95 452.5 278.95 452.5 328.95 478.5 338.95 478.5 288.95" />
      <polygon class="light" points="452.5 278.95 478.5 288.95 513 282.09 487 272.09 452.5 278.95" />
      <path class="gradient" d="M470.14,270.8c0,1.9,5.82,3.44,13,3.44s13-1.54,13-3.44v10.56c-14.5,6.62-26,0-26,0Z" />
      <ellipse class="light" cx="483.14" cy="270.8" rx="13" ry="3.44" />
    </g>
    <g class="row-3 piece-10 contrast piece">
      <polygon class="standard" points="444 329.37 478.5 322.51 478.5 339.17 444 346.03 444 329.37" />
      <polygon class="dark" points="444 329.37 418 319.37 418 336.03 444 346.03 444 329.37" />
      <polygon class="light" points="418 319.37 444 329.37 478.5 322.51 452.5 312.51 418 319.37" />
      <path class="gradient" d="M435.64,311.22c0,1.9,5.82,3.44,13,3.44s13-1.54,13-3.44v10.56c-14.5,6.62-26,0-26,0Z" />
      <ellipse class="light" cx="448.64" cy="311.22" rx="13" ry="3.44" />
    </g>
    <g class="row-3 piece-11 primary piece">
      <polygon class="standard" points="444 312.48 478.5 305.62 478.5 322.28 444 329.14 444 312.48" />
      <polygon class="dark" points="444 312.48 418 302.48 418 319.14 444 329.14 444 312.48" />
      <polygon class="light" points="418 302.48 444 312.48 478.5 305.62 452.5 295.62 418 302.48" />
      <path class="gradient" d="M435.64,294.32c0,1.91,5.82,3.45,13,3.45s13-1.54,13-3.45v10.56c-14.5,6.63-26,0-26,0Z" />
      <ellipse class="light" cx="448.64" cy="294.32" rx="13" ry="3.44" />
    </g>
    <g class="row-3 piece-12 primary piece">
      <polygon class="standard" points="444 296.12 478.5 289.26 478.5 305.92 444 312.78 444 296.12" />
      <polygon class="dark" points="444 296.12 418 286.12 418 302.78 444 312.78 444 296.12" />
      <polygon class="light" points="418 286.12 444 296.12 478.5 289.26 452.5 279.26 418 286.12" />
      <path class="gradient" d="M435.64,278c0,1.9,5.82,3.44,13,3.44s13-1.54,13-3.44v10.56c-14.5,6.62-26,0-26,0Z" />
      <ellipse class="light" cx="448.64" cy="277.97" rx="13" ry="3.44" />
    </g>
    <g class="row-3 piece-13 primary piece">
      <polygon class="standard" points="306 324.37 444 296.37 444 346.37 306 374.37 306 324.37" />
      <polygon class="dark" points="306 324.37 280 314.37 280 364.37 306 374.37 306 324.37" />
      <polygon class="light" points="280 314.37 306 324.37 444 296.37 418 286.37 280 314.37" />
      <path class="gradient" d="M297.64,306.22c0,1.9,5.82,3.44,13,3.44s13-1.54,13-3.44v10.56c-14.5,6.62-26,0-26,0Z" />
      <ellipse class="light" cx="310.64" cy="306.22" rx="13" ry="3.44" />
      <path class="gradient" d="M333.58,299.47c0,1.9,5.82,3.44,13,3.44s13-1.54,13-3.44V310c-14.5,6.62-26,0-26,0Z" />
      <ellipse class="light" cx="346.58" cy="299.47" rx="13" ry="3.44" />
      <path class="gradient" d="M367.64,292.22c0,1.9,5.82,3.44,13,3.44s13-1.54,13-3.44v10.56c-14.5,6.62-26,0-26,0Z" />
      <ellipse class="light" cx="380.64" cy="292.22" rx="13" ry="3.44" />
      <path class="gradient" d="M402.58,285.47c0,1.9,5.82,3.44,13,3.44s13-1.54,13-3.44V296c-14.5,6.62-26,0-26,0Z" />
      <ellipse class="light" cx="415.58" cy="285.47" rx="13" ry="3.44" />
    </g>
  </g>
  <g class="list">
    <rect class="background" x="10" y="100" width="145" height="289.5" />
    <text transform="translate(30 370.48)">1x</text>
    <g class="piece primary">
      <polygon class="standard" points="46.9 314.52 136.6 296.32 136.6 328.82 46.9 347.02 46.9 314.52" />
      <polygon class="dark" points="46.9 314.52 30 308.02 30 340.52 46.9 347.02 46.9 314.52" />
      <polygon class="light" points="30 308.02 46.9 314.52 136.6 296.32 119.7 289.82 30 308.02" />
      <path class="gradient" d="M41.47,302.73c0,1.23,3.78,2.23,8.45,2.23s8.45-1,8.45-2.23v6.86a19.35,19.35,0,0,1-16.9,0Z" />
      <ellipse class="light" cx="49.92" cy="302.73" rx="8.45" ry="2.24" />
      <path class="gradient" d="M64.83,298.34c0,1.24,3.78,2.24,8.45,2.24s8.45-1,8.45-2.24v6.86a19.35,19.35,0,0,1-16.9,0Z" />
      <ellipse class="light" cx="73.28" cy="298.34" rx="8.45" ry="2.24" />
      <path class="gradient" d="M87,293.63c0,1.23,3.78,2.23,8.45,2.23s8.45-1,8.45-2.23v6.86a19.35,19.35,0,0,1-16.9,0Z" />
      <ellipse class="light" cx="95.42" cy="293.63" rx="8.45" ry="2.24" />
      <path class="gradient" d="M109.68,289.24c0,1.24,3.78,2.24,8.45,2.24s8.45-1,8.45-2.24v6.86a19.35,19.35,0,0,1-16.9,0Z" />
      <ellipse class="light" cx="118.13" cy="289.24" rx="8.45" ry="2.24" />
    </g>
    <text transform="translate(30 275.48)">1x</text>
    <g class="piece contrast">
      <polygon class="standard" points="46.81 219.06 69.2 214.4 69.5 246.89 47.12 251.56 46.81 219.06" />
      <polygon class="dark" points="46.81 219.06 29.85 212.72 30.16 245.22 47.12 251.56 46.81 219.06" />
      <polygon class="light" points="29.85 212.72 46.81 219.06 69.2 214.4 52.24 208.05 29.85 212.72" />
      <path class="gradient" d="M41.27,207.32c0,1.23,3.81,2.2,8.47,2.16s8.44-1.09,8.43-2.32l.07,6.86a19.35,19.35,0,0,1-16.9.16Z" />
      <ellipse class="light" cx="49.72" cy="207.24" rx="8.45" ry="2.24" transform="translate(-1.93 0.47) rotate(-0.53)" />
    </g>
    <text transform="translate(30 184.48)">3x</text>
    <g class="piece primary">
      <polygon class="standard" points="46.9 129.04 69.33 124.58 69.33 157.08 46.9 161.54 46.9 129.04" />
      <polygon class="dark" points="46.9 129.04 30 122.54 30 155.04 46.9 161.54 46.9 129.04" />
      <polygon class="light" points="30 122.54 46.9 129.04 69.33 124.58 52.42 118.08 30 122.54" />
      <path class="gradient" d="M41.47,117.24c0,1.24,3.78,2.24,8.45,2.24s8.45-1,8.45-2.24v6.86a19.35,19.35,0,0,1-16.9,0Z" />
      <ellipse class="light" cx="49.92" cy="117.24" rx="8.45" ry="2.24" />
    </g>
  </g>
  <text transform="translate(30 72.24)">6</text>
</svg>
