<svg xmlns="http://www.w3.org/2000/svg" xmlns:xlink="http://www.w3.org/1999/xlink" viewBox="0 0 1000 700">
  <g class="build">
    <g class="row-1 piece-1 primary piece">
      <polygon class="standard" points="521.5 442.95 590.5 428.95 590.5 478.95 521.5 492.95 521.5 442.95" />
      <polygon class="dark" points="521.5 442.95 495.5 432.95 495.5 482.95 521.5 492.95 521.5 442.95" />
      <polygon class="light" points="495.5 432.95 521.5 442.95 590.5 428.95 564.5 418.95 495.5 432.95" />
      <path class="gradient" d="M513.14,424.79c0,1.91,5.82,3.45,13,3.45s13-1.54,13-3.45v10.56c-14.5,6.63-26,0-26,0Z" />
      <ellipse class="light" cx="526.14" cy="424.79" rx="13" ry="3.44" />
      <path class="gradient" d="M549.08,418c0,1.91,5.82,3.45,13,3.45s13-1.54,13-3.45V428.6c-14.5,6.63-26,0-26,0Z" />
      <ellipse class="light" cx="562.08" cy="418.04" rx="13" ry="3.44" />
    </g>
    <g class="row-1 piece-2 primary piece">
      <polygon class="standard" points="382.5 470.95 451.5 456.95 451.5 506.95 382.5 520.95 382.5 470.95" />
      <polygon class="dark" points="382.5 470.95 356.5 460.95 356.5 510.95 382.5 520.95 382.5 470.95" />
      <polygon class="light" points="356.5 460.95 382.5 470.95 451.5 456.95 425.5 446.95 356.5 460.95" />
      <path class="gradient" d="M374.14,452.79c0,1.91,5.82,3.45,13,3.45s13-1.54,13-3.45v10.56c-14.5,6.63-26,0-26,0Z" />
      <ellipse class="light" cx="387.14" cy="452.79" rx="13" ry="3.44" />
      <path class="gradient" d="M410.08,446c0,1.91,5.82,3.45,13,3.45s13-1.54,13-3.45V456.6c-14.5,6.63-26,0-26,0Z" />
      <ellipse class="light" cx="423.08" cy="446.04" rx="13" ry="3.44" />
    </g>
    <g class="row-1 piece-3 primary piece">
      <polygon class="standard" points="651 432.09 720 418.09 720 468.09 651 482.09 651 432.09" />
      <polygon class="dark" points="651 432.09 625 422.09 625 472.09 651 482.09 651 432.09" />
      <polygon class="light" points="625 422.09 651 432.09 720 418.09 694 408.09 625 422.09" />
      <path class="gradient" d="M678.58,407.18c0,1.91,5.82,3.45,13,3.45s13-1.54,13-3.45v10.56c-14.5,6.63-26,0-26,0Z" />
      <ellipse class="light" cx="691.58" cy="407.18" rx="13" ry="3.44" />
      <path class="gradient" d="M642.64,413.93c0,1.91,5.82,3.45,13,3.45s13-1.54,13-3.45v10.56c-14.5,6.63-26,0-26,0Z" />
      <ellipse class="light" cx="655.64" cy="413.93" rx="13" ry="3.44" />
    </g>
    <g class="row-1 piece-4 primary piece">
      <polygon class="standard" points="513 460.09 651 432.09 651 482.09 513 510.09 513 460.09" />
      <polygon class="dark" points="513 460.09 487 450.09 487 500.09 513 510.09 513 460.09" />
      <polygon class="light" points="487 450.09 513 460.09 651 432.09 625 422.09 487 450.09" />
      <path class="gradient" d="M504.64,441.93c0,1.91,5.82,3.45,13,3.45s13-1.54,13-3.45v10.56c-14.5,6.63-26,0-26,0Z" />
      <ellipse class="light" cx="517.64" cy="441.93" rx="13" ry="3.44" />
      <path class="gradient" d="M540.58,435.18c0,1.91,5.82,3.45,13,3.45s13-1.54,13-3.45v10.56c-14.5,6.63-26,0-26,0Z" />
      <ellipse class="light" cx="553.58" cy="435.18" rx="13" ry="3.44" />
      <path class="gradient" d="M574.64,427.93c0,1.91,5.82,3.45,13,3.45s13-1.54,13-3.45v10.56c-14.5,6.63-26,0-26,0Z" />
      <ellipse class="light" cx="587.64" cy="427.93" rx="13" ry="3.44" />
      <path class="gradient" d="M609.58,421.18c0,1.91,5.82,3.45,13,3.45s13-1.54,13-3.45v10.56c-14.5,6.63-26,0-26,0Z" />
      <ellipse class="light" cx="622.58" cy="421.18" rx="13" ry="3.44" />
    </g>
    <g class="row-1 piece-5 primary piece">
      <polygon class="standard" points="375 488.09 513 460.09 513 510.09 375 538.09 375 488.09" />
      <polygon class="dark" points="375 488.09 349 478.09 349 528.09 375 538.09 375 488.09" />
      <polygon class="light" points="349 478.09 375 488.09 513 460.09 487 450.09 349 478.09" />
      <path class="gradient" d="M366.64,469.93c0,1.91,5.82,3.45,13,3.45s13-1.54,13-3.45v10.56c-14.5,6.63-26,0-26,0Z" />
      <ellipse class="light" cx="379.64" cy="469.93" rx="13" ry="3.44" />
      <path class="gradient" d="M402.58,463.18c0,1.91,5.82,3.45,13,3.45s13-1.54,13-3.45v10.56c-14.5,6.63-26,0-26,0Z" />
      <ellipse class="light" cx="415.58" cy="463.18" rx="13" ry="3.44" />
      <path class="gradient" d="M436.64,455.93c0,1.91,5.82,3.45,13,3.45s13-1.54,13-3.45v10.56c-14.5,6.63-26,0-26,0Z" />
      <ellipse class="light" cx="449.64" cy="455.93" rx="13" ry="3.44" />
      <path class="gradient" d="M471.58,449.18c0,1.91,5.82,3.45,13,3.45s13-1.54,13-3.45v10.56c-14.5,6.63-26,0-26,0Z" />
      <ellipse class="light" cx="484.58" cy="449.18" rx="13" ry="3.44" />
    </g>
    <g class="row-1 piece-6 primary piece">
      <polygon class="standard" points="306 502.09 375 488.09 375 538.09 306 552.09 306 502.09" />
      <polygon class="dark" points="306 502.09 280 492.09 280 542.09 306 552.09 306 502.09" />
      <polygon class="light" points="280 492.09 306 502.09 375 488.09 349 478.09 280 492.09" />
      <path class="gradient" d="M333.58,477.18c0,1.91,5.82,3.45,13,3.45s13-1.54,13-3.45v10.56c-14.5,6.63-26,0-26,0Z" />
      <ellipse class="light" cx="346.58" cy="477.18" rx="13" ry="3.44" />
      <path class="gradient" d="M297.64,483.93c0,1.91,5.82,3.45,13,3.45s13-1.54,13-3.45v10.56c-14.5,6.63-26,0-26,0Z" />
      <ellipse class="light" cx="310.64" cy="483.93" rx="13" ry="3.44" />
    </g>
    <g class="row-2 piece-1 primary piece">
      <polygon class="standard" points="685.5 374.95 720 368.09 720 418.09 685.5 424.95 685.5 374.95" />
      <polygon class="dark" points="685.5 374.95 659.5 364.95 659.5 414.95 685.5 424.95 685.5 374.95" />
      <polygon class="light" points="659.5 364.95 685.5 374.95 720 368.09 694 358.09 659.5 364.95" />
      <path class="gradient" d="M677.14,356.79c0,1.91,5.82,3.45,13,3.45s13-1.54,13-3.45v10.56c-14.5,6.63-26,0-26,0Z" />
      <ellipse class="light" cx="690.14" cy="356.79" rx="13" ry="3.44" />
    </g>
    <g class="row-2 piece-2 contrast piece">
      <polygon class="standard" points="651 381.81 685.5 374.95 685.5 424.95 651 431.81 651 381.81" />
      <polygon class="dark" points="651 381.81 625 371.81 625 421.81 651 431.81 651 381.81" />
      <polygon class="light" points="625 371.81 651 381.81 685.5 374.95 659.5 364.95 625 371.81" />
      <path class="gradient" d="M642.64,363.65c0,1.91,5.82,3.45,13,3.45s13-1.54,13-3.45v10.56c-14.5,6.63-26,0-26,0Z" />
      <ellipse class="light" cx="655.64" cy="363.65" rx="13" ry="3.44" />
    </g>
    <g class="row-2 piece-3 contrast piece">
      <polygon class="standard" points="582 396.09 651 382.09 651 432.09 582 446.09 582 396.09" />
      <polygon class="dark" points="582 396.09 556 386.09 556 436.09 582 446.09 582 396.09" />
      <polygon class="light" points="556 386.09 582 396.09 651 382.09 625 372.09 556 386.09" />
      <path class="gradient" d="M609.58,371.18c0,1.91,5.82,3.45,13,3.45s13-1.54,13-3.45v10.56c-14.5,6.63-26,0-26,0Z" />
      <ellipse class="light" cx="622.58" cy="371.18" rx="13" ry="3.44" />
      <path class="gradient" d="M573.64,377.93c0,1.91,5.82,3.45,13,3.45s13-1.54,13-3.45v10.56c-14.5,6.63-26,0-26,0Z" />
      <ellipse class="light" cx="586.64" cy="377.93" rx="13" ry="3.44" />
    </g>
    <g class="row-2 piece-4 primary piece">
      <polygon class="standard" points="547.5 402.95 582 396.09 582 446.09 547.5 452.95 547.5 402.95" />
      <polygon class="dark" points="547.5 402.95 495.5 382.95 495.5 432.95 547.5 452.95 547.5 402.95" />
      <polygon class="light" points="495.5 382.95 547.5 402.95 582 396.09 530 376.09 495.5 382.95" />
      <path class="gradient" d="M513.14,374.79c0,1.91,5.82,3.45,13,3.45s13-1.54,13-3.45v10.56c-14.5,6.63-26,0-26,0Z" />
      <ellipse class="light" cx="526.14" cy="374.79" rx="13" ry="3.44" />
    </g>
    <g class="row-2 piece-5 primary piece">
      <polygon class="standard" points="478.5 416.95 547.5 402.95 547.5 452.95 478.5 466.95 478.5 416.95" />
      <polygon class="dark" points="478.5 416.95 452.5 406.95 452.5 456.95 478.5 466.95 478.5 416.95" />
      <polygon class="light" points="452.5 406.95 478.5 416.95 547.5 402.95 521.5 392.95 452.5 406.95" />
      <path class="gradient" d="M470.14,398.79c0,1.91,5.82,3.45,13,3.45s13-1.54,13-3.45v10.56c-14.5,6.63-26,0-26,0Z" />
      <ellipse class="light" cx="483.14" cy="398.79" rx="13" ry="3.44" />
      <path class="gradient" d="M506.08,392c0,1.91,5.82,3.45,13,3.45s13-1.54,13-3.45V402.6c-14.5,6.63-26,0-26,0Z" />
      <ellipse class="light" cx="519.08" cy="392.04" rx="13" ry="3.44" />
    </g>
    <g class="row-2 piece-6 primary piece">
      <polygon class="standard" points="444 424.09 478.5 417.23 478.5 467.23 444 474.09 444 424.09" />
      <polygon class="dark" points="444 424.09 392 404.09 392 454.09 444 474.09 444 424.09" />
      <polygon class="light" points="392 404.09 444 424.09 478.5 417.23 426.5 397.23 392 404.09" />
      <path class="gradient" d="M409.64,395.93c0,1.91,5.82,3.45,13,3.45s13-1.54,13-3.45v10.56c-14.5,6.63-26,0-26,0Z" />
      <ellipse class="light" cx="422.64" cy="395.93" rx="13" ry="3.44" />
      <path class="gradient" d="M435.64,405.93c0,1.91,5.82,3.45,13,3.45s13-1.54,13-3.45v10.56c-14.5,6.63-26,0-26,0Z" />
      <ellipse class="light" cx="448.64" cy="405.93" rx="13" ry="3.44" />
    </g>
    <g class="row-2 piece-7 primary piece">
      <polygon class="standard" points="306 452.09 444 424.09 444 474.09 306 502.09 306 452.09" />
      <polygon class="dark" points="306 452.09 280 442.09 280 492.09 306 502.09 306 452.09" />
      <polygon class="light" points="280 442.09 306 452.09 444 424.09 418 414.09 280 442.09" />
      <path class="gradient" d="M297.64,433.93c0,1.91,5.82,3.45,13,3.45s13-1.54,13-3.45v10.56c-14.5,6.63-26,0-26,0Z" />
      <ellipse class="light" cx="310.64" cy="433.93" rx="13" ry="3.44" />
      <path class="gradient" d="M333.58,427.18c0,1.91,5.82,3.45,13,3.45s13-1.54,13-3.45v10.56c-14.5,6.63-26,0-26,0Z" />
      <ellipse class="light" cx="346.58" cy="427.18" rx="13" ry="3.44" />
      <path class="gradient" d="M367.64,419.93c0,1.91,5.82,3.45,13,3.45s13-1.54,13-3.45v10.56c-14.5,6.63-26,0-26,0Z" />
      <ellipse class="light" cx="380.64" cy="419.93" rx="13" ry="3.44" />
    </g>
    <g class="row-3 piece-2 contrast piece">
      <polygon class="standard" points="651 365.14 685.5 358.28 685.5 374.95 651 381.81 651 365.14" />
      <polygon class="dark" points="651 365.14 625 355.14 625 371.81 651 381.81 651 365.14" />
      <polygon class="light" points="625 355.14 651 365.14 685.5 358.28 659.5 348.28 625 355.14" />
      <path class="gradient" d="M642.64,347c0,1.9,5.82,3.44,13,3.44s13-1.54,13-3.44v10.56c-14.5,6.62-26,0-26,0Z" />
      <ellipse class="light" cx="655.64" cy="346.99" rx="13" ry="3.44" />
    </g>
    <g class="row-3 piece-3 contrast piece">
      <polygon class="standard" points="651 348.78 685.5 341.92 685.5 358.59 651 365.45 651 348.78" />
      <polygon class="dark" points="651 348.78 625 338.78 625 355.45 651 365.45 651 348.78" />
      <polygon class="light" points="625 338.78 651 348.78 685.5 341.92 659.5 331.92 625 338.78" />
      <path class="gradient" d="M642.64,330.63c0,1.9,5.82,3.44,13,3.44s13-1.54,13-3.44v10.56c-14.5,6.62-26,0-26,0Z" />
      <ellipse class="light" cx="655.64" cy="330.63" rx="13" ry="3.44" />
    </g>
    <g class="row-3 piece-4 primary piece">
      <polygon class="standard" points="582 379.14 651 365.14 651 381.81 582 395.81 582 379.14" />
      <polygon class="dark" points="582 379.14 556 369.14 556 385.81 582 395.81 582 379.14" />
      <polygon class="light" points="556 369.14 582 379.14 651 365.14 625 355.14 556 369.14" />
      <path class="gradient" d="M573.64,361c0,1.9,5.82,3.44,13,3.44s13-1.54,13-3.44v10.56c-14.5,6.62-26,0-26,0Z" />
      <ellipse class="light" cx="586.64" cy="360.99" rx="13" ry="3.44" />
      <path class="gradient" d="M609.58,354.24c0,1.9,5.82,3.44,13,3.44s13-1.54,13-3.44V364.8c-14.5,6.62-26,0-26,0Z" />
      <ellipse class="light" cx="622.58" cy="354.24" rx="13" ry="3.44" />
    </g>
    <g class="row-3 piece-5 primary piece">
      <polygon class="standard" points="582 362.47 651 348.47 651 365.14 582 379.14 582 362.47" />
      <polygon class="dark" points="582 362.47 556 352.47 556 369.14 582 379.14 582 362.47" />
      <polygon class="light" points="556 352.47 582 362.47 651 348.47 625 338.47 556 352.47" />
      <path class="gradient" d="M573.64,344.32c0,1.9,5.82,3.45,13,3.45s13-1.55,13-3.45v10.56c-14.5,6.63-26,0-26,0Z" />
      <ellipse class="light" cx="586.64" cy="344.32" rx="13" ry="3.44" />
      <path class="gradient" d="M609.58,337.57c0,1.9,5.82,3.45,13,3.45s13-1.55,13-3.45v10.56c-14.5,6.63-26,0-26,0Z" />
      <ellipse class="light" cx="622.58" cy="337.57" rx="13" ry="3.44" />
    </g>
    <g class="row-3 piece-6 contrast piece">
      <polygon class="standard" points="581 345.81 685.5 324.56 685.5 341.22 581 362.47 581 345.81" />
      <polygon class="dark" points="581 345.81 555 335.81 555 352.47 581 362.47 581 345.81" />
      <polygon class="light" points="555 335.81 581 345.81 685.5 324.56 659.5 314.56 555 335.81" />
      <path class="gradient" d="M608.58,320.91c0,1.9,5.82,3.44,13,3.44s13-1.54,13-3.44v10.56c-14.5,6.62-26,0-26,0Z" />
      <ellipse class="light" cx="621.58" cy="320.91" rx="13" ry="3.44" />
      <path class="gradient" d="M572.64,327.66c0,1.9,5.82,3.44,13,3.44s13-1.54,13-3.44v10.56c-14.5,6.62-26,0-26,0Z" />
      <ellipse class="light" cx="585.64" cy="327.66" rx="13" ry="3.44" />
      <path class="gradient" d="M644.08,313.65c0,1.91,5.82,3.45,13,3.45s13-1.54,13-3.45v10.56c-14.5,6.63-26,0-26,0Z" />
      <ellipse class="light" cx="657.08" cy="313.65" rx="13" ry="3.44" />
    </g>
    <g class="row-2 piece-4 top primary piece">
      <path class="gradient" d="M539.14,384.79c0,1.91,5.82,3.45,13,3.45s13-1.54,13-3.45v10.56c-14.5,6.63-26,0-26,0Z" />
      <ellipse class="light" cx="552.14" cy="384.79" rx="13" ry="3.44" />
    </g>
    <g class="row-3 piece-10 contrast piece">
      <polygon class="standard" points="444 407.09 478.5 400.23 478.5 416.89 444 423.75 444 407.09" />
      <polygon class="dark" points="444 407.09 418 397.09 418 413.75 444 423.75 444 407.09" />
      <polygon class="light" points="418 397.09 444 407.09 478.5 400.23 452.5 390.23 418 397.09" />
      <path class="gradient" d="M435.64,388.93c0,1.91,5.82,3.45,13,3.45s13-1.54,13-3.45v10.56c-14.5,6.63-26,0-26,0Z" />
      <ellipse class="light" cx="448.64" cy="388.93" rx="13" ry="3.44" />
    </g>
    <g class="row-3 piece-11 primary piece">
      <polygon class="standard" points="444 390.19 478.5 383.33 478.5 400 444 406.86 444 390.19" />
      <polygon class="dark" points="444 390.19 418 380.19 418 396.86 444 406.86 444 390.19" />
      <polygon class="light" points="418 380.19 444 390.19 478.5 383.33 452.5 373.33 418 380.19" />
      <path class="gradient" d="M435.64,372c0,1.9,5.82,3.45,13,3.45s13-1.55,13-3.45V382.6c-14.5,6.63-26,0-26,0Z" />
      <ellipse class="light" cx="448.64" cy="372.04" rx="13" ry="3.44" />
    </g>
    <g class="row-3 piece-12 primary piece">
      <polygon class="standard" points="444 373.84 478.5 366.98 478.5 383.64 444 390.5 444 373.84" />
      <polygon class="dark" points="444 373.84 418 363.84 418 380.5 444 390.5 444 373.84" />
      <polygon class="light" points="418 363.84 444 373.84 478.5 366.98 452.5 356.98 418 363.84" />
      <path class="gradient" d="M435.64,355.68c0,1.91,5.82,3.45,13,3.45s13-1.54,13-3.45v10.56c-14.5,6.63-26,0-26,0Z" />
      <ellipse class="light" cx="448.64" cy="355.68" rx="13" ry="3.44" />
    </g>
    <g class="row-2 piece-7 top primary piece">
      <path class="gradient" d="M402.58,413.18c0,1.91,5.82,3.45,13,3.45s13-1.54,13-3.45v10.56c-14.5,6.63-26,0-26,0Z" />
      <ellipse class="light" cx="415.58" cy="413.18" rx="13" ry="3.44" />
    </g>
    <g class="meta">
      <rect class="background" x="225" y="147.91" width="449.5" height="121.5" />
      <g class="instruction">
        <g class="piece contrast">
          <polygon class="standard" points="314.5 227.76 349 220.9 349 237.57 314.5 244.43 314.5 227.76" />
          <polygon class="dark" points="314.5 227.76 288.5 217.76 288.5 234.43 314.5 244.43 314.5 227.76" />
          <polygon class="light" points="288.5 217.76 314.5 227.76 349 220.9 323 210.9 288.5 217.76" />
          <path class="gradient" d="M306.14,209.61c0,1.9,5.82,3.44,13,3.44s13-1.54,13-3.44v10.56c-14.5,6.62-26,0-26,0Z" />
          <ellipse class="light" cx="319.14" cy="209.61" rx="13" ry="3.44" />
        </g>
        <text transform="translate(247.62 204.59)">1</text>
      </g>
      <g class="instruction">
        <g class="piece contrast">
          <polygon class="standard" points="455.88 227.76 490.38 220.9 490.38 237.57 455.88 244.43 455.88 227.76" />
          <polygon class="dark" points="455.88 227.76 429.88 217.76 429.88 234.43 455.88 244.43 455.88 227.76" />
          <polygon class="light" points="429.88 217.76 455.88 227.76 490.38 220.9 464.38 210.9 429.88 217.76" />
          <path class="gradient" d="M447.52,209.61c0,1.9,5.82,3.44,13,3.44s13-1.54,13-3.44v10.56c-14.5,6.62-26,0-26,0Z" />
          <ellipse class="light" cx="460.52" cy="209.61" rx="13" ry="3.44" />
        </g>
        <g class="piece primary">
          <polygon class="standard" points="455.88 210.87 490.38 204.01 490.38 220.67 455.88 227.53 455.88 210.87" />
          <polygon class="dark" points="455.88 210.87 429.88 200.87 429.88 217.53 455.88 227.53 455.88 210.87" />
          <polygon class="light" points="429.88 200.87 455.88 210.87 490.38 204.01 464.38 194.01 429.88 200.87" />
          <path class="gradient" d="M447.52,192.72c0,1.9,5.82,3.44,13,3.44s13-1.54,13-3.44v10.55c-14.5,6.63-26,0-26,0Z" />
          <ellipse class="light" cx="460.52" cy="192.72" rx="13" ry="3.44" />
        </g>
        <text transform="translate(389 204.59)">2</text>
      </g>
      <g class="instruction">
        <g class="piece contrast">
          <polygon class="standard" points="607.88 227.76 642.38 220.9 642.38 237.57 607.88 244.43 607.88 227.76" />
          <polygon class="dark" points="607.88 227.76 581.88 217.76 581.88 234.43 607.88 244.43 607.88 227.76" />
          <polygon class="light" points="581.88 217.76 607.88 227.76 642.38 220.9 616.38 210.9 581.88 217.76" />
          <path class="gradient" d="M599.52,209.61c0,1.9,5.82,3.44,13,3.44s13-1.54,13-3.44v10.56c-14.5,6.62-26,0-26,0Z" />
          <ellipse class="light" cx="612.52" cy="209.61" rx="13" ry="3.44" />
        </g>
        <g class="piece primary">
          <polygon class="standard" points="607.88 210.87 642.38 204.01 642.38 220.67 607.88 227.53 607.88 210.87" />
          <polygon class="dark" points="607.88 210.87 581.88 200.87 581.88 217.53 607.88 227.53 607.88 210.87" />
          <polygon class="light" points="581.88 200.87 607.88 210.87 642.38 204.01 616.38 194.01 581.88 200.87" />
          <path class="gradient" d="M599.52,192.72c0,1.9,5.82,3.44,13,3.44s13-1.54,13-3.44v10.55c-14.5,6.63-26,0-26,0Z" />
          <ellipse class="light" cx="612.52" cy="192.72" rx="13" ry="3.44" />
        </g>
        <g class="piece primary">
          <polygon class="standard" points="607.88 194.51 642.38 187.65 642.38 204.32 607.88 211.18 607.88 194.51" />
          <polygon class="dark" points="607.88 194.51 581.88 184.51 581.88 201.18 607.88 211.18 607.88 194.51" />
          <polygon class="light" points="581.88 184.51 607.88 194.51 642.38 187.65 616.38 177.65 581.88 184.51" />
          <path class="gradient" d="M599.52,176.36c0,1.9,5.82,3.44,13,3.44s13-1.54,13-3.44v10.56c-14.5,6.62-26,0-26,0Z" />
          <ellipse class="light" cx="612.52" cy="176.36" rx="13" ry="3.44" />
        </g>
        <text transform="translate(541 204.59)">3</text>
      </g>
      <polygon class="arrow" points="448.25 333.74 448.25 269 447.75 269 447.75 333.74 443.64 333.74 448 350 452.36 333.74 448.25 333.74" />
    </g>
  </g>
  <g class="list">
    <rect class="background" x="10" y="100" width="76.5" height="148.5" />
    <text transform="translate(30 233.48)">2x</text>
    <g class="piece primary">
      <polygon class="standard" points="46.9 199.04 69.33 194.58 69.33 205.41 46.9 209.87 46.9 199.04" />
      <polygon class="dark" points="46.9 199.04 30 192.54 30 203.37 46.9 209.87 46.9 199.04" />
      <polygon class="light" points="30 192.54 46.9 199.04 69.33 194.58 52.42 188.08 30 192.54" />
      <path class="gradient" d="M41.47,187.24c0,1.24,3.78,2.24,8.45,2.24s8.45-1,8.45-2.24v6.86a19.35,19.35,0,0,1-16.9,0Z" />
      <ellipse class="light" cx="49.92" cy="187.24" rx="8.45" ry="2.24" />
    </g>
    <text transform="translate(30 163.48)">1x</text>
    <g class="piece contrast">
      <polygon class="standard" points="46.9 129.04 69.33 124.58 69.33 135.41 46.9 139.87 46.9 129.04" />
      <polygon class="dark" points="46.9 129.04 30 122.54 30 133.37 46.9 139.87 46.9 129.04" />
      <polygon class="light" points="30 122.54 46.9 129.04 69.33 124.58 52.42 118.08 30 122.54" />
      <path class="gradient" d="M41.47,117.24c0,1.24,3.78,2.24,8.45,2.24s8.45-1,8.45-2.24v6.86a19.35,19.35,0,0,1-16.9,0Z" />
      <ellipse class="light" cx="49.92" cy="117.24" rx="8.45" ry="2.24" />
    </g>
  </g>
  <text transform="translate(30 72.24)">5</text>
</svg>
