<svg xmlns="http://www.w3.org/2000/svg" xmlns:xlink="http://www.w3.org/1999/xlink" viewBox="0 0 1000 700">
  <g class="build">
    <g class="row-1 piece-1 primary piece">
      <polygon class="standard" points="521.5 495.45 590.5 481.45 590.5 531.45 521.5 545.45 521.5 495.45" />
      <polygon class="dark" points="521.5 495.45 495.5 485.45 495.5 535.45 521.5 545.45 521.5 495.45" />
      <polygon class="light" points="495.5 485.45 521.5 495.45 590.5 481.45 564.5 471.45 495.5 485.45" />
      <path class="gradient" d="M513.14,477.29c0,1.91,5.82,3.45,13,3.45s13-1.54,13-3.45v10.56c-14.5,6.63-26,0-26,0Z" />
      <ellipse class="light" cx="526.14" cy="477.29" rx="13" ry="3.44" />
      <path class="gradient" d="M549.08,470.54c0,1.91,5.82,3.45,13,3.45s13-1.54,13-3.45V481.1c-14.5,6.63-26,0-26,0Z" />
      <ellipse class="light" cx="562.08" cy="470.54" rx="13" ry="3.44" />
    </g>
    <g class="row-1 piece-2 primary piece">
      <polygon class="standard" points="382.5 523.45 451.5 509.45 451.5 559.45 382.5 573.45 382.5 523.45" />
      <polygon class="dark" points="382.5 523.45 356.5 513.45 356.5 563.45 382.5 573.45 382.5 523.45" />
      <polygon class="light" points="356.5 513.45 382.5 523.45 451.5 509.45 425.5 499.45 356.5 513.45" />
      <path class="gradient" d="M374.14,505.29c0,1.91,5.82,3.45,13,3.45s13-1.54,13-3.45v10.56c-14.5,6.63-26,0-26,0Z" />
      <ellipse class="light" cx="387.14" cy="505.29" rx="13" ry="3.44" />
      <path class="gradient" d="M410.08,498.54c0,1.91,5.82,3.45,13,3.45s13-1.54,13-3.45V509.1c-14.5,6.63-26,0-26,0Z" />
      <ellipse class="light" cx="423.08" cy="498.54" rx="13" ry="3.44" />
    </g>
    <g class="row-1 piece-3 primary piece">
      <polygon class="standard" points="651 484.59 720 470.59 720 520.59 651 534.59 651 484.59" />
      <polygon class="dark" points="651 484.59 625 474.59 625 524.59 651 534.59 651 484.59" />
      <polygon class="light" points="625 474.59 651 484.59 720 470.59 694 460.59 625 474.59" />
      <path class="gradient" d="M678.58,459.68c0,1.91,5.82,3.45,13,3.45s13-1.54,13-3.45v10.56c-14.5,6.63-26,0-26,0Z" />
      <ellipse class="light" cx="691.58" cy="459.68" rx="13" ry="3.44" />
      <path class="gradient" d="M642.64,466.43c0,1.91,5.82,3.45,13,3.45s13-1.54,13-3.45V477c-14.5,6.63-26,0-26,0Z" />
      <ellipse class="light" cx="655.64" cy="466.43" rx="13" ry="3.44" />
    </g>
    <g class="row-1 piece-4 primary piece">
      <polygon class="standard" points="513 512.59 651 484.59 651 534.59 513 562.59 513 512.59" />
      <polygon class="dark" points="513 512.59 487 502.59 487 552.59 513 562.59 513 512.59" />
      <polygon class="light" points="487 502.59 513 512.59 651 484.59 625 474.59 487 502.59" />
      <path class="gradient" d="M504.64,494.43c0,1.91,5.82,3.45,13,3.45s13-1.54,13-3.45V505c-14.5,6.63-26,0-26,0Z" />
      <ellipse class="light" cx="517.64" cy="494.43" rx="13" ry="3.44" />
      <path class="gradient" d="M540.58,487.68c0,1.91,5.82,3.45,13,3.45s13-1.54,13-3.45v10.56c-14.5,6.63-26,0-26,0Z" />
      <ellipse class="light" cx="553.58" cy="487.68" rx="13" ry="3.44" />
      <path class="gradient" d="M574.64,480.43c0,1.91,5.82,3.45,13,3.45s13-1.54,13-3.45V491c-14.5,6.63-26,0-26,0Z" />
      <ellipse class="light" cx="587.64" cy="480.43" rx="13" ry="3.44" />
      <path class="gradient" d="M609.58,473.68c0,1.91,5.82,3.45,13,3.45s13-1.54,13-3.45v10.56c-14.5,6.63-26,0-26,0Z" />
      <ellipse class="light" cx="622.58" cy="473.68" rx="13" ry="3.44" />
    </g>
    <g class="row-1 piece-5 primary piece">
      <polygon class="standard" points="375 540.59 513 512.59 513 562.59 375 590.59 375 540.59" />
      <polygon class="dark" points="375 540.59 349 530.59 349 580.59 375 590.59 375 540.59" />
      <polygon class="light" points="349 530.59 375 540.59 513 512.59 487 502.59 349 530.59" />
      <path class="gradient" d="M366.64,522.43c0,1.91,5.82,3.45,13,3.45s13-1.54,13-3.45V533c-14.5,6.63-26,0-26,0Z" />
      <ellipse class="light" cx="379.64" cy="522.43" rx="13" ry="3.44" />
      <path class="gradient" d="M402.58,515.68c0,1.91,5.82,3.45,13,3.45s13-1.54,13-3.45v10.56c-14.5,6.63-26,0-26,0Z" />
      <ellipse class="light" cx="415.58" cy="515.68" rx="13" ry="3.44" />
      <path class="gradient" d="M436.64,508.43c0,1.91,5.82,3.45,13,3.45s13-1.54,13-3.45V519c-14.5,6.63-26,0-26,0Z" />
      <ellipse class="light" cx="449.64" cy="508.43" rx="13" ry="3.44" />
      <path class="gradient" d="M471.58,501.68c0,1.91,5.82,3.45,13,3.45s13-1.54,13-3.45v10.56c-14.5,6.63-26,0-26,0Z" />
      <ellipse class="light" cx="484.58" cy="501.68" rx="13" ry="3.44" />
    </g>
    <g class="row-1 piece-6 primary piece">
      <polygon class="standard" points="306 554.59 375 540.59 375 590.59 306 604.59 306 554.59" />
      <polygon class="dark" points="306 554.59 280 544.59 280 594.59 306 604.59 306 554.59" />
      <polygon class="light" points="280 544.59 306 554.59 375 540.59 349 530.59 280 544.59" />
      <path class="gradient" d="M333.58,529.68c0,1.91,5.82,3.45,13,3.45s13-1.54,13-3.45v10.56c-14.5,6.63-26,0-26,0Z" />
      <ellipse class="light" cx="346.58" cy="529.68" rx="13" ry="3.44" />
      <path class="gradient" d="M297.64,536.43c0,1.91,5.82,3.45,13,3.45s13-1.54,13-3.45V547c-14.5,6.63-26,0-26,0Z" />
      <ellipse class="light" cx="310.64" cy="536.43" rx="13" ry="3.44" />
    </g>
    <g class="row-2 piece-1 primary piece">
      <polygon class="standard" points="685.5 427.45 720 420.59 720 470.59 685.5 477.45 685.5 427.45" />
      <polygon class="dark" points="685.5 427.45 659.5 417.45 659.5 467.45 685.5 477.45 685.5 427.45" />
      <polygon class="light" points="659.5 417.45 685.5 427.45 720 420.59 694 410.59 659.5 417.45" />
      <path class="gradient" d="M677.14,409.29c0,1.91,5.82,3.45,13,3.45s13-1.54,13-3.45v10.56c-14.5,6.63-26,0-26,0Z" />
      <ellipse class="light" cx="690.14" cy="409.29" rx="13" ry="3.44" />
    </g>
    <g class="row-2 piece-2 contrast piece">
      <polygon class="standard" points="651 434.31 685.5 427.45 685.5 477.45 651 484.31 651 434.31" />
      <polygon class="dark" points="651 434.31 625 424.31 625 474.31 651 484.31 651 434.31" />
      <polygon class="light" points="625 424.31 651 434.31 685.5 427.45 659.5 417.45 625 424.31" />
      <path class="gradient" d="M642.64,416.15c0,1.91,5.82,3.45,13,3.45s13-1.54,13-3.45v10.56c-14.5,6.63-26,0-26,0Z" />
      <ellipse class="light" cx="655.64" cy="416.15" rx="13" ry="3.44" />
    </g>
    <g class="row-2 piece-3 contrast piece">
      <polygon class="standard" points="582 448.59 651 434.59 651 484.59 582 498.59 582 448.59" />
      <polygon class="dark" points="582 448.59 556 438.59 556 488.59 582 498.59 582 448.59" />
      <polygon class="light" points="556 438.59 582 448.59 651 434.59 625 424.59 556 438.59" />
      <path class="gradient" d="M609.58,423.68c0,1.91,5.82,3.45,13,3.45s13-1.54,13-3.45v10.56c-14.5,6.63-26,0-26,0Z" />
      <ellipse class="light" cx="622.58" cy="423.68" rx="13" ry="3.44" />
      <path class="gradient" d="M573.64,430.43c0,1.91,5.82,3.45,13,3.45s13-1.54,13-3.45V441c-14.5,6.63-26,0-26,0Z" />
      <ellipse class="light" cx="586.64" cy="430.43" rx="13" ry="3.44" />
    </g>
    <g class="row-2 piece-4 primary piece">
      <polygon class="standard" points="547.5 455.45 582 448.59 582 498.59 547.5 505.45 547.5 455.45" />
      <polygon class="dark" points="547.5 455.45 495.5 435.45 495.5 485.45 547.5 505.45 547.5 455.45" />
      <polygon class="light" points="495.5 435.45 547.5 455.45 582 448.59 530 428.59 495.5 435.45" />
      <path class="gradient" d="M513.14,427.29c0,1.91,5.82,3.45,13,3.45s13-1.54,13-3.45v10.56c-14.5,6.63-26,0-26,0Z" />
      <ellipse class="light" cx="526.14" cy="427.29" rx="13" ry="3.44" />
      <path class="gradient" d="M539.14,437.29c0,1.91,5.82,3.45,13,3.45s13-1.54,13-3.45v10.56c-14.5,6.63-26,0-26,0Z" />
      <ellipse class="light" cx="552.14" cy="437.29" rx="13" ry="3.44" />
    </g>
    <g class="row-2 piece-5 contrast piece">
      <polygon class="standard" points="478.5 469.45 547.5 455.45 547.5 505.45 478.5 519.45 478.5 469.45" />
      <polygon class="dark" points="478.5 469.45 452.5 459.45 452.5 509.45 478.5 519.45 478.5 469.45" />
      <polygon class="light" points="452.5 459.45 478.5 469.45 547.5 455.45 521.5 445.45 452.5 459.45" />
      <path class="gradient" d="M470.14,451.29c0,1.91,5.82,3.45,13,3.45s13-1.54,13-3.45v10.56c-14.5,6.63-26,0-26,0Z" />
      <ellipse class="light" cx="483.14" cy="451.29" rx="13" ry="3.44" />
      <path class="gradient" d="M506.08,444.54c0,1.91,5.82,3.45,13,3.45s13-1.54,13-3.45V455.1c-14.5,6.63-26,0-26,0Z" />
      <ellipse class="light" cx="519.08" cy="444.54" rx="13" ry="3.44" />
    </g>
    <g class="row-2 piece-6 contrast piece">
      <polygon class="standard" points="444 476.59 478.5 469.73 478.5 519.73 444 526.59 444 476.59" />
      <polygon class="dark" points="444 476.59 392 456.59 392 506.59 444 526.59 444 476.59" />
      <polygon class="light" points="392 456.59 444 476.59 478.5 469.73 426.5 449.73 392 456.59" />
      <path class="gradient" d="M409.64,448.43c0,1.91,5.82,3.45,13,3.45s13-1.54,13-3.45V459c-14.5,6.63-26,0-26,0Z" />
      <ellipse class="light" cx="422.64" cy="448.43" rx="13" ry="3.44" />
      <path class="gradient" d="M435.64,458.43c0,1.91,5.82,3.45,13,3.45s13-1.54,13-3.45V469c-14.5,6.63-26,0-26,0Z" />
      <ellipse class="light" cx="448.64" cy="458.43" rx="13" ry="3.44" />
    </g>
    <g class="row-2 piece-7 primary piece">
      <polygon class="standard" points="306 504.59 444 476.59 444 526.59 306 554.59 306 504.59" />
      <polygon class="dark" points="306 504.59 280 494.59 280 544.59 306 554.59 306 504.59" />
      <polygon class="light" points="280 494.59 306 504.59 444 476.59 418 466.59 280 494.59" />
      <path class="gradient" d="M297.64,486.43c0,1.91,5.82,3.45,13,3.45s13-1.54,13-3.45V497c-14.5,6.63-26,0-26,0Z" />
      <ellipse class="light" cx="310.64" cy="486.43" rx="13" ry="3.44" />
      <path class="gradient" d="M333.58,479.68c0,1.91,5.82,3.45,13,3.45s13-1.54,13-3.45v10.56c-14.5,6.63-26,0-26,0Z" />
      <ellipse class="light" cx="346.58" cy="479.68" rx="13" ry="3.44" />
      <path class="gradient" d="M367.64,472.43c0,1.91,5.82,3.45,13,3.45s13-1.54,13-3.45V483c-14.5,6.63-26,0-26,0Z" />
      <ellipse class="light" cx="380.64" cy="472.43" rx="13" ry="3.44" />
      <path class="gradient" d="M402.58,465.68c0,1.91,5.82,3.45,13,3.45s13-1.54,13-3.45v10.56c-14.5,6.63-26,0-26,0Z" />
      <ellipse class="light" cx="415.58" cy="465.68" rx="13" ry="3.44" />
    </g>
    <g class="row-3 piece-1 primary piece">
      <polygon class="standard" points="685.5 377.45 720 370.59 720 420.59 685.5 427.45 685.5 377.45" />
      <polygon class="dark" points="685.5 377.45 659.5 367.45 659.5 417.45 685.5 427.45 685.5 377.45" />
      <polygon class="light" points="659.5 367.45 685.5 377.45 720 370.59 694 360.59 659.5 367.45" />
      <path class="gradient" d="M677.14,359.29c0,1.91,5.82,3.45,13,3.45s13-1.54,13-3.45v10.56c-14.5,6.63-26,0-26,0Z" />
      <ellipse class="light" cx="690.14" cy="359.29" rx="13" ry="3.44" />
    </g>
    <g class="row-3 piece-2 contrast piece">
      <polygon class="standard" points="651 417.64 685.5 410.78 685.5 427.45 651 434.31 651 417.64" />
      <polygon class="dark" points="651 417.64 625 407.64 625 424.31 651 434.31 651 417.64" />
      <polygon class="light" points="625 407.64 651 417.64 685.5 410.78 659.5 400.78 625 407.64" />
      <path class="gradient" d="M642.64,399.49c0,1.9,5.82,3.44,13,3.44s13-1.54,13-3.44v10.56c-14.5,6.62-26,0-26,0Z" />
      <ellipse class="light" cx="655.64" cy="399.49" rx="13" ry="3.44" />
    </g>
    <g class="row-3 piece-3 contrast piece">
      <polygon class="standard" points="651 401.28 685.5 394.42 685.5 411.09 651 417.95 651 401.28" />
      <polygon class="dark" points="651 401.28 625 391.28 625 407.95 651 417.95 651 401.28" />
      <polygon class="light" points="625 391.28 651 401.28 685.5 394.42 659.5 384.42 625 391.28" />
      <path class="gradient" d="M642.64,383.13c0,1.9,5.82,3.44,13,3.44s13-1.54,13-3.44v10.56c-14.5,6.62-26,0-26,0Z" />
      <ellipse class="light" cx="655.64" cy="383.13" rx="13" ry="3.44" />
    </g>
    <g class="row-3 piece-4 primary piece">
      <polygon class="standard" points="582 431.64 651 417.64 651 434.31 582 448.31 582 431.64" />
      <polygon class="dark" points="582 431.64 556 421.64 556 438.31 582 448.31 582 431.64" />
      <polygon class="light" points="556 421.64 582 431.64 651 417.64 625 407.64 556 421.64" />
      <path class="gradient" d="M573.64,413.49c0,1.9,5.82,3.44,13,3.44s13-1.54,13-3.44v10.56c-14.5,6.62-26,0-26,0Z" />
      <ellipse class="light" cx="586.64" cy="413.49" rx="13" ry="3.44" />
      <path class="gradient" d="M609.58,406.74c0,1.9,5.82,3.44,13,3.44s13-1.54,13-3.44V417.3c-14.5,6.62-26,0-26,0Z" />
      <ellipse class="light" cx="622.58" cy="406.74" rx="13" ry="3.44" />
    </g>
    <g class="row-3 piece-5 primary piece">
      <polygon class="standard" points="582 414.97 651 400.97 651 417.64 582 431.64 582 414.97" />
      <polygon class="dark" points="582 414.97 556 404.97 556 421.64 582 431.64 582 414.97" />
      <polygon class="light" points="556 404.97 582 414.97 651 400.97 625 390.97 556 404.97" />
      <path class="gradient" d="M573.64,396.82c0,1.9,5.82,3.45,13,3.45s13-1.55,13-3.45v10.56c-14.5,6.63-26,0-26,0Z" />
      <ellipse class="light" cx="586.64" cy="396.82" rx="13" ry="3.44" />
      <path class="gradient" d="M609.58,390.07c0,1.9,5.82,3.45,13,3.45s13-1.55,13-3.45v10.56c-14.5,6.63-26,0-26,0Z" />
      <ellipse class="light" cx="622.58" cy="390.07" rx="13" ry="3.44" />
    </g>
    <g class="row-3 piece-6 contrast piece">
      <polygon class="standard" points="581 398.31 685.5 377.06 685.5 393.72 581 414.97 581 398.31" />
      <polygon class="dark" points="581 398.31 555 388.31 555 404.97 581 414.97 581 398.31" />
      <polygon class="light" points="555 388.31 581 398.31 685.5 377.06 659.5 367.06 555 388.31" />
      <path class="gradient" d="M608.58,373.41c0,1.9,5.82,3.44,13,3.44s13-1.54,13-3.44V384c-14.5,6.62-26,0-26,0Z" />
      <ellipse class="light" cx="621.58" cy="373.41" rx="13" ry="3.44" />
      <path class="gradient" d="M572.64,380.16c0,1.9,5.82,3.44,13,3.44s13-1.54,13-3.44v10.56c-14.5,6.62-26,0-26,0Z" />
      <ellipse class="light" cx="585.64" cy="380.16" rx="13" ry="3.44" />
      <path class="gradient" d="M644.08,366.15c0,1.91,5.82,3.45,13,3.45s13-1.54,13-3.45v10.56c-14.5,6.63-26,0-26,0Z" />
      <ellipse class="light" cx="657.08" cy="366.15" rx="13" ry="3.44" />
    </g>
    <g class="row-3 piece-7 primary piece">
      <polygon class="standard" points="547.5 405.45 582 398.59 582 448.59 547.5 455.45 547.5 405.45" />
      <polygon class="dark" points="547.5 405.45 521.5 395.45 521.5 445.45 547.5 455.45 547.5 405.45" />
      <polygon class="light" points="521.5 395.45 547.5 405.45 582 398.59 556 388.59 521.5 395.45" />
    </g>
    <g class="row-3 piece-8 contrast piece">
      <polygon class="standard" points="513 412.31 547.5 405.45 547.5 455.45 513 462.31 513 412.31" />
      <polygon class="dark" points="513 412.31 487 402.31 487 452.31 513 462.31 513 412.31" />
      <polygon class="light" points="487 402.31 513 412.31 547.5 405.45 521.5 395.45 487 402.31" />
      <path class="gradient" d="M504.64,394.15c0,1.91,5.82,3.45,13,3.45s13-1.54,13-3.45v10.56c-14.5,6.63-26,0-26,0Z" />
      <ellipse class="light" cx="517.64" cy="394.15" rx="13" ry="3.44" />
    </g>
    <g class="row-3 piece-9 primary piece">
      <polygon class="standard" points="478.5 419.17 513 412.31 513 462.31 478.5 469.17 478.5 419.17" />
      <polygon class="dark" points="478.5 419.17 452.5 409.17 452.5 459.17 478.5 469.17 478.5 419.17" />
      <polygon class="light" points="452.5 409.17 478.5 419.17 513 412.31 487 402.31 452.5 409.17" />
      <path class="gradient" d="M470.14,401c0,1.91,5.82,3.45,13,3.45s13-1.54,13-3.45v10.56c-14.5,6.63-26,0-26,0Z" />
      <ellipse class="light" cx="483.14" cy="401.01" rx="13" ry="3.44" />
    </g>
    <g class="row-3 piece-10 contrast piece">
      <polygon class="standard" points="444 459.59 478.5 452.73 478.5 469.39 444 476.25 444 459.59" />
      <polygon class="dark" points="444 459.59 418 449.59 418 466.25 444 476.25 444 459.59" />
      <polygon class="light" points="418 449.59 444 459.59 478.5 452.73 452.5 442.73 418 449.59" />
      <path class="gradient" d="M435.64,441.43c0,1.91,5.82,3.45,13,3.45s13-1.54,13-3.45V452c-14.5,6.63-26,0-26,0Z" />
      <ellipse class="light" cx="448.64" cy="441.43" rx="13" ry="3.44" />
    </g>
    <g class="row-3 piece-11 primary piece">
      <polygon class="standard" points="444 442.69 478.5 435.83 478.5 452.5 444 459.36 444 442.69" />
      <polygon class="dark" points="444 442.69 418 432.69 418 449.36 444 459.36 444 442.69" />
      <polygon class="light" points="418 432.69 444 442.69 478.5 435.83 452.5 425.83 418 432.69" />
      <path class="gradient" d="M435.64,424.54c0,1.9,5.82,3.45,13,3.45s13-1.55,13-3.45V435.1c-14.5,6.63-26,0-26,0Z" />
      <ellipse class="light" cx="448.64" cy="424.54" rx="13" ry="3.44" />
    </g>
    <g class="row-3 piece-12 primary piece">
      <polygon class="standard" points="444 426.34 478.5 419.48 478.5 436.14 444 443 444 426.34" />
      <polygon class="dark" points="444 426.34 418 416.34 418 433 444 443 444 426.34" />
      <polygon class="light" points="418 416.34 444 426.34 478.5 419.48 452.5 409.48 418 416.34" />
      <path class="gradient" d="M435.64,408.18c0,1.91,5.82,3.45,13,3.45s13-1.54,13-3.45v10.56c-14.5,6.63-26,0-26,0Z" />
      <ellipse class="light" cx="448.64" cy="408.18" rx="13" ry="3.44" />
    </g>
    <g class="row-3 piece-13 primary piece">
      <polygon class="standard" points="306 454.59 444 426.59 444 476.59 306 504.59 306 454.59" />
      <polygon class="dark" points="306 454.59 280 444.59 280 494.59 306 504.59 306 454.59" />
      <polygon class="light" points="280 444.59 306 454.59 444 426.59 418 416.59 280 444.59" />
      <path class="gradient" d="M297.64,436.43c0,1.91,5.82,3.45,13,3.45s13-1.54,13-3.45V447c-14.5,6.63-26,0-26,0Z" />
      <ellipse class="light" cx="310.64" cy="436.43" rx="13" ry="3.44" />
      <path class="gradient" d="M333.58,429.68c0,1.91,5.82,3.45,13,3.45s13-1.54,13-3.45v10.56c-14.5,6.63-26,0-26,0Z" />
      <ellipse class="light" cx="346.58" cy="429.68" rx="13" ry="3.44" />
      <path class="gradient" d="M367.64,422.43c0,1.91,5.82,3.45,13,3.45s13-1.54,13-3.45V433c-14.5,6.63-26,0-26,0Z" />
      <ellipse class="light" cx="380.64" cy="422.43" rx="13" ry="3.44" />
      <path class="gradient" d="M402.58,415.68c0,1.91,5.82,3.45,13,3.45s13-1.54,13-3.45v10.56c-14.5,6.63-26,0-26,0Z" />
      <ellipse class="light" cx="415.58" cy="415.68" rx="13" ry="3.44" />
    </g>
    <g class="row-4 piece-2 contrast piece">
      <polygon class="standard" points="581 382.03 685.5 360.78 685.5 377.45 581 398.7 581 382.03" />
      <polygon class="dark" points="581 382.03 555 372.03 555 388.7 581 398.7 581 382.03" />
      <polygon class="light" points="555 372.03 581 382.03 685.5 360.78 659.5 350.78 555 372.03" />
      <path class="gradient" d="M608.58,357.13c0,1.9,5.82,3.44,13,3.44s13-1.54,13-3.44v10.56c-14.5,6.62-26,0-26,0Z" />
      <ellipse class="light" cx="621.58" cy="357.13" rx="13" ry="3.44" />
      <path class="gradient" d="M572.64,363.88c0,1.9,5.82,3.44,13,3.44s13-1.54,13-3.44v10.56c-14.5,6.62-26,0-26,0Z" />
      <ellipse class="light" cx="585.64" cy="363.88" rx="13" ry="3.44" />
      <path class="gradient" d="M644.08,349.88c0,1.9,5.82,3.44,13,3.44s13-1.54,13-3.44v10.56c-14.5,6.62-26,0-26,0Z" />
      <ellipse class="light" cx="657.08" cy="349.88" rx="13" ry="3.44" />
    </g>
    <g class="row-4 piece-3 primary piece">
      <polygon class="standard" points="616.5 358.11 685.5 344.11 685.5 360.78 616.5 374.78 616.5 358.11" />
      <polygon class="dark" points="616.5 358.11 590.5 348.11 590.5 364.78 616.5 374.78 616.5 358.11" />
      <polygon class="light" points="590.5 348.11 616.5 358.11 685.5 344.11 659.5 334.11 590.5 348.11" />
      <path class="gradient" d="M608.14,340c0,1.9,5.82,3.45,13,3.45s13-1.55,13-3.45v10.56c-14.5,6.63-26,0-26,0Z" />
      <ellipse class="light" cx="621.14" cy="339.96" rx="13" ry="3.44" />
      <path class="gradient" d="M644.08,333.21c0,1.9,5.82,3.45,13,3.45s13-1.55,13-3.45v10.56c-14.5,6.63-26,0-26,0Z" />
      <ellipse class="light" cx="657.08" cy="333.21" rx="13" ry="3.44" />
    </g>
    <g class="row-4 piece-4 primary piece">
      <polygon class="standard" points="616.5 341.45 685.5 327.45 685.5 344.11 616.5 358.11 616.5 341.45" />
      <polygon class="dark" points="616.5 341.45 590.5 331.45 590.5 348.11 616.5 358.11 616.5 341.45" />
      <polygon class="light" points="590.5 331.45 616.5 341.45 685.5 327.45 659.5 317.45 590.5 331.45" />
      <path class="gradient" d="M644.08,316.55c0,1.9,5.82,3.44,13,3.44s13-1.54,13-3.44v10.56c-14.5,6.62-26,0-26,0Z" />
      <ellipse class="light" cx="657.08" cy="316.55" rx="13" ry="3.44" />
      <path class="gradient" d="M608.14,323.3c0,1.9,5.82,3.44,13,3.44s13-1.54,13-3.44v10.56c-14.5,6.62-26,0-26,0Z" />
      <ellipse class="light" cx="621.14" cy="323.3" rx="13" ry="3.44" />
    </g>
    <g class="row-4 piece-5 contrast piece">
      <polygon class="standard" points="581 364.94 615.5 358.08 615.5 374.75 581 381.61 581 364.94" />
      <polygon class="dark" points="581 364.94 555 354.94 555 371.61 581 381.61 581 364.94" />
      <polygon class="light" points="555 354.94 581 364.94 615.5 358.08 589.5 348.08 555 354.94" />
      <path class="gradient" d="M572.64,346.79c0,1.9,5.82,3.45,13,3.45s13-1.55,13-3.45v10.56c-14.5,6.63-26,0-26,0Z" />
      <ellipse class="light" cx="585.64" cy="346.79" rx="13" ry="3.44" />
    </g>
    <g class="row-4 piece-5 contrast piece">
      <polygon class="standard" points="581 348.59 615.5 341.73 615.5 358.39 581 365.25 581 348.59" />
      <polygon class="dark" points="581 348.59 555 338.59 555 355.25 581 365.25 581 348.59" />
      <polygon class="light" points="555 338.59 581 348.59 615.5 341.73 589.5 331.73 555 338.59" />
      <path class="gradient" d="M572.64,330.43c0,1.91,5.82,3.45,13,3.45s13-1.54,13-3.45V341c-14.5,6.63-26,0-26,0Z" />
      <ellipse class="light" cx="585.64" cy="330.43" rx="13" ry="3.44" />
    </g>
    <g class="row-3 piece-7 top primary piece">
      <path class="gradient" d="M539.14,387.29c0,1.91,5.82,3.45,13,3.45s13-1.54,13-3.45v10.56c-14.5,6.63-26,0-26,0Z" />
      <ellipse class="light" cx="552.14" cy="387.29" rx="13" ry="3.44" />
    </g>
    <g class="meta">
      <rect class="background" x="216" y="95.41" width="614.5" height="139" />
      <g class="instruction">
        <g class="piece contrast">
          <polygon class="standard" points="696 189.34 800.5 168.09 800.5 184.76 696 206.01 696 189.34" />
          <polygon class="dark" points="696 189.34 670 179.34 670 196.01 696 206.01 696 189.34" />
          <polygon class="light" points="670 179.34 696 189.34 800.5 168.09 774.5 158.09 670 179.34" />
          <path class="gradient" d="M723.58,164.44c0,1.9,5.82,3.45,13,3.45s13-1.55,13-3.45V175c-14.5,6.63-26,0-26,0Z" />
          <ellipse class="light" cx="736.58" cy="164.44" rx="13" ry="3.44" />
          <path class="gradient" d="M687.64,171.19c0,1.9,5.82,3.45,13,3.45s13-1.55,13-3.45v10.56c-14.5,6.63-26,0-26,0Z" />
          <ellipse class="light" cx="700.64" cy="171.19" rx="13" ry="3.44" />
          <path class="gradient" d="M759.08,157.19c0,1.9,5.82,3.44,13,3.44s13-1.54,13-3.44v10.56c-14.5,6.62-26,0-26,0Z" />
          <ellipse class="light" cx="772.08" cy="157.19" rx="13" ry="3.44" />
        </g>
        <g class="piece primary">
          <polygon class="standard" points="731.5 165.43 800.5 151.43 800.5 168.09 731.5 182.09 731.5 165.43" />
          <polygon class="dark" points="731.5 165.43 705.5 155.43 705.5 172.09 731.5 182.09 731.5 165.43" />
          <polygon class="light" points="705.5 155.43 731.5 165.43 800.5 151.43 774.5 141.43 705.5 155.43" />
          <path class="gradient" d="M723.14,147.27c0,1.91,5.82,3.45,13,3.45s13-1.54,13-3.45v10.56c-14.5,6.63-26,0-26,0Z" />
          <ellipse class="light" cx="736.14" cy="147.27" rx="13" ry="3.44" />
          <path class="gradient" d="M759.08,140.52c0,1.91,5.82,3.45,13,3.45s13-1.54,13-3.45v10.56c-14.5,6.63-26,0-26,0Z" />
          <ellipse class="light" cx="772.08" cy="140.52" rx="13" ry="3.44" />
        </g>
        <g class="piece primary">
          <polygon class="standard" points="731.5 148.76 800.5 134.76 800.5 151.43 731.5 165.43 731.5 148.76" />
          <polygon class="dark" points="731.5 148.76 705.5 138.76 705.5 155.43 731.5 165.43 731.5 148.76" />
          <polygon class="light" points="705.5 138.76 731.5 148.76 800.5 134.76 774.5 124.76 705.5 138.76" />
          <path class="gradient" d="M759.08,123.86c0,1.9,5.82,3.44,13,3.44s13-1.54,13-3.44v10.56c-14.5,6.62-26,0-26,0Z" />
          <ellipse class="light" cx="772.08" cy="123.86" rx="13" ry="3.44" />
          <path class="gradient" d="M723.14,130.61c0,1.9,5.82,3.44,13,3.44s13-1.54,13-3.44v10.56c-14.5,6.62-26,0-26,0Z" />
          <ellipse class="light" cx="736.14" cy="130.61" rx="13" ry="3.44" />
        </g>
        <g class="piece contrast">
          <polygon class="standard" points="696 172.25 730.5 165.4 730.5 182.06 696 188.92 696 172.25" />
          <polygon class="dark" points="696 172.25 670 162.25 670 178.92 696 188.92 696 172.25" />
          <polygon class="light" points="670 162.26 696 172.26 730.5 165.4 704.5 155.4 670 162.26" />
          <path class="gradient" d="M687.64,154.1c0,1.91,5.82,3.45,13,3.45s13-1.54,13-3.45v10.56c-14.5,6.63-26,0-26,0Z" />
          <ellipse class="light" cx="700.64" cy="154.1" rx="13" ry="3.44" />
        </g>
        <g class="piece contrast">
          <polygon class="standard" points="696 155.9 730.5 149.04 730.5 165.7 696 172.56 696 155.9" />
          <polygon class="dark" points="696 155.9 670 145.9 670 162.56 696 172.56 696 155.9" />
          <polygon class="light" points="670 145.9 696 155.9 730.5 149.04 704.5 139.04 670 145.9" />
          <path class="gradient" d="M687.64,137.75c0,1.9,5.82,3.44,13,3.44s13-1.54,13-3.44V148.3c-14.5,6.63-26,0-26,0Z" />
          <ellipse class="light" cx="700.64" cy="137.75" rx="13" ry="3.44" />
        </g>
        <text transform="translate(637.68 152.09)">3</text>
      </g>
      <g class="instruction">
        <g class="piece contrast">
          <polygon class="standard" points="495.5 195.03 600 173.78 600 190.45 495.5 211.7 495.5 195.03" />
          <polygon class="dark" points="495.5 195.03 469.5 185.03 469.5 201.7 495.5 211.7 495.5 195.03" />
          <polygon class="light" points="469.5 185.03 495.5 195.03 600 173.78 574 163.78 469.5 185.03" />
          <path class="gradient" d="M523.08,170.13c0,1.9,5.82,3.44,13,3.44s13-1.54,13-3.44v10.56c-14.5,6.62-26,0-26,0Z" />
          <ellipse class="light" cx="536.08" cy="170.13" rx="13" ry="3.44" />
          <path class="gradient" d="M487.14,176.88c0,1.9,5.82,3.44,13,3.44s13-1.54,13-3.44v10.56c-14.5,6.62-26,0-26,0Z" />
          <ellipse class="light" cx="500.14" cy="176.88" rx="13" ry="3.44" />
          <path class="gradient" d="M558.58,162.88c0,1.9,5.82,3.44,13,3.44s13-1.54,13-3.44v10.56c-14.5,6.62-26,0-26,0Z" />
          <ellipse class="light" cx="571.58" cy="162.88" rx="13" ry="3.44" />
        </g>
        <g class="piece primary">
          <polygon class="standard" points="531 171.11 600 157.11 600 173.78 531 187.78 531 171.11" />
          <polygon class="dark" points="531 171.11 505 161.11 505 177.78 531 187.78 531 171.11" />
          <polygon class="light" points="505 161.11 531 171.11 600 157.11 574 147.11 505 161.11" />
          <path class="gradient" d="M522.64,153c0,1.9,5.82,3.45,13,3.45s13-1.55,13-3.45v10.56c-14.5,6.63-26,0-26,0Z" />
          <ellipse class="light" cx="535.64" cy="152.96" rx="13" ry="3.44" />
          <path class="gradient" d="M558.58,146.21c0,1.9,5.82,3.45,13,3.45s13-1.55,13-3.45v10.56c-14.5,6.63-26,0-26,0Z" />
          <ellipse class="light" cx="571.58" cy="146.21" rx="13" ry="3.44" />
        </g>
        <g class="piece contrast">
          <polygon class="standard" points="495.5 177.94 530 171.08 530 187.75 495.5 194.61 495.5 177.94" />
          <polygon class="dark" points="495.5 177.94 469.5 167.94 469.5 184.61 495.5 194.61 495.5 177.94" />
          <polygon class="light" points="469.5 167.94 495.5 177.94 530 171.09 504 161.09 469.5 167.94" />
          <path class="gradient" d="M487.14,159.79c0,1.9,5.82,3.45,13,3.45s13-1.55,13-3.45v10.56c-14.5,6.63-26,0-26,0Z" />
          <ellipse class="light" cx="500.14" cy="159.79" rx="13" ry="3.44" />
        </g>
        <text transform="translate(439.12 152.09)">2</text>
      </g>
      <g class="instruction">
        <g class="piece contrast">
          <polygon class="standard" points="295.5 195.03 400 173.78 400 190.45 295.5 211.7 295.5 195.03" />
          <polygon class="dark" points="295.5 195.03 269.5 185.03 269.5 201.7 295.5 211.7 295.5 195.03" />
          <polygon class="light" points="269.5 185.03 295.5 195.03 400 173.78 374 163.78 269.5 185.03" />
          <path class="gradient" d="M323.08,170.13c0,1.9,5.82,3.44,13,3.44s13-1.54,13-3.44v10.56c-14.5,6.62-26,0-26,0Z" />
          <ellipse class="light" cx="336.08" cy="170.13" rx="13" ry="3.44" />
          <path class="gradient" d="M287.14,176.88c0,1.9,5.82,3.44,13,3.44s13-1.54,13-3.44v10.56c-14.5,6.62-26,0-26,0Z" />
          <ellipse class="light" cx="300.14" cy="176.88" rx="13" ry="3.44" />
          <path class="gradient" d="M358.58,162.88c0,1.9,5.82,3.44,13,3.44s13-1.54,13-3.44v10.56c-14.5,6.62-26,0-26,0Z" />
          <ellipse class="light" cx="371.58" cy="162.88" rx="13" ry="3.44" />
        </g>
        <text transform="translate(238.62 152.09)">1</text>
      </g>
      <polygon class="arrow" points="620.75 297.65 620.75 233.91 620.25 233.91 620.25 297.65 616.14 297.65 620.5 313.91 624.86 297.65 620.75 297.65" />
    </g>
  </g>
  <g class="list">
    <rect class="background" x="10" y="100" width="122.5" height="231.5" />
    <text transform="translate(30 316.48)">1x</text>
    <g class="piece contrast">
      <polygon class="standard" points="46.9 282.14 114.83 268.32 114.83 279.16 46.9 292.97 46.9 282.14" />
      <polygon class="dark" points="46.9 282.14 30 275.64 30 286.47 46.9 292.97 46.9 282.14" />
      <polygon class="light" points="30 275.64 46.9 282.14 114.83 268.32 97.92 261.82 30 275.64" />
      <path class="gradient" d="M64.83,266c0,1.24,3.78,2.24,8.45,2.24s8.45-1,8.45-2.24v6.87a19.39,19.39,0,0,1-16.9,0Z" />
      <ellipse class="light" cx="73.28" cy="265.95" rx="8.45" ry="2.24" />
      <path class="gradient" d="M41.47,270.34c0,1.24,3.78,2.24,8.45,2.24s8.45-1,8.45-2.24v6.86a19.35,19.35,0,0,1-16.9,0Z" />
      <ellipse class="light" cx="49.92" cy="270.34" rx="8.45" ry="2.24" />
      <path class="gradient" d="M87.9,261.24c0,1.24,3.79,2.24,8.45,2.24s8.45-1,8.45-2.24v6.86a19.36,19.36,0,0,1-16.9,0Z" />
      <ellipse class="light" cx="96.35" cy="261.24" rx="8.45" ry="2.24" />
    </g>
    <text transform="translate(30 237.48)">2x</text>
    <g class="piece primary">
      <polygon class="standard" points="46.9 203.43 91.75 194.32 91.75 205.16 46.9 214.26 46.9 203.43" />
      <polygon class="dark" points="46.9 203.43 30 196.93 30 207.76 46.9 214.26 46.9 203.43" />
      <polygon class="light" points="30 196.93 46.9 203.43 91.75 194.32 74.85 187.82 30 196.93" />
      <path class="gradient" d="M64.83,187.24c0,1.24,3.78,2.24,8.45,2.24s8.45-1,8.45-2.24v6.86a19.35,19.35,0,0,1-16.9,0Z" />
      <ellipse class="light" cx="73.28" cy="187.24" rx="8.45" ry="2.24" />
      <path class="gradient" d="M41.47,191.63c0,1.23,3.78,2.23,8.45,2.23s8.45-1,8.45-2.23v6.86a19.35,19.35,0,0,1-16.9,0Z" />
      <ellipse class="light" cx="49.92" cy="191.63" rx="8.45" ry="2.24" />
    </g>
    <text transform="translate(30 163.48)">2x</text>
    <g class="piece contrast">
      <polygon class="standard" points="46.9 129.04 69.33 124.58 69.33 135.41 46.9 139.87 46.9 129.04" />
      <polygon class="dark" points="46.9 129.04 30 122.54 30 133.37 46.9 139.87 46.9 129.04" />
      <polygon class="light" points="30 122.54 46.9 129.04 69.33 124.58 52.42 118.08 30 122.54" />
      <path class="gradient" d="M41.47,117.24c0,1.24,3.78,2.24,8.45,2.24s8.45-1,8.45-2.24v6.86a19.35,19.35,0,0,1-16.9,0Z" />
      <ellipse class="light" cx="49.92" cy="117.24" rx="8.45" ry="2.24" />
    </g>
  </g>
  <text transform="translate(30 72.24)">7</text>
</svg>
