<svg xmlns="http://www.w3.org/2000/svg" xmlns:xlink="http://www.w3.org/1999/xlink" viewBox="0 0 1000 700">
  <g class="build">
    <g class="row-1 piece-1 primary piece">
      <polygon class="standard" points="521.5 440.03 590.5 426.03 590.5 476.03 521.5 490.03 521.5 440.03" />
      <polygon class="dark" points="521.5 440.03 495.5 430.03 495.5 480.03 521.5 490.03 521.5 440.03" />
      <polygon class="light" points="495.5 430.03 521.5 440.03 590.5 426.03 564.5 416.03 495.5 430.03" />
      <path class="gradient" d="M513.14,421.88c0,1.9,5.82,3.45,13,3.45s13-1.55,13-3.45v10.56c-14.5,6.63-26,0-26,0Z" />
      <ellipse class="light" cx="526.14" cy="421.88" rx="13" ry="3.44" />
      <path class="gradient" d="M549.08,415.13c0,1.9,5.82,3.45,13,3.45s13-1.55,13-3.45v10.56c-14.5,6.63-26,0-26,0Z" />
      <ellipse class="light" cx="562.08" cy="415.13" rx="13" ry="3.44" />
    </g>
    <g class="row-1 piece-2 primary piece">
      <polygon class="standard" points="382.5 468.03 451.5 454.03 451.5 504.03 382.5 518.03 382.5 468.03" />
      <polygon class="dark" points="382.5 468.03 356.5 458.03 356.5 508.03 382.5 518.03 382.5 468.03" />
      <polygon class="light" points="356.5 458.03 382.5 468.03 451.5 454.03 425.5 444.03 356.5 458.03" />
      <path class="gradient" d="M374.14,449.88c0,1.9,5.82,3.45,13,3.45s13-1.55,13-3.45v10.56c-14.5,6.63-26,0-26,0Z" />
      <ellipse class="light" cx="387.14" cy="449.88" rx="13" ry="3.44" />
      <path class="gradient" d="M410.08,443.13c0,1.9,5.82,3.45,13,3.45s13-1.55,13-3.45v10.56c-14.5,6.63-26,0-26,0Z" />
      <ellipse class="light" cx="423.08" cy="443.13" rx="13" ry="3.44" />
    </g>
    <g class="row-1 piece-3 primary piece">
      <polygon class="standard" points="651 429.17 720 415.17 720 465.17 651 479.17 651 429.17" />
      <polygon class="dark" points="651 429.17 625 419.17 625 469.17 651 479.17 651 429.17" />
      <polygon class="light" points="625 419.17 651 429.17 720 415.17 694 405.17 625 419.17" />
      <path class="gradient" d="M678.58,404.27c0,1.9,5.82,3.45,13,3.45s13-1.55,13-3.45v10.56c-14.5,6.63-26,0-26,0Z" />
      <ellipse class="light" cx="691.58" cy="404.27" rx="13" ry="3.44" />
      <path class="gradient" d="M642.64,411c0,1.9,5.82,3.45,13,3.45s13-1.55,13-3.45v10.56c-14.5,6.63-26,0-26,0Z" />
      <ellipse class="light" cx="655.64" cy="411.02" rx="13" ry="3.44" />
    </g>
    <g class="row-1 piece-4 primary piece">
      <polygon class="standard" points="513 457.17 651 429.17 651 479.17 513 507.17 513 457.17" />
      <polygon class="dark" points="513 457.17 487 447.17 487 497.17 513 507.17 513 457.17" />
      <polygon class="light" points="487 447.17 513 457.17 651 429.17 625 419.17 487 447.17" />
      <path class="gradient" d="M504.64,439c0,1.9,5.82,3.45,13,3.45s13-1.55,13-3.45v10.56c-14.5,6.63-26,0-26,0Z" />
      <ellipse class="light" cx="517.64" cy="439.02" rx="13" ry="3.44" />
      <path class="gradient" d="M540.58,432.27c0,1.9,5.82,3.45,13,3.45s13-1.55,13-3.45v10.56c-14.5,6.63-26,0-26,0Z" />
      <ellipse class="light" cx="553.58" cy="432.27" rx="13" ry="3.44" />
      <path class="gradient" d="M574.64,425c0,1.9,5.82,3.45,13,3.45s13-1.55,13-3.45v10.56c-14.5,6.63-26,0-26,0Z" />
      <ellipse class="light" cx="587.64" cy="425.02" rx="13" ry="3.44" />
      <path class="gradient" d="M609.58,418.27c0,1.9,5.82,3.45,13,3.45s13-1.55,13-3.45v10.56c-14.5,6.63-26,0-26,0Z" />
      <ellipse class="light" cx="622.58" cy="418.27" rx="13" ry="3.44" />
    </g>
    <g class="row-1 piece-5 primary piece">
      <polygon class="standard" points="375 485.17 513 457.17 513 507.17 375 535.17 375 485.17" />
      <polygon class="dark" points="375 485.17 349 475.17 349 525.17 375 535.17 375 485.17" />
      <polygon class="light" points="349 475.17 375 485.17 513 457.17 487 447.17 349 475.17" />
      <path class="gradient" d="M366.64,467c0,1.9,5.82,3.45,13,3.45s13-1.55,13-3.45v10.56c-14.5,6.63-26,0-26,0Z" />
      <ellipse class="light" cx="379.64" cy="467.02" rx="13" ry="3.44" />
      <path class="gradient" d="M402.58,460.27c0,1.9,5.82,3.45,13,3.45s13-1.55,13-3.45v10.56c-14.5,6.63-26,0-26,0Z" />
      <ellipse class="light" cx="415.58" cy="460.27" rx="13" ry="3.44" />
      <path class="gradient" d="M436.64,453c0,1.9,5.82,3.45,13,3.45s13-1.55,13-3.45v10.56c-14.5,6.63-26,0-26,0Z" />
      <ellipse class="light" cx="449.64" cy="453.02" rx="13" ry="3.44" />
      <path class="gradient" d="M471.58,446.27c0,1.9,5.82,3.45,13,3.45s13-1.55,13-3.45v10.56c-14.5,6.63-26,0-26,0Z" />
      <ellipse class="light" cx="484.58" cy="446.27" rx="13" ry="3.44" />
    </g>
    <g class="row-1 piece-6 primary piece">
      <polygon class="standard" points="306 499.17 375 485.17 375 535.17 306 549.17 306 499.17" />
      <polygon class="dark" points="306 499.17 280 489.17 280 539.17 306 549.17 306 499.17" />
      <polygon class="light" points="280 489.17 306 499.17 375 485.17 349 475.17 280 489.17" />
      <path class="gradient" d="M333.58,474.27c0,1.9,5.82,3.45,13,3.45s13-1.55,13-3.45v10.56c-14.5,6.63-26,0-26,0Z" />
      <ellipse class="light" cx="346.58" cy="474.27" rx="13" ry="3.44" />
      <path class="gradient" d="M297.64,481c0,1.9,5.82,3.45,13,3.45s13-1.55,13-3.45v10.56c-14.5,6.63-26,0-26,0Z" />
      <ellipse class="light" cx="310.64" cy="481.02" rx="13" ry="3.44" />
    </g>
    <g class="row-2 piece-1 primary piece">
      <polygon class="standard" points="685.5 372.03 720 365.17 720 415.17 685.5 422.03 685.5 372.03" />
      <polygon class="dark" points="685.5 372.03 659.5 362.03 659.5 412.03 685.5 422.03 685.5 372.03" />
      <polygon class="light" points="659.5 362.03 685.5 372.03 720 365.17 694 355.17 659.5 362.03" />
      <path class="gradient" d="M677.14,353.88c0,1.9,5.82,3.45,13,3.45s13-1.55,13-3.45v10.56c-14.5,6.63-26,0-26,0Z" />
      <ellipse class="light" cx="690.14" cy="353.88" rx="13" ry="3.44" />
    </g>
    <g class="row-2 piece-2 contrast piece">
      <polygon class="standard" points="651 378.89 685.5 372.03 685.5 422.03 651 428.89 651 378.89" />
      <polygon class="dark" points="651 378.89 625 368.89 625 418.89 651 428.89 651 378.89" />
      <polygon class="light" points="625 368.89 651 378.89 685.5 372.03 659.5 362.03 625 368.89" />
      <path class="gradient" d="M642.64,360.74c0,1.9,5.82,3.45,13,3.45s13-1.55,13-3.45V371.3c-14.5,6.63-26,0-26,0Z" />
      <ellipse class="light" cx="655.64" cy="360.74" rx="13" ry="3.44" />
    </g>
    <g class="row-2 piece-3 contrast piece">
      <polygon class="standard" points="582 393.17 651 379.17 651 429.17 582 443.17 582 393.17" />
      <polygon class="dark" points="582 393.17 556 383.17 556 433.17 582 443.17 582 393.17" />
      <polygon class="light" points="556 383.17 582 393.17 651 379.17 625 369.17 556 383.17" />
      <path class="gradient" d="M609.58,368.27c0,1.9,5.82,3.45,13,3.45s13-1.55,13-3.45v10.56c-14.5,6.63-26,0-26,0Z" />
      <ellipse class="light" cx="622.58" cy="368.27" rx="13" ry="3.44" />
      <path class="gradient" d="M573.64,375c0,1.9,5.82,3.45,13,3.45s13-1.55,13-3.45v10.56c-14.5,6.63-26,0-26,0Z" />
      <ellipse class="light" cx="586.64" cy="375.02" rx="13" ry="3.44" />
    </g>
    <g class="row-2 piece-4 primary piece">
      <polygon class="standard" points="547.5 400.03 582 393.17 582 443.17 547.5 450.03 547.5 400.03" />
      <polygon class="dark" points="547.5 400.03 495.5 380.03 495.5 430.03 547.5 450.03 547.5 400.03" />
      <polygon class="light" points="495.5 380.03 547.5 400.03 582 393.17 530 373.17 495.5 380.03" />
      <path class="gradient" d="M513.14,371.88c0,1.9,5.82,3.44,13,3.44s13-1.54,13-3.44v10.56c-14.5,6.63-26,0-26,0Z" />
      <ellipse class="light" cx="526.14" cy="371.88" rx="13" ry="3.44" />
      <path class="gradient" d="M539.14,381.88c0,1.9,5.82,3.45,13,3.45s13-1.55,13-3.45v10.56c-14.5,6.63-26,0-26,0Z" />
      <ellipse class="light" cx="552.14" cy="381.88" rx="13" ry="3.44" />
    </g>
    <g class="row-2 piece-5 contrast piece">
      <polygon class="standard" points="478.5 414.03 547.5 400.03 547.5 450.03 478.5 464.03 478.5 414.03" />
      <polygon class="dark" points="478.5 414.03 452.5 404.03 452.5 454.03 478.5 464.03 478.5 414.03" />
      <polygon class="light" points="452.5 404.03 478.5 414.03 547.5 400.03 521.5 390.03 452.5 404.03" />
      <path class="gradient" d="M470.14,395.88c0,1.9,5.82,3.45,13,3.45s13-1.55,13-3.45v10.56c-14.5,6.63-26,0-26,0Z" />
      <ellipse class="light" cx="483.14" cy="395.88" rx="13" ry="3.44" />
      <path class="gradient" d="M506.08,389.13c0,1.9,5.82,3.45,13,3.45s13-1.55,13-3.45v10.56c-14.5,6.63-26,0-26,0Z" />
      <ellipse class="light" cx="519.08" cy="389.13" rx="13" ry="3.44" />
    </g>
    <g class="row-2 piece-6 contrast piece">
      <polygon class="standard" points="444 421.17 478.5 414.31 478.5 464.31 444 471.17 444 421.17" />
      <polygon class="dark" points="444 421.17 392 401.17 392 451.17 444 471.17 444 421.17" />
      <polygon class="light" points="392 401.17 444 421.17 478.5 414.31 426.5 394.31 392 401.17" />
      <path class="gradient" d="M409.64,393c0,1.9,5.82,3.44,13,3.44s13-1.54,13-3.44v10.56c-14.5,6.63-26,0-26,0Z" />
      <ellipse class="light" cx="422.64" cy="393.02" rx="13" ry="3.44" />
      <path class="gradient" d="M435.64,403c0,1.9,5.82,3.45,13,3.45s13-1.55,13-3.45v10.56c-14.5,6.63-26,0-26,0Z" />
      <ellipse class="light" cx="448.64" cy="403.02" rx="13" ry="3.44" />
    </g>
    <g class="row-2 piece-7 primary piece">
      <polygon class="standard" points="306 449.17 444 421.17 444 471.17 306 499.17 306 449.17" />
      <polygon class="dark" points="306 449.17 280 439.17 280 489.17 306 499.17 306 449.17" />
      <polygon class="light" points="280 439.17 306 449.17 444 421.17 418 411.17 280 439.17" />
      <path class="gradient" d="M297.64,431c0,1.9,5.82,3.45,13,3.45s13-1.55,13-3.45v10.56c-14.5,6.63-26,0-26,0Z" />
      <ellipse class="light" cx="310.64" cy="431.02" rx="13" ry="3.44" />
      <path class="gradient" d="M333.58,424.27c0,1.9,5.82,3.45,13,3.45s13-1.55,13-3.45v10.56c-14.5,6.63-26,0-26,0Z" />
      <ellipse class="light" cx="346.58" cy="424.27" rx="13" ry="3.44" />
      <path class="gradient" d="M367.64,417c0,1.9,5.82,3.45,13,3.45s13-1.55,13-3.45v10.56c-14.5,6.63-26,0-26,0Z" />
      <ellipse class="light" cx="380.64" cy="417.02" rx="13" ry="3.44" />
      <path class="gradient" d="M402.58,410.27c0,1.9,5.82,3.45,13,3.45s13-1.55,13-3.45v10.56c-14.5,6.63-26,0-26,0Z" />
      <ellipse class="light" cx="415.58" cy="410.27" rx="13" ry="3.44" />
    </g>
    <g class="row-3 piece-1 primary piece">
      <polygon class="standard" points="685.5 322.03 720 315.17 720 365.17 685.5 372.03 685.5 322.03" />
      <polygon class="dark" points="685.5 322.03 659.5 312.03 659.5 362.03 685.5 372.03 685.5 322.03" />
      <polygon class="light" points="659.5 312.03 685.5 322.03 720 315.17 694 305.17 659.5 312.03" />
      <path class="gradient" d="M677.14,303.88c0,1.9,5.82,3.45,13,3.45s13-1.55,13-3.45v10.56c-14.5,6.63-26,0-26,0Z" />
      <ellipse class="light" cx="690.14" cy="303.88" rx="13" ry="3.44" />
    </g>
    <g class="row-3 piece-2 contrast piece">
      <polygon class="standard" points="651 362.23 685.5 355.37 685.5 372.03 651 378.89 651 362.23" />
      <polygon class="dark" points="651 362.23 625 352.23 625 368.89 651 378.89 651 362.23" />
      <polygon class="light" points="625 352.23 651 362.23 685.5 355.37 659.5 345.37 625 352.23" />
      <path class="gradient" d="M642.64,344.07c0,1.91,5.82,3.45,13,3.45s13-1.54,13-3.45v10.56c-14.5,6.63-26,0-26,0Z" />
      <ellipse class="light" cx="655.64" cy="344.07" rx="13" ry="3.44" />
    </g>
    <g class="row-3 piece-3 contrast piece">
      <polygon class="standard" points="651 345.87 685.5 339.01 685.5 355.68 651 362.54 651 345.87" />
      <polygon class="dark" points="651 345.87 625 335.87 625 352.54 651 362.54 651 345.87" />
      <polygon class="light" points="625 335.87 651 345.87 685.5 339.01 659.5 329.01 625 335.87" />
      <path class="gradient" d="M642.64,327.72c0,1.9,5.82,3.44,13,3.44s13-1.54,13-3.44v10.56c-14.5,6.62-26,0-26,0Z" />
      <ellipse class="light" cx="655.64" cy="327.72" rx="13" ry="3.44" />
    </g>
    <g class="row-3 piece-4 primary piece">
      <polygon class="standard" points="582 376.23 651 362.23 651 378.89 582 392.89 582 376.23" />
      <polygon class="dark" points="582 376.23 556 366.23 556 382.89 582 392.89 582 376.23" />
      <polygon class="light" points="556 366.23 582 376.23 651 362.23 625 352.23 556 366.23" />
      <path class="gradient" d="M573.64,358.07c0,1.91,5.82,3.45,13,3.45s13-1.54,13-3.45v10.56c-14.5,6.63-26,0-26,0Z" />
      <ellipse class="light" cx="586.64" cy="358.07" rx="13" ry="3.44" />
      <path class="gradient" d="M609.58,351.32c0,1.91,5.82,3.45,13,3.45s13-1.54,13-3.45v10.56c-14.5,6.63-26,0-26,0Z" />
      <ellipse class="light" cx="622.58" cy="351.32" rx="13" ry="3.44" />
    </g>
    <g class="row-3 piece-5 primary piece">
      <polygon class="standard" points="582 359.56 651 345.56 651 362.23 582 376.23 582 359.56" />
      <polygon class="dark" points="582 359.56 556 349.56 556 366.23 582 376.23 582 359.56" />
      <polygon class="light" points="556 349.56 582 359.56 651 345.56 625 335.56 556 349.56" />
      <path class="gradient" d="M573.64,341.41c0,1.9,5.82,3.44,13,3.44s13-1.54,13-3.44V352c-14.5,6.62-26,0-26,0Z" />
      <ellipse class="light" cx="586.64" cy="341.41" rx="13" ry="3.44" />
      <path class="gradient" d="M609.58,334.66c0,1.9,5.82,3.44,13,3.44s13-1.54,13-3.44v10.56c-14.5,6.62-26,0-26,0Z" />
      <ellipse class="light" cx="622.58" cy="334.66" rx="13" ry="3.44" />
    </g>
    <g class="row-3 piece-6 contrast piece">
      <polygon class="standard" points="581 342.89 685.5 321.64 685.5 338.31 581 359.56 581 342.89" />
      <polygon class="dark" points="581 342.89 555 332.89 555 349.56 581 359.56 581 342.89" />
      <polygon class="light" points="555 332.89 581 342.89 685.5 321.64 659.5 311.64 555 332.89" />
      <path class="gradient" d="M608.58,318c0,1.91,5.82,3.45,13,3.45s13-1.54,13-3.45v10.56c-14.5,6.63-26,0-26,0Z" />
      <ellipse class="light" cx="621.58" cy="317.99" rx="13" ry="3.44" />
      <path class="gradient" d="M572.64,324.74c0,1.91,5.82,3.45,13,3.45s13-1.54,13-3.45V335.3c-14.5,6.63-26,0-26,0Z" />
      <ellipse class="light" cx="585.64" cy="324.74" rx="13" ry="3.44" />
      <path class="gradient" d="M644.08,310.74c0,1.9,5.82,3.45,13,3.45s13-1.55,13-3.45V321.3c-14.5,6.63-26,0-26,0Z" />
      <ellipse class="light" cx="657.08" cy="310.74" rx="13" ry="3.44" />
    </g>
    <g class="row-3 piece-7 primary piece">
      <polygon class="standard" points="547.5 350.03 582 343.17 582 393.17 547.5 400.03 547.5 350.03" />
      <polygon class="dark" points="547.5 350.03 521.5 340.03 521.5 390.03 547.5 400.03 547.5 350.03" />
      <polygon class="light" points="521.5 340.03 547.5 350.03 582 343.17 556 333.17 521.5 340.03" />
      <path class="gradient" d="M539.14,331.88c0,1.9,5.82,3.45,13,3.45s13-1.55,13-3.45v10.56c-14.5,6.63-26,0-26,0Z" />
      <ellipse class="light" cx="552.14" cy="331.88" rx="13" ry="3.44" />
    </g>
    <g class="row-3 piece-8 contrast piece">
      <polygon class="standard" points="513 356.89 547.5 350.03 547.5 400.03 513 406.89 513 356.89" />
      <polygon class="dark" points="513 356.89 487 346.89 487 396.89 513 406.89 513 356.89" />
      <polygon class="light" points="487 346.89 513 356.89 547.5 350.03 521.5 340.03 487 346.89" />
      <path class="gradient" d="M504.64,338.74c0,1.9,5.82,3.45,13,3.45s13-1.55,13-3.45V349.3c-14.5,6.63-26,0-26,0Z" />
      <ellipse class="light" cx="517.64" cy="338.74" rx="13" ry="3.44" />
    </g>
    <g class="row-3 piece-9 primary piece">
      <polygon class="standard" points="478.5 363.75 513 356.89 513 406.89 478.5 413.75 478.5 363.75" />
      <polygon class="dark" points="478.5 363.75 452.5 353.75 452.5 403.75 478.5 413.75 478.5 363.75" />
      <polygon class="light" points="452.5 353.75 478.5 363.75 513 356.89 487 346.89 452.5 353.75" />
      <path class="gradient" d="M470.14,345.6c0,1.9,5.82,3.45,13,3.45s13-1.55,13-3.45v10.56c-14.5,6.63-26,0-26,0Z" />
      <ellipse class="light" cx="483.14" cy="345.6" rx="13" ry="3.44" />
    </g>
    <g class="row-3 piece-10 contrast piece">
      <polygon class="standard" points="444 404.17 478.5 397.31 478.5 413.98 444 420.84 444 404.17" />
      <polygon class="dark" points="444 404.17 418 394.17 418 410.84 444 420.84 444 404.17" />
      <polygon class="light" points="418 394.17 444 404.17 478.5 397.31 452.5 387.31 418 394.17" />
      <path class="gradient" d="M435.64,386c0,1.9,5.82,3.45,13,3.45s13-1.55,13-3.45v10.56c-14.5,6.63-26,0-26,0Z" />
      <ellipse class="light" cx="448.64" cy="386.02" rx="13" ry="3.44" />
    </g>
    <g class="row-3 piece-11 primary piece">
      <polygon class="standard" points="444 387.28 478.5 380.42 478.5 397.09 444 403.95 444 387.28" />
      <polygon class="dark" points="444 387.28 418 377.28 418 393.95 444 403.95 444 387.28" />
      <polygon class="light" points="418 377.28 444 387.28 478.5 380.42 452.5 370.42 418 377.28" />
      <path class="gradient" d="M435.64,369.13c0,1.9,5.82,3.44,13,3.44s13-1.54,13-3.44v10.56c-14.5,6.62-26,0-26,0Z" />
      <ellipse class="light" cx="448.64" cy="369.13" rx="13" ry="3.44" />
    </g>
    <g class="row-3 piece-12 primary piece">
      <polygon class="standard" points="444 370.92 478.5 364.06 478.5 380.73 444 387.59 444 370.92" />
      <polygon class="dark" points="444 370.92 418 360.92 418 377.59 444 387.59 444 370.92" />
      <polygon class="light" points="418 360.92 444 370.92 478.5 364.06 452.5 354.06 418 360.92" />
      <path class="gradient" d="M435.64,352.77c0,1.9,5.82,3.45,13,3.45s13-1.55,13-3.45v10.56c-14.5,6.63-26,0-26,0Z" />
      <ellipse class="light" cx="448.64" cy="352.77" rx="13" ry="3.44" />
    </g>
    <g class="row-3 piece-13 primary piece">
      <polygon class="standard" points="306 399.17 444 371.17 444 421.17 306 449.17 306 399.17" />
      <polygon class="dark" points="306 399.17 280 389.17 280 439.17 306 449.17 306 399.17" />
      <polygon class="light" points="280 389.17 306 399.17 444 371.17 418 361.17 280 389.17" />
      <path class="gradient" d="M297.64,381c0,1.9,5.82,3.45,13,3.45s13-1.55,13-3.45v10.56c-14.5,6.63-26,0-26,0Z" />
      <ellipse class="light" cx="310.64" cy="381.02" rx="13" ry="3.44" />
      <path class="gradient" d="M333.58,374.27c0,1.9,5.82,3.45,13,3.45s13-1.55,13-3.45v10.56c-14.5,6.63-26,0-26,0Z" />
      <ellipse class="light" cx="346.58" cy="374.27" rx="13" ry="3.44" />
      <path class="gradient" d="M367.64,367c0,1.9,5.82,3.45,13,3.45s13-1.55,13-3.45v10.56c-14.5,6.63-26,0-26,0Z" />
      <ellipse class="light" cx="380.64" cy="367.02" rx="13" ry="3.44" />
      <path class="gradient" d="M402.58,360.27c0,1.9,5.82,3.45,13,3.45s13-1.55,13-3.45v10.56c-14.5,6.63-26,0-26,0Z" />
      <ellipse class="light" cx="415.58" cy="360.27" rx="13" ry="3.44" />
    </g>
    <g class="row-4 piece-1 primary piece">
      <polygon class="standard" points="685.5 272.03 720 265.17 720 315.17 685.5 322.03 685.5 272.03" />
      <polygon class="dark" points="685.5 272.03 659.5 262.03 659.5 312.03 685.5 322.03 685.5 272.03" />
      <polygon class="light" points="659.5 262.03 685.5 272.03 720 265.17 694 255.17 659.5 262.03" />
      <path class="gradient" d="M677.14,253.88c0,1.9,5.82,3.45,13,3.45s13-1.55,13-3.45v10.56c-14.5,6.63-26,0-26,0Z" />
      <ellipse class="light" cx="690.14" cy="253.88" rx="13" ry="3.44" />
    </g>
    <g class="row-4 piece-2 contrast piece">
      <polygon class="standard" points="581 326.62 685.5 305.37 685.5 322.03 581 343.29 581 326.62" />
      <polygon class="dark" points="581 326.62 555 316.62 555 333.29 581 343.29 581 326.62" />
      <polygon class="light" points="555 316.62 581 326.62 685.5 305.37 659.5 295.37 555 316.62" />
      <path class="gradient" d="M608.58,301.72c0,1.9,5.82,3.44,13,3.44s13-1.54,13-3.44v10.56c-14.5,6.62-26,0-26,0Z" />
      <ellipse class="light" cx="621.58" cy="301.72" rx="13" ry="3.44" />
      <path class="gradient" d="M572.64,308.47c0,1.9,5.82,3.44,13,3.44s13-1.54,13-3.44V319c-14.5,6.62-26,0-26,0Z" />
      <ellipse class="light" cx="585.64" cy="308.47" rx="13" ry="3.44" />
      <path class="gradient" d="M644.08,294.46c0,1.91,5.82,3.45,13,3.45s13-1.54,13-3.45V305c-14.5,6.63-26,0-26,0Z" />
      <ellipse class="light" cx="657.08" cy="294.46" rx="13" ry="3.44" />
    </g>
    <g class="row-4 piece-3 primary piece">
      <polygon class="standard" points="616.5 302.7 685.5 288.7 685.5 305.37 616.5 319.37 616.5 302.7" />
      <polygon class="dark" points="616.5 302.7 590.5 292.7 590.5 309.37 616.5 319.37 616.5 302.7" />
      <polygon class="light" points="590.5 292.7 616.5 302.7 685.5 288.7 659.5 278.7 590.5 292.7" />
      <path class="gradient" d="M608.14,284.55c0,1.9,5.82,3.44,13,3.44s13-1.54,13-3.44v10.56c-14.5,6.62-26,0-26,0Z" />
      <ellipse class="light" cx="621.14" cy="284.55" rx="13" ry="3.44" />
      <path class="gradient" d="M644.08,277.8c0,1.9,5.82,3.44,13,3.44s13-1.54,13-3.44v10.56c-14.5,6.62-26,0-26,0Z" />
      <ellipse class="light" cx="657.08" cy="277.8" rx="13" ry="3.44" />
    </g>
    <g class="row-4 piece-4 primary piece">
      <polygon class="standard" points="616.5 286.04 685.5 272.04 685.5 288.7 616.5 302.7 616.5 286.04" />
      <polygon class="dark" points="616.5 286.04 590.5 276.04 590.5 292.7 616.5 302.7 616.5 286.04" />
      <polygon class="light" points="590.5 276.04 616.5 286.04 685.5 272.04 659.5 262.04 590.5 276.04" />
      <path class="gradient" d="M644.08,261.13c0,1.91,5.82,3.45,13,3.45s13-1.54,13-3.45v10.56c-14.5,6.63-26,0-26,0Z" />
      <ellipse class="light" cx="657.08" cy="261.13" rx="13" ry="3.44" />
      <path class="gradient" d="M608.14,267.88c0,1.91,5.82,3.45,13,3.45s13-1.54,13-3.45v10.56c-14.5,6.63-26,0-26,0Z" />
      <ellipse class="light" cx="621.14" cy="267.88" rx="13" ry="3.44" />
    </g>
    <g class="row-4 piece-5 contrast piece">
      <polygon class="standard" points="582 309.53 616.5 302.67 616.5 319.34 582 326.2 582 309.53" />
      <polygon class="dark" points="582 309.53 556 299.53 556 316.2 582 326.2 582 309.53" />
      <polygon class="light" points="556 299.53 582 309.53 616.5 302.67 590.5 292.67 556 299.53" />
      <path class="gradient" d="M573.64,291.38c0,1.9,5.82,3.44,13,3.44s13-1.54,13-3.44v10.56c-14.5,6.62-26,0-26,0Z" />
      <ellipse class="light" cx="586.64" cy="291.38" rx="13" ry="3.44" />
    </g>
    <g class="row-4 piece-5 contrast piece">
      <polygon class="standard" points="582 293.17 616.5 286.31 616.5 302.98 582 309.84 582 293.17" />
      <polygon class="dark" points="582 293.17 556 283.17 556 299.84 582 309.84 582 293.17" />
      <polygon class="light" points="556 283.17 582 293.17 616.5 286.31 590.5 276.31 556 283.17" />
      <path class="gradient" d="M573.64,275c0,1.9,5.82,3.45,13,3.45s13-1.55,13-3.45v10.56c-14.5,6.63-26,0-26,0Z" />
      <ellipse class="light" cx="586.64" cy="275.02" rx="13" ry="3.44" />
    </g>
    <g class="row-4 piece-6 primary piece">
      <polygon class="standard" points="547.5 300.03 582 293.17 582 343.17 547.5 350.03 547.5 300.03" />
      <polygon class="dark" points="547.5 300.03 521.5 290.03 521.5 340.03 547.5 350.03 547.5 300.03" />
      <polygon class="light" points="521.5 290.03 547.5 300.03 582 293.17 556 283.17 521.5 290.03" />
      <path class="gradient" d="M539.14,281.88c0,1.9,5.82,3.45,13,3.45s13-1.55,13-3.45v10.56c-14.5,6.63-26,0-26,0Z" />
      <ellipse class="light" cx="552.14" cy="281.88" rx="13" ry="3.44" />
    </g>
    <g class="row-4 piece-7 contrast piece">
      <polygon class="standard" points="513 306.89 547.5 300.03 547.5 350.03 513 356.89 513 306.89" />
      <polygon class="dark" points="513 306.89 487 296.89 487 346.89 513 356.89 513 306.89" />
      <polygon class="light" points="487 296.89 513 306.89 547.5 300.03 521.5 290.03 487 296.89" />
      <path class="gradient" d="M504.64,288.74c0,1.9,5.82,3.45,13,3.45s13-1.55,13-3.45V299.3c-14.5,6.63-26,0-26,0Z" />
      <ellipse class="light" cx="517.64" cy="288.74" rx="13" ry="3.44" />
    </g>
    <g class="row-4 piece-8 primary piece">
      <polygon class="standard" points="375 335.17 513 307.17 513 357.17 375 385.17 375 335.17" />
      <polygon class="dark" points="375 335.17 349 325.17 349 375.17 375 385.17 375 335.17" />
      <polygon class="light" points="349 325.17 375 335.17 513 307.17 487 297.17 349 325.17" />
      <path class="gradient" d="M366.64,317c0,1.9,5.82,3.45,13,3.45s13-1.55,13-3.45v10.56c-14.5,6.63-26,0-26,0Z" />
      <ellipse class="light" cx="379.64" cy="317.02" rx="13" ry="3.44" />
      <path class="gradient" d="M402.58,310.27c0,1.9,5.82,3.45,13,3.45s13-1.55,13-3.45v10.56c-14.5,6.63-26,0-26,0Z" />
      <ellipse class="light" cx="415.58" cy="310.27" rx="13" ry="3.44" />
      <path class="gradient" d="M436.64,303c0,1.9,5.82,3.45,13,3.45s13-1.55,13-3.45v10.56c-14.5,6.63-26,0-26,0Z" />
      <ellipse class="light" cx="449.64" cy="303.02" rx="13" ry="3.44" />
      <path class="gradient" d="M471.58,296.27c0,1.9,5.82,3.45,13,3.45s13-1.55,13-3.45v10.56c-14.5,6.63-26,0-26,0Z" />
      <ellipse class="light" cx="484.58" cy="296.27" rx="13" ry="3.44" />
    </g>
    <g class="row-4 piece-9 primary piece">
      <polygon class="standard" points="306 349.17 375 335.17 375 385.17 306 399.17 306 349.17" />
      <polygon class="dark" points="306 349.17 280 339.17 280 389.17 306 399.17 306 349.17" />
      <polygon class="light" points="280 339.17 306 349.17 375 335.17 349 325.17 280 339.17" />
      <path class="gradient" d="M333.58,324.27c0,1.9,5.82,3.45,13,3.45s13-1.55,13-3.45v10.56c-14.5,6.63-26,0-26,0Z" />
      <ellipse class="light" cx="346.58" cy="324.27" rx="13" ry="3.44" />
      <path class="gradient" d="M297.64,331c0,1.9,5.82,3.45,13,3.45s13-1.55,13-3.45v10.56c-14.5,6.63-26,0-26,0Z" />
      <ellipse class="light" cx="310.64" cy="331.02" rx="13" ry="3.44" />
    </g>
    <g class="row-5 piece-1 primary piece">
      <polygon class="standard" points="685.5 222.03 720 215.17 720 265.17 685.5 272.03 685.5 222.03" />
      <polygon class="dark" points="685.5 222.03 659.5 212.03 659.5 262.03 685.5 272.03 685.5 222.03" />
      <polygon class="light" points="659.5 212.03 685.5 222.03 720 215.17 694 205.17 659.5 212.03" />
      <path class="gradient" d="M677.14,203.88c0,1.9,5.82,3.45,13,3.45s13-1.55,13-3.45v10.56c-14.5,6.63-26,0-26,0Z" />
      <ellipse class="light" cx="690.14" cy="203.88" rx="13" ry="3.44" />
    </g>
    <g class="row-5 piece-2 contrast piece">
      <polygon class="standard" points="616.5 236.07 685.5 222.07 685.5 272.07 616.5 286.07 616.5 236.07" />
      <polygon class="dark" points="616.5 236.07 590.5 226.07 590.5 276.07 616.5 286.07 616.5 236.07" />
      <polygon class="light" points="590.5 226.07 616.5 236.07 685.5 222.07 659.5 212.07 590.5 226.07" />
      <path class="gradient" d="M644.08,211.17c0,1.9,5.82,3.45,13,3.45s13-1.55,13-3.45v10.56c-14.5,6.63-26,0-26,0Z" />
      <ellipse class="light" cx="657.08" cy="211.17" rx="13" ry="3.44" />
      <path class="gradient" d="M608.14,217.92c0,1.9,5.82,3.45,13,3.45s13-1.55,13-3.45v10.56c-14.5,6.63-26,0-26,0Z" />
      <ellipse class="light" cx="621.14" cy="217.92" rx="13" ry="3.44" />
    </g>
    <g class="row-5 piece-3 contrast piece">
      <polygon class="standard" points="582 243.17 616.5 236.31 616.5 286.31 582 293.17 582 243.17" />
      <polygon class="dark" points="582 243.17 556 233.17 556 283.17 582 293.17 582 243.17" />
      <polygon class="light" points="556 233.17 582 243.17 616.5 236.31 590.5 226.31 556 233.17" />
      <path class="gradient" d="M573.64,225c0,1.9,5.82,3.45,13,3.45s13-1.55,13-3.45v10.56c-14.5,6.63-26,0-26,0Z" />
      <ellipse class="light" cx="586.64" cy="225.02" rx="13" ry="3.44" />
    </g>
    <g class="row-5 piece-4 primary piece">
      <polygon class="standard" points="547.5 250.03 582 243.17 582 293.17 547.5 300.03 547.5 250.03" />
      <polygon class="dark" points="547.5 250.03 521.5 240.03 521.5 290.03 547.5 300.03 547.5 250.03" />
      <polygon class="light" points="521.5 240.03 547.5 250.03 582 243.17 556 233.17 521.5 240.03" />
      <path class="gradient" d="M539.14,231.88c0,1.9,5.82,3.45,13,3.45s13-1.55,13-3.45v10.56c-14.5,6.63-26,0-26,0Z" />
      <ellipse class="light" cx="552.14" cy="231.88" rx="13" ry="3.44" />
    </g>
    <g class="row-5 piece-5 contrast piece">
      <polygon class="standard" points="513 256.89 547.5 250.03 547.5 300.03 513 306.89 513 256.89" />
      <polygon class="dark" points="513 256.89 487 246.89 487 296.89 513 306.89 513 256.89" />
      <polygon class="light" points="487 246.89 513 256.89 547.5 250.03 521.5 240.03 487 246.89" />
      <path class="gradient" d="M504.64,238.74c0,1.9,5.82,3.45,13,3.45s13-1.55,13-3.45V249.3c-14.5,6.63-26,0-26,0Z" />
      <ellipse class="light" cx="517.64" cy="238.74" rx="13" ry="3.44" />
    </g>
    <g class="row-5 piece-6 primary piece">
      <polygon class="standard" points="444 271.17 513 257.17 513 307.17 444 321.17 444 271.17" />
      <polygon class="dark" points="444 271.17 418 261.17 418 311.17 444 321.17 444 271.17" />
      <polygon class="light" points="418 261.17 444 271.17 513 257.17 487 247.17 418 261.17" />
      <path class="gradient" d="M471.58,246.27c0,1.9,5.82,3.45,13,3.45s13-1.55,13-3.45v10.56c-14.5,6.63-26,0-26,0Z" />
      <ellipse class="light" cx="484.58" cy="246.27" rx="13" ry="3.44" />
      <path class="gradient" d="M435.64,253c0,1.9,5.82,3.45,13,3.45s13-1.55,13-3.45v10.56c-14.5,6.63-26,0-26,0Z" />
      <ellipse class="light" cx="448.64" cy="253.02" rx="13" ry="3.44" />
    </g>
    <g class="row-5 piece-7 primary piece">
      <polygon class="standard" points="306 299.17 444 271.17 444 321.17 306 349.17 306 299.17" />
      <polygon class="dark" points="306 299.17 280 289.17 280 339.17 306 349.17 306 299.17" />
      <polygon class="light" points="280 289.17 306 299.17 444 271.17 418 261.17 280 289.17" />
      <path class="gradient" d="M297.64,281c0,1.9,5.82,3.45,13,3.45s13-1.55,13-3.45v10.56c-14.5,6.63-26,0-26,0Z" />
      <ellipse class="light" cx="310.64" cy="281.02" rx="13" ry="3.44" />
      <path class="gradient" d="M333.58,274.27c0,1.9,5.82,3.45,13,3.45s13-1.55,13-3.45v10.56c-14.5,6.63-26,0-26,0Z" />
      <ellipse class="light" cx="346.58" cy="274.27" rx="13" ry="3.44" />
      <path class="gradient" d="M367.64,267c0,1.9,5.82,3.45,13,3.45s13-1.55,13-3.45v10.56c-14.5,6.63-26,0-26,0Z" />
      <ellipse class="light" cx="380.64" cy="267.02" rx="13" ry="3.44" />
      <path class="gradient" d="M402.58,260.27c0,1.9,5.82,3.45,13,3.45s13-1.55,13-3.45v10.56c-14.5,6.63-26,0-26,0Z" />
      <ellipse class="light" cx="415.58" cy="260.27" rx="13" ry="3.44" />
    </g>
    <g class="row-6 piece-1 primary piece">
      <polygon class="standard" points="651 179.17 720 165.17 720 215.17 651 229.17 651 179.17" />
      <polygon class="dark" points="651 179.17 625 169.17 625 219.17 651 229.17 651 179.17" />
      <polygon class="light" points="625 169.17 651 179.17 720 165.17 694 155.17 625 169.17" />
      <path class="gradient" d="M678.58,154.27c0,1.9,5.82,3.45,13,3.45s13-1.55,13-3.45v10.56c-14.5,6.63-26,0-26,0Z" />
      <ellipse class="light" cx="691.58" cy="154.27" rx="13" ry="3.44" />
      <path class="gradient" d="M642.64,161c0,1.9,5.82,3.45,13,3.45s13-1.55,13-3.45v10.56c-14.5,6.63-26,0-26,0Z" />
      <ellipse class="light" cx="655.64" cy="161.02" rx="13" ry="3.44" />
    </g>
    <g class="row-6 piece-2 primary piece">
      <polygon class="standard" points="513 207.17 651 179.17 651 229.17 513 257.17 513 207.17" />
      <polygon class="dark" points="513 207.17 487 197.17 487 247.17 513 257.17 513 207.17" />
      <polygon class="light" points="487 197.17 513 207.17 651 179.17 625 169.17 487 197.17" />
      <path class="gradient" d="M504.64,189c0,1.9,5.82,3.45,13,3.45s13-1.55,13-3.45v10.56c-14.5,6.63-26,0-26,0Z" />
      <ellipse class="light" cx="517.64" cy="189.02" rx="13" ry="3.44" />
      <path class="gradient" d="M540.58,182.27c0,1.9,5.82,3.45,13,3.45s13-1.55,13-3.45v10.56c-14.5,6.63-26,0-26,0Z" />
      <ellipse class="light" cx="553.58" cy="182.27" rx="13" ry="3.44" />
      <path class="gradient" d="M574.64,175c0,1.9,5.82,3.45,13,3.45s13-1.55,13-3.45v10.56c-14.5,6.63-26,0-26,0Z" />
      <ellipse class="light" cx="587.64" cy="175.02" rx="13" ry="3.44" />
      <path class="gradient" d="M609.58,168.27c0,1.9,5.82,3.45,13,3.45s13-1.55,13-3.45v10.56c-14.5,6.63-26,0-26,0Z" />
      <ellipse class="light" cx="622.58" cy="168.27" rx="13" ry="3.44" />
    </g>
    <g class="row-6 piece-3 primary piece">
      <polygon class="standard" points="375 235.17 513 207.17 513 257.17 375 285.17 375 235.17" />
      <polygon class="dark" points="375 235.17 349 225.17 349 275.17 375 285.17 375 235.17" />
      <polygon class="light" points="349 225.17 375 235.17 513 207.17 487 197.17 349 225.17" />
      <path class="gradient" d="M366.64,217c0,1.9,5.82,3.45,13,3.45s13-1.55,13-3.45v10.56c-14.5,6.63-26,0-26,0Z" />
      <ellipse class="light" cx="379.64" cy="217.02" rx="13" ry="3.44" />
      <path class="gradient" d="M402.58,210.27c0,1.9,5.82,3.45,13,3.45s13-1.55,13-3.45v10.56c-14.5,6.63-26,0-26,0Z" />
      <ellipse class="light" cx="415.58" cy="210.27" rx="13" ry="3.44" />
      <path class="gradient" d="M436.64,203c0,1.9,5.82,3.45,13,3.45s13-1.55,13-3.45v10.56c-14.5,6.63-26,0-26,0Z" />
      <ellipse class="light" cx="449.64" cy="203.02" rx="13" ry="3.44" />
      <path class="gradient" d="M471.58,196.27c0,1.9,5.82,3.45,13,3.45s13-1.55,13-3.45v10.56c-14.5,6.63-26,0-26,0Z" />
      <ellipse class="light" cx="484.58" cy="196.27" rx="13" ry="3.44" />
    </g>
    <g class="row-6 piece-4 primary piece">
      <polygon class="standard" points="306 249.17 375 235.17 375 285.17 306 299.17 306 249.17" />
      <polygon class="dark" points="306 249.17 280 239.17 280 289.17 306 299.17 306 249.17" />
      <polygon class="light" points="280 239.17 306 249.17 375 235.17 349 225.17 280 239.17" />
      <path class="gradient" d="M333.58,224.27c0,1.9,5.82,3.45,13,3.45s13-1.55,13-3.45v10.56c-14.5,6.63-26,0-26,0Z" />
      <ellipse class="light" cx="346.58" cy="224.27" rx="13" ry="3.44" />
      <path class="gradient" d="M297.64,231c0,1.9,5.82,3.45,13,3.45s13-1.55,13-3.45v10.56c-14.5,6.63-26,0-26,0Z" />
      <ellipse class="light" cx="310.64" cy="231.02" rx="13" ry="3.44" />
    </g>
  </g>
  <g class="list">
    <rect class="background" x="10" y="100" width="145" height="210" />
    <text transform="translate(30 293.48)">2x</text>
    <g class="piece primary">
      <polygon class="standard" points="46.9 237.53 136.6 219.32 136.6 251.82 46.9 270.02 46.9 237.53" />
      <polygon class="dark" points="46.9 237.53 30 231.03 30 263.52 46.9 270.02 46.9 237.53" />
      <polygon class="light" points="30 231.03 46.9 237.53 136.6 219.32 119.7 212.82 30 231.03" />
      <path class="gradient" d="M41.47,225.73c0,1.23,3.78,2.23,8.45,2.23s8.45-1,8.45-2.23v6.86a19.35,19.35,0,0,1-16.9,0Z" />
      <ellipse class="light" cx="49.92" cy="225.73" rx="8.45" ry="2.24" />
      <path class="gradient" d="M64.83,221.34c0,1.24,3.78,2.24,8.45,2.24s8.45-1,8.45-2.24v6.86a19.35,19.35,0,0,1-16.9,0Z" />
      <ellipse class="light" cx="73.28" cy="221.34" rx="8.45" ry="2.24" />
      <path class="gradient" d="M87,216.63c0,1.23,3.78,2.23,8.45,2.23s8.45-1,8.45-2.23v6.86a19.35,19.35,0,0,1-16.9,0Z" />
      <ellipse class="light" cx="95.42" cy="216.63" rx="8.45" ry="2.24" />
      <path class="gradient" d="M109.68,212.24c0,1.24,3.78,2.24,8.45,2.24s8.45-1,8.45-2.24v6.86a19.35,19.35,0,0,1-16.9,0Z" />
      <ellipse class="light" cx="118.13" cy="212.24" rx="8.45" ry="2.24" />
    </g>
    <text transform="translate(30 188.48)">2x</text>
    <g class="piece primary">
      <polygon class="standard" points="46.9 133.43 91.75 124.33 91.75 156.82 46.9 165.93 46.9 133.43" />
      <polygon class="dark" points="46.9 133.43 30 126.92 30 159.43 46.9 165.93 46.9 133.43" />
      <polygon class="light" points="30 126.92 46.9 133.43 91.75 124.33 74.85 117.83 30 126.92" />
      <path class="gradient" d="M64.83,117.24c0,1.24,3.78,2.24,8.45,2.24s8.45-1,8.45-2.24v6.86a19.35,19.35,0,0,1-16.9,0Z" />
      <ellipse class="light" cx="73.28" cy="117.24" rx="8.45" ry="2.24" />
      <path class="gradient" d="M41.47,121.63c0,1.23,3.78,2.23,8.45,2.23s8.45-1,8.45-2.23v6.86a19.35,19.35,0,0,1-16.9,0Z" />
      <ellipse class="light" cx="49.92" cy="121.63" rx="8.45" ry="2.24" />
    </g>
  </g>
  <text transform="translate(30 72.24)">10</text>
</svg>
