<svg xmlns="http://www.w3.org/2000/svg" xmlns:xlink="http://www.w3.org/1999/xlink" viewBox="0 0 1000 700">
  <g class="build">
    <g class="row-1 piece-1 primary piece">
      <polygon class="standard" points="521.5 366.23 590.5 352.23 590.5 402.23 521.5 416.23 521.5 366.23" />
      <polygon class="dark" points="521.5 366.23 495.5 356.23 495.5 406.23 521.5 416.23 521.5 366.23" />
      <polygon class="light" points="495.5 356.23 521.5 366.23 590.5 352.23 564.5 342.23 495.5 356.23" />
      <path class="gradient" d="M513.14,348.08c0,1.9,5.82,3.44,13,3.44s13-1.54,13-3.44v10.56c-14.5,6.62-26,0-26,0Z" stroke="#252525" stroke-linejoin="round" stroke-width="0.5" fill="url(#linear-gradient)" />
      <ellipse class="light" cx="526.14" cy="348.08" rx="13" ry="3.44" />
      <path class="gradient" d="M549.08,341.33c0,1.9,5.82,3.44,13,3.44s13-1.54,13-3.44v10.56c-14.5,6.62-26,0-26,0Z" />
      <ellipse class="light" cx="562.08" cy="341.33" rx="13" ry="3.44" />
    </g>
    <g class="row-1 piece-2 primary piece">
      <polygon class="standard" points="382.5 394.23 451.5 380.23 451.5 430.23 382.5 444.23 382.5 394.23" />
      <polygon class="dark" points="382.5 394.23 356.5 384.23 356.5 434.23 382.5 444.23 382.5 394.23" />
      <polygon class="light" points="356.5 384.23 382.5 394.23 451.5 380.23 425.5 370.23 356.5 384.23" />
      <path class="gradient" d="M374.14,376.08c0,1.9,5.82,3.44,13,3.44s13-1.54,13-3.44v10.56c-14.5,6.62-26,0-26,0Z" />
      <ellipse class="light" cx="387.14" cy="376.08" rx="13" ry="3.44" />
      <path class="gradient" d="M410.08,369.33c0,1.9,5.82,3.44,13,3.44s13-1.54,13-3.44v10.56c-14.5,6.62-26,0-26,0Z" />
      <ellipse class="light" cx="423.08" cy="369.33" rx="13" ry="3.44" />
    </g>
    <g class="row-1 piece-3 primary piece">
      <polygon class="standard" points="651 355.37 720 341.37 720 391.37 651 405.37 651 355.37" />
      <polygon class="dark" points="651 355.37 625 345.37 625 395.37 651 405.37 651 355.37" />
      <polygon class="light" points="625 345.37 651 355.37 720 341.37 694 331.37 625 345.37" />
      <path class="gradient" d="M678.58,330.47c0,1.9,5.82,3.44,13,3.44s13-1.54,13-3.44V341c-14.5,6.62-26,0-26,0Z" />
      <ellipse class="light" cx="691.58" cy="330.47" rx="13" ry="3.44" />
      <path class="gradient" d="M642.64,337.22c0,1.9,5.82,3.44,13,3.44s13-1.54,13-3.44v10.56c-14.5,6.62-26,0-26,0Z" />
      <ellipse class="light" cx="655.64" cy="337.22" rx="13" ry="3.44" />
    </g>
    <g class="row-1 piece-4 primary piece">
      <polygon class="standard" points="513 383.37 651 355.37 651 405.37 513 433.37 513 383.37" />
      <polygon class="dark" points="513 383.37 487 373.37 487 423.37 513 433.37 513 383.37" />
      <polygon class="light" points="487 373.37 513 383.37 651 355.37 625 345.37 487 373.37" />
      <path class="gradient" d="M504.64,365.22c0,1.9,5.82,3.44,13,3.44s13-1.54,13-3.44v10.56c-14.5,6.62-26,0-26,0Z" />
      <ellipse class="light" cx="517.64" cy="365.22" rx="13" ry="3.44" />
      <path class="gradient" d="M540.58,358.47c0,1.9,5.82,3.44,13,3.44s13-1.54,13-3.44V369c-14.5,6.62-26,0-26,0Z" />
      <ellipse class="light" cx="553.58" cy="358.47" rx="13" ry="3.44" />
      <path class="gradient" d="M574.64,351.22c0,1.9,5.82,3.44,13,3.44s13-1.54,13-3.44v10.56c-14.5,6.62-26,0-26,0Z" />
      <ellipse class="light" cx="587.64" cy="351.22" rx="13" ry="3.44" />
      <path class="gradient" d="M609.58,344.47c0,1.9,5.82,3.44,13,3.44s13-1.54,13-3.44V355c-14.5,6.62-26,0-26,0Z" />
      <ellipse class="light" cx="622.58" cy="344.47" rx="13" ry="3.44" />
    </g>
    <g class="row-1 piece-5 primary piece">
      <polygon class="standard" points="375 411.37 513 383.37 513 433.37 375 461.37 375 411.37" />
      <polygon class="dark" points="375 411.37 349 401.37 349 451.37 375 461.37 375 411.37" />
      <polygon class="light" points="349 401.37 375 411.37 513 383.37 487 373.37 349 401.37" />
      <path class="gradient" d="M366.64,393.22c0,1.9,5.82,3.44,13,3.44s13-1.54,13-3.44v10.56c-14.5,6.62-26,0-26,0Z" />
      <ellipse class="light" cx="379.64" cy="393.22" rx="13" ry="3.44" />
      <path class="gradient" d="M402.58,386.47c0,1.9,5.82,3.44,13,3.44s13-1.54,13-3.44V397c-14.5,6.62-26,0-26,0Z" />
      <ellipse class="light" cx="415.58" cy="386.47" rx="13" ry="3.44" />
      <path class="gradient" d="M436.64,379.22c0,1.9,5.82,3.44,13,3.44s13-1.54,13-3.44v10.56c-14.5,6.62-26,0-26,0Z" />
      <ellipse class="light" cx="449.64" cy="379.22" rx="13" ry="3.44" />
      <path class="gradient" d="M471.58,372.47c0,1.9,5.82,3.44,13,3.44s13-1.54,13-3.44V383c-14.5,6.62-26,0-26,0Z" />
      <ellipse class="light" cx="484.58" cy="372.47" rx="13" ry="3.44" />
    </g>
    <g class="row-1 piece-6 primary piece">
      <polygon class="standard" points="306 425.37 375 411.37 375 461.37 306 475.37 306 425.37" />
      <polygon class="dark" points="306 425.37 280 415.37 280 465.37 306 475.37 306 425.37" />
      <polygon class="light" points="280 415.37 306 425.37 375 411.37 349 401.37 280 415.37" />
      <path class="gradient" d="M333.58,400.47c0,1.9,5.82,3.44,13,3.44s13-1.54,13-3.44V411c-14.5,6.62-26,0-26,0Z" />
      <ellipse class="light" cx="346.58" cy="400.47" rx="13" ry="3.44" />
      <path class="gradient" d="M297.64,407.22c0,1.9,5.82,3.44,13,3.44s13-1.54,13-3.44v10.56c-14.5,6.62-26,0-26,0Z" />
      <ellipse class="light" cx="310.64" cy="407.22" rx="13" ry="3.44" />
    </g>
    <g class="row-2 piece-4 primary piece">
      <polygon class="standard" points="547.5 256.23 582 249.37 582 299.37 547.5 306.23 547.5 256.23" />
      <polygon class="dark" points="547.5 256.23 495.5 236.23 495.5 286.23 547.5 306.23 547.5 256.23" />
      <polygon class="light" points="495.5 236.23 547.5 256.23 582 249.37 530 229.37 495.5 236.23" />
      <path class="gradient" d="M513.14,228.08c0,1.9,5.82,3.44,13,3.44s13-1.54,13-3.44v10.56c-14.5,6.62-26,0-26,0Z" />
      <ellipse class="light" cx="526.14" cy="228.08" rx="13" ry="3.44" />
      <path class="gradient" d="M539.14,238.08c0,1.9,5.82,3.44,13,3.44s13-1.54,13-3.44v10.56c-14.5,6.62-26,0-26,0Z" />
      <ellipse class="light" cx="552.14" cy="238.08" rx="13" ry="3.44" />
    </g>
    <g class="row-2 piece-6 contrast piece">
      <polygon class="standard" points="444 277.37 478.5 270.51 478.5 320.51 444 327.37 444 277.37" />
      <polygon class="dark" points="444 277.37 392 257.37 392 307.37 444 327.37 444 277.37" />
      <polygon class="light" points="392 257.37 444 277.37 478.5 270.51 426.5 250.51 392 257.37" />
      <path class="gradient" d="M409.64,249.22c0,1.9,5.82,3.44,13,3.44s13-1.54,13-3.44v10.56c-14.5,6.62-26,0-26,0Z" />
      <ellipse class="light" cx="422.64" cy="249.22" rx="13" ry="3.44" />
      <path class="gradient" d="M435.64,259.22c0,1.9,5.82,3.44,13,3.44s13-1.54,13-3.44v10.56c-14.5,6.62-26,0-26,0Z" />
      <ellipse class="light" cx="448.64" cy="259.22" rx="13" ry="3.44" />
    </g>
    <polygon class="arrow" points="424.5 355.93 424.5 322.02 422.5 322.02 422.5 355.93 419.72 355.93 423.5 370.02 427.28 355.93 424.5 355.93" />
    <polygon class="arrow" points="450.5 365.93 450.5 332.02 448.5 332.02 448.5 365.93 445.72 365.93 449.5 380.02 453.28 365.93 450.5 365.93" />
    <polygon class="arrow" points="527.5 333.93 527.5 300.02 525.5 300.02 525.5 333.93 522.72 333.93 526.5 348.02 530.28 333.93 527.5 333.93" />
    <polygon class="arrow" points="553.5 343.93 553.5 310.02 551.5 310.02 551.5 343.93 548.72 343.93 552.5 358.02 556.28 343.93 553.5 343.93" />
  </g>
  <g class="list">
    <rect class="background" x="10" y="100" width="100.5" height="200.5" />
    <text transform="translate(30 285.48)">1x</text>
    <g class="list contrast piece">
      <polygon class="standard" points="46.9 229.43 91.75 220.32 91.75 252.82 46.9 261.93 46.9 229.43" />
      <polygon class="dark" points="46.9 229.43 30 222.93 30 255.43 46.9 261.93 46.9 229.43" />
      <polygon class="light" points="30 222.93 46.9 229.43 91.75 220.32 74.85 213.82 30 222.93" />
      <path class="gradient" d="M64.83,213.24c0,1.24,3.78,2.24,8.45,2.24s8.45-1,8.45-2.24v6.86a19.35,19.35,0,0,1-16.9,0Z" />
      <ellipse class="light" cx="73.28" cy="213.24" rx="8.45" ry="2.24" />
      <path class="gradient" d="M41.47,217.63c0,1.23,3.78,2.23,8.45,2.23s8.45-1,8.45-2.23v6.86a19.35,19.35,0,0,1-16.9,0Z" />
      <ellipse class="light" cx="49.92" cy="217.63" rx="8.45" ry="2.24" />
    </g>
    <text transform="translate(30 189.48)">1x</text>
    <g class="list piece primary">
      <polygon class="standard" points="46.9 133.43 91.75 124.33 91.75 156.82 46.9 165.93 46.9 133.43" />
      <polygon class="dark" points="46.9 133.43 30 126.92 30 159.43 46.9 165.93 46.9 133.43" />
      <polygon class="light" points="30 126.92 46.9 133.43 91.75 124.33 74.85 117.83 30 126.92" />
      <path class="gradient" d="M64.83,117.24c0,1.24,3.78,2.24,8.45,2.24s8.45-1,8.45-2.24v6.86a19.35,19.35,0,0,1-16.9,0Z" />
      <ellipse class="light" cx="73.28" cy="117.24" rx="8.45" ry="2.24" />
      <path class="gradient" d="M41.47,121.63c0,1.23,3.78,2.23,8.45,2.23s8.45-1,8.45-2.23v6.86a19.35,19.35,0,0,1-16.9,0Z" />
      <ellipse class="light" cx="49.92" cy="121.63" rx="8.45" ry="2.24" />
    </g>
  </g>
  <text transform="translate(30 72.24)">2</text>
</svg>
