<svg xmlns="http://www.w3.org/2000/svg" xmlns:xlink="http://www.w3.org/1999/xlink" viewBox="0 0 1000 700">
  <g class="build">
    <g class="row-1 piece-1 primary piece">
      <polygon class="standard" points="521.5 465.03 590.5 451.03 590.5 501.03 521.5 515.03 521.5 465.03" />
      <polygon class="dark" points="521.5 465.03 495.5 455.03 495.5 505.03 521.5 515.03 521.5 465.03" />
      <polygon class="light" points="495.5 455.03 521.5 465.03 590.5 451.03 564.5 441.03 495.5 455.03" />
      <path class="gradient" d="M513.14,446.88c0,1.9,5.82,3.45,13,3.45s13-1.55,13-3.45v10.56c-14.5,6.63-26,0-26,0Z" />
      <ellipse class="light" cx="526.14" cy="446.88" rx="13" ry="3.44" />
      <path class="gradient" d="M549.08,440.13c0,1.9,5.82,3.45,13,3.45s13-1.55,13-3.45v10.56c-14.5,6.63-26,0-26,0Z" />
      <ellipse class="light" cx="562.08" cy="440.13" rx="13" ry="3.44" />
    </g>
    <g class="row-1 piece-2 primary piece">
      <polygon class="standard" points="382.5 493.03 451.5 479.03 451.5 529.03 382.5 543.03 382.5 493.03" />
      <polygon class="dark" points="382.5 493.03 356.5 483.03 356.5 533.03 382.5 543.03 382.5 493.03" />
      <polygon class="light" points="356.5 483.03 382.5 493.03 451.5 479.03 425.5 469.03 356.5 483.03" />
      <path class="gradient" d="M374.14,474.88c0,1.9,5.82,3.45,13,3.45s13-1.55,13-3.45v10.56c-14.5,6.63-26,0-26,0Z" />
      <ellipse class="light" cx="387.14" cy="474.88" rx="13" ry="3.44" />
      <path class="gradient" d="M410.08,468.13c0,1.9,5.82,3.45,13,3.45s13-1.55,13-3.45v10.56c-14.5,6.63-26,0-26,0Z" />
      <ellipse class="light" cx="423.08" cy="468.13" rx="13" ry="3.44" />
    </g>
    <g class="row-1 piece-3 primary piece">
      <polygon class="standard" points="651 454.17 720 440.17 720 490.17 651 504.17 651 454.17" />
      <polygon class="dark" points="651 454.17 625 444.17 625 494.17 651 504.17 651 454.17" />
      <polygon class="light" points="625 444.17 651 454.17 720 440.17 694 430.17 625 444.17" />
      <path class="gradient" d="M678.58,429.27c0,1.9,5.82,3.45,13,3.45s13-1.55,13-3.45v10.56c-14.5,6.63-26,0-26,0Z" />
      <ellipse class="light" cx="691.58" cy="429.27" rx="13" ry="3.44" />
      <path class="gradient" d="M642.64,436c0,1.9,5.82,3.45,13,3.45s13-1.55,13-3.45v10.56c-14.5,6.63-26,0-26,0Z" />
      <ellipse class="light" cx="655.64" cy="436.02" rx="13" ry="3.44" />
    </g>
    <g class="row-1 piece-4 primary piece">
      <polygon class="standard" points="513 482.17 651 454.17 651 504.17 513 532.17 513 482.17" />
      <polygon class="dark" points="513 482.17 487 472.17 487 522.17 513 532.17 513 482.17" />
      <polygon class="light" points="487 472.17 513 482.17 651 454.17 625 444.17 487 472.17" />
      <path class="gradient" d="M504.64,464c0,1.9,5.82,3.45,13,3.45s13-1.55,13-3.45v10.56c-14.5,6.63-26,0-26,0Z" />
      <ellipse class="light" cx="517.64" cy="464.02" rx="13" ry="3.44" />
      <path class="gradient" d="M540.58,457.27c0,1.9,5.82,3.45,13,3.45s13-1.55,13-3.45v10.56c-14.5,6.63-26,0-26,0Z" />
      <ellipse class="light" cx="553.58" cy="457.27" rx="13" ry="3.44" />
      <path class="gradient" d="M574.64,450c0,1.9,5.82,3.45,13,3.45s13-1.55,13-3.45v10.56c-14.5,6.63-26,0-26,0Z" />
      <ellipse class="light" cx="587.64" cy="450.02" rx="13" ry="3.44" />
      <path class="gradient" d="M609.58,443.27c0,1.9,5.82,3.45,13,3.45s13-1.55,13-3.45v10.56c-14.5,6.63-26,0-26,0Z" />
      <ellipse class="light" cx="622.58" cy="443.27" rx="13" ry="3.44" />
    </g>
    <g class="row-1 piece-5 primary piece">
      <polygon class="standard" points="375 510.17 513 482.17 513 532.17 375 560.17 375 510.17" />
      <polygon class="dark" points="375 510.17 349 500.17 349 550.17 375 560.17 375 510.17" />
      <polygon class="light" points="349 500.17 375 510.17 513 482.17 487 472.17 349 500.17" />
      <path class="gradient" d="M366.64,492c0,1.9,5.82,3.45,13,3.45s13-1.55,13-3.45v10.56c-14.5,6.63-26,0-26,0Z" />
      <ellipse class="light" cx="379.64" cy="492.02" rx="13" ry="3.44" />
      <path class="gradient" d="M402.58,485.27c0,1.9,5.82,3.45,13,3.45s13-1.55,13-3.45v10.56c-14.5,6.63-26,0-26,0Z" />
      <ellipse class="light" cx="415.58" cy="485.27" rx="13" ry="3.44" />
      <path class="gradient" d="M436.64,478c0,1.9,5.82,3.45,13,3.45s13-1.55,13-3.45v10.56c-14.5,6.63-26,0-26,0Z" />
      <ellipse class="light" cx="449.64" cy="478.02" rx="13" ry="3.44" />
      <path class="gradient" d="M471.58,471.27c0,1.9,5.82,3.45,13,3.45s13-1.55,13-3.45v10.56c-14.5,6.63-26,0-26,0Z" />
      <ellipse class="light" cx="484.58" cy="471.27" rx="13" ry="3.44" />
    </g>
    <g class="row-1 piece-6 primary piece">
      <polygon class="standard" points="306 524.17 375 510.17 375 560.17 306 574.17 306 524.17" />
      <polygon class="dark" points="306 524.17 280 514.17 280 564.17 306 574.17 306 524.17" />
      <polygon class="light" points="280 514.17 306 524.17 375 510.17 349 500.17 280 514.17" />
      <path class="gradient" d="M333.58,499.27c0,1.9,5.82,3.45,13,3.45s13-1.55,13-3.45v10.56c-14.5,6.63-26,0-26,0Z" />
      <ellipse class="light" cx="346.58" cy="499.27" rx="13" ry="3.44" />
      <path class="gradient" d="M297.64,506c0,1.9,5.82,3.45,13,3.45s13-1.55,13-3.45v10.56c-14.5,6.63-26,0-26,0Z" />
      <ellipse class="light" cx="310.64" cy="506.02" rx="13" ry="3.44" />
    </g>
    <g class="row-2 piece-1 primary piece">
      <polygon class="standard" points="685.5 397.03 720 390.17 720 440.17 685.5 447.03 685.5 397.03" />
      <polygon class="dark" points="685.5 397.03 659.5 387.03 659.5 437.03 685.5 447.03 685.5 397.03" />
      <polygon class="light" points="659.5 387.03 685.5 397.03 720 390.17 694 380.17 659.5 387.03" />
      <path class="gradient" d="M677.14,378.88c0,1.9,5.82,3.45,13,3.45s13-1.55,13-3.45v10.56c-14.5,6.63-26,0-26,0Z" />
      <ellipse class="light" cx="690.14" cy="378.88" rx="13" ry="3.44" />
    </g>
    <g class="row-2 piece-2 contrast piece">
      <polygon class="standard" points="651 403.89 685.5 397.03 685.5 447.03 651 453.89 651 403.89" />
      <polygon class="dark" points="651 403.89 625 393.89 625 443.89 651 453.89 651 403.89" />
      <polygon class="light" points="625 393.89 651 403.89 685.5 397.03 659.5 387.03 625 393.89" />
      <path class="gradient" d="M642.64,385.74c0,1.9,5.82,3.45,13,3.45s13-1.55,13-3.45V396.3c-14.5,6.63-26,0-26,0Z" />
      <ellipse class="light" cx="655.64" cy="385.74" rx="13" ry="3.44" />
    </g>
    <g class="row-2 piece-3 contrast piece">
      <polygon class="standard" points="582 418.17 651 404.17 651 454.17 582 468.17 582 418.17" />
      <polygon class="dark" points="582 418.17 556 408.17 556 458.17 582 468.17 582 418.17" />
      <polygon class="light" points="556 408.17 582 418.17 651 404.17 625 394.17 556 408.17" />
      <path class="gradient" d="M609.58,393.27c0,1.9,5.82,3.45,13,3.45s13-1.55,13-3.45v10.56c-14.5,6.63-26,0-26,0Z" />
      <ellipse class="light" cx="622.58" cy="393.27" rx="13" ry="3.44" />
      <path class="gradient" d="M573.64,400c0,1.9,5.82,3.45,13,3.45s13-1.55,13-3.45v10.56c-14.5,6.63-26,0-26,0Z" />
      <ellipse class="light" cx="586.64" cy="400.02" rx="13" ry="3.44" />
    </g>
    <g class="row-2 piece-4 primary piece">
      <polygon class="standard" points="547.5 425.03 582 418.17 582 468.17 547.5 475.03 547.5 425.03" />
      <polygon class="dark" points="547.5 425.03 495.5 405.03 495.5 455.03 547.5 475.03 547.5 425.03" />
      <polygon class="light" points="495.5 405.03 547.5 425.03 582 418.17 530 398.17 495.5 405.03" />
      <path class="gradient" d="M513.14,396.88c0,1.9,5.82,3.44,13,3.44s13-1.54,13-3.44v10.56c-14.5,6.63-26,0-26,0Z" />
      <ellipse class="light" cx="526.14" cy="396.88" rx="13" ry="3.44" />
      <path class="gradient" d="M539.14,406.88c0,1.9,5.82,3.45,13,3.45s13-1.55,13-3.45v10.56c-14.5,6.63-26,0-26,0Z" />
      <ellipse class="light" cx="552.14" cy="406.88" rx="13" ry="3.44" />
    </g>
    <g class="row-2 piece-5 contrast piece">
      <polygon class="standard" points="478.5 439.03 547.5 425.03 547.5 475.03 478.5 489.03 478.5 439.03" />
      <polygon class="dark" points="478.5 439.03 452.5 429.03 452.5 479.03 478.5 489.03 478.5 439.03" />
      <polygon class="light" points="452.5 429.03 478.5 439.03 547.5 425.03 521.5 415.03 452.5 429.03" />
      <path class="gradient" d="M470.14,420.88c0,1.9,5.82,3.45,13,3.45s13-1.55,13-3.45v10.56c-14.5,6.63-26,0-26,0Z" />
      <ellipse class="light" cx="483.14" cy="420.88" rx="13" ry="3.44" />
      <path class="gradient" d="M506.08,414.13c0,1.9,5.82,3.45,13,3.45s13-1.55,13-3.45v10.56c-14.5,6.63-26,0-26,0Z" />
      <ellipse class="light" cx="519.08" cy="414.13" rx="13" ry="3.44" />
    </g>
    <g class="row-2 piece-6 contrast piece">
      <polygon class="standard" points="444 446.17 478.5 439.31 478.5 489.31 444 496.17 444 446.17" />
      <polygon class="dark" points="444 446.17 392 426.17 392 476.17 444 496.17 444 446.17" />
      <polygon class="light" points="392 426.17 444 446.17 478.5 439.31 426.5 419.31 392 426.17" />
      <path class="gradient" d="M409.64,418c0,1.9,5.82,3.44,13,3.44s13-1.54,13-3.44v10.56c-14.5,6.63-26,0-26,0Z" />
      <ellipse class="light" cx="422.64" cy="418.02" rx="13" ry="3.44" />
      <path class="gradient" d="M435.64,428c0,1.9,5.82,3.45,13,3.45s13-1.55,13-3.45v10.56c-14.5,6.63-26,0-26,0Z" />
      <ellipse class="light" cx="448.64" cy="428.02" rx="13" ry="3.44" />
    </g>
    <g class="row-2 piece-7 primary piece">
      <polygon class="standard" points="306 474.17 444 446.17 444 496.17 306 524.17 306 474.17" />
      <polygon class="dark" points="306 474.17 280 464.17 280 514.17 306 524.17 306 474.17" />
      <polygon class="light" points="280 464.17 306 474.17 444 446.17 418 436.17 280 464.17" />
      <path class="gradient" d="M297.64,456c0,1.9,5.82,3.45,13,3.45s13-1.55,13-3.45v10.56c-14.5,6.63-26,0-26,0Z" />
      <ellipse class="light" cx="310.64" cy="456.02" rx="13" ry="3.44" />
      <path class="gradient" d="M333.58,449.27c0,1.9,5.82,3.45,13,3.45s13-1.55,13-3.45v10.56c-14.5,6.63-26,0-26,0Z" />
      <ellipse class="light" cx="346.58" cy="449.27" rx="13" ry="3.44" />
      <path class="gradient" d="M367.64,442c0,1.9,5.82,3.45,13,3.45s13-1.55,13-3.45v10.56c-14.5,6.63-26,0-26,0Z" />
      <ellipse class="light" cx="380.64" cy="442.02" rx="13" ry="3.44" />
      <path class="gradient" d="M402.58,435.27c0,1.9,5.82,3.45,13,3.45s13-1.55,13-3.45v10.56c-14.5,6.63-26,0-26,0Z" />
      <ellipse class="light" cx="415.58" cy="435.27" rx="13" ry="3.44" />
    </g>
    <g class="row-3 piece-1 primary piece">
      <polygon class="standard" points="685.5 347.03 720 340.17 720 390.17 685.5 397.03 685.5 347.03" />
      <polygon class="dark" points="685.5 347.03 659.5 337.03 659.5 387.03 685.5 397.03 685.5 347.03" />
      <polygon class="light" points="659.5 337.03 685.5 347.03 720 340.17 694 330.17 659.5 337.03" />
      <path class="gradient" d="M677.14,328.88c0,1.9,5.82,3.45,13,3.45s13-1.55,13-3.45v10.56c-14.5,6.63-26,0-26,0Z" />
      <ellipse class="light" cx="690.14" cy="328.88" rx="13" ry="3.44" />
    </g>
    <g class="row-3 piece-2 contrast piece">
      <polygon class="standard" points="651 387.23 685.5 380.37 685.5 397.03 651 403.89 651 387.23" />
      <polygon class="dark" points="651 387.23 625 377.23 625 393.89 651 403.89 651 387.23" />
      <polygon class="light" points="625 377.23 651 387.23 685.5 380.37 659.5 370.37 625 377.23" />
      <path class="gradient" d="M642.64,369.07c0,1.91,5.82,3.45,13,3.45s13-1.54,13-3.45v10.56c-14.5,6.63-26,0-26,0Z" />
      <ellipse class="light" cx="655.64" cy="369.07" rx="13" ry="3.44" />
    </g>
    <g class="row-3 piece-3 contrast piece">
      <polygon class="standard" points="651 370.87 685.5 364.01 685.5 380.68 651 387.54 651 370.87" />
      <polygon class="dark" points="651 370.87 625 360.87 625 377.54 651 387.54 651 370.87" />
      <polygon class="light" points="625 360.87 651 370.87 685.5 364.01 659.5 354.01 625 360.87" />
      <path class="gradient" d="M642.64,352.72c0,1.9,5.82,3.44,13,3.44s13-1.54,13-3.44v10.56c-14.5,6.62-26,0-26,0Z" />
      <ellipse class="light" cx="655.64" cy="352.72" rx="13" ry="3.44" />
    </g>
    <g class="row-3 piece-4 primary piece">
      <polygon class="standard" points="582 401.23 651 387.23 651 403.89 582 417.89 582 401.23" />
      <polygon class="dark" points="582 401.23 556 391.23 556 407.89 582 417.89 582 401.23" />
      <polygon class="light" points="556 391.23 582 401.23 651 387.23 625 377.23 556 391.23" />
      <path class="gradient" d="M573.64,383.07c0,1.91,5.82,3.45,13,3.45s13-1.54,13-3.45v10.56c-14.5,6.63-26,0-26,0Z" />
      <ellipse class="light" cx="586.64" cy="383.07" rx="13" ry="3.44" />
      <path class="gradient" d="M609.58,376.32c0,1.91,5.82,3.45,13,3.45s13-1.54,13-3.45v10.56c-14.5,6.63-26,0-26,0Z" />
      <ellipse class="light" cx="622.58" cy="376.32" rx="13" ry="3.44" />
    </g>
    <g class="row-3 piece-5 primary piece">
      <polygon class="standard" points="582 384.56 651 370.56 651 387.23 582 401.23 582 384.56" />
      <polygon class="dark" points="582 384.56 556 374.56 556 391.23 582 401.23 582 384.56" />
      <polygon class="light" points="556 374.56 582 384.56 651 370.56 625 360.56 556 374.56" />
      <path class="gradient" d="M573.64,366.41c0,1.9,5.82,3.44,13,3.44s13-1.54,13-3.44V377c-14.5,6.62-26,0-26,0Z" />
      <ellipse class="light" cx="586.64" cy="366.41" rx="13" ry="3.44" />
      <path class="gradient" d="M609.58,359.66c0,1.9,5.82,3.44,13,3.44s13-1.54,13-3.44v10.56c-14.5,6.62-26,0-26,0Z" />
      <ellipse class="light" cx="622.58" cy="359.66" rx="13" ry="3.44" />
    </g>
    <g class="row-3 piece-6 contrast piece">
      <polygon class="standard" points="581 367.89 685.5 346.64 685.5 363.31 581 384.56 581 367.89" />
      <polygon class="dark" points="581 367.89 555 357.89 555 374.56 581 384.56 581 367.89" />
      <polygon class="light" points="555 357.89 581 367.89 685.5 346.64 659.5 336.64 555 357.89" />
      <path class="gradient" d="M608.58,343c0,1.91,5.82,3.45,13,3.45s13-1.54,13-3.45v10.56c-14.5,6.63-26,0-26,0Z" />
      <ellipse class="light" cx="621.58" cy="342.99" rx="13" ry="3.44" />
      <path class="gradient" d="M572.64,349.74c0,1.91,5.82,3.45,13,3.45s13-1.54,13-3.45V360.3c-14.5,6.63-26,0-26,0Z" />
      <ellipse class="light" cx="585.64" cy="349.74" rx="13" ry="3.44" />
      <path class="gradient" d="M644.08,335.74c0,1.9,5.82,3.45,13,3.45s13-1.55,13-3.45V346.3c-14.5,6.63-26,0-26,0Z" />
      <ellipse class="light" cx="657.08" cy="335.74" rx="13" ry="3.44" />
    </g>
    <g class="row-3 piece-7 primary piece">
      <polygon class="standard" points="547.5 375.03 582 368.17 582 418.17 547.5 425.03 547.5 375.03" />
      <polygon class="dark" points="547.5 375.03 521.5 365.03 521.5 415.03 547.5 425.03 547.5 375.03" />
      <polygon class="light" points="521.5 365.03 547.5 375.03 582 368.17 556 358.17 521.5 365.03" />
      <path class="gradient" d="M539.14,356.88c0,1.9,5.82,3.45,13,3.45s13-1.55,13-3.45v10.56c-14.5,6.63-26,0-26,0Z" />
      <ellipse class="light" cx="552.14" cy="356.88" rx="13" ry="3.44" />
    </g>
    <g class="row-3 piece-8 contrast piece">
      <polygon class="standard" points="513 381.89 547.5 375.03 547.5 425.03 513 431.89 513 381.89" />
      <polygon class="dark" points="513 381.89 487 371.89 487 421.89 513 431.89 513 381.89" />
      <polygon class="light" points="487 371.89 513 381.89 547.5 375.03 521.5 365.03 487 371.89" />
      <path class="gradient" d="M504.64,363.74c0,1.9,5.82,3.45,13,3.45s13-1.55,13-3.45V374.3c-14.5,6.63-26,0-26,0Z" />
      <ellipse class="light" cx="517.64" cy="363.74" rx="13" ry="3.44" />
    </g>
    <g class="row-3 piece-9 primary piece">
      <polygon class="standard" points="478.5 388.75 513 381.89 513 431.89 478.5 438.75 478.5 388.75" />
      <polygon class="dark" points="478.5 388.75 452.5 378.75 452.5 428.75 478.5 438.75 478.5 388.75" />
      <polygon class="light" points="452.5 378.75 478.5 388.75 513 381.89 487 371.89 452.5 378.75" />
      <path class="gradient" d="M470.14,370.6c0,1.9,5.82,3.45,13,3.45s13-1.55,13-3.45v10.56c-14.5,6.63-26,0-26,0Z" />
      <ellipse class="light" cx="483.14" cy="370.6" rx="13" ry="3.44" />
    </g>
    <g class="row-3 piece-10 contrast piece">
      <polygon class="standard" points="444 429.17 478.5 422.31 478.5 438.98 444 445.84 444 429.17" />
      <polygon class="dark" points="444 429.17 418 419.17 418 435.84 444 445.84 444 429.17" />
      <polygon class="light" points="418 419.17 444 429.17 478.5 422.31 452.5 412.31 418 419.17" />
      <path class="gradient" d="M435.64,411c0,1.9,5.82,3.45,13,3.45s13-1.55,13-3.45v10.56c-14.5,6.63-26,0-26,0Z" />
      <ellipse class="light" cx="448.64" cy="411.02" rx="13" ry="3.44" />
    </g>
    <g class="row-3 piece-11 primary piece">
      <polygon class="standard" points="444 412.28 478.5 405.42 478.5 422.09 444 428.95 444 412.28" />
      <polygon class="dark" points="444 412.28 418 402.28 418 418.95 444 428.95 444 412.28" />
      <polygon class="light" points="418 402.28 444 412.28 478.5 405.42 452.5 395.42 418 402.28" />
      <path class="gradient" d="M435.64,394.13c0,1.9,5.82,3.44,13,3.44s13-1.54,13-3.44v10.56c-14.5,6.62-26,0-26,0Z" />
      <ellipse class="light" cx="448.64" cy="394.13" rx="13" ry="3.44" />
    </g>
    <g class="row-3 piece-12 primary piece">
      <polygon class="standard" points="444 395.92 478.5 389.06 478.5 405.73 444 412.59 444 395.92" />
      <polygon class="dark" points="444 395.92 418 385.92 418 402.59 444 412.59 444 395.92" />
      <polygon class="light" points="418 385.92 444 395.92 478.5 389.06 452.5 379.06 418 385.92" />
      <path class="gradient" d="M435.64,377.77c0,1.9,5.82,3.45,13,3.45s13-1.55,13-3.45v10.56c-14.5,6.63-26,0-26,0Z" />
      <ellipse class="light" cx="448.64" cy="377.77" rx="13" ry="3.44" />
    </g>
    <g class="row-3 piece-13 primary piece">
      <polygon class="standard" points="306 424.17 444 396.17 444 446.17 306 474.17 306 424.17" />
      <polygon class="dark" points="306 424.17 280 414.17 280 464.17 306 474.17 306 424.17" />
      <polygon class="light" points="280 414.17 306 424.17 444 396.17 418 386.17 280 414.17" />
      <path class="gradient" d="M297.64,406c0,1.9,5.82,3.45,13,3.45s13-1.55,13-3.45v10.56c-14.5,6.63-26,0-26,0Z" />
      <ellipse class="light" cx="310.64" cy="406.02" rx="13" ry="3.44" />
      <path class="gradient" d="M333.58,399.27c0,1.9,5.82,3.45,13,3.45s13-1.55,13-3.45v10.56c-14.5,6.63-26,0-26,0Z" />
      <ellipse class="light" cx="346.58" cy="399.27" rx="13" ry="3.44" />
      <path class="gradient" d="M367.64,392c0,1.9,5.82,3.45,13,3.45s13-1.55,13-3.45v10.56c-14.5,6.63-26,0-26,0Z" />
      <ellipse class="light" cx="380.64" cy="392.02" rx="13" ry="3.44" />
      <path class="gradient" d="M402.58,385.27c0,1.9,5.82,3.45,13,3.45s13-1.55,13-3.45v10.56c-14.5,6.63-26,0-26,0Z" />
      <ellipse class="light" cx="415.58" cy="385.27" rx="13" ry="3.44" />
    </g>
    <g class="row-4 piece-1 primary piece">
      <polygon class="standard" points="685.5 297.03 720 290.17 720 340.17 685.5 347.03 685.5 297.03" />
      <polygon class="dark" points="685.5 297.03 659.5 287.03 659.5 337.03 685.5 347.03 685.5 297.03" />
      <polygon class="light" points="659.5 287.03 685.5 297.03 720 290.17 694 280.17 659.5 287.03" />
      <path class="gradient" d="M677.14,278.88c0,1.9,5.82,3.45,13,3.45s13-1.55,13-3.45v10.56c-14.5,6.63-26,0-26,0Z" />
      <ellipse class="light" cx="690.14" cy="278.88" rx="13" ry="3.44" />
    </g>
    <g class="row-4 piece-2 contrast piece">
      <polygon class="standard" points="581 351.62 685.5 330.37 685.5 347.03 581 368.29 581 351.62" />
      <polygon class="dark" points="581 351.62 555 341.62 555 358.29 581 368.29 581 351.62" />
      <polygon class="light" points="555 341.62 581 351.62 685.5 330.37 659.5 320.37 555 341.62" />
      <path class="gradient" d="M608.58,326.72c0,1.9,5.82,3.44,13,3.44s13-1.54,13-3.44v10.56c-14.5,6.62-26,0-26,0Z" />
      <ellipse class="light" cx="621.58" cy="326.72" rx="13" ry="3.44" />
      <path class="gradient" d="M572.64,333.47c0,1.9,5.82,3.44,13,3.44s13-1.54,13-3.44V344c-14.5,6.62-26,0-26,0Z" />
      <ellipse class="light" cx="585.64" cy="333.47" rx="13" ry="3.44" />
      <path class="gradient" d="M644.08,319.46c0,1.91,5.82,3.45,13,3.45s13-1.54,13-3.45V330c-14.5,6.63-26,0-26,0Z" />
      <ellipse class="light" cx="657.08" cy="319.46" rx="13" ry="3.44" />
    </g>
    <g class="row-4 piece-3 primary piece">
      <polygon class="standard" points="616.5 327.7 685.5 313.7 685.5 330.37 616.5 344.37 616.5 327.7" />
      <polygon class="dark" points="616.5 327.7 590.5 317.7 590.5 334.37 616.5 344.37 616.5 327.7" />
      <polygon class="light" points="590.5 317.7 616.5 327.7 685.5 313.7 659.5 303.7 590.5 317.7" />
      <path class="gradient" d="M608.14,309.55c0,1.9,5.82,3.44,13,3.44s13-1.54,13-3.44v10.56c-14.5,6.62-26,0-26,0Z" />
      <ellipse class="light" cx="621.14" cy="309.55" rx="13" ry="3.44" />
      <path class="gradient" d="M644.08,302.8c0,1.9,5.82,3.44,13,3.44s13-1.54,13-3.44v10.56c-14.5,6.62-26,0-26,0Z" />
      <ellipse class="light" cx="657.08" cy="302.8" rx="13" ry="3.44" />
    </g>
    <g class="row-4 piece-4 primary piece">
      <polygon class="standard" points="616.5 311.04 685.5 297.04 685.5 313.7 616.5 327.7 616.5 311.04" />
      <polygon class="dark" points="616.5 311.04 590.5 301.04 590.5 317.7 616.5 327.7 616.5 311.04" />
      <polygon class="light" points="590.5 301.04 616.5 311.04 685.5 297.04 659.5 287.04 590.5 301.04" />
      <path class="gradient" d="M644.08,286.13c0,1.91,5.82,3.45,13,3.45s13-1.54,13-3.45v10.56c-14.5,6.63-26,0-26,0Z" />
      <ellipse class="light" cx="657.08" cy="286.13" rx="13" ry="3.44" />
      <path class="gradient" d="M608.14,292.88c0,1.91,5.82,3.45,13,3.45s13-1.54,13-3.45v10.56c-14.5,6.63-26,0-26,0Z" />
      <ellipse class="light" cx="621.14" cy="292.88" rx="13" ry="3.44" />
    </g>
    <g class="row-4 piece-5 contrast piece">
      <polygon class="standard" points="582 334.53 616.5 327.67 616.5 344.34 582 351.2 582 334.53" />
      <polygon class="dark" points="582 334.53 556 324.53 556 341.2 582 351.2 582 334.53" />
      <polygon class="light" points="556 324.53 582 334.53 616.5 327.67 590.5 317.67 556 324.53" />
      <path class="gradient" d="M573.64,316.38c0,1.9,5.82,3.44,13,3.44s13-1.54,13-3.44v10.56c-14.5,6.62-26,0-26,0Z" />
      <ellipse class="light" cx="586.64" cy="316.38" rx="13" ry="3.44" />
    </g>
    <g class="row-4 piece-5 contrast piece">
      <polygon class="standard" points="582 318.17 616.5 311.31 616.5 327.98 582 334.84 582 318.17" />
      <polygon class="dark" points="582 318.17 556 308.17 556 324.84 582 334.84 582 318.17" />
      <polygon class="light" points="556 308.17 582 318.17 616.5 311.31 590.5 301.31 556 308.17" />
      <path class="gradient" d="M573.64,300c0,1.9,5.82,3.45,13,3.45s13-1.55,13-3.45v10.56c-14.5,6.63-26,0-26,0Z" />
      <ellipse class="light" cx="586.64" cy="300.02" rx="13" ry="3.44" />
    </g>
    <g class="row-4 piece-6 primary piece">
      <polygon class="standard" points="547.5 325.03 582 318.17 582 368.17 547.5 375.03 547.5 325.03" />
      <polygon class="dark" points="547.5 325.03 521.5 315.03 521.5 365.03 547.5 375.03 547.5 325.03" />
      <polygon class="light" points="521.5 315.03 547.5 325.03 582 318.17 556 308.17 521.5 315.03" />
      <path class="gradient" d="M539.14,306.88c0,1.9,5.82,3.45,13,3.45s13-1.55,13-3.45v10.56c-14.5,6.63-26,0-26,0Z" />
      <ellipse class="light" cx="552.14" cy="306.88" rx="13" ry="3.44" />
    </g>
    <g class="row-4 piece-7 contrast piece">
      <polygon class="standard" points="513 331.89 547.5 325.03 547.5 375.03 513 381.89 513 331.89" />
      <polygon class="dark" points="513 331.89 487 321.89 487 371.89 513 381.89 513 331.89" />
      <polygon class="light" points="487 321.89 513 331.89 547.5 325.03 521.5 315.03 487 321.89" />
      <path class="gradient" d="M504.64,313.74c0,1.9,5.82,3.45,13,3.45s13-1.55,13-3.45V324.3c-14.5,6.63-26,0-26,0Z" />
      <ellipse class="light" cx="517.64" cy="313.74" rx="13" ry="3.44" />
    </g>
    <g class="row-4 piece-8 primary piece">
      <polygon class="standard" points="375 360.17 513 332.17 513 382.17 375 410.17 375 360.17" />
      <polygon class="dark" points="375 360.17 349 350.17 349 400.17 375 410.17 375 360.17" />
      <polygon class="light" points="349 350.17 375 360.17 513 332.17 487 322.17 349 350.17" />
      <path class="gradient" d="M366.64,342c0,1.9,5.82,3.45,13,3.45s13-1.55,13-3.45v10.56c-14.5,6.63-26,0-26,0Z" />
      <ellipse class="light" cx="379.64" cy="342.02" rx="13" ry="3.44" />
      <path class="gradient" d="M402.58,335.27c0,1.9,5.82,3.45,13,3.45s13-1.55,13-3.45v10.56c-14.5,6.63-26,0-26,0Z" />
      <ellipse class="light" cx="415.58" cy="335.27" rx="13" ry="3.44" />
      <path class="gradient" d="M436.64,328c0,1.9,5.82,3.45,13,3.45s13-1.55,13-3.45v10.56c-14.5,6.63-26,0-26,0Z" />
      <ellipse class="light" cx="449.64" cy="328.02" rx="13" ry="3.44" />
      <path class="gradient" d="M471.58,321.27c0,1.9,5.82,3.45,13,3.45s13-1.55,13-3.45v10.56c-14.5,6.63-26,0-26,0Z" />
      <ellipse class="light" cx="484.58" cy="321.27" rx="13" ry="3.44" />
    </g>
    <g class="row-4 piece-9 primary piece">
      <polygon class="standard" points="306 374.17 375 360.17 375 410.17 306 424.17 306 374.17" />
      <polygon class="dark" points="306 374.17 280 364.17 280 414.17 306 424.17 306 374.17" />
      <polygon class="light" points="280 364.17 306 374.17 375 360.17 349 350.17 280 364.17" />
      <path class="gradient" d="M333.58,349.27c0,1.9,5.82,3.45,13,3.45s13-1.55,13-3.45v10.56c-14.5,6.63-26,0-26,0Z" />
      <ellipse class="light" cx="346.58" cy="349.27" rx="13" ry="3.44" />
      <path class="gradient" d="M297.64,356c0,1.9,5.82,3.45,13,3.45s13-1.55,13-3.45v10.56c-14.5,6.63-26,0-26,0Z" />
      <ellipse class="light" cx="310.64" cy="356.02" rx="13" ry="3.44" />
    </g>
    <g class="row-5 piece-1 primary piece">
      <polygon class="standard" points="685.5 247.03 720 240.17 720 290.17 685.5 297.03 685.5 247.03" />
      <polygon class="dark" points="685.5 247.03 659.5 237.03 659.5 287.03 685.5 297.03 685.5 247.03" />
      <polygon class="light" points="659.5 237.03 685.5 247.03 720 240.17 694 230.17 659.5 237.03" />
      <path class="gradient" d="M677.14,228.88c0,1.9,5.82,3.45,13,3.45s13-1.55,13-3.45v10.56c-14.5,6.63-26,0-26,0Z" />
      <ellipse class="light" cx="690.14" cy="228.88" rx="13" ry="3.44" />
    </g>
    <g class="row-5 piece-2 contrast piece">
      <polygon class="standard" points="616.5 261.07 685.5 247.07 685.5 297.07 616.5 311.07 616.5 261.07" />
      <polygon class="dark" points="616.5 261.07 590.5 251.07 590.5 301.07 616.5 311.07 616.5 261.07" />
      <polygon class="light" points="590.5 251.07 616.5 261.07 685.5 247.07 659.5 237.07 590.5 251.07" />
      <path class="gradient" d="M644.08,236.17c0,1.9,5.82,3.45,13,3.45s13-1.55,13-3.45v10.56c-14.5,6.63-26,0-26,0Z" />
      <ellipse class="light" cx="657.08" cy="236.17" rx="13" ry="3.44" />
      <path class="gradient" d="M608.14,242.92c0,1.9,5.82,3.45,13,3.45s13-1.55,13-3.45v10.56c-14.5,6.63-26,0-26,0Z" />
      <ellipse class="light" cx="621.14" cy="242.92" rx="13" ry="3.44" />
    </g>
    <g class="row-5 piece-3 contrast piece">
      <polygon class="standard" points="582 268.17 616.5 261.31 616.5 311.31 582 318.17 582 268.17" />
      <polygon class="dark" points="582 268.17 556 258.17 556 308.17 582 318.17 582 268.17" />
      <polygon class="light" points="556 258.17 582 268.17 616.5 261.31 590.5 251.31 556 258.17" />
      <path class="gradient" d="M573.64,250c0,1.9,5.82,3.45,13,3.45s13-1.55,13-3.45v10.56c-14.5,6.63-26,0-26,0Z" />
      <ellipse class="light" cx="586.64" cy="250.02" rx="13" ry="3.44" />
    </g>
    <g class="row-5 piece-4 primary piece">
      <polygon class="standard" points="547.5 275.03 582 268.17 582 318.17 547.5 325.03 547.5 275.03" />
      <polygon class="dark" points="547.5 275.03 521.5 265.03 521.5 315.03 547.5 325.03 547.5 275.03" />
      <polygon class="light" points="521.5 265.03 547.5 275.03 582 268.17 556 258.17 521.5 265.03" />
      <path class="gradient" d="M539.14,256.88c0,1.9,5.82,3.45,13,3.45s13-1.55,13-3.45v10.56c-14.5,6.63-26,0-26,0Z" />
      <ellipse class="light" cx="552.14" cy="256.88" rx="13" ry="3.44" />
    </g>
    <g class="row-5 piece-5 contrast piece">
      <polygon class="standard" points="513 281.89 547.5 275.03 547.5 325.03 513 331.89 513 281.89" />
      <polygon class="dark" points="513 281.89 487 271.89 487 321.89 513 331.89 513 281.89" />
      <polygon class="light" points="487 271.89 513 281.89 547.5 275.03 521.5 265.03 487 271.89" />
      <path class="gradient" d="M504.64,263.74c0,1.9,5.82,3.45,13,3.45s13-1.55,13-3.45V274.3c-14.5,6.63-26,0-26,0Z" />
      <ellipse class="light" cx="517.64" cy="263.74" rx="13" ry="3.44" />
    </g>
    <g class="row-5 piece-6 primary piece">
      <polygon class="standard" points="444 296.17 513 282.17 513 332.17 444 346.17 444 296.17" />
      <polygon class="dark" points="444 296.17 418 286.17 418 336.17 444 346.17 444 296.17" />
      <polygon class="light" points="418 286.17 444 296.17 513 282.17 487 272.17 418 286.17" />
      <path class="gradient" d="M471.58,271.27c0,1.9,5.82,3.45,13,3.45s13-1.55,13-3.45v10.56c-14.5,6.63-26,0-26,0Z" />
      <ellipse class="light" cx="484.58" cy="271.27" rx="13" ry="3.44" />
      <path class="gradient" d="M435.64,278c0,1.9,5.82,3.45,13,3.45s13-1.55,13-3.45v10.56c-14.5,6.63-26,0-26,0Z" />
      <ellipse class="light" cx="448.64" cy="278.02" rx="13" ry="3.44" />
    </g>
    <g class="row-5 piece-7 primary piece">
      <polygon class="standard" points="306 324.17 444 296.17 444 346.17 306 374.17 306 324.17" />
      <polygon class="dark" points="306 324.17 280 314.17 280 364.17 306 374.17 306 324.17" />
      <polygon class="light" points="280 314.17 306 324.17 444 296.17 418 286.17 280 314.17" />
      <path class="gradient" d="M297.64,306c0,1.9,5.82,3.45,13,3.45s13-1.55,13-3.45v10.56c-14.5,6.63-26,0-26,0Z" />
      <ellipse class="light" cx="310.64" cy="306.02" rx="13" ry="3.44" />
      <path class="gradient" d="M333.58,299.27c0,1.9,5.82,3.45,13,3.45s13-1.55,13-3.45v10.56c-14.5,6.63-26,0-26,0Z" />
      <ellipse class="light" cx="346.58" cy="299.27" rx="13" ry="3.44" />
      <path class="gradient" d="M367.64,292c0,1.9,5.82,3.45,13,3.45s13-1.55,13-3.45v10.56c-14.5,6.63-26,0-26,0Z" />
      <ellipse class="light" cx="380.64" cy="292.02" rx="13" ry="3.44" />
      <path class="gradient" d="M402.58,285.27c0,1.9,5.82,3.45,13,3.45s13-1.55,13-3.45v10.56c-14.5,6.63-26,0-26,0Z" />
      <ellipse class="light" cx="415.58" cy="285.27" rx="13" ry="3.44" />
    </g>
    <g class="row-6 piece-1 primary piece">
      <polygon class="standard" points="651 204.17 720 190.17 720 240.17 651 254.17 651 204.17" />
      <polygon class="dark" points="651 204.17 625 194.17 625 244.17 651 254.17 651 204.17" />
      <polygon class="light" points="625 194.17 651 204.17 720 190.17 694 180.17 625 194.17" />
      <path class="gradient" d="M678.58,179.27c0,1.9,5.82,3.45,13,3.45s13-1.55,13-3.45v10.56c-14.5,6.63-26,0-26,0Z" />
      <ellipse class="light" cx="691.58" cy="179.27" rx="13" ry="3.44" />
      <path class="gradient" d="M642.64,186c0,1.9,5.82,3.45,13,3.45s13-1.55,13-3.45v10.56c-14.5,6.63-26,0-26,0Z" />
      <ellipse class="light" cx="655.64" cy="186.02" rx="13" ry="3.44" />
    </g>
    <g class="row-6 piece-2 primary piece">
      <polygon class="standard" points="513 232.17 651 204.17 651 254.17 513 282.17 513 232.17" />
      <polygon class="dark" points="513 232.17 487 222.17 487 272.17 513 282.17 513 232.17" />
      <polygon class="light" points="487 222.17 513 232.17 651 204.17 625 194.17 487 222.17" />
      <path class="gradient" d="M504.64,214c0,1.9,5.82,3.45,13,3.45s13-1.55,13-3.45v10.56c-14.5,6.63-26,0-26,0Z" />
      <ellipse class="light" cx="517.64" cy="214.02" rx="13" ry="3.44" />
      <path class="gradient" d="M540.58,207.27c0,1.9,5.82,3.45,13,3.45s13-1.55,13-3.45v10.56c-14.5,6.63-26,0-26,0Z" />
      <ellipse class="light" cx="553.58" cy="207.27" rx="13" ry="3.44" />
      <path class="gradient" d="M574.64,200c0,1.9,5.82,3.45,13,3.45s13-1.55,13-3.45v10.56c-14.5,6.63-26,0-26,0Z" />
      <ellipse class="light" cx="587.64" cy="200.02" rx="13" ry="3.44" />
      <path class="gradient" d="M609.58,193.27c0,1.9,5.82,3.45,13,3.45s13-1.55,13-3.45v10.56c-14.5,6.63-26,0-26,0Z" />
      <ellipse class="light" cx="622.58" cy="193.27" rx="13" ry="3.44" />
    </g>
    <g class="row-6 piece-3 primary piece">
      <polygon class="standard" points="375 260.17 513 232.17 513 282.17 375 310.17 375 260.17" />
      <polygon class="dark" points="375 260.17 349 250.17 349 300.17 375 310.17 375 260.17" />
      <polygon class="light" points="349 250.17 375 260.17 513 232.17 487 222.17 349 250.17" />
      <path class="gradient" d="M366.64,242c0,1.9,5.82,3.45,13,3.45s13-1.55,13-3.45v10.56c-14.5,6.63-26,0-26,0Z" />
      <ellipse class="light" cx="379.64" cy="242.02" rx="13" ry="3.44" />
      <path class="gradient" d="M402.58,235.27c0,1.9,5.82,3.45,13,3.45s13-1.55,13-3.45v10.56c-14.5,6.63-26,0-26,0Z" />
      <ellipse class="light" cx="415.58" cy="235.27" rx="13" ry="3.44" />
      <path class="gradient" d="M436.64,228c0,1.9,5.82,3.45,13,3.45s13-1.55,13-3.45v10.56c-14.5,6.63-26,0-26,0Z" />
      <ellipse class="light" cx="449.64" cy="228.02" rx="13" ry="3.44" />
      <path class="gradient" d="M471.58,221.27c0,1.9,5.82,3.45,13,3.45s13-1.55,13-3.45v10.56c-14.5,6.63-26,0-26,0Z" />
      <ellipse class="light" cx="484.58" cy="221.27" rx="13" ry="3.44" />
    </g>
    <g class="row-6 piece-4 primary piece">
      <polygon class="standard" points="306 274.17 375 260.17 375 310.17 306 324.17 306 274.17" />
      <polygon class="dark" points="306 274.17 280 264.17 280 314.17 306 324.17 306 274.17" />
      <polygon class="light" points="280 264.17 306 274.17 375 260.17 349 250.17 280 264.17" />
      <path class="gradient" d="M333.58,249.27c0,1.9,5.82,3.45,13,3.45s13-1.55,13-3.45v10.56c-14.5,6.63-26,0-26,0Z" />
      <ellipse class="light" cx="346.58" cy="249.27" rx="13" ry="3.44" />
      <path class="gradient" d="M297.64,256c0,1.9,5.82,3.45,13,3.45s13-1.55,13-3.45v10.56c-14.5,6.63-26,0-26,0Z" />
      <ellipse class="light" cx="310.64" cy="256.02" rx="13" ry="3.44" />
    </g>
    <g class="row-7 piece-1 primary piece">
      <polygon class="standard" points="582 168.17 720 140.17 720 190.17 582 218.17 582 168.17" />
      <polygon class="dark" points="582 168.17 556 158.17 556 208.17 582 218.17 582 168.17" />
      <polygon class="light" points="556 158.17 582 168.17 720 140.17 694 130.17 556 158.17" />
      <path class="gradient" d="M573.64,150c0,1.9,5.82,3.45,13,3.45s13-1.55,13-3.45v10.56c-14.5,6.63-26,0-26,0Z" />
      <ellipse class="light" cx="586.64" cy="150.02" rx="13" ry="3.44" />
      <path class="gradient" d="M609.58,143.27c0,1.9,5.82,3.45,13,3.45s13-1.55,13-3.45v10.56c-14.5,6.63-26,0-26,0Z" />
      <ellipse class="light" cx="622.58" cy="143.27" rx="13" ry="3.44" />
      <path class="gradient" d="M643.64,136c0,1.9,5.82,3.45,13,3.45s13-1.55,13-3.45v10.56c-14.5,6.63-26,0-26,0Z" />
      <ellipse class="light" cx="656.64" cy="136.02" rx="13" ry="3.44" />
      <path class="gradient" d="M678.58,129.27c0,1.9,5.82,3.45,13,3.45s13-1.55,13-3.45v10.56c-14.5,6.63-26,0-26,0Z" />
      <ellipse class="light" cx="691.58" cy="129.27" rx="13" ry="3.44" />
    </g>
    <g class="row-7 piece-2 primary piece">
      <polygon class="standard" points="444 196.17 582 168.17 582 218.17 444 246.17 444 196.17" />
      <polygon class="dark" points="444 196.17 418 186.17 418 236.17 444 246.17 444 196.17" />
      <polygon class="light" points="418 186.17 444 196.17 582 168.17 556 158.17 418 186.17" />
      <path class="gradient" d="M435.64,178c0,1.9,5.82,3.45,13,3.45s13-1.55,13-3.45v10.56c-14.5,6.63-26,0-26,0Z" />
      <ellipse class="light" cx="448.64" cy="178.02" rx="13" ry="3.44" />
      <path class="gradient" d="M471.58,171.27c0,1.9,5.82,3.45,13,3.45s13-1.55,13-3.45v10.56c-14.5,6.63-26,0-26,0Z" />
      <ellipse class="light" cx="484.58" cy="171.27" rx="13" ry="3.44" />
      <path class="gradient" d="M505.64,164c0,1.9,5.82,3.45,13,3.45s13-1.55,13-3.45v10.56c-14.5,6.63-26,0-26,0Z" />
      <ellipse class="light" cx="518.64" cy="164.02" rx="13" ry="3.44" />
      <path class="gradient" d="M540.58,157.27c0,1.9,5.82,3.45,13,3.45s13-1.55,13-3.45v10.56c-14.5,6.63-26,0-26,0Z" />
      <ellipse class="light" cx="553.58" cy="157.27" rx="13" ry="3.44" />
    </g>
    <g class="row-7 piece-3 primary piece">
      <polygon class="standard" points="306 224.17 444 196.17 444 246.17 306 274.17 306 224.17" />
      <polygon class="dark" points="306 224.17 280 214.17 280 264.17 306 274.17 306 224.17" />
      <polygon class="light" points="280 214.17 306 224.17 444 196.17 418 186.17 280 214.17" />
      <path class="gradient" d="M297.64,206c0,1.9,5.82,3.45,13,3.45s13-1.55,13-3.45v10.56c-14.5,6.63-26,0-26,0Z" />
      <ellipse class="light" cx="310.64" cy="206.02" rx="13" ry="3.44" />
      <path class="gradient" d="M333.58,199.27c0,1.9,5.82,3.45,13,3.45s13-1.55,13-3.45v10.56c-14.5,6.63-26,0-26,0Z" />
      <ellipse class="light" cx="346.58" cy="199.27" rx="13" ry="3.44" />
      <path class="gradient" d="M367.64,192c0,1.9,5.82,3.45,13,3.45s13-1.55,13-3.45v10.56c-14.5,6.63-26,0-26,0Z" />
      <ellipse class="light" cx="380.64" cy="192.02" rx="13" ry="3.44" />
      <path class="gradient" d="M402.58,185.27c0,1.9,5.82,3.45,13,3.45s13-1.55,13-3.45v10.56c-14.5,6.63-26,0-26,0Z" />
      <ellipse class="light" cx="415.58" cy="185.27" rx="13" ry="3.44" />
    </g>
  </g>
  <g class="list">
    <rect class="background" x="10" y="100" width="145" height="114" />
    <text transform="translate(30 198.48)">3x</text>
    <g class="piece primary">
      <polygon class="standard" points="46.9 143.43 136.6 125.22 136.6 157.72 46.9 175.93 46.9 143.43" />
      <polygon class="dark" points="46.9 143.43 30 136.93 30 169.43 46.9 175.93 46.9 143.43" />
      <polygon class="light" points="30 136.93 46.9 143.43 136.6 125.22 119.7 118.72 30 136.93" />
      <path class="gradient" d="M41.47,131.63c0,1.23,3.78,2.23,8.45,2.23s8.45-1,8.45-2.23v6.86a19.35,19.35,0,0,1-16.9,0Z" />
      <ellipse class="light" cx="49.92" cy="131.63" rx="8.45" ry="2.24" />
      <path class="gradient" d="M64.83,127.24c0,1.24,3.78,2.24,8.45,2.24s8.45-1,8.45-2.24v6.86a19.35,19.35,0,0,1-16.9,0Z" />
      <ellipse class="light" cx="73.28" cy="127.24" rx="8.45" ry="2.24" />
      <path class="gradient" d="M87,122.53c0,1.23,3.78,2.23,8.45,2.23s8.45-1,8.45-2.23v6.86a19.35,19.35,0,0,1-16.9,0Z" />
      <ellipse class="light" cx="95.42" cy="122.53" rx="8.45" ry="2.24" />
      <path class="gradient" d="M109.68,118.14c0,1.24,3.78,2.24,8.45,2.24s8.45-1,8.45-2.24V125a19.35,19.35,0,0,1-16.9,0Z" />
      <ellipse class="light" cx="118.13" cy="118.14" rx="8.45" ry="2.24" />
    </g>
  </g>
  <text transform="translate(30 72.24)">11</text>
</svg>
