<svg xmlns="http://www.w3.org/2000/svg" xmlns:xlink="http://www.w3.org/1999/xlink" viewBox="0 0 1000 700">
  <g class="build">
    <g class="row-1 piece-1 primary piece">
      <polygon class="standard" points="521.5 515.03 590.5 501.03 590.5 551.03 521.5 565.03 521.5 515.03" />
      <polygon class="dark" points="521.5 515.03 495.5 505.03 495.5 555.03 521.5 565.03 521.5 515.03" />
      <polygon class="light" points="495.5 505.03 521.5 515.03 590.5 501.03 564.5 491.03 495.5 505.03" />
      <path class="gradient" d="M513.14,496.88c0,1.9,5.82,3.45,13,3.45s13-1.55,13-3.45v10.56c-14.5,6.63-26,0-26,0Z" />
      <ellipse class="light" cx="526.14" cy="496.88" rx="13" ry="3.44" />
      <path class="gradient" d="M549.08,490.13c0,1.9,5.82,3.45,13,3.45s13-1.55,13-3.45v10.56c-14.5,6.63-26,0-26,0Z" />
      <ellipse class="light" cx="562.08" cy="490.13" rx="13" ry="3.44" />
    </g>
    <g class="row-1 piece-2 primary piece">
      <polygon class="standard" points="382.5 543.03 451.5 529.03 451.5 579.03 382.5 593.03 382.5 543.03" />
      <polygon class="dark" points="382.5 543.03 356.5 533.03 356.5 583.03 382.5 593.03 382.5 543.03" />
      <polygon class="light" points="356.5 533.03 382.5 543.03 451.5 529.03 425.5 519.03 356.5 533.03" />
      <path class="gradient" d="M374.14,524.88c0,1.9,5.82,3.45,13,3.45s13-1.55,13-3.45v10.56c-14.5,6.63-26,0-26,0Z" />
      <ellipse class="light" cx="387.14" cy="524.88" rx="13" ry="3.44" />
      <path class="gradient" d="M410.08,518.13c0,1.9,5.82,3.45,13,3.45s13-1.55,13-3.45v10.56c-14.5,6.63-26,0-26,0Z" />
      <ellipse class="light" cx="423.08" cy="518.13" rx="13" ry="3.44" />
    </g>
    <g class="row-1 piece-3 primary piece">
      <polygon class="standard" points="651 504.17 720 490.17 720 540.17 651 554.17 651 504.17" />
      <polygon class="dark" points="651 504.17 625 494.17 625 544.17 651 554.17 651 504.17" />
      <polygon class="light" points="625 494.17 651 504.17 720 490.17 694 480.17 625 494.17" />
      <path class="gradient" d="M678.58,479.27c0,1.9,5.82,3.45,13,3.45s13-1.55,13-3.45v10.56c-14.5,6.63-26,0-26,0Z" />
      <ellipse class="light" cx="691.58" cy="479.27" rx="13" ry="3.44" />
      <path class="gradient" d="M642.64,486c0,1.9,5.82,3.45,13,3.45s13-1.55,13-3.45v10.56c-14.5,6.63-26,0-26,0Z" />
      <ellipse class="light" cx="655.64" cy="486.02" rx="13" ry="3.44" />
    </g>
    <g class="row-1 piece-4 primary piece">
      <polygon class="standard" points="513 532.17 651 504.17 651 554.17 513 582.17 513 532.17" />
      <polygon class="dark" points="513 532.17 487 522.17 487 572.17 513 582.17 513 532.17" />
      <polygon class="light" points="487 522.17 513 532.17 651 504.17 625 494.17 487 522.17" />
      <path class="gradient" d="M504.64,514c0,1.9,5.82,3.45,13,3.45s13-1.55,13-3.45v10.56c-14.5,6.63-26,0-26,0Z" />
      <ellipse class="light" cx="517.64" cy="514.02" rx="13" ry="3.44" />
      <path class="gradient" d="M540.58,507.27c0,1.9,5.82,3.45,13,3.45s13-1.55,13-3.45v10.56c-14.5,6.63-26,0-26,0Z" />
      <ellipse class="light" cx="553.58" cy="507.27" rx="13" ry="3.44" />
      <path class="gradient" d="M574.64,500c0,1.9,5.82,3.45,13,3.45s13-1.55,13-3.45v10.56c-14.5,6.63-26,0-26,0Z" />
      <ellipse class="light" cx="587.64" cy="500.02" rx="13" ry="3.44" />
      <path class="gradient" d="M609.58,493.27c0,1.9,5.82,3.45,13,3.45s13-1.55,13-3.45v10.56c-14.5,6.63-26,0-26,0Z" />
      <ellipse class="light" cx="622.58" cy="493.27" rx="13" ry="3.44" />
    </g>
    <g class="row-1 piece-5 primary piece">
      <polygon class="standard" points="375 560.17 513 532.17 513 582.17 375 610.17 375 560.17" />
      <polygon class="dark" points="375 560.17 349 550.17 349 600.17 375 610.17 375 560.17" />
      <polygon class="light" points="349 550.17 375 560.17 513 532.17 487 522.17 349 550.17" />
      <path class="gradient" d="M366.64,542c0,1.9,5.82,3.45,13,3.45s13-1.55,13-3.45v10.56c-14.5,6.63-26,0-26,0Z" />
      <ellipse class="light" cx="379.64" cy="542.02" rx="13" ry="3.44" />
      <path class="gradient" d="M402.58,535.27c0,1.9,5.82,3.45,13,3.45s13-1.55,13-3.45v10.56c-14.5,6.63-26,0-26,0Z" />
      <ellipse class="light" cx="415.58" cy="535.27" rx="13" ry="3.44" />
      <path class="gradient" d="M436.64,528c0,1.9,5.82,3.45,13,3.45s13-1.55,13-3.45v10.56c-14.5,6.63-26,0-26,0Z" />
      <ellipse class="light" cx="449.64" cy="528.02" rx="13" ry="3.44" />
      <path class="gradient" d="M471.58,521.27c0,1.9,5.82,3.45,13,3.45s13-1.55,13-3.45v10.56c-14.5,6.63-26,0-26,0Z" />
      <ellipse class="light" cx="484.58" cy="521.27" rx="13" ry="3.44" />
    </g>
    <g class="row-1 piece-6 primary piece">
      <polygon class="standard" points="306 574.17 375 560.17 375 610.17 306 624.17 306 574.17" />
      <polygon class="dark" points="306 574.17 280 564.17 280 614.17 306 624.17 306 574.17" />
      <polygon class="light" points="280 564.17 306 574.17 375 560.17 349 550.17 280 564.17" />
      <path class="gradient" d="M333.58,549.27c0,1.9,5.82,3.45,13,3.45s13-1.55,13-3.45v10.56c-14.5,6.63-26,0-26,0Z" />
      <ellipse class="light" cx="346.58" cy="549.27" rx="13" ry="3.44" />
      <path class="gradient" d="M297.64,556c0,1.9,5.82,3.45,13,3.45s13-1.55,13-3.45v10.56c-14.5,6.63-26,0-26,0Z" />
      <ellipse class="light" cx="310.64" cy="556.02" rx="13" ry="3.44" />
    </g>
    <g class="row-2 piece-1 primary piece">
      <polygon class="standard" points="685.5 447.03 720 440.17 720 490.17 685.5 497.03 685.5 447.03" />
      <polygon class="dark" points="685.5 447.03 659.5 437.03 659.5 487.03 685.5 497.03 685.5 447.03" />
      <polygon class="light" points="659.5 437.03 685.5 447.03 720 440.17 694 430.17 659.5 437.03" />
      <path class="gradient" d="M677.14,428.88c0,1.9,5.82,3.45,13,3.45s13-1.55,13-3.45v10.56c-14.5,6.63-26,0-26,0Z" />
      <ellipse class="light" cx="690.14" cy="428.88" rx="13" ry="3.44" />
    </g>
    <g class="row-2 piece-2 contrast piece">
      <polygon class="standard" points="651 453.89 685.5 447.03 685.5 497.03 651 503.89 651 453.89" />
      <polygon class="dark" points="651 453.89 625 443.89 625 493.89 651 503.89 651 453.89" />
      <polygon class="light" points="625 443.89 651 453.89 685.5 447.03 659.5 437.03 625 443.89" />
      <path class="gradient" d="M642.64,435.74c0,1.9,5.82,3.45,13,3.45s13-1.55,13-3.45V446.3c-14.5,6.63-26,0-26,0Z" />
      <ellipse class="light" cx="655.64" cy="435.74" rx="13" ry="3.44" />
    </g>
    <g class="row-2 piece-3 contrast piece">
      <polygon class="standard" points="582 468.17 651 454.17 651 504.17 582 518.17 582 468.17" />
      <polygon class="dark" points="582 468.17 556 458.17 556 508.17 582 518.17 582 468.17" />
      <polygon class="light" points="556 458.17 582 468.17 651 454.17 625 444.17 556 458.17" />
      <path class="gradient" d="M609.58,443.27c0,1.9,5.82,3.45,13,3.45s13-1.55,13-3.45v10.56c-14.5,6.63-26,0-26,0Z" />
      <ellipse class="light" cx="622.58" cy="443.27" rx="13" ry="3.44" />
      <path class="gradient" d="M573.64,450c0,1.9,5.82,3.45,13,3.45s13-1.55,13-3.45v10.56c-14.5,6.63-26,0-26,0Z" />
      <ellipse class="light" cx="586.64" cy="450.02" rx="13" ry="3.44" />
    </g>
    <g class="row-2 piece-4 primary piece">
      <polygon class="standard" points="547.5 475.03 582 468.17 582 518.17 547.5 525.03 547.5 475.03" />
      <polygon class="dark" points="547.5 475.03 495.5 455.03 495.5 505.03 547.5 525.03 547.5 475.03" />
      <polygon class="light" points="495.5 455.03 547.5 475.03 582 468.17 530 448.17 495.5 455.03" />
      <path class="gradient" d="M513.14,446.88c0,1.9,5.82,3.44,13,3.44s13-1.54,13-3.44v10.56c-14.5,6.63-26,0-26,0Z" />
      <ellipse class="light" cx="526.14" cy="446.88" rx="13" ry="3.44" />
      <path class="gradient" d="M539.14,456.88c0,1.9,5.82,3.45,13,3.45s13-1.55,13-3.45v10.56c-14.5,6.63-26,0-26,0Z" />
      <ellipse class="light" cx="552.14" cy="456.88" rx="13" ry="3.44" />
    </g>
    <g class="row-2 piece-5 contrast piece">
      <polygon class="standard" points="478.5 489.03 547.5 475.03 547.5 525.03 478.5 539.03 478.5 489.03" />
      <polygon class="dark" points="478.5 489.03 452.5 479.03 452.5 529.03 478.5 539.03 478.5 489.03" />
      <polygon class="light" points="452.5 479.03 478.5 489.03 547.5 475.03 521.5 465.03 452.5 479.03" />
      <path class="gradient" d="M470.14,470.88c0,1.9,5.82,3.45,13,3.45s13-1.55,13-3.45v10.56c-14.5,6.63-26,0-26,0Z" />
      <ellipse class="light" cx="483.14" cy="470.88" rx="13" ry="3.44" />
      <path class="gradient" d="M506.08,464.13c0,1.9,5.82,3.45,13,3.45s13-1.55,13-3.45v10.56c-14.5,6.63-26,0-26,0Z" />
      <ellipse class="light" cx="519.08" cy="464.13" rx="13" ry="3.44" />
    </g>
    <g class="row-2 piece-6 contrast piece">
      <polygon class="standard" points="444 496.17 478.5 489.31 478.5 539.31 444 546.17 444 496.17" />
      <polygon class="dark" points="444 496.17 392 476.17 392 526.17 444 546.17 444 496.17" />
      <polygon class="light" points="392 476.17 444 496.17 478.5 489.31 426.5 469.31 392 476.17" />
      <path class="gradient" d="M409.64,468c0,1.9,5.82,3.44,13,3.44s13-1.54,13-3.44v10.56c-14.5,6.63-26,0-26,0Z" />
      <ellipse class="light" cx="422.64" cy="468.02" rx="13" ry="3.44" />
      <path class="gradient" d="M435.64,478c0,1.9,5.82,3.45,13,3.45s13-1.55,13-3.45v10.56c-14.5,6.63-26,0-26,0Z" />
      <ellipse class="light" cx="448.64" cy="478.02" rx="13" ry="3.44" />
    </g>
    <g class="row-2 piece-7 primary piece">
      <polygon class="standard" points="306 524.17 444 496.17 444 546.17 306 574.17 306 524.17" />
      <polygon class="dark" points="306 524.17 280 514.17 280 564.17 306 574.17 306 524.17" />
      <polygon class="light" points="280 514.17 306 524.17 444 496.17 418 486.17 280 514.17" />
      <path class="gradient" d="M297.64,506c0,1.9,5.82,3.45,13,3.45s13-1.55,13-3.45v10.56c-14.5,6.63-26,0-26,0Z" />
      <ellipse class="light" cx="310.64" cy="506.02" rx="13" ry="3.44" />
      <path class="gradient" d="M333.58,499.27c0,1.9,5.82,3.45,13,3.45s13-1.55,13-3.45v10.56c-14.5,6.63-26,0-26,0Z" />
      <ellipse class="light" cx="346.58" cy="499.27" rx="13" ry="3.44" />
      <path class="gradient" d="M367.64,492c0,1.9,5.82,3.45,13,3.45s13-1.55,13-3.45v10.56c-14.5,6.63-26,0-26,0Z" />
      <ellipse class="light" cx="380.64" cy="492.02" rx="13" ry="3.44" />
      <path class="gradient" d="M402.58,485.27c0,1.9,5.82,3.45,13,3.45s13-1.55,13-3.45v10.56c-14.5,6.63-26,0-26,0Z" />
      <ellipse class="light" cx="415.58" cy="485.27" rx="13" ry="3.44" />
    </g>
    <g class="row-3 piece-1 primary piece">
      <polygon class="standard" points="685.5 397.03 720 390.17 720 440.17 685.5 447.03 685.5 397.03" />
      <polygon class="dark" points="685.5 397.03 659.5 387.03 659.5 437.03 685.5 447.03 685.5 397.03" />
      <polygon class="light" points="659.5 387.03 685.5 397.03 720 390.17 694 380.17 659.5 387.03" />
      <path class="gradient" d="M677.14,378.88c0,1.9,5.82,3.45,13,3.45s13-1.55,13-3.45v10.56c-14.5,6.63-26,0-26,0Z" />
      <ellipse class="light" cx="690.14" cy="378.88" rx="13" ry="3.44" />
    </g>
    <g class="row-3 piece-2 contrast piece">
      <polygon class="standard" points="651 437.23 685.5 430.37 685.5 447.03 651 453.89 651 437.23" />
      <polygon class="dark" points="651 437.23 625 427.23 625 443.89 651 453.89 651 437.23" />
      <polygon class="light" points="625 427.23 651 437.23 685.5 430.37 659.5 420.37 625 427.23" />
      <path class="gradient" d="M642.64,419.07c0,1.91,5.82,3.45,13,3.45s13-1.54,13-3.45v10.56c-14.5,6.63-26,0-26,0Z" />
      <ellipse class="light" cx="655.64" cy="419.07" rx="13" ry="3.44" />
    </g>
    <g class="row-3 piece-3 contrast piece">
      <polygon class="standard" points="651 420.87 685.5 414.01 685.5 430.68 651 437.54 651 420.87" />
      <polygon class="dark" points="651 420.87 625 410.87 625 427.54 651 437.54 651 420.87" />
      <polygon class="light" points="625 410.87 651 420.87 685.5 414.01 659.5 404.01 625 410.87" />
      <path class="gradient" d="M642.64,402.72c0,1.9,5.82,3.44,13,3.44s13-1.54,13-3.44v10.56c-14.5,6.62-26,0-26,0Z" />
      <ellipse class="light" cx="655.64" cy="402.72" rx="13" ry="3.44" />
    </g>
    <g class="row-3 piece-4 primary piece">
      <polygon class="standard" points="582 451.23 651 437.23 651 453.89 582 467.89 582 451.23" />
      <polygon class="dark" points="582 451.23 556 441.23 556 457.89 582 467.89 582 451.23" />
      <polygon class="light" points="556 441.23 582 451.23 651 437.23 625 427.23 556 441.23" />
      <path class="gradient" d="M573.64,433.07c0,1.91,5.82,3.45,13,3.45s13-1.54,13-3.45v10.56c-14.5,6.63-26,0-26,0Z" />
      <ellipse class="light" cx="586.64" cy="433.07" rx="13" ry="3.44" />
      <path class="gradient" d="M609.58,426.32c0,1.91,5.82,3.45,13,3.45s13-1.54,13-3.45v10.56c-14.5,6.63-26,0-26,0Z" />
      <ellipse class="light" cx="622.58" cy="426.32" rx="13" ry="3.44" />
    </g>
    <g class="row-3 piece-5 primary piece">
      <polygon class="standard" points="582 434.56 651 420.56 651 437.23 582 451.23 582 434.56" />
      <polygon class="dark" points="582 434.56 556 424.56 556 441.23 582 451.23 582 434.56" />
      <polygon class="light" points="556 424.56 582 434.56 651 420.56 625 410.56 556 424.56" />
      <path class="gradient" d="M573.64,416.41c0,1.9,5.82,3.44,13,3.44s13-1.54,13-3.44V427c-14.5,6.62-26,0-26,0Z" />
      <ellipse class="light" cx="586.64" cy="416.41" rx="13" ry="3.44" />
      <path class="gradient" d="M609.58,409.66c0,1.9,5.82,3.44,13,3.44s13-1.54,13-3.44v10.56c-14.5,6.62-26,0-26,0Z" />
      <ellipse class="light" cx="622.58" cy="409.66" rx="13" ry="3.44" />
    </g>
    <g class="row-3 piece-6 contrast piece">
      <polygon class="standard" points="581 417.89 685.5 396.64 685.5 413.31 581 434.56 581 417.89" />
      <polygon class="dark" points="581 417.89 555 407.89 555 424.56 581 434.56 581 417.89" />
      <polygon class="light" points="555 407.89 581 417.89 685.5 396.64 659.5 386.64 555 407.89" />
      <path class="gradient" d="M608.58,393c0,1.91,5.82,3.45,13,3.45s13-1.54,13-3.45v10.56c-14.5,6.63-26,0-26,0Z" />
      <ellipse class="light" cx="621.58" cy="392.99" rx="13" ry="3.44" />
      <path class="gradient" d="M572.64,399.74c0,1.91,5.82,3.45,13,3.45s13-1.54,13-3.45V410.3c-14.5,6.63-26,0-26,0Z" />
      <ellipse class="light" cx="585.64" cy="399.74" rx="13" ry="3.44" />
      <path class="gradient" d="M644.08,385.74c0,1.9,5.82,3.45,13,3.45s13-1.55,13-3.45V396.3c-14.5,6.63-26,0-26,0Z" />
      <ellipse class="light" cx="657.08" cy="385.74" rx="13" ry="3.44" />
    </g>
    <g class="row-3 piece-7 primary piece">
      <polygon class="standard" points="547.5 425.03 582 418.17 582 468.17 547.5 475.03 547.5 425.03" />
      <polygon class="dark" points="547.5 425.03 521.5 415.03 521.5 465.03 547.5 475.03 547.5 425.03" />
      <polygon class="light" points="521.5 415.03 547.5 425.03 582 418.17 556 408.17 521.5 415.03" />
      <path class="gradient" d="M539.14,406.88c0,1.9,5.82,3.45,13,3.45s13-1.55,13-3.45v10.56c-14.5,6.63-26,0-26,0Z" />
      <ellipse class="light" cx="552.14" cy="406.88" rx="13" ry="3.44" />
    </g>
    <g class="row-3 piece-8 contrast piece">
      <polygon class="standard" points="513 431.89 547.5 425.03 547.5 475.03 513 481.89 513 431.89" />
      <polygon class="dark" points="513 431.89 487 421.89 487 471.89 513 481.89 513 431.89" />
      <polygon class="light" points="487 421.89 513 431.89 547.5 425.03 521.5 415.03 487 421.89" />
      <path class="gradient" d="M504.64,413.74c0,1.9,5.82,3.45,13,3.45s13-1.55,13-3.45V424.3c-14.5,6.63-26,0-26,0Z" />
      <ellipse class="light" cx="517.64" cy="413.74" rx="13" ry="3.44" />
    </g>
    <g class="row-3 piece-9 primary piece">
      <polygon class="standard" points="478.5 438.75 513 431.89 513 481.89 478.5 488.75 478.5 438.75" />
      <polygon class="dark" points="478.5 438.75 452.5 428.75 452.5 478.75 478.5 488.75 478.5 438.75" />
      <polygon class="light" points="452.5 428.75 478.5 438.75 513 431.89 487 421.89 452.5 428.75" />
      <path class="gradient" d="M470.14,420.6c0,1.9,5.82,3.45,13,3.45s13-1.55,13-3.45v10.56c-14.5,6.63-26,0-26,0Z" />
      <ellipse class="light" cx="483.14" cy="420.6" rx="13" ry="3.44" />
    </g>
    <g class="row-3 piece-10 contrast piece">
      <polygon class="standard" points="444 479.17 478.5 472.31 478.5 488.98 444 495.84 444 479.17" />
      <polygon class="dark" points="444 479.17 418 469.17 418 485.84 444 495.84 444 479.17" />
      <polygon class="light" points="418 469.17 444 479.17 478.5 472.31 452.5 462.31 418 469.17" />
      <path class="gradient" d="M435.64,461c0,1.9,5.82,3.45,13,3.45s13-1.55,13-3.45v10.56c-14.5,6.63-26,0-26,0Z" />
      <ellipse class="light" cx="448.64" cy="461.02" rx="13" ry="3.44" />
    </g>
    <g class="row-3 piece-11 primary piece">
      <polygon class="standard" points="444 462.28 478.5 455.42 478.5 472.09 444 478.95 444 462.28" />
      <polygon class="dark" points="444 462.28 418 452.28 418 468.95 444 478.95 444 462.28" />
      <polygon class="light" points="418 452.28 444 462.28 478.5 455.42 452.5 445.42 418 452.28" />
      <path class="gradient" d="M435.64,444.13c0,1.9,5.82,3.44,13,3.44s13-1.54,13-3.44v10.56c-14.5,6.62-26,0-26,0Z" />
      <ellipse class="light" cx="448.64" cy="444.13" rx="13" ry="3.44" />
    </g>
    <g class="row-3 piece-12 primary piece">
      <polygon class="standard" points="444 445.92 478.5 439.06 478.5 455.73 444 462.59 444 445.92" />
      <polygon class="dark" points="444 445.92 418 435.92 418 452.59 444 462.59 444 445.92" />
      <polygon class="light" points="418 435.92 444 445.92 478.5 439.06 452.5 429.06 418 435.92" />
      <path class="gradient" d="M435.64,427.77c0,1.9,5.82,3.45,13,3.45s13-1.55,13-3.45v10.56c-14.5,6.63-26,0-26,0Z" />
      <ellipse class="light" cx="448.64" cy="427.77" rx="13" ry="3.44" />
    </g>
    <g class="row-3 piece-13 primary piece">
      <polygon class="standard" points="306 474.17 444 446.17 444 496.17 306 524.17 306 474.17" />
      <polygon class="dark" points="306 474.17 280 464.17 280 514.17 306 524.17 306 474.17" />
      <polygon class="light" points="280 464.17 306 474.17 444 446.17 418 436.17 280 464.17" />
      <path class="gradient" d="M297.64,456c0,1.9,5.82,3.45,13,3.45s13-1.55,13-3.45v10.56c-14.5,6.63-26,0-26,0Z" />
      <ellipse class="light" cx="310.64" cy="456.02" rx="13" ry="3.44" />
      <path class="gradient" d="M333.58,449.27c0,1.9,5.82,3.45,13,3.45s13-1.55,13-3.45v10.56c-14.5,6.63-26,0-26,0Z" />
      <ellipse class="light" cx="346.58" cy="449.27" rx="13" ry="3.44" />
      <path class="gradient" d="M367.64,442c0,1.9,5.82,3.45,13,3.45s13-1.55,13-3.45v10.56c-14.5,6.63-26,0-26,0Z" />
      <ellipse class="light" cx="380.64" cy="442.02" rx="13" ry="3.44" />
      <path class="gradient" d="M402.58,435.27c0,1.9,5.82,3.45,13,3.45s13-1.55,13-3.45v10.56c-14.5,6.63-26,0-26,0Z" />
      <ellipse class="light" cx="415.58" cy="435.27" rx="13" ry="3.44" />
    </g>
    <g class="row-4 piece-1 primary piece">
      <polygon class="standard" points="685.5 347.03 720 340.17 720 390.17 685.5 397.03 685.5 347.03" />
      <polygon class="dark" points="685.5 347.03 659.5 337.03 659.5 387.03 685.5 397.03 685.5 347.03" />
      <polygon class="light" points="659.5 337.03 685.5 347.03 720 340.17 694 330.17 659.5 337.03" />
      <path class="gradient" d="M677.14,328.88c0,1.9,5.82,3.45,13,3.45s13-1.55,13-3.45v10.56c-14.5,6.63-26,0-26,0Z" />
      <ellipse class="light" cx="690.14" cy="328.88" rx="13" ry="3.44" />
    </g>
    <g class="row-4 piece-2 contrast piece">
      <polygon class="standard" points="581 401.62 685.5 380.37 685.5 397.03 581 418.29 581 401.62" />
      <polygon class="dark" points="581 401.62 555 391.62 555 408.29 581 418.29 581 401.62" />
      <polygon class="light" points="555 391.62 581 401.62 685.5 380.37 659.5 370.37 555 391.62" />
      <path class="gradient" d="M608.58,376.72c0,1.9,5.82,3.44,13,3.44s13-1.54,13-3.44v10.56c-14.5,6.62-26,0-26,0Z" />
      <ellipse class="light" cx="621.58" cy="376.72" rx="13" ry="3.44" />
      <path class="gradient" d="M572.64,383.47c0,1.9,5.82,3.44,13,3.44s13-1.54,13-3.44V394c-14.5,6.62-26,0-26,0Z" />
      <ellipse class="light" cx="585.64" cy="383.47" rx="13" ry="3.44" />
      <path class="gradient" d="M644.08,369.46c0,1.91,5.82,3.45,13,3.45s13-1.54,13-3.45V380c-14.5,6.63-26,0-26,0Z" />
      <ellipse class="light" cx="657.08" cy="369.46" rx="13" ry="3.44" />
    </g>
    <g class="row-4 piece-3 primary piece">
      <polygon class="standard" points="616.5 377.7 685.5 363.7 685.5 380.37 616.5 394.37 616.5 377.7" />
      <polygon class="dark" points="616.5 377.7 590.5 367.7 590.5 384.37 616.5 394.37 616.5 377.7" />
      <polygon class="light" points="590.5 367.7 616.5 377.7 685.5 363.7 659.5 353.7 590.5 367.7" />
      <path class="gradient" d="M608.14,359.55c0,1.9,5.82,3.44,13,3.44s13-1.54,13-3.44v10.56c-14.5,6.62-26,0-26,0Z" />
      <ellipse class="light" cx="621.14" cy="359.55" rx="13" ry="3.44" />
      <path class="gradient" d="M644.08,352.8c0,1.9,5.82,3.44,13,3.44s13-1.54,13-3.44v10.56c-14.5,6.62-26,0-26,0Z" />
      <ellipse class="light" cx="657.08" cy="352.8" rx="13" ry="3.44" />
    </g>
    <g class="row-4 piece-4 primary piece">
      <polygon class="standard" points="616.5 361.04 685.5 347.04 685.5 363.7 616.5 377.7 616.5 361.04" />
      <polygon class="dark" points="616.5 361.04 590.5 351.04 590.5 367.7 616.5 377.7 616.5 361.04" />
      <polygon class="light" points="590.5 351.04 616.5 361.04 685.5 347.04 659.5 337.04 590.5 351.04" />
      <path class="gradient" d="M644.08,336.13c0,1.91,5.82,3.45,13,3.45s13-1.54,13-3.45v10.56c-14.5,6.63-26,0-26,0Z" />
      <ellipse class="light" cx="657.08" cy="336.13" rx="13" ry="3.44" />
      <path class="gradient" d="M608.14,342.88c0,1.91,5.82,3.45,13,3.45s13-1.54,13-3.45v10.56c-14.5,6.63-26,0-26,0Z" />
      <ellipse class="light" cx="621.14" cy="342.88" rx="13" ry="3.44" />
    </g>
    <g class="row-4 piece-5 contrast piece">
      <polygon class="standard" points="582 384.53 616.5 377.67 616.5 394.34 582 401.2 582 384.53" />
      <polygon class="dark" points="582 384.53 556 374.53 556 391.2 582 401.2 582 384.53" />
      <polygon class="light" points="556 374.53 582 384.53 616.5 377.67 590.5 367.67 556 374.53" />
      <path class="gradient" d="M573.64,366.38c0,1.9,5.82,3.44,13,3.44s13-1.54,13-3.44v10.56c-14.5,6.62-26,0-26,0Z" />
      <ellipse class="light" cx="586.64" cy="366.38" rx="13" ry="3.44" />
    </g>
    <g class="row-4 piece-5 contrast piece">
      <polygon class="standard" points="582 368.17 616.5 361.31 616.5 377.98 582 384.84 582 368.17" />
      <polygon class="dark" points="582 368.17 556 358.17 556 374.84 582 384.84 582 368.17" />
      <polygon class="light" points="556 358.17 582 368.17 616.5 361.31 590.5 351.31 556 358.17" />
      <path class="gradient" d="M573.64,350c0,1.9,5.82,3.45,13,3.45s13-1.55,13-3.45v10.56c-14.5,6.63-26,0-26,0Z" />
      <ellipse class="light" cx="586.64" cy="350.02" rx="13" ry="3.44" />
    </g>
    <g class="row-4 piece-6 primary piece">
      <polygon class="standard" points="547.5 375.03 582 368.17 582 418.17 547.5 425.03 547.5 375.03" />
      <polygon class="dark" points="547.5 375.03 521.5 365.03 521.5 415.03 547.5 425.03 547.5 375.03" />
      <polygon class="light" points="521.5 365.03 547.5 375.03 582 368.17 556 358.17 521.5 365.03" />
      <path class="gradient" d="M539.14,356.88c0,1.9,5.82,3.45,13,3.45s13-1.55,13-3.45v10.56c-14.5,6.63-26,0-26,0Z" />
      <ellipse class="light" cx="552.14" cy="356.88" rx="13" ry="3.44" />
    </g>
    <g class="row-4 piece-7 contrast piece">
      <polygon class="standard" points="513 381.89 547.5 375.03 547.5 425.03 513 431.89 513 381.89" />
      <polygon class="dark" points="513 381.89 487 371.89 487 421.89 513 431.89 513 381.89" />
      <polygon class="light" points="487 371.89 513 381.89 547.5 375.03 521.5 365.03 487 371.89" />
      <path class="gradient" d="M504.64,363.74c0,1.9,5.82,3.45,13,3.45s13-1.55,13-3.45V374.3c-14.5,6.63-26,0-26,0Z" />
      <ellipse class="light" cx="517.64" cy="363.74" rx="13" ry="3.44" />
    </g>
    <g class="row-4 piece-8 primary piece">
      <polygon class="standard" points="375 410.17 513 382.17 513 432.17 375 460.17 375 410.17" />
      <polygon class="dark" points="375 410.17 349 400.17 349 450.17 375 460.17 375 410.17" />
      <polygon class="light" points="349 400.17 375 410.17 513 382.17 487 372.17 349 400.17" />
      <path class="gradient" d="M366.64,392c0,1.9,5.82,3.45,13,3.45s13-1.55,13-3.45v10.56c-14.5,6.63-26,0-26,0Z" />
      <ellipse class="light" cx="379.64" cy="392.02" rx="13" ry="3.44" />
      <path class="gradient" d="M402.58,385.27c0,1.9,5.82,3.45,13,3.45s13-1.55,13-3.45v10.56c-14.5,6.63-26,0-26,0Z" />
      <ellipse class="light" cx="415.58" cy="385.27" rx="13" ry="3.44" />
      <path class="gradient" d="M436.64,378c0,1.9,5.82,3.45,13,3.45s13-1.55,13-3.45v10.56c-14.5,6.63-26,0-26,0Z" />
      <ellipse class="light" cx="449.64" cy="378.02" rx="13" ry="3.44" />
      <path class="gradient" d="M471.58,371.27c0,1.9,5.82,3.45,13,3.45s13-1.55,13-3.45v10.56c-14.5,6.63-26,0-26,0Z" />
      <ellipse class="light" cx="484.58" cy="371.27" rx="13" ry="3.44" />
    </g>
    <g class="row-4 piece-9 primary piece">
      <polygon class="standard" points="306 424.17 375 410.17 375 460.17 306 474.17 306 424.17" />
      <polygon class="dark" points="306 424.17 280 414.17 280 464.17 306 474.17 306 424.17" />
      <polygon class="light" points="280 414.17 306 424.17 375 410.17 349 400.17 280 414.17" />
      <path class="gradient" d="M333.58,399.27c0,1.9,5.82,3.45,13,3.45s13-1.55,13-3.45v10.56c-14.5,6.63-26,0-26,0Z" />
      <ellipse class="light" cx="346.58" cy="399.27" rx="13" ry="3.44" />
      <path class="gradient" d="M297.64,406c0,1.9,5.82,3.45,13,3.45s13-1.55,13-3.45v10.56c-14.5,6.63-26,0-26,0Z" />
      <ellipse class="light" cx="310.64" cy="406.02" rx="13" ry="3.44" />
    </g>
    <g class="row-5 piece-1 primary piece">
      <polygon class="standard" points="685.5 297.03 720 290.17 720 340.17 685.5 347.03 685.5 297.03" />
      <polygon class="dark" points="685.5 297.03 659.5 287.03 659.5 337.03 685.5 347.03 685.5 297.03" />
      <polygon class="light" points="659.5 287.03 685.5 297.03 720 290.17 694 280.17 659.5 287.03" />
      <path class="gradient" d="M677.14,278.88c0,1.9,5.82,3.45,13,3.45s13-1.55,13-3.45v10.56c-14.5,6.63-26,0-26,0Z" />
      <ellipse class="light" cx="690.14" cy="278.88" rx="13" ry="3.44" />
    </g>
    <g class="row-5 piece-2 contrast piece">
      <polygon class="standard" points="616.5 311.07 685.5 297.07 685.5 347.07 616.5 361.07 616.5 311.07" />
      <polygon class="dark" points="616.5 311.07 590.5 301.07 590.5 351.07 616.5 361.07 616.5 311.07" />
      <polygon class="light" points="590.5 301.07 616.5 311.07 685.5 297.07 659.5 287.07 590.5 301.07" />
      <path class="gradient" d="M644.08,286.17c0,1.9,5.82,3.45,13,3.45s13-1.55,13-3.45v10.56c-14.5,6.63-26,0-26,0Z" />
      <ellipse class="light" cx="657.08" cy="286.17" rx="13" ry="3.44" />
      <path class="gradient" d="M608.14,292.92c0,1.9,5.82,3.45,13,3.45s13-1.55,13-3.45v10.56c-14.5,6.63-26,0-26,0Z" />
      <ellipse class="light" cx="621.14" cy="292.92" rx="13" ry="3.44" />
    </g>
    <g class="row-5 piece-3 contrast piece">
      <polygon class="standard" points="582 318.17 616.5 311.31 616.5 361.31 582 368.17 582 318.17" />
      <polygon class="dark" points="582 318.17 556 308.17 556 358.17 582 368.17 582 318.17" />
      <polygon class="light" points="556 308.17 582 318.17 616.5 311.31 590.5 301.31 556 308.17" />
      <path class="gradient" d="M573.64,300c0,1.9,5.82,3.45,13,3.45s13-1.55,13-3.45v10.56c-14.5,6.63-26,0-26,0Z" />
      <ellipse class="light" cx="586.64" cy="300.02" rx="13" ry="3.44" />
    </g>
    <g class="row-5 piece-4 primary piece">
      <polygon class="standard" points="547.5 325.03 582 318.17 582 368.17 547.5 375.03 547.5 325.03" />
      <polygon class="dark" points="547.5 325.03 521.5 315.03 521.5 365.03 547.5 375.03 547.5 325.03" />
      <polygon class="light" points="521.5 315.03 547.5 325.03 582 318.17 556 308.17 521.5 315.03" />
      <path class="gradient" d="M539.14,306.88c0,1.9,5.82,3.45,13,3.45s13-1.55,13-3.45v10.56c-14.5,6.63-26,0-26,0Z" />
      <ellipse class="light" cx="552.14" cy="306.88" rx="13" ry="3.44" />
    </g>
    <g class="row-5 piece-5 contrast piece">
      <polygon class="standard" points="513 331.89 547.5 325.03 547.5 375.03 513 381.89 513 331.89" />
      <polygon class="dark" points="513 331.89 487 321.89 487 371.89 513 381.89 513 331.89" />
      <polygon class="light" points="487 321.89 513 331.89 547.5 325.03 521.5 315.03 487 321.89" />
      <path class="gradient" d="M504.64,313.74c0,1.9,5.82,3.45,13,3.45s13-1.55,13-3.45V324.3c-14.5,6.63-26,0-26,0Z" />
      <ellipse class="light" cx="517.64" cy="313.74" rx="13" ry="3.44" />
    </g>
    <g class="row-5 piece-6 primary piece">
      <polygon class="standard" points="444 346.17 513 332.17 513 382.17 444 396.17 444 346.17" />
      <polygon class="dark" points="444 346.17 418 336.17 418 386.17 444 396.17 444 346.17" />
      <polygon class="light" points="418 336.17 444 346.17 513 332.17 487 322.17 418 336.17" />
      <path class="gradient" d="M471.58,321.27c0,1.9,5.82,3.45,13,3.45s13-1.55,13-3.45v10.56c-14.5,6.63-26,0-26,0Z" />
      <ellipse class="light" cx="484.58" cy="321.27" rx="13" ry="3.44" />
      <path class="gradient" d="M435.64,328c0,1.9,5.82,3.45,13,3.45s13-1.55,13-3.45v10.56c-14.5,6.63-26,0-26,0Z" />
      <ellipse class="light" cx="448.64" cy="328.02" rx="13" ry="3.44" />
    </g>
    <g class="row-5 piece-7 primary piece">
      <polygon class="standard" points="306 374.17 444 346.17 444 396.17 306 424.17 306 374.17" />
      <polygon class="dark" points="306 374.17 280 364.17 280 414.17 306 424.17 306 374.17" />
      <polygon class="light" points="280 364.17 306 374.17 444 346.17 418 336.17 280 364.17" />
      <path class="gradient" d="M297.64,356c0,1.9,5.82,3.45,13,3.45s13-1.55,13-3.45v10.56c-14.5,6.63-26,0-26,0Z" />
      <ellipse class="light" cx="310.64" cy="356.02" rx="13" ry="3.44" />
      <path class="gradient" d="M333.58,349.27c0,1.9,5.82,3.45,13,3.45s13-1.55,13-3.45v10.56c-14.5,6.63-26,0-26,0Z" />
      <ellipse class="light" cx="346.58" cy="349.27" rx="13" ry="3.44" />
      <path class="gradient" d="M367.64,342c0,1.9,5.82,3.45,13,3.45s13-1.55,13-3.45v10.56c-14.5,6.63-26,0-26,0Z" />
      <ellipse class="light" cx="380.64" cy="342.02" rx="13" ry="3.44" />
      <path class="gradient" d="M402.58,335.27c0,1.9,5.82,3.45,13,3.45s13-1.55,13-3.45v10.56c-14.5,6.63-26,0-26,0Z" />
      <ellipse class="light" cx="415.58" cy="335.27" rx="13" ry="3.44" />
    </g>
    <g class="row-6 piece-1 primary piece">
      <polygon class="standard" points="651 254.17 720 240.17 720 290.17 651 304.17 651 254.17" />
      <polygon class="dark" points="651 254.17 625 244.17 625 294.17 651 304.17 651 254.17" />
      <polygon class="light" points="625 244.17 651 254.17 720 240.17 694 230.17 625 244.17" />
      <path class="gradient" d="M678.58,229.27c0,1.9,5.82,3.45,13,3.45s13-1.55,13-3.45v10.56c-14.5,6.63-26,0-26,0Z" />
      <ellipse class="light" cx="691.58" cy="229.27" rx="13" ry="3.44" />
      <path class="gradient" d="M642.64,236c0,1.9,5.82,3.45,13,3.45s13-1.55,13-3.45v10.56c-14.5,6.63-26,0-26,0Z" />
      <ellipse class="light" cx="655.64" cy="236.02" rx="13" ry="3.44" />
    </g>
    <g class="row-6 piece-2 primary piece">
      <polygon class="standard" points="513 282.17 651 254.17 651 304.17 513 332.17 513 282.17" />
      <polygon class="dark" points="513 282.17 487 272.17 487 322.17 513 332.17 513 282.17" />
      <polygon class="light" points="487 272.17 513 282.17 651 254.17 625 244.17 487 272.17" />
      <path class="gradient" d="M504.64,264c0,1.9,5.82,3.45,13,3.45s13-1.55,13-3.45v10.56c-14.5,6.63-26,0-26,0Z" />
      <ellipse class="light" cx="517.64" cy="264.02" rx="13" ry="3.44" />
      <path class="gradient" d="M540.58,257.27c0,1.9,5.82,3.45,13,3.45s13-1.55,13-3.45v10.56c-14.5,6.63-26,0-26,0Z" />
      <ellipse class="light" cx="553.58" cy="257.27" rx="13" ry="3.44" />
      <path class="gradient" d="M574.64,250c0,1.9,5.82,3.45,13,3.45s13-1.55,13-3.45v10.56c-14.5,6.63-26,0-26,0Z" />
      <ellipse class="light" cx="587.64" cy="250.02" rx="13" ry="3.44" />
      <path class="gradient" d="M609.58,243.27c0,1.9,5.82,3.45,13,3.45s13-1.55,13-3.45v10.56c-14.5,6.63-26,0-26,0Z" />
      <ellipse class="light" cx="622.58" cy="243.27" rx="13" ry="3.44" />
    </g>
    <g class="row-6 piece-3 primary piece">
      <polygon class="standard" points="375 310.17 513 282.17 513 332.17 375 360.17 375 310.17" />
      <polygon class="dark" points="375 310.17 349 300.17 349 350.17 375 360.17 375 310.17" />
      <polygon class="light" points="349 300.17 375 310.17 513 282.17 487 272.17 349 300.17" />
      <path class="gradient" d="M366.64,292c0,1.9,5.82,3.45,13,3.45s13-1.55,13-3.45v10.56c-14.5,6.63-26,0-26,0Z" />
      <ellipse class="light" cx="379.64" cy="292.02" rx="13" ry="3.44" />
      <path class="gradient" d="M402.58,285.27c0,1.9,5.82,3.45,13,3.45s13-1.55,13-3.45v10.56c-14.5,6.63-26,0-26,0Z" />
      <ellipse class="light" cx="415.58" cy="285.27" rx="13" ry="3.44" />
      <path class="gradient" d="M436.64,278c0,1.9,5.82,3.45,13,3.45s13-1.55,13-3.45v10.56c-14.5,6.63-26,0-26,0Z" />
      <ellipse class="light" cx="449.64" cy="278.02" rx="13" ry="3.44" />
      <path class="gradient" d="M471.58,271.27c0,1.9,5.82,3.45,13,3.45s13-1.55,13-3.45v10.56c-14.5,6.63-26,0-26,0Z" />
      <ellipse class="light" cx="484.58" cy="271.27" rx="13" ry="3.44" />
    </g>
    <g class="row-6 piece-4 primary piece">
      <polygon class="standard" points="306 324.17 375 310.17 375 360.17 306 374.17 306 324.17" />
      <polygon class="dark" points="306 324.17 280 314.17 280 364.17 306 374.17 306 324.17" />
      <polygon class="light" points="280 314.17 306 324.17 375 310.17 349 300.17 280 314.17" />
      <path class="gradient" d="M333.58,299.27c0,1.9,5.82,3.45,13,3.45s13-1.55,13-3.45v10.56c-14.5,6.63-26,0-26,0Z" />
      <ellipse class="light" cx="346.58" cy="299.27" rx="13" ry="3.44" />
      <path class="gradient" d="M297.64,306c0,1.9,5.82,3.45,13,3.45s13-1.55,13-3.45v10.56c-14.5,6.63-26,0-26,0Z" />
      <ellipse class="light" cx="310.64" cy="306.02" rx="13" ry="3.44" />
    </g>
    <g class="row-7 piece-1 primary piece">
      <polygon class="standard" points="582 218.17 720 190.17 720 240.17 582 268.17 582 218.17" />
      <polygon class="dark" points="582 218.17 556 208.17 556 258.17 582 268.17 582 218.17" />
      <polygon class="light" points="556 208.17 582 218.17 720 190.17 694 180.17 556 208.17" />
      <path class="gradient" d="M573.64,200c0,1.9,5.82,3.45,13,3.45s13-1.55,13-3.45v10.56c-14.5,6.63-26,0-26,0Z" />
      <ellipse class="light" cx="586.64" cy="200.02" rx="13" ry="3.44" />
      <path class="gradient" d="M609.58,193.27c0,1.9,5.82,3.45,13,3.45s13-1.55,13-3.45v10.56c-14.5,6.63-26,0-26,0Z" />
      <ellipse class="light" cx="622.58" cy="193.27" rx="13" ry="3.44" />
      <path class="gradient" d="M643.64,186c0,1.9,5.82,3.45,13,3.45s13-1.55,13-3.45v10.56c-14.5,6.63-26,0-26,0Z" />
      <ellipse class="light" cx="656.64" cy="186.02" rx="13" ry="3.44" />
      <path class="gradient" d="M678.58,179.27c0,1.9,5.82,3.45,13,3.45s13-1.55,13-3.45v10.56c-14.5,6.63-26,0-26,0Z" />
      <ellipse class="light" cx="691.58" cy="179.27" rx="13" ry="3.44" />
    </g>
    <g class="row-7 piece-2 primary piece">
      <polygon class="standard" points="444 246.17 582 218.17 582 268.17 444 296.17 444 246.17" />
      <polygon class="dark" points="444 246.17 418 236.17 418 286.17 444 296.17 444 246.17" />
      <polygon class="light" points="418 236.17 444 246.17 582 218.17 556 208.17 418 236.17" />
      <path class="gradient" d="M435.64,228c0,1.9,5.82,3.45,13,3.45s13-1.55,13-3.45v10.56c-14.5,6.63-26,0-26,0Z" />
      <ellipse class="light" cx="448.64" cy="228.02" rx="13" ry="3.44" />
      <path class="gradient" d="M471.58,221.27c0,1.9,5.82,3.45,13,3.45s13-1.55,13-3.45v10.56c-14.5,6.63-26,0-26,0Z" />
      <ellipse class="light" cx="484.58" cy="221.27" rx="13" ry="3.44" />
      <path class="gradient" d="M505.64,214c0,1.9,5.82,3.45,13,3.45s13-1.55,13-3.45v10.56c-14.5,6.63-26,0-26,0Z" />
      <ellipse class="light" cx="518.64" cy="214.02" rx="13" ry="3.44" />
      <path class="gradient" d="M540.58,207.27c0,1.9,5.82,3.45,13,3.45s13-1.55,13-3.45v10.56c-14.5,6.63-26,0-26,0Z" />
      <ellipse class="light" cx="553.58" cy="207.27" rx="13" ry="3.44" />
    </g>
    <g class="row-7 piece-3 primary piece">
      <polygon class="standard" points="306 274.17 444 246.17 444 296.17 306 324.17 306 274.17" />
      <polygon class="dark" points="306 274.17 280 264.17 280 314.17 306 324.17 306 274.17" />
      <polygon class="light" points="280 264.17 306 274.17 444 246.17 418 236.17 280 264.17" />
      <path class="gradient" d="M297.64,256c0,1.9,5.82,3.45,13,3.45s13-1.55,13-3.45v10.56c-14.5,6.63-26,0-26,0Z" />
      <ellipse class="light" cx="310.64" cy="256.02" rx="13" ry="3.44" />
      <path class="gradient" d="M333.58,249.27c0,1.9,5.82,3.45,13,3.45s13-1.55,13-3.45v10.56c-14.5,6.63-26,0-26,0Z" />
      <ellipse class="light" cx="346.58" cy="249.27" rx="13" ry="3.44" />
      <path class="gradient" d="M367.64,242c0,1.9,5.82,3.45,13,3.45s13-1.55,13-3.45v10.56c-14.5,6.63-26,0-26,0Z" />
      <ellipse class="light" cx="380.64" cy="242.02" rx="13" ry="3.44" />
      <path class="gradient" d="M402.58,235.27c0,1.9,5.82,3.45,13,3.45s13-1.55,13-3.45v10.56c-14.5,6.63-26,0-26,0Z" />
      <ellipse class="light" cx="415.58" cy="235.27" rx="13" ry="3.44" />
    </g>
    <g class="row-8 piece-1 primary piece">
      <polygon class="standard" points="651 154.17 720 140.17 720 190.17 651 204.17 651 154.17" />
      <polygon class="dark" points="651 154.17 625 144.17 625 194.17 651 204.17 651 154.17" />
      <polygon class="light" points="625 144.17 651 154.17 720 140.17 694 130.17 625 144.17" />
      <path class="gradient" d="M678.58,129.27c0,1.9,5.82,3.45,13,3.45s13-1.55,13-3.45v10.56c-14.5,6.63-26,0-26,0Z" />
      <ellipse class="light" cx="691.58" cy="129.27" rx="13" ry="3.44" />
      <path class="gradient" d="M642.64,136c0,1.9,5.82,3.45,13,3.45s13-1.55,13-3.45v10.56c-14.5,6.63-26,0-26,0Z" />
      <ellipse class="light" cx="655.64" cy="136.02" rx="13" ry="3.44" />
    </g>
    <g class="row-8 piece-2 primary piece">
      <polygon class="standard" points="513 182.17 651 154.17 651 204.17 513 232.17 513 182.17" />
      <polygon class="dark" points="513 182.17 487 172.17 487 222.17 513 232.17 513 182.17" />
      <polygon class="light" points="487 172.17 513 182.17 651 154.17 625 144.17 487 172.17" />
      <path class="gradient" d="M504.64,164c0,1.9,5.82,3.45,13,3.45s13-1.55,13-3.45v10.56c-14.5,6.63-26,0-26,0Z" />
      <ellipse class="light" cx="517.64" cy="164.02" rx="13" ry="3.44" />
      <path class="gradient" d="M540.58,157.27c0,1.9,5.82,3.45,13,3.45s13-1.55,13-3.45v10.56c-14.5,6.63-26,0-26,0Z" />
      <ellipse class="light" cx="553.58" cy="157.27" rx="13" ry="3.44" />
      <path class="gradient" d="M574.64,150c0,1.9,5.82,3.45,13,3.45s13-1.55,13-3.45v10.56c-14.5,6.63-26,0-26,0Z" />
      <ellipse class="light" cx="587.64" cy="150.02" rx="13" ry="3.44" />
      <path class="gradient" d="M609.58,143.27c0,1.9,5.82,3.45,13,3.45s13-1.55,13-3.45v10.56c-14.5,6.63-26,0-26,0Z" />
      <ellipse class="light" cx="622.58" cy="143.27" rx="13" ry="3.44" />
    </g>
    <g class="row-8 piece-3 primary piece">
      <polygon class="standard" points="375 210.17 513 182.17 513 232.17 375 260.17 375 210.17" />
      <polygon class="dark" points="375 210.17 349 200.17 349 250.17 375 260.17 375 210.17" />
      <polygon class="light" points="349 200.17 375 210.17 513 182.17 487 172.17 349 200.17" />
      <path class="gradient" d="M366.64,192c0,1.9,5.82,3.45,13,3.45s13-1.55,13-3.45v10.56c-14.5,6.63-26,0-26,0Z" />
      <ellipse class="light" cx="379.64" cy="192.02" rx="13" ry="3.44" />
      <path class="gradient" d="M402.58,185.27c0,1.9,5.82,3.45,13,3.45s13-1.55,13-3.45v10.56c-14.5,6.63-26,0-26,0Z" />
      <ellipse class="light" cx="415.58" cy="185.27" rx="13" ry="3.44" />
      <path class="gradient" d="M436.64,178c0,1.9,5.82,3.45,13,3.45s13-1.55,13-3.45v10.56c-14.5,6.63-26,0-26,0Z" />
      <ellipse class="light" cx="449.64" cy="178.02" rx="13" ry="3.44" />
      <path class="gradient" d="M471.58,171.27c0,1.9,5.82,3.45,13,3.45s13-1.55,13-3.45v10.56c-14.5,6.63-26,0-26,0Z" />
      <ellipse class="light" cx="484.58" cy="171.27" rx="13" ry="3.44" />
    </g>
    <g class="row-8 piece-4 primary piece">
      <polygon class="standard" points="306 224.17 375 210.17 375 260.17 306 274.17 306 224.17" />
      <polygon class="dark" points="306 224.17 280 214.17 280 264.17 306 274.17 306 224.17" />
      <polygon class="light" points="280 214.17 306 224.17 375 210.17 349 200.17 280 214.17" />
      <path class="gradient" d="M333.58,199.27c0,1.9,5.82,3.45,13,3.45s13-1.55,13-3.45v10.56c-14.5,6.63-26,0-26,0Z" />
      <ellipse class="light" cx="346.58" cy="199.27" rx="13" ry="3.44" />
      <path class="gradient" d="M297.64,206c0,1.9,5.82,3.45,13,3.45s13-1.55,13-3.45v10.56c-14.5,6.63-26,0-26,0Z" />
      <ellipse class="light" cx="310.64" cy="206.02" rx="13" ry="3.44" />
    </g>
    <g class="row-9 piece-1 primary piece">
      <polygon class="standard" points="582 118.17 720 90.17 720 140.17 582 168.17 582 118.17" />
      <polygon class="dark" points="582 118.17 556 108.17 556 158.17 582 168.17 582 118.17" />
      <polygon class="light" points="556 108.17 582 118.17 720 90.17 694 80.17 556 108.17" />
      <path class="gradient" d="M573.64,100c0,1.9,5.82,3.45,13,3.45s13-1.55,13-3.45v10.56c-14.5,6.63-26,0-26,0Z" />
      <ellipse class="light" cx="586.64" cy="100.02" rx="13" ry="3.44" />
      <path class="gradient" d="M609.58,93.27c0,1.9,5.82,3.45,13,3.45s13-1.55,13-3.45v10.56c-14.5,6.63-26,0-26,0Z" />
      <ellipse class="light" cx="622.58" cy="93.27" rx="13" ry="3.44" />
      <path class="gradient" d="M643.64,86c0,1.9,5.82,3.45,13,3.45s13-1.55,13-3.45V96.58c-14.5,6.63-26,0-26,0Z" />
      <ellipse class="light" cx="656.64" cy="86.02" rx="13" ry="3.44" />
      <path class="gradient" d="M678.58,79.27c0,1.9,5.82,3.45,13,3.45s13-1.55,13-3.45V89.83c-14.5,6.63-26,0-26,0Z" />
      <ellipse class="light" cx="691.58" cy="79.27" rx="13" ry="3.44" />
    </g>
    <g class="row-9 piece-2 primary piece">
      <polygon class="standard" points="444 146.17 582 118.17 582 168.17 444 196.17 444 146.17" />
      <polygon class="dark" points="444 146.17 418 136.17 418 186.17 444 196.17 444 146.17" />
      <polygon class="light" points="418 136.17 444 146.17 582 118.17 556 108.17 418 136.17" />
      <path class="gradient" d="M435.64,128c0,1.9,5.82,3.45,13,3.45s13-1.55,13-3.45v10.56c-14.5,6.63-26,0-26,0Z" />
      <ellipse class="light" cx="448.64" cy="128.02" rx="13" ry="3.44" />
      <path class="gradient" d="M471.58,121.27c0,1.9,5.82,3.45,13,3.45s13-1.55,13-3.45v10.56c-14.5,6.63-26,0-26,0Z" />
      <ellipse class="light" cx="484.58" cy="121.27" rx="13" ry="3.44" />
      <path class="gradient" d="M505.64,114c0,1.9,5.82,3.45,13,3.45s13-1.55,13-3.45v10.56c-14.5,6.63-26,0-26,0Z" />
      <ellipse class="light" cx="518.64" cy="114.02" rx="13" ry="3.44" />
      <path class="gradient" d="M540.58,107.27c0,1.9,5.82,3.45,13,3.45s13-1.55,13-3.45v10.56c-14.5,6.63-26,0-26,0Z" />
      <ellipse class="light" cx="553.58" cy="107.27" rx="13" ry="3.44" />
    </g>
    <g class="row-9 piece-3 primary piece">
      <polygon class="standard" points="306 174.17 444 146.17 444 196.17 306 224.17 306 174.17" />
      <polygon class="dark" points="306 174.17 280 164.17 280 214.17 306 224.17 306 174.17" />
      <polygon class="light" points="280 164.17 306 174.17 444 146.17 418 136.17 280 164.17" />
      <path class="gradient" d="M297.64,156c0,1.9,5.82,3.45,13,3.45s13-1.55,13-3.45v10.56c-14.5,6.63-26,0-26,0Z" />
      <ellipse class="light" cx="310.64" cy="156.02" rx="13" ry="3.44" />
      <path class="gradient" d="M333.58,149.27c0,1.9,5.82,3.45,13,3.45s13-1.55,13-3.45v10.56c-14.5,6.63-26,0-26,0Z" />
      <ellipse class="light" cx="346.58" cy="149.27" rx="13" ry="3.44" />
      <path class="gradient" d="M367.64,142c0,1.9,5.82,3.45,13,3.45s13-1.55,13-3.45v10.56c-14.5,6.63-26,0-26,0Z" />
      <ellipse class="light" cx="380.64" cy="142.02" rx="13" ry="3.44" />
      <path class="gradient" d="M402.58,135.27c0,1.9,5.82,3.45,13,3.45s13-1.55,13-3.45v10.56c-14.5,6.63-26,0-26,0Z" />
      <ellipse class="light" cx="415.58" cy="135.27" rx="13" ry="3.44" />
    </g>
  </g>
  <g class="list">
    <rect class="background" x="10" y="100" width="145" height="114" />
    <text transform="translate(30 198.48)">3x</text>
    <g class="piece primary">
      <polygon class="standard" points="46.9 143.43 136.6 125.22 136.6 157.72 46.9 175.93 46.9 143.43" />
      <polygon class="dark" points="46.9 143.43 30 136.93 30 169.43 46.9 175.93 46.9 143.43" />
      <polygon class="light" points="30 136.93 46.9 143.43 136.6 125.22 119.7 118.72 30 136.93" />
      <path class="gradient" d="M41.47,131.63c0,1.23,3.78,2.23,8.45,2.23s8.45-1,8.45-2.23v6.86a19.35,19.35,0,0,1-16.9,0Z" />
      <ellipse class="light" cx="49.92" cy="131.63" rx="8.45" ry="2.24" />
      <path class="gradient" d="M64.83,127.24c0,1.24,3.78,2.24,8.45,2.24s8.45-1,8.45-2.24v6.86a19.35,19.35,0,0,1-16.9,0Z" />
      <ellipse class="light" cx="73.28" cy="127.24" rx="8.45" ry="2.24" />
      <path class="gradient" d="M87,122.53c0,1.23,3.78,2.23,8.45,2.23s8.45-1,8.45-2.23v6.86a19.35,19.35,0,0,1-16.9,0Z" />
      <ellipse class="light" cx="95.42" cy="122.53" rx="8.45" ry="2.24" />
      <path class="gradient" d="M109.68,118.14c0,1.24,3.78,2.24,8.45,2.24s8.45-1,8.45-2.24V125a19.35,19.35,0,0,1-16.9,0Z" />
      <ellipse class="light" cx="118.13" cy="118.14" rx="8.45" ry="2.24" />
    </g>
  </g>
  <text transform="translate(30 72.24)">13</text>
</svg>
