<svg xmlns="http://www.w3.org/2000/svg" xmlns:xlink="http://www.w3.org/1999/xlink" viewBox="0 0 1000 700">
  <g class="build">
    <g class="row-1 piece-1 primary piece">
      <polygon class="standard" points="521.5 490.03 590.5 476.03 590.5 526.03 521.5 540.03 521.5 490.03" />
      <polygon class="dark" points="521.5 490.03 495.5 480.03 495.5 530.03 521.5 540.03 521.5 490.03" />
      <polygon class="light" points="495.5 480.03 521.5 490.03 590.5 476.03 564.5 466.03 495.5 480.03" />
      <path class="gradient" d="M513.14,471.88c0,1.9,5.82,3.45,13,3.45s13-1.55,13-3.45v10.56c-14.5,6.63-26,0-26,0Z" />
      <ellipse class="light" cx="526.14" cy="471.88" rx="13" ry="3.44" />
      <path class="gradient" d="M549.08,465.13c0,1.9,5.82,3.45,13,3.45s13-1.55,13-3.45v10.56c-14.5,6.63-26,0-26,0Z" />
      <ellipse class="light" cx="562.08" cy="465.13" rx="13" ry="3.44" />
    </g>
    <g class="row-1 piece-2 primary piece">
      <polygon class="standard" points="382.5 518.03 451.5 504.03 451.5 554.03 382.5 568.03 382.5 518.03" />
      <polygon class="dark" points="382.5 518.03 356.5 508.03 356.5 558.03 382.5 568.03 382.5 518.03" />
      <polygon class="light" points="356.5 508.03 382.5 518.03 451.5 504.03 425.5 494.03 356.5 508.03" />
      <path class="gradient" d="M374.14,499.88c0,1.9,5.82,3.45,13,3.45s13-1.55,13-3.45v10.56c-14.5,6.63-26,0-26,0Z" />
      <ellipse class="light" cx="387.14" cy="499.88" rx="13" ry="3.44" />
      <path class="gradient" d="M410.08,493.13c0,1.9,5.82,3.45,13,3.45s13-1.55,13-3.45v10.56c-14.5,6.63-26,0-26,0Z" />
      <ellipse class="light" cx="423.08" cy="493.13" rx="13" ry="3.44" />
    </g>
    <g class="row-1 piece-3 primary piece">
      <polygon class="standard" points="651 479.17 720 465.17 720 515.17 651 529.17 651 479.17" />
      <polygon class="dark" points="651 479.17 625 469.17 625 519.17 651 529.17 651 479.17" />
      <polygon class="light" points="625 469.17 651 479.17 720 465.17 694 455.17 625 469.17" />
      <path class="gradient" d="M678.58,454.27c0,1.9,5.82,3.45,13,3.45s13-1.55,13-3.45v10.56c-14.5,6.63-26,0-26,0Z" />
      <ellipse class="light" cx="691.58" cy="454.27" rx="13" ry="3.44" />
      <path class="gradient" d="M642.64,461c0,1.9,5.82,3.45,13,3.45s13-1.55,13-3.45v10.56c-14.5,6.63-26,0-26,0Z" />
      <ellipse class="light" cx="655.64" cy="461.02" rx="13" ry="3.44" />
    </g>
    <g class="row-1 piece-4 primary piece">
      <polygon class="standard" points="513 507.17 651 479.17 651 529.17 513 557.17 513 507.17" />
      <polygon class="dark" points="513 507.17 487 497.17 487 547.17 513 557.17 513 507.17" />
      <polygon class="light" points="487 497.17 513 507.17 651 479.17 625 469.17 487 497.17" />
      <path class="gradient" d="M504.64,489c0,1.9,5.82,3.45,13,3.45s13-1.55,13-3.45v10.56c-14.5,6.63-26,0-26,0Z" />
      <ellipse class="light" cx="517.64" cy="489.02" rx="13" ry="3.44" />
      <path class="gradient" d="M540.58,482.27c0,1.9,5.82,3.45,13,3.45s13-1.55,13-3.45v10.56c-14.5,6.63-26,0-26,0Z" />
      <ellipse class="light" cx="553.58" cy="482.27" rx="13" ry="3.44" />
      <path class="gradient" d="M574.64,475c0,1.9,5.82,3.45,13,3.45s13-1.55,13-3.45v10.56c-14.5,6.63-26,0-26,0Z" />
      <ellipse class="light" cx="587.64" cy="475.02" rx="13" ry="3.44" />
      <path class="gradient" d="M609.58,468.27c0,1.9,5.82,3.45,13,3.45s13-1.55,13-3.45v10.56c-14.5,6.63-26,0-26,0Z" />
      <ellipse class="light" cx="622.58" cy="468.27" rx="13" ry="3.44" />
    </g>
    <g class="row-1 piece-5 primary piece">
      <polygon class="standard" points="375 535.17 513 507.17 513 557.17 375 585.17 375 535.17" />
      <polygon class="dark" points="375 535.17 349 525.17 349 575.17 375 585.17 375 535.17" />
      <polygon class="light" points="349 525.17 375 535.17 513 507.17 487 497.17 349 525.17" />
      <path class="gradient" d="M366.64,517c0,1.9,5.82,3.45,13,3.45s13-1.55,13-3.45v10.56c-14.5,6.63-26,0-26,0Z" />
      <ellipse class="light" cx="379.64" cy="517.02" rx="13" ry="3.44" />
      <path class="gradient" d="M402.58,510.27c0,1.9,5.82,3.45,13,3.45s13-1.55,13-3.45v10.56c-14.5,6.63-26,0-26,0Z" />
      <ellipse class="light" cx="415.58" cy="510.27" rx="13" ry="3.44" />
      <path class="gradient" d="M436.64,503c0,1.9,5.82,3.45,13,3.45s13-1.55,13-3.45v10.56c-14.5,6.63-26,0-26,0Z" />
      <ellipse class="light" cx="449.64" cy="503.02" rx="13" ry="3.44" />
      <path class="gradient" d="M471.58,496.27c0,1.9,5.82,3.45,13,3.45s13-1.55,13-3.45v10.56c-14.5,6.63-26,0-26,0Z" />
      <ellipse class="light" cx="484.58" cy="496.27" rx="13" ry="3.44" />
    </g>
    <g class="row-1 piece-6 primary piece">
      <polygon class="standard" points="306 549.17 375 535.17 375 585.17 306 599.17 306 549.17" />
      <polygon class="dark" points="306 549.17 280 539.17 280 589.17 306 599.17 306 549.17" />
      <polygon class="light" points="280 539.17 306 549.17 375 535.17 349 525.17 280 539.17" />
      <path class="gradient" d="M333.58,524.27c0,1.9,5.82,3.45,13,3.45s13-1.55,13-3.45v10.56c-14.5,6.63-26,0-26,0Z" />
      <ellipse class="light" cx="346.58" cy="524.27" rx="13" ry="3.44" />
      <path class="gradient" d="M297.64,531c0,1.9,5.82,3.45,13,3.45s13-1.55,13-3.45v10.56c-14.5,6.63-26,0-26,0Z" />
      <ellipse class="light" cx="310.64" cy="531.02" rx="13" ry="3.44" />
    </g>
    <g class="row-2 piece-1 primary piece">
      <polygon class="standard" points="685.5 422.03 720 415.17 720 465.17 685.5 472.03 685.5 422.03" />
      <polygon class="dark" points="685.5 422.03 659.5 412.03 659.5 462.03 685.5 472.03 685.5 422.03" />
      <polygon class="light" points="659.5 412.03 685.5 422.03 720 415.17 694 405.17 659.5 412.03" />
      <path class="gradient" d="M677.14,403.88c0,1.9,5.82,3.45,13,3.45s13-1.55,13-3.45v10.56c-14.5,6.63-26,0-26,0Z" />
      <ellipse class="light" cx="690.14" cy="403.88" rx="13" ry="3.44" />
    </g>
    <g class="row-2 piece-2 contrast piece">
      <polygon class="standard" points="651 428.89 685.5 422.03 685.5 472.03 651 478.89 651 428.89" />
      <polygon class="dark" points="651 428.89 625 418.89 625 468.89 651 478.89 651 428.89" />
      <polygon class="light" points="625 418.89 651 428.89 685.5 422.03 659.5 412.03 625 418.89" />
      <path class="gradient" d="M642.64,410.74c0,1.9,5.82,3.45,13,3.45s13-1.55,13-3.45V421.3c-14.5,6.63-26,0-26,0Z" />
      <ellipse class="light" cx="655.64" cy="410.74" rx="13" ry="3.44" />
    </g>
    <g class="row-2 piece-3 contrast piece">
      <polygon class="standard" points="582 443.17 651 429.17 651 479.17 582 493.17 582 443.17" />
      <polygon class="dark" points="582 443.17 556 433.17 556 483.17 582 493.17 582 443.17" />
      <polygon class="light" points="556 433.17 582 443.17 651 429.17 625 419.17 556 433.17" />
      <path class="gradient" d="M609.58,418.27c0,1.9,5.82,3.45,13,3.45s13-1.55,13-3.45v10.56c-14.5,6.63-26,0-26,0Z" />
      <ellipse class="light" cx="622.58" cy="418.27" rx="13" ry="3.44" />
      <path class="gradient" d="M573.64,425c0,1.9,5.82,3.45,13,3.45s13-1.55,13-3.45v10.56c-14.5,6.63-26,0-26,0Z" />
      <ellipse class="light" cx="586.64" cy="425.02" rx="13" ry="3.44" />
    </g>
    <g class="row-2 piece-4 primary piece">
      <polygon class="standard" points="547.5 450.03 582 443.17 582 493.17 547.5 500.03 547.5 450.03" />
      <polygon class="dark" points="547.5 450.03 495.5 430.03 495.5 480.03 547.5 500.03 547.5 450.03" />
      <polygon class="light" points="495.5 430.03 547.5 450.03 582 443.17 530 423.17 495.5 430.03" />
      <path class="gradient" d="M513.14,421.88c0,1.9,5.82,3.44,13,3.44s13-1.54,13-3.44v10.56c-14.5,6.63-26,0-26,0Z" />
      <ellipse class="light" cx="526.14" cy="421.88" rx="13" ry="3.44" />
      <path class="gradient" d="M539.14,431.88c0,1.9,5.82,3.45,13,3.45s13-1.55,13-3.45v10.56c-14.5,6.63-26,0-26,0Z" />
      <ellipse class="light" cx="552.14" cy="431.88" rx="13" ry="3.44" />
    </g>
    <g class="row-2 piece-5 contrast piece">
      <polygon class="standard" points="478.5 464.03 547.5 450.03 547.5 500.03 478.5 514.03 478.5 464.03" />
      <polygon class="dark" points="478.5 464.03 452.5 454.03 452.5 504.03 478.5 514.03 478.5 464.03" />
      <polygon class="light" points="452.5 454.03 478.5 464.03 547.5 450.03 521.5 440.03 452.5 454.03" />
      <path class="gradient" d="M470.14,445.88c0,1.9,5.82,3.45,13,3.45s13-1.55,13-3.45v10.56c-14.5,6.63-26,0-26,0Z" />
      <ellipse class="light" cx="483.14" cy="445.88" rx="13" ry="3.44" />
      <path class="gradient" d="M506.08,439.13c0,1.9,5.82,3.45,13,3.45s13-1.55,13-3.45v10.56c-14.5,6.63-26,0-26,0Z" />
      <ellipse class="light" cx="519.08" cy="439.13" rx="13" ry="3.44" />
    </g>
    <g class="row-2 piece-6 contrast piece">
      <polygon class="standard" points="444 471.17 478.5 464.31 478.5 514.31 444 521.17 444 471.17" />
      <polygon class="dark" points="444 471.17 392 451.17 392 501.17 444 521.17 444 471.17" />
      <polygon class="light" points="392 451.17 444 471.17 478.5 464.31 426.5 444.31 392 451.17" />
      <path class="gradient" d="M409.64,443c0,1.9,5.82,3.44,13,3.44s13-1.54,13-3.44v10.56c-14.5,6.63-26,0-26,0Z" />
      <ellipse class="light" cx="422.64" cy="443.02" rx="13" ry="3.44" />
      <path class="gradient" d="M435.64,453c0,1.9,5.82,3.45,13,3.45s13-1.55,13-3.45v10.56c-14.5,6.63-26,0-26,0Z" />
      <ellipse class="light" cx="448.64" cy="453.02" rx="13" ry="3.44" />
    </g>
    <g class="row-2 piece-7 primary piece">
      <polygon class="standard" points="306 499.17 444 471.17 444 521.17 306 549.17 306 499.17" />
      <polygon class="dark" points="306 499.17 280 489.17 280 539.17 306 549.17 306 499.17" />
      <polygon class="light" points="280 489.17 306 499.17 444 471.17 418 461.17 280 489.17" />
      <path class="gradient" d="M297.64,481c0,1.9,5.82,3.45,13,3.45s13-1.55,13-3.45v10.56c-14.5,6.63-26,0-26,0Z" />
      <ellipse class="light" cx="310.64" cy="481.02" rx="13" ry="3.44" />
      <path class="gradient" d="M333.58,474.27c0,1.9,5.82,3.45,13,3.45s13-1.55,13-3.45v10.56c-14.5,6.63-26,0-26,0Z" />
      <ellipse class="light" cx="346.58" cy="474.27" rx="13" ry="3.44" />
      <path class="gradient" d="M367.64,467c0,1.9,5.82,3.45,13,3.45s13-1.55,13-3.45v10.56c-14.5,6.63-26,0-26,0Z" />
      <ellipse class="light" cx="380.64" cy="467.02" rx="13" ry="3.44" />
      <path class="gradient" d="M402.58,460.27c0,1.9,5.82,3.45,13,3.45s13-1.55,13-3.45v10.56c-14.5,6.63-26,0-26,0Z" />
      <ellipse class="light" cx="415.58" cy="460.27" rx="13" ry="3.44" />
    </g>
    <g class="row-3 piece-1 primary piece">
      <polygon class="standard" points="685.5 372.03 720 365.17 720 415.17 685.5 422.03 685.5 372.03" />
      <polygon class="dark" points="685.5 372.03 659.5 362.03 659.5 412.03 685.5 422.03 685.5 372.03" />
      <polygon class="light" points="659.5 362.03 685.5 372.03 720 365.17 694 355.17 659.5 362.03" />
      <path class="gradient" d="M677.14,353.88c0,1.9,5.82,3.45,13,3.45s13-1.55,13-3.45v10.56c-14.5,6.63-26,0-26,0Z" />
      <ellipse class="light" cx="690.14" cy="353.88" rx="13" ry="3.44" />
    </g>
    <g class="row-3 piece-2 contrast piece">
      <polygon class="standard" points="651 412.23 685.5 405.37 685.5 422.03 651 428.89 651 412.23" />
      <polygon class="dark" points="651 412.23 625 402.23 625 418.89 651 428.89 651 412.23" />
      <polygon class="light" points="625 402.23 651 412.23 685.5 405.37 659.5 395.37 625 402.23" />
      <path class="gradient" d="M642.64,394.07c0,1.91,5.82,3.45,13,3.45s13-1.54,13-3.45v10.56c-14.5,6.63-26,0-26,0Z" />
      <ellipse class="light" cx="655.64" cy="394.07" rx="13" ry="3.44" />
    </g>
    <g class="row-3 piece-3 contrast piece">
      <polygon class="standard" points="651 395.87 685.5 389.01 685.5 405.68 651 412.54 651 395.87" />
      <polygon class="dark" points="651 395.87 625 385.87 625 402.54 651 412.54 651 395.87" />
      <polygon class="light" points="625 385.87 651 395.87 685.5 389.01 659.5 379.01 625 385.87" />
      <path class="gradient" d="M642.64,377.72c0,1.9,5.82,3.44,13,3.44s13-1.54,13-3.44v10.56c-14.5,6.62-26,0-26,0Z" />
      <ellipse class="light" cx="655.64" cy="377.72" rx="13" ry="3.44" />
    </g>
    <g class="row-3 piece-4 primary piece">
      <polygon class="standard" points="582 426.23 651 412.23 651 428.89 582 442.89 582 426.23" />
      <polygon class="dark" points="582 426.23 556 416.23 556 432.89 582 442.89 582 426.23" />
      <polygon class="light" points="556 416.23 582 426.23 651 412.23 625 402.23 556 416.23" />
      <path class="gradient" d="M573.64,408.07c0,1.91,5.82,3.45,13,3.45s13-1.54,13-3.45v10.56c-14.5,6.63-26,0-26,0Z" />
      <ellipse class="light" cx="586.64" cy="408.07" rx="13" ry="3.44" />
      <path class="gradient" d="M609.58,401.32c0,1.91,5.82,3.45,13,3.45s13-1.54,13-3.45v10.56c-14.5,6.63-26,0-26,0Z" />
      <ellipse class="light" cx="622.58" cy="401.32" rx="13" ry="3.44" />
    </g>
    <g class="row-3 piece-5 primary piece">
      <polygon class="standard" points="582 409.56 651 395.56 651 412.23 582 426.23 582 409.56" />
      <polygon class="dark" points="582 409.56 556 399.56 556 416.23 582 426.23 582 409.56" />
      <polygon class="light" points="556 399.56 582 409.56 651 395.56 625 385.56 556 399.56" />
      <path class="gradient" d="M573.64,391.41c0,1.9,5.82,3.44,13,3.44s13-1.54,13-3.44V402c-14.5,6.62-26,0-26,0Z" />
      <ellipse class="light" cx="586.64" cy="391.41" rx="13" ry="3.44" />
      <path class="gradient" d="M609.58,384.66c0,1.9,5.82,3.44,13,3.44s13-1.54,13-3.44v10.56c-14.5,6.62-26,0-26,0Z" />
      <ellipse class="light" cx="622.58" cy="384.66" rx="13" ry="3.44" />
    </g>
    <g class="row-3 piece-6 contrast piece">
      <polygon class="standard" points="581 392.89 685.5 371.64 685.5 388.31 581 409.56 581 392.89" />
      <polygon class="dark" points="581 392.89 555 382.89 555 399.56 581 409.56 581 392.89" />
      <polygon class="light" points="555 382.89 581 392.89 685.5 371.64 659.5 361.64 555 382.89" />
      <path class="gradient" d="M608.58,368c0,1.91,5.82,3.45,13,3.45s13-1.54,13-3.45v10.56c-14.5,6.63-26,0-26,0Z" />
      <ellipse class="light" cx="621.58" cy="367.99" rx="13" ry="3.44" />
      <path class="gradient" d="M572.64,374.74c0,1.91,5.82,3.45,13,3.45s13-1.54,13-3.45V385.3c-14.5,6.63-26,0-26,0Z" />
      <ellipse class="light" cx="585.64" cy="374.74" rx="13" ry="3.44" />
      <path class="gradient" d="M644.08,360.74c0,1.9,5.82,3.45,13,3.45s13-1.55,13-3.45V371.3c-14.5,6.63-26,0-26,0Z" />
      <ellipse class="light" cx="657.08" cy="360.74" rx="13" ry="3.44" />
    </g>
    <g class="row-3 piece-7 primary piece">
      <polygon class="standard" points="547.5 400.03 582 393.17 582 443.17 547.5 450.03 547.5 400.03" />
      <polygon class="dark" points="547.5 400.03 521.5 390.03 521.5 440.03 547.5 450.03 547.5 400.03" />
      <polygon class="light" points="521.5 390.03 547.5 400.03 582 393.17 556 383.17 521.5 390.03" />
      <path class="gradient" d="M539.14,381.88c0,1.9,5.82,3.45,13,3.45s13-1.55,13-3.45v10.56c-14.5,6.63-26,0-26,0Z" />
      <ellipse class="light" cx="552.14" cy="381.88" rx="13" ry="3.44" />
    </g>
    <g class="row-3 piece-8 contrast piece">
      <polygon class="standard" points="513 406.89 547.5 400.03 547.5 450.03 513 456.89 513 406.89" />
      <polygon class="dark" points="513 406.89 487 396.89 487 446.89 513 456.89 513 406.89" />
      <polygon class="light" points="487 396.89 513 406.89 547.5 400.03 521.5 390.03 487 396.89" />
      <path class="gradient" d="M504.64,388.74c0,1.9,5.82,3.45,13,3.45s13-1.55,13-3.45V399.3c-14.5,6.63-26,0-26,0Z" />
      <ellipse class="light" cx="517.64" cy="388.74" rx="13" ry="3.44" />
    </g>
    <g class="row-3 piece-9 primary piece">
      <polygon class="standard" points="478.5 413.75 513 406.89 513 456.89 478.5 463.75 478.5 413.75" />
      <polygon class="dark" points="478.5 413.75 452.5 403.75 452.5 453.75 478.5 463.75 478.5 413.75" />
      <polygon class="light" points="452.5 403.75 478.5 413.75 513 406.89 487 396.89 452.5 403.75" />
      <path class="gradient" d="M470.14,395.6c0,1.9,5.82,3.45,13,3.45s13-1.55,13-3.45v10.56c-14.5,6.63-26,0-26,0Z" />
      <ellipse class="light" cx="483.14" cy="395.6" rx="13" ry="3.44" />
    </g>
    <g class="row-3 piece-10 contrast piece">
      <polygon class="standard" points="444 454.17 478.5 447.31 478.5 463.98 444 470.84 444 454.17" />
      <polygon class="dark" points="444 454.17 418 444.17 418 460.84 444 470.84 444 454.17" />
      <polygon class="light" points="418 444.17 444 454.17 478.5 447.31 452.5 437.31 418 444.17" />
      <path class="gradient" d="M435.64,436c0,1.9,5.82,3.45,13,3.45s13-1.55,13-3.45v10.56c-14.5,6.63-26,0-26,0Z" />
      <ellipse class="light" cx="448.64" cy="436.02" rx="13" ry="3.44" />
    </g>
    <g class="row-3 piece-11 primary piece">
      <polygon class="standard" points="444 437.28 478.5 430.42 478.5 447.09 444 453.95 444 437.28" />
      <polygon class="dark" points="444 437.28 418 427.28 418 443.95 444 453.95 444 437.28" />
      <polygon class="light" points="418 427.28 444 437.28 478.5 430.42 452.5 420.42 418 427.28" />
      <path class="gradient" d="M435.64,419.13c0,1.9,5.82,3.44,13,3.44s13-1.54,13-3.44v10.56c-14.5,6.62-26,0-26,0Z" />
      <ellipse class="light" cx="448.64" cy="419.13" rx="13" ry="3.44" />
    </g>
    <g class="row-3 piece-12 primary piece">
      <polygon class="standard" points="444 420.92 478.5 414.06 478.5 430.73 444 437.59 444 420.92" />
      <polygon class="dark" points="444 420.92 418 410.92 418 427.59 444 437.59 444 420.92" />
      <polygon class="light" points="418 410.92 444 420.92 478.5 414.06 452.5 404.06 418 410.92" />
      <path class="gradient" d="M435.64,402.77c0,1.9,5.82,3.45,13,3.45s13-1.55,13-3.45v10.56c-14.5,6.63-26,0-26,0Z" />
      <ellipse class="light" cx="448.64" cy="402.77" rx="13" ry="3.44" />
    </g>
    <g class="row-3 piece-13 primary piece">
      <polygon class="standard" points="306 449.17 444 421.17 444 471.17 306 499.17 306 449.17" />
      <polygon class="dark" points="306 449.17 280 439.17 280 489.17 306 499.17 306 449.17" />
      <polygon class="light" points="280 439.17 306 449.17 444 421.17 418 411.17 280 439.17" />
      <path class="gradient" d="M297.64,431c0,1.9,5.82,3.45,13,3.45s13-1.55,13-3.45v10.56c-14.5,6.63-26,0-26,0Z" />
      <ellipse class="light" cx="310.64" cy="431.02" rx="13" ry="3.44" />
      <path class="gradient" d="M333.58,424.27c0,1.9,5.82,3.45,13,3.45s13-1.55,13-3.45v10.56c-14.5,6.63-26,0-26,0Z" />
      <ellipse class="light" cx="346.58" cy="424.27" rx="13" ry="3.44" />
      <path class="gradient" d="M367.64,417c0,1.9,5.82,3.45,13,3.45s13-1.55,13-3.45v10.56c-14.5,6.63-26,0-26,0Z" />
      <ellipse class="light" cx="380.64" cy="417.02" rx="13" ry="3.44" />
      <path class="gradient" d="M402.58,410.27c0,1.9,5.82,3.45,13,3.45s13-1.55,13-3.45v10.56c-14.5,6.63-26,0-26,0Z" />
      <ellipse class="light" cx="415.58" cy="410.27" rx="13" ry="3.44" />
    </g>
    <g class="row-4 piece-1 primary piece">
      <polygon class="standard" points="685.5 322.03 720 315.17 720 365.17 685.5 372.03 685.5 322.03" />
      <polygon class="dark" points="685.5 322.03 659.5 312.03 659.5 362.03 685.5 372.03 685.5 322.03" />
      <polygon class="light" points="659.5 312.03 685.5 322.03 720 315.17 694 305.17 659.5 312.03" />
      <path class="gradient" d="M677.14,303.88c0,1.9,5.82,3.45,13,3.45s13-1.55,13-3.45v10.56c-14.5,6.63-26,0-26,0Z" />
      <ellipse class="light" cx="690.14" cy="303.88" rx="13" ry="3.44" />
    </g>
    <g class="row-4 piece-2 contrast piece">
      <polygon class="standard" points="581 376.62 685.5 355.37 685.5 372.03 581 393.29 581 376.62" />
      <polygon class="dark" points="581 376.62 555 366.62 555 383.29 581 393.29 581 376.62" />
      <polygon class="light" points="555 366.62 581 376.62 685.5 355.37 659.5 345.37 555 366.62" />
      <path class="gradient" d="M608.58,351.72c0,1.9,5.82,3.44,13,3.44s13-1.54,13-3.44v10.56c-14.5,6.62-26,0-26,0Z" />
      <ellipse class="light" cx="621.58" cy="351.72" rx="13" ry="3.44" />
      <path class="gradient" d="M572.64,358.47c0,1.9,5.82,3.44,13,3.44s13-1.54,13-3.44V369c-14.5,6.62-26,0-26,0Z" />
      <ellipse class="light" cx="585.64" cy="358.47" rx="13" ry="3.44" />
      <path class="gradient" d="M644.08,344.46c0,1.91,5.82,3.45,13,3.45s13-1.54,13-3.45V355c-14.5,6.63-26,0-26,0Z" />
      <ellipse class="light" cx="657.08" cy="344.46" rx="13" ry="3.44" />
    </g>
    <g class="row-4 piece-3 primary piece">
      <polygon class="standard" points="616.5 352.7 685.5 338.7 685.5 355.37 616.5 369.37 616.5 352.7" />
      <polygon class="dark" points="616.5 352.7 590.5 342.7 590.5 359.37 616.5 369.37 616.5 352.7" />
      <polygon class="light" points="590.5 342.7 616.5 352.7 685.5 338.7 659.5 328.7 590.5 342.7" />
      <path class="gradient" d="M608.14,334.55c0,1.9,5.82,3.44,13,3.44s13-1.54,13-3.44v10.56c-14.5,6.62-26,0-26,0Z" />
      <ellipse class="light" cx="621.14" cy="334.55" rx="13" ry="3.44" />
      <path class="gradient" d="M644.08,327.8c0,1.9,5.82,3.44,13,3.44s13-1.54,13-3.44v10.56c-14.5,6.62-26,0-26,0Z" />
      <ellipse class="light" cx="657.08" cy="327.8" rx="13" ry="3.44" />
    </g>
    <g class="row-4 piece-4 primary piece">
      <polygon class="standard" points="616.5 336.04 685.5 322.04 685.5 338.7 616.5 352.7 616.5 336.04" />
      <polygon class="dark" points="616.5 336.04 590.5 326.04 590.5 342.7 616.5 352.7 616.5 336.04" />
      <polygon class="light" points="590.5 326.04 616.5 336.04 685.5 322.04 659.5 312.04 590.5 326.04" />
      <path class="gradient" d="M644.08,311.13c0,1.91,5.82,3.45,13,3.45s13-1.54,13-3.45v10.56c-14.5,6.63-26,0-26,0Z" />
      <ellipse class="light" cx="657.08" cy="311.13" rx="13" ry="3.44" />
      <path class="gradient" d="M608.14,317.88c0,1.91,5.82,3.45,13,3.45s13-1.54,13-3.45v10.56c-14.5,6.63-26,0-26,0Z" />
      <ellipse class="light" cx="621.14" cy="317.88" rx="13" ry="3.44" />
    </g>
    <g class="row-4 piece-5 contrast piece">
      <polygon class="standard" points="582 359.53 616.5 352.67 616.5 369.34 582 376.2 582 359.53" />
      <polygon class="dark" points="582 359.53 556 349.53 556 366.2 582 376.2 582 359.53" />
      <polygon class="light" points="556 349.53 582 359.53 616.5 352.67 590.5 342.67 556 349.53" />
      <path class="gradient" d="M573.64,341.38c0,1.9,5.82,3.44,13,3.44s13-1.54,13-3.44v10.56c-14.5,6.62-26,0-26,0Z" />
      <ellipse class="light" cx="586.64" cy="341.38" rx="13" ry="3.44" />
    </g>
    <g class="row-4 piece-5 contrast piece">
      <polygon class="standard" points="582 343.17 616.5 336.31 616.5 352.98 582 359.84 582 343.17" />
      <polygon class="dark" points="582 343.17 556 333.17 556 349.84 582 359.84 582 343.17" />
      <polygon class="light" points="556 333.17 582 343.17 616.5 336.31 590.5 326.31 556 333.17" />
      <path class="gradient" d="M573.64,325c0,1.9,5.82,3.45,13,3.45s13-1.55,13-3.45v10.56c-14.5,6.63-26,0-26,0Z" />
      <ellipse class="light" cx="586.64" cy="325.02" rx="13" ry="3.44" />
    </g>
    <g class="row-4 piece-6 primary piece">
      <polygon class="standard" points="547.5 350.03 582 343.17 582 393.17 547.5 400.03 547.5 350.03" />
      <polygon class="dark" points="547.5 350.03 521.5 340.03 521.5 390.03 547.5 400.03 547.5 350.03" />
      <polygon class="light" points="521.5 340.03 547.5 350.03 582 343.17 556 333.17 521.5 340.03" />
      <path class="gradient" d="M539.14,331.88c0,1.9,5.82,3.45,13,3.45s13-1.55,13-3.45v10.56c-14.5,6.63-26,0-26,0Z" />
      <ellipse class="light" cx="552.14" cy="331.88" rx="13" ry="3.44" />
    </g>
    <g class="row-4 piece-7 contrast piece">
      <polygon class="standard" points="513 356.89 547.5 350.03 547.5 400.03 513 406.89 513 356.89" />
      <polygon class="dark" points="513 356.89 487 346.89 487 396.89 513 406.89 513 356.89" />
      <polygon class="light" points="487 346.89 513 356.89 547.5 350.03 521.5 340.03 487 346.89" />
      <path class="gradient" d="M504.64,338.74c0,1.9,5.82,3.45,13,3.45s13-1.55,13-3.45V349.3c-14.5,6.63-26,0-26,0Z" />
      <ellipse class="light" cx="517.64" cy="338.74" rx="13" ry="3.44" />
    </g>
    <g class="row-4 piece-8 primary piece">
      <polygon class="standard" points="375 385.17 513 357.17 513 407.17 375 435.17 375 385.17" />
      <polygon class="dark" points="375 385.17 349 375.17 349 425.17 375 435.17 375 385.17" />
      <polygon class="light" points="349 375.17 375 385.17 513 357.17 487 347.17 349 375.17" />
      <path class="gradient" d="M366.64,367c0,1.9,5.82,3.45,13,3.45s13-1.55,13-3.45v10.56c-14.5,6.63-26,0-26,0Z" />
      <ellipse class="light" cx="379.64" cy="367.02" rx="13" ry="3.44" />
      <path class="gradient" d="M402.58,360.27c0,1.9,5.82,3.45,13,3.45s13-1.55,13-3.45v10.56c-14.5,6.63-26,0-26,0Z" />
      <ellipse class="light" cx="415.58" cy="360.27" rx="13" ry="3.44" />
      <path class="gradient" d="M436.64,353c0,1.9,5.82,3.45,13,3.45s13-1.55,13-3.45v10.56c-14.5,6.63-26,0-26,0Z" />
      <ellipse class="light" cx="449.64" cy="353.02" rx="13" ry="3.44" />
      <path class="gradient" d="M471.58,346.27c0,1.9,5.82,3.45,13,3.45s13-1.55,13-3.45v10.56c-14.5,6.63-26,0-26,0Z" />
      <ellipse class="light" cx="484.58" cy="346.27" rx="13" ry="3.44" />
    </g>
    <g class="row-4 piece-9 primary piece">
      <polygon class="standard" points="306 399.17 375 385.17 375 435.17 306 449.17 306 399.17" />
      <polygon class="dark" points="306 399.17 280 389.17 280 439.17 306 449.17 306 399.17" />
      <polygon class="light" points="280 389.17 306 399.17 375 385.17 349 375.17 280 389.17" />
      <path class="gradient" d="M333.58,374.27c0,1.9,5.82,3.45,13,3.45s13-1.55,13-3.45v10.56c-14.5,6.63-26,0-26,0Z" />
      <ellipse class="light" cx="346.58" cy="374.27" rx="13" ry="3.44" />
      <path class="gradient" d="M297.64,381c0,1.9,5.82,3.45,13,3.45s13-1.55,13-3.45v10.56c-14.5,6.63-26,0-26,0Z" />
      <ellipse class="light" cx="310.64" cy="381.02" rx="13" ry="3.44" />
    </g>
    <g class="row-5 piece-1 primary piece">
      <polygon class="standard" points="685.5 272.03 720 265.17 720 315.17 685.5 322.03 685.5 272.03" />
      <polygon class="dark" points="685.5 272.03 659.5 262.03 659.5 312.03 685.5 322.03 685.5 272.03" />
      <polygon class="light" points="659.5 262.03 685.5 272.03 720 265.17 694 255.17 659.5 262.03" />
      <path class="gradient" d="M677.14,253.88c0,1.9,5.82,3.45,13,3.45s13-1.55,13-3.45v10.56c-14.5,6.63-26,0-26,0Z" />
      <ellipse class="light" cx="690.14" cy="253.88" rx="13" ry="3.44" />
    </g>
    <g class="row-5 piece-2 contrast piece">
      <polygon class="standard" points="616.5 286.07 685.5 272.07 685.5 322.07 616.5 336.07 616.5 286.07" />
      <polygon class="dark" points="616.5 286.07 590.5 276.07 590.5 326.07 616.5 336.07 616.5 286.07" />
      <polygon class="light" points="590.5 276.07 616.5 286.07 685.5 272.07 659.5 262.07 590.5 276.07" />
      <path class="gradient" d="M644.08,261.17c0,1.9,5.82,3.45,13,3.45s13-1.55,13-3.45v10.56c-14.5,6.63-26,0-26,0Z" />
      <ellipse class="light" cx="657.08" cy="261.17" rx="13" ry="3.44" />
      <path class="gradient" d="M608.14,267.92c0,1.9,5.82,3.45,13,3.45s13-1.55,13-3.45v10.56c-14.5,6.63-26,0-26,0Z" />
      <ellipse class="light" cx="621.14" cy="267.92" rx="13" ry="3.44" />
    </g>
    <g class="row-5 piece-3 contrast piece">
      <polygon class="standard" points="582 293.17 616.5 286.31 616.5 336.31 582 343.17 582 293.17" />
      <polygon class="dark" points="582 293.17 556 283.17 556 333.17 582 343.17 582 293.17" />
      <polygon class="light" points="556 283.17 582 293.17 616.5 286.31 590.5 276.31 556 283.17" />
      <path class="gradient" d="M573.64,275c0,1.9,5.82,3.45,13,3.45s13-1.55,13-3.45v10.56c-14.5,6.63-26,0-26,0Z" />
      <ellipse class="light" cx="586.64" cy="275.02" rx="13" ry="3.44" />
    </g>
    <g class="row-5 piece-4 primary piece">
      <polygon class="standard" points="547.5 300.03 582 293.17 582 343.17 547.5 350.03 547.5 300.03" />
      <polygon class="dark" points="547.5 300.03 521.5 290.03 521.5 340.03 547.5 350.03 547.5 300.03" />
      <polygon class="light" points="521.5 290.03 547.5 300.03 582 293.17 556 283.17 521.5 290.03" />
      <path class="gradient" d="M539.14,281.88c0,1.9,5.82,3.45,13,3.45s13-1.55,13-3.45v10.56c-14.5,6.63-26,0-26,0Z" />
      <ellipse class="light" cx="552.14" cy="281.88" rx="13" ry="3.44" />
    </g>
    <g class="row-5 piece-5 contrast piece">
      <polygon class="standard" points="513 306.89 547.5 300.03 547.5 350.03 513 356.89 513 306.89" />
      <polygon class="dark" points="513 306.89 487 296.89 487 346.89 513 356.89 513 306.89" />
      <polygon class="light" points="487 296.89 513 306.89 547.5 300.03 521.5 290.03 487 296.89" />
      <path class="gradient" d="M504.64,288.74c0,1.9,5.82,3.45,13,3.45s13-1.55,13-3.45V299.3c-14.5,6.63-26,0-26,0Z" />
      <ellipse class="light" cx="517.64" cy="288.74" rx="13" ry="3.44" />
    </g>
    <g class="row-5 piece-6 primary piece">
      <polygon class="standard" points="444 321.17 513 307.17 513 357.17 444 371.17 444 321.17" />
      <polygon class="dark" points="444 321.17 418 311.17 418 361.17 444 371.17 444 321.17" />
      <polygon class="light" points="418 311.17 444 321.17 513 307.17 487 297.17 418 311.17" />
      <path class="gradient" d="M471.58,296.27c0,1.9,5.82,3.45,13,3.45s13-1.55,13-3.45v10.56c-14.5,6.63-26,0-26,0Z" />
      <ellipse class="light" cx="484.58" cy="296.27" rx="13" ry="3.44" />
      <path class="gradient" d="M435.64,303c0,1.9,5.82,3.45,13,3.45s13-1.55,13-3.45v10.56c-14.5,6.63-26,0-26,0Z" />
      <ellipse class="light" cx="448.64" cy="303.02" rx="13" ry="3.44" />
    </g>
    <g class="row-5 piece-7 primary piece">
      <polygon class="standard" points="306 349.17 444 321.17 444 371.17 306 399.17 306 349.17" />
      <polygon class="dark" points="306 349.17 280 339.17 280 389.17 306 399.17 306 349.17" />
      <polygon class="light" points="280 339.17 306 349.17 444 321.17 418 311.17 280 339.17" />
      <path class="gradient" d="M297.64,331c0,1.9,5.82,3.45,13,3.45s13-1.55,13-3.45v10.56c-14.5,6.63-26,0-26,0Z" />
      <ellipse class="light" cx="310.64" cy="331.02" rx="13" ry="3.44" />
      <path class="gradient" d="M333.58,324.27c0,1.9,5.82,3.45,13,3.45s13-1.55,13-3.45v10.56c-14.5,6.63-26,0-26,0Z" />
      <ellipse class="light" cx="346.58" cy="324.27" rx="13" ry="3.44" />
      <path class="gradient" d="M367.64,317c0,1.9,5.82,3.45,13,3.45s13-1.55,13-3.45v10.56c-14.5,6.63-26,0-26,0Z" />
      <ellipse class="light" cx="380.64" cy="317.02" rx="13" ry="3.44" />
      <path class="gradient" d="M402.58,310.27c0,1.9,5.82,3.45,13,3.45s13-1.55,13-3.45v10.56c-14.5,6.63-26,0-26,0Z" />
      <ellipse class="light" cx="415.58" cy="310.27" rx="13" ry="3.44" />
    </g>
    <g class="row-6 piece-1 primary piece">
      <polygon class="standard" points="651 229.17 720 215.17 720 265.17 651 279.17 651 229.17" />
      <polygon class="dark" points="651 229.17 625 219.17 625 269.17 651 279.17 651 229.17" />
      <polygon class="light" points="625 219.17 651 229.17 720 215.17 694 205.17 625 219.17" />
      <path class="gradient" d="M678.58,204.27c0,1.9,5.82,3.45,13,3.45s13-1.55,13-3.45v10.56c-14.5,6.63-26,0-26,0Z" />
      <ellipse class="light" cx="691.58" cy="204.27" rx="13" ry="3.44" />
      <path class="gradient" d="M642.64,211c0,1.9,5.82,3.45,13,3.45s13-1.55,13-3.45v10.56c-14.5,6.63-26,0-26,0Z" />
      <ellipse class="light" cx="655.64" cy="211.02" rx="13" ry="3.44" />
    </g>
    <g class="row-6 piece-2 primary piece">
      <polygon class="standard" points="513 257.17 651 229.17 651 279.17 513 307.17 513 257.17" />
      <polygon class="dark" points="513 257.17 487 247.17 487 297.17 513 307.17 513 257.17" />
      <polygon class="light" points="487 247.17 513 257.17 651 229.17 625 219.17 487 247.17" />
      <path class="gradient" d="M504.64,239c0,1.9,5.82,3.45,13,3.45s13-1.55,13-3.45v10.56c-14.5,6.63-26,0-26,0Z" />
      <ellipse class="light" cx="517.64" cy="239.02" rx="13" ry="3.44" />
      <path class="gradient" d="M540.58,232.27c0,1.9,5.82,3.45,13,3.45s13-1.55,13-3.45v10.56c-14.5,6.63-26,0-26,0Z" />
      <ellipse class="light" cx="553.58" cy="232.27" rx="13" ry="3.44" />
      <path class="gradient" d="M574.64,225c0,1.9,5.82,3.45,13,3.45s13-1.55,13-3.45v10.56c-14.5,6.63-26,0-26,0Z" />
      <ellipse class="light" cx="587.64" cy="225.02" rx="13" ry="3.44" />
      <path class="gradient" d="M609.58,218.27c0,1.9,5.82,3.45,13,3.45s13-1.55,13-3.45v10.56c-14.5,6.63-26,0-26,0Z" />
      <ellipse class="light" cx="622.58" cy="218.27" rx="13" ry="3.44" />
    </g>
    <g class="row-6 piece-3 primary piece">
      <polygon class="standard" points="375 285.17 513 257.17 513 307.17 375 335.17 375 285.17" />
      <polygon class="dark" points="375 285.17 349 275.17 349 325.17 375 335.17 375 285.17" />
      <polygon class="light" points="349 275.17 375 285.17 513 257.17 487 247.17 349 275.17" />
      <path class="gradient" d="M366.64,267c0,1.9,5.82,3.45,13,3.45s13-1.55,13-3.45v10.56c-14.5,6.63-26,0-26,0Z" />
      <ellipse class="light" cx="379.64" cy="267.02" rx="13" ry="3.44" />
      <path class="gradient" d="M402.58,260.27c0,1.9,5.82,3.45,13,3.45s13-1.55,13-3.45v10.56c-14.5,6.63-26,0-26,0Z" />
      <ellipse class="light" cx="415.58" cy="260.27" rx="13" ry="3.44" />
      <path class="gradient" d="M436.64,253c0,1.9,5.82,3.45,13,3.45s13-1.55,13-3.45v10.56c-14.5,6.63-26,0-26,0Z" />
      <ellipse class="light" cx="449.64" cy="253.02" rx="13" ry="3.44" />
      <path class="gradient" d="M471.58,246.27c0,1.9,5.82,3.45,13,3.45s13-1.55,13-3.45v10.56c-14.5,6.63-26,0-26,0Z" />
      <ellipse class="light" cx="484.58" cy="246.27" rx="13" ry="3.44" />
    </g>
    <g class="row-6 piece-4 primary piece">
      <polygon class="standard" points="306 299.17 375 285.17 375 335.17 306 349.17 306 299.17" />
      <polygon class="dark" points="306 299.17 280 289.17 280 339.17 306 349.17 306 299.17" />
      <polygon class="light" points="280 289.17 306 299.17 375 285.17 349 275.17 280 289.17" />
      <path class="gradient" d="M333.58,274.27c0,1.9,5.82,3.45,13,3.45s13-1.55,13-3.45v10.56c-14.5,6.63-26,0-26,0Z" />
      <ellipse class="light" cx="346.58" cy="274.27" rx="13" ry="3.44" />
      <path class="gradient" d="M297.64,281c0,1.9,5.82,3.45,13,3.45s13-1.55,13-3.45v10.56c-14.5,6.63-26,0-26,0Z" />
      <ellipse class="light" cx="310.64" cy="281.02" rx="13" ry="3.44" />
    </g>
    <g class="row-7 piece-1 primary piece">
      <polygon class="standard" points="582 193.17 720 165.17 720 215.17 582 243.17 582 193.17" />
      <polygon class="dark" points="582 193.17 556 183.17 556 233.17 582 243.17 582 193.17" />
      <polygon class="light" points="556 183.17 582 193.17 720 165.17 694 155.17 556 183.17" />
      <path class="gradient" d="M573.64,175c0,1.9,5.82,3.45,13,3.45s13-1.55,13-3.45v10.56c-14.5,6.63-26,0-26,0Z" />
      <ellipse class="light" cx="586.64" cy="175.02" rx="13" ry="3.44" />
      <path class="gradient" d="M609.58,168.27c0,1.9,5.82,3.45,13,3.45s13-1.55,13-3.45v10.56c-14.5,6.63-26,0-26,0Z" />
      <ellipse class="light" cx="622.58" cy="168.27" rx="13" ry="3.44" />
      <path class="gradient" d="M643.64,161c0,1.9,5.82,3.45,13,3.45s13-1.55,13-3.45v10.56c-14.5,6.63-26,0-26,0Z" />
      <ellipse class="light" cx="656.64" cy="161.02" rx="13" ry="3.44" />
      <path class="gradient" d="M678.58,154.27c0,1.9,5.82,3.45,13,3.45s13-1.55,13-3.45v10.56c-14.5,6.63-26,0-26,0Z" />
      <ellipse class="light" cx="691.58" cy="154.27" rx="13" ry="3.44" />
    </g>
    <g class="row-7 piece-2 primary piece">
      <polygon class="standard" points="444 221.17 582 193.17 582 243.17 444 271.17 444 221.17" />
      <polygon class="dark" points="444 221.17 418 211.17 418 261.17 444 271.17 444 221.17" />
      <polygon class="light" points="418 211.17 444 221.17 582 193.17 556 183.17 418 211.17" />
      <path class="gradient" d="M435.64,203c0,1.9,5.82,3.45,13,3.45s13-1.55,13-3.45v10.56c-14.5,6.63-26,0-26,0Z" />
      <ellipse class="light" cx="448.64" cy="203.02" rx="13" ry="3.44" />
      <path class="gradient" d="M471.58,196.27c0,1.9,5.82,3.45,13,3.45s13-1.55,13-3.45v10.56c-14.5,6.63-26,0-26,0Z" />
      <ellipse class="light" cx="484.58" cy="196.27" rx="13" ry="3.44" />
      <path class="gradient" d="M505.64,189c0,1.9,5.82,3.45,13,3.45s13-1.55,13-3.45v10.56c-14.5,6.63-26,0-26,0Z" />
      <ellipse class="light" cx="518.64" cy="189.02" rx="13" ry="3.44" />
      <path class="gradient" d="M540.58,182.27c0,1.9,5.82,3.45,13,3.45s13-1.55,13-3.45v10.56c-14.5,6.63-26,0-26,0Z" />
      <ellipse class="light" cx="553.58" cy="182.27" rx="13" ry="3.44" />
    </g>
    <g class="row-7 piece-3 primary piece">
      <polygon class="standard" points="306 249.17 444 221.17 444 271.17 306 299.17 306 249.17" />
      <polygon class="dark" points="306 249.17 280 239.17 280 289.17 306 299.17 306 249.17" />
      <polygon class="light" points="280 239.17 306 249.17 444 221.17 418 211.17 280 239.17" />
      <path class="gradient" d="M297.64,231c0,1.9,5.82,3.45,13,3.45s13-1.55,13-3.45v10.56c-14.5,6.63-26,0-26,0Z" />
      <ellipse class="light" cx="310.64" cy="231.02" rx="13" ry="3.44" />
      <path class="gradient" d="M333.58,224.27c0,1.9,5.82,3.45,13,3.45s13-1.55,13-3.45v10.56c-14.5,6.63-26,0-26,0Z" />
      <ellipse class="light" cx="346.58" cy="224.27" rx="13" ry="3.44" />
      <path class="gradient" d="M367.64,217c0,1.9,5.82,3.45,13,3.45s13-1.55,13-3.45v10.56c-14.5,6.63-26,0-26,0Z" />
      <ellipse class="light" cx="380.64" cy="217.02" rx="13" ry="3.44" />
      <path class="gradient" d="M402.58,210.27c0,1.9,5.82,3.45,13,3.45s13-1.55,13-3.45v10.56c-14.5,6.63-26,0-26,0Z" />
      <ellipse class="light" cx="415.58" cy="210.27" rx="13" ry="3.44" />
    </g>
    <g class="row-8 piece-1 primary piece">
      <polygon class="standard" points="651 129.17 720 115.17 720 165.17 651 179.17 651 129.17" />
      <polygon class="dark" points="651 129.17 625 119.17 625 169.17 651 179.17 651 129.17" />
      <polygon class="light" points="625 119.17 651 129.17 720 115.17 694 105.17 625 119.17" />
      <path class="gradient" d="M678.58,104.27c0,1.9,5.82,3.45,13,3.45s13-1.55,13-3.45v10.56c-14.5,6.63-26,0-26,0Z" />
      <ellipse class="light" cx="691.58" cy="104.27" rx="13" ry="3.44" />
      <path class="gradient" d="M642.64,111c0,1.9,5.82,3.45,13,3.45s13-1.55,13-3.45v10.56c-14.5,6.63-26,0-26,0Z" />
      <ellipse class="light" cx="655.64" cy="111.02" rx="13" ry="3.44" />
    </g>
    <g class="row-8 piece-2 primary piece">
      <polygon class="standard" points="513 157.17 651 129.17 651 179.17 513 207.17 513 157.17" />
      <polygon class="dark" points="513 157.17 487 147.17 487 197.17 513 207.17 513 157.17" />
      <polygon class="light" points="487 147.17 513 157.17 651 129.17 625 119.17 487 147.17" />
      <path class="gradient" d="M504.64,139c0,1.9,5.82,3.45,13,3.45s13-1.55,13-3.45v10.56c-14.5,6.63-26,0-26,0Z" />
      <ellipse class="light" cx="517.64" cy="139.02" rx="13" ry="3.44" />
      <path class="gradient" d="M540.58,132.27c0,1.9,5.82,3.45,13,3.45s13-1.55,13-3.45v10.56c-14.5,6.63-26,0-26,0Z" />
      <ellipse class="light" cx="553.58" cy="132.27" rx="13" ry="3.44" />
      <path class="gradient" d="M574.64,125c0,1.9,5.82,3.45,13,3.45s13-1.55,13-3.45v10.56c-14.5,6.63-26,0-26,0Z" />
      <ellipse class="light" cx="587.64" cy="125.02" rx="13" ry="3.44" />
      <path class="gradient" d="M609.58,118.27c0,1.9,5.82,3.45,13,3.45s13-1.55,13-3.45v10.56c-14.5,6.63-26,0-26,0Z" />
      <ellipse class="light" cx="622.58" cy="118.27" rx="13" ry="3.44" />
    </g>
    <g class="row-8 piece-3 primary piece">
      <polygon class="standard" points="375 185.17 513 157.17 513 207.17 375 235.17 375 185.17" />
      <polygon class="dark" points="375 185.17 349 175.17 349 225.17 375 235.17 375 185.17" />
      <polygon class="light" points="349 175.17 375 185.17 513 157.17 487 147.17 349 175.17" />
      <path class="gradient" d="M366.64,167c0,1.9,5.82,3.45,13,3.45s13-1.55,13-3.45v10.56c-14.5,6.63-26,0-26,0Z" />
      <ellipse class="light" cx="379.64" cy="167.02" rx="13" ry="3.44" />
      <path class="gradient" d="M402.58,160.27c0,1.9,5.82,3.45,13,3.45s13-1.55,13-3.45v10.56c-14.5,6.63-26,0-26,0Z" />
      <ellipse class="light" cx="415.58" cy="160.27" rx="13" ry="3.44" />
      <path class="gradient" d="M436.64,153c0,1.9,5.82,3.45,13,3.45s13-1.55,13-3.45v10.56c-14.5,6.63-26,0-26,0Z" />
      <ellipse class="light" cx="449.64" cy="153.02" rx="13" ry="3.44" />
      <path class="gradient" d="M471.58,146.27c0,1.9,5.82,3.45,13,3.45s13-1.55,13-3.45v10.56c-14.5,6.63-26,0-26,0Z" />
      <ellipse class="light" cx="484.58" cy="146.27" rx="13" ry="3.44" />
    </g>
    <g class="row-8 piece-4 primary piece">
      <polygon class="standard" points="306 199.17 375 185.17 375 235.17 306 249.17 306 199.17" />
      <polygon class="dark" points="306 199.17 280 189.17 280 239.17 306 249.17 306 199.17" />
      <polygon class="light" points="280 189.17 306 199.17 375 185.17 349 175.17 280 189.17" />
      <path class="gradient" d="M333.58,174.27c0,1.9,5.82,3.45,13,3.45s13-1.55,13-3.45v10.56c-14.5,6.63-26,0-26,0Z" />
      <ellipse class="light" cx="346.58" cy="174.27" rx="13" ry="3.44" />
      <path class="gradient" d="M297.64,181c0,1.9,5.82,3.45,13,3.45s13-1.55,13-3.45v10.56c-14.5,6.63-26,0-26,0Z" />
      <ellipse class="light" cx="310.64" cy="181.02" rx="13" ry="3.44" />
    </g>
  </g>
  <g class="list">
    <rect class="background" x="10" y="100" width="145" height="210" />
    <text transform="translate(30 293.48)">2x</text>
    <g class="piece primary">
      <polygon class="standard" points="46.9 237.53 136.6 219.32 136.6 251.82 46.9 270.02 46.9 237.53" />
      <polygon class="dark" points="46.9 237.53 30 231.03 30 263.52 46.9 270.02 46.9 237.53" />
      <polygon class="light" points="30 231.03 46.9 237.53 136.6 219.32 119.7 212.82 30 231.03" />
      <path class="gradient" d="M41.47,225.73c0,1.23,3.78,2.23,8.45,2.23s8.45-1,8.45-2.23v6.86a19.35,19.35,0,0,1-16.9,0Z" />
      <ellipse class="light" cx="49.92" cy="225.73" rx="8.45" ry="2.24" />
      <path class="gradient" d="M64.83,221.34c0,1.24,3.78,2.24,8.45,2.24s8.45-1,8.45-2.24v6.86a19.35,19.35,0,0,1-16.9,0Z" />
      <ellipse class="light" cx="73.28" cy="221.34" rx="8.45" ry="2.24" />
      <path class="gradient" d="M87,216.63c0,1.23,3.78,2.23,8.45,2.23s8.45-1,8.45-2.23v6.86a19.35,19.35,0,0,1-16.9,0Z" />
      <ellipse class="light" cx="95.42" cy="216.63" rx="8.45" ry="2.24" />
      <path class="gradient" d="M109.68,212.24c0,1.24,3.78,2.24,8.45,2.24s8.45-1,8.45-2.24v6.86a19.35,19.35,0,0,1-16.9,0Z" />
      <ellipse class="light" cx="118.13" cy="212.24" rx="8.45" ry="2.24" />
    </g>
    <text transform="translate(30 188.48)">2x</text>
    <g class="piece primary">
      <polygon points="46.9 133.43 91.75 124.33 91.75 156.82 46.9 165.93 46.9 133.43" />
      <polygon points="46.9 133.43 30 126.92 30 159.43 46.9 165.93 46.9 133.43" />
      <polygon points="30 126.92 46.9 133.43 91.75 124.33 74.85 117.83 30 126.92" />
      <path d="M64.83,117.24c0,1.24,3.78,2.24,8.45,2.24s8.45-1,8.45-2.24v6.86a19.35,19.35,0,0,1-16.9,0Z" />
      <ellipse cx="73.28" cy="117.24" rx="8.45" ry="2.24" />
      <path d="M41.47,121.63c0,1.23,3.78,2.23,8.45,2.23s8.45-1,8.45-2.23v6.86a19.35,19.35,0,0,1-16.9,0Z" />
      <ellipse cx="49.92" cy="121.63" rx="8.45" ry="2.24" />
    </g>
  </g>
  <text transform="translate(30 72.24)">12</text>
</svg>
