<svg xmlns="http://www.w3.org/2000/svg" xmlns:xlink="http://www.w3.org/1999/xlink" viewBox="0 0 1000 700">
  <g class="build">
    <g class="row-1 piece-1 primary piece">
      <polygon class="standard" points="521.5 468.45 590.5 454.45 590.5 504.45 521.5 518.45 521.5 468.45" />
      <polygon class="dark" points="521.5 468.45 495.5 458.45 495.5 508.45 521.5 518.45 521.5 468.45" />
      <polygon class="light" points="495.5 458.45 521.5 468.45 590.5 454.45 564.5 444.45 495.5 458.45" />
      <path class="gradient" d="M513.14,450.29c0,1.91,5.82,3.45,13,3.45s13-1.54,13-3.45v10.56c-14.5,6.63-26,0-26,0Z" />
      <ellipse class="light" cx="526.14" cy="450.29" rx="13" ry="3.44" />
      <path class="gradient" d="M549.08,443.54c0,1.91,5.82,3.45,13,3.45s13-1.54,13-3.45V454.1c-14.5,6.63-26,0-26,0Z" />
      <ellipse class="light" cx="562.08" cy="443.54" rx="13" ry="3.44" />
    </g>
    <g class="row-1 piece-2 primary piece">
      <polygon class="standard" points="382.5 496.45 451.5 482.45 451.5 532.45 382.5 546.45 382.5 496.45" />
      <polygon class="dark" points="382.5 496.45 356.5 486.45 356.5 536.45 382.5 546.45 382.5 496.45" />
      <polygon class="light" points="356.5 486.45 382.5 496.45 451.5 482.45 425.5 472.45 356.5 486.45" />
      <path class="gradient" d="M374.14,478.29c0,1.91,5.82,3.45,13,3.45s13-1.54,13-3.45v10.56c-14.5,6.63-26,0-26,0Z" />
      <ellipse class="light" cx="387.14" cy="478.29" rx="13" ry="3.44" />
      <path class="gradient" d="M410.08,471.54c0,1.91,5.82,3.45,13,3.45s13-1.54,13-3.45V482.1c-14.5,6.63-26,0-26,0Z" />
      <ellipse class="light" cx="423.08" cy="471.54" rx="13" ry="3.44" />
    </g>
    <g class="row-1 piece-3 primary piece">
      <polygon class="standard" points="651 457.59 720 443.59 720 493.59 651 507.59 651 457.59" />
      <polygon class="dark" points="651 457.59 625 447.59 625 497.59 651 507.59 651 457.59" />
      <polygon class="light" points="625 447.59 651 457.59 720 443.59 694 433.59 625 447.59" />
      <path class="gradient" d="M678.58,432.68c0,1.91,5.82,3.45,13,3.45s13-1.54,13-3.45v10.56c-14.5,6.63-26,0-26,0Z" />
      <ellipse class="light" cx="691.58" cy="432.68" rx="13" ry="3.44" />
      <path class="gradient" d="M642.64,439.43c0,1.91,5.82,3.45,13,3.45s13-1.54,13-3.45V450c-14.5,6.63-26,0-26,0Z" />
      <ellipse class="light" cx="655.64" cy="439.43" rx="13" ry="3.44" />
    </g>
    <g class="row-1 piece-4 primary piece">
      <polygon class="standard" points="513 485.59 651 457.59 651 507.59 513 535.59 513 485.59" />
      <polygon class="dark" points="513 485.59 487 475.59 487 525.59 513 535.59 513 485.59" />
      <polygon class="light" points="487 475.59 513 485.59 651 457.59 625 447.59 487 475.59" />
      <path class="gradient" d="M504.64,467.43c0,1.91,5.82,3.45,13,3.45s13-1.54,13-3.45V478c-14.5,6.63-26,0-26,0Z" />
      <ellipse class="light" cx="517.64" cy="467.43" rx="13" ry="3.44" />
      <path class="gradient" d="M540.58,460.68c0,1.91,5.82,3.45,13,3.45s13-1.54,13-3.45v10.56c-14.5,6.63-26,0-26,0Z" />
      <ellipse class="light" cx="553.58" cy="460.68" rx="13" ry="3.44" />
      <path class="gradient" d="M574.64,453.43c0,1.91,5.82,3.45,13,3.45s13-1.54,13-3.45V464c-14.5,6.63-26,0-26,0Z" />
      <ellipse class="light" cx="587.64" cy="453.43" rx="13" ry="3.44" />
      <path class="gradient" d="M609.58,446.68c0,1.91,5.82,3.45,13,3.45s13-1.54,13-3.45v10.56c-14.5,6.63-26,0-26,0Z" />
      <ellipse class="light" cx="622.58" cy="446.68" rx="13" ry="3.44" />
    </g>
    <g class="row-1 piece-5 primary piece">
      <polygon class="standard" points="375 513.59 513 485.59 513 535.59 375 563.59 375 513.59" />
      <polygon class="dark" points="375 513.59 349 503.59 349 553.59 375 563.59 375 513.59" />
      <polygon class="light" points="349 503.59 375 513.59 513 485.59 487 475.59 349 503.59" />
      <path class="gradient" d="M366.64,495.43c0,1.91,5.82,3.45,13,3.45s13-1.54,13-3.45V506c-14.5,6.63-26,0-26,0Z" />
      <ellipse class="light" cx="379.64" cy="495.43" rx="13" ry="3.44" />
      <path class="gradient" d="M402.58,488.68c0,1.91,5.82,3.45,13,3.45s13-1.54,13-3.45v10.56c-14.5,6.63-26,0-26,0Z" />
      <ellipse class="light" cx="415.58" cy="488.68" rx="13" ry="3.44" />
      <path class="gradient" d="M436.64,481.43c0,1.91,5.82,3.45,13,3.45s13-1.54,13-3.45V492c-14.5,6.63-26,0-26,0Z" />
      <ellipse class="light" cx="449.64" cy="481.43" rx="13" ry="3.44" />
      <path class="gradient" d="M471.58,474.68c0,1.91,5.82,3.45,13,3.45s13-1.54,13-3.45v10.56c-14.5,6.63-26,0-26,0Z" />
      <ellipse class="light" cx="484.58" cy="474.68" rx="13" ry="3.44" />
    </g>
    <g class="row-1 piece-6 primary piece">
      <polygon class="standard" points="306 527.59 375 513.59 375 563.59 306 577.59 306 527.59" />
      <polygon class="dark" points="306 527.59 280 517.59 280 567.59 306 577.59 306 527.59" />
      <polygon class="light" points="280 517.59 306 527.59 375 513.59 349 503.59 280 517.59" />
      <path class="gradient" d="M333.58,502.68c0,1.91,5.82,3.45,13,3.45s13-1.54,13-3.45v10.56c-14.5,6.63-26,0-26,0Z" />
      <ellipse class="light" cx="346.58" cy="502.68" rx="13" ry="3.44" />
      <path class="gradient" d="M297.64,509.43c0,1.91,5.82,3.45,13,3.45s13-1.54,13-3.45V520c-14.5,6.63-26,0-26,0Z" />
      <ellipse class="light" cx="310.64" cy="509.43" rx="13" ry="3.44" />
    </g>
    <g class="row-2 piece-1 primary piece">
      <polygon class="standard" points="685.5 400.45 720 393.59 720 443.59 685.5 450.45 685.5 400.45" />
      <polygon class="dark" points="685.5 400.45 659.5 390.45 659.5 440.45 685.5 450.45 685.5 400.45" />
      <polygon class="light" points="659.5 390.45 685.5 400.45 720 393.59 694 383.59 659.5 390.45" />
      <path class="gradient" d="M677.14,382.29c0,1.91,5.82,3.45,13,3.45s13-1.54,13-3.45v10.56c-14.5,6.63-26,0-26,0Z" />
      <ellipse class="light" cx="690.14" cy="382.29" rx="13" ry="3.44" />
    </g>
    <g class="row-2 piece-2 contrast piece">
      <polygon class="standard" points="651 407.31 685.5 400.45 685.5 450.45 651 457.31 651 407.31" />
      <polygon class="dark" points="651 407.31 625 397.31 625 447.31 651 457.31 651 407.31" />
      <polygon class="light" points="625 397.31 651 407.31 685.5 400.45 659.5 390.45 625 397.31" />
      <path class="gradient" d="M642.64,389.15c0,1.91,5.82,3.45,13,3.45s13-1.54,13-3.45v10.56c-14.5,6.63-26,0-26,0Z" />
      <ellipse class="light" cx="655.64" cy="389.15" rx="13" ry="3.44" />
    </g>
    <g class="row-2 piece-3 contrast piece">
      <polygon class="standard" points="582 421.59 651 407.59 651 457.59 582 471.59 582 421.59" />
      <polygon class="dark" points="582 421.59 556 411.59 556 461.59 582 471.59 582 421.59" />
      <polygon class="light" points="556 411.59 582 421.59 651 407.59 625 397.59 556 411.59" />
      <path class="gradient" d="M609.58,396.68c0,1.91,5.82,3.45,13,3.45s13-1.54,13-3.45v10.56c-14.5,6.63-26,0-26,0Z" />
      <ellipse class="light" cx="622.58" cy="396.68" rx="13" ry="3.44" />
      <path class="gradient" d="M573.64,403.43c0,1.91,5.82,3.45,13,3.45s13-1.54,13-3.45V414c-14.5,6.63-26,0-26,0Z" />
      <ellipse class="light" cx="586.64" cy="403.43" rx="13" ry="3.44" />
    </g>
    <g class="row-2 piece-4 primary piece">
      <polygon class="standard" points="547.5 428.45 582 421.59 582 471.59 547.5 478.45 547.5 428.45" />
      <polygon class="dark" points="547.5 428.45 495.5 408.45 495.5 458.45 547.5 478.45 547.5 428.45" />
      <polygon class="light" points="495.5 408.45 547.5 428.45 582 421.59 530 401.59 495.5 408.45" />
      <path class="gradient" d="M513.14,400.29c0,1.91,5.82,3.45,13,3.45s13-1.54,13-3.45v10.56c-14.5,6.63-26,0-26,0Z" />
      <ellipse class="light" cx="526.14" cy="400.29" rx="13" ry="3.44" />
    </g>
    <g class="row-2 piece-5 contrast piece">
      <polygon class="standard" points="478.5 442.45 547.5 428.45 547.5 478.45 478.5 492.45 478.5 442.45" />
      <polygon class="dark" points="478.5 442.45 452.5 432.45 452.5 482.45 478.5 492.45 478.5 442.45" />
      <polygon class="light" points="452.5 432.45 478.5 442.45 547.5 428.45 521.5 418.45 452.5 432.45" />
      <path class="gradient" d="M470.14,424.29c0,1.91,5.82,3.45,13,3.45s13-1.54,13-3.45v10.56c-14.5,6.63-26,0-26,0Z" />
      <ellipse class="light" cx="483.14" cy="424.29" rx="13" ry="3.44" />
      <path class="gradient" d="M506.08,417.54c0,1.91,5.82,3.45,13,3.45s13-1.54,13-3.45V428.1c-14.5,6.63-26,0-26,0Z" />
      <ellipse class="light" cx="519.08" cy="417.54" rx="13" ry="3.44" />
    </g>
    <g class="row-2 piece-6 contrast piece">
      <polygon class="standard" points="444 449.59 478.5 442.73 478.5 492.73 444 499.59 444 449.59" />
      <polygon class="dark" points="444 449.59 392 429.59 392 479.59 444 499.59 444 449.59" />
      <polygon class="light" points="392 429.59 444 449.59 478.5 442.73 426.5 422.73 392 429.59" />
      <path class="gradient" d="M409.64,421.43c0,1.91,5.82,3.45,13,3.45s13-1.54,13-3.45V432c-14.5,6.63-26,0-26,0Z" />
      <ellipse class="light" cx="422.64" cy="421.43" rx="13" ry="3.44" />
      <path class="gradient" d="M435.64,431.43c0,1.91,5.82,3.45,13,3.45s13-1.54,13-3.45V442c-14.5,6.63-26,0-26,0Z" />
      <ellipse class="light" cx="448.64" cy="431.43" rx="13" ry="3.44" />
    </g>
    <g class="row-2 piece-7 primary piece">
      <polygon class="standard" points="306 477.59 444 449.59 444 499.59 306 527.59 306 477.59" />
      <polygon class="dark" points="306 477.59 280 467.59 280 517.59 306 527.59 306 477.59" />
      <polygon class="light" points="280 467.59 306 477.59 444 449.59 418 439.59 280 467.59" />
      <path class="gradient" d="M297.64,459.43c0,1.91,5.82,3.45,13,3.45s13-1.54,13-3.45V470c-14.5,6.63-26,0-26,0Z" />
      <ellipse class="light" cx="310.64" cy="459.43" rx="13" ry="3.44" />
      <path class="gradient" d="M333.58,452.68c0,1.91,5.82,3.45,13,3.45s13-1.54,13-3.45v10.56c-14.5,6.63-26,0-26,0Z" />
      <ellipse class="light" cx="346.58" cy="452.68" rx="13" ry="3.44" />
      <path class="gradient" d="M367.64,445.43c0,1.91,5.82,3.45,13,3.45s13-1.54,13-3.45V456c-14.5,6.63-26,0-26,0Z" />
      <ellipse class="light" cx="380.64" cy="445.43" rx="13" ry="3.44" />
      <path class="gradient" d="M402.58,438.68c0,1.91,5.82,3.45,13,3.45s13-1.54,13-3.45v10.56c-14.5,6.63-26,0-26,0Z" />
      <ellipse class="light" cx="415.58" cy="438.68" rx="13" ry="3.44" />
    </g>
    <g class="row-3 piece-2 contrast piece">
      <polygon class="standard" points="651 390.64 685.5 383.78 685.5 400.45 651 407.31 651 390.64" />
      <polygon class="dark" points="651 390.64 625 380.64 625 397.31 651 407.31 651 390.64" />
      <polygon class="light" points="625 380.64 651 390.64 685.5 383.78 659.5 373.78 625 380.64" />
      <path class="gradient" d="M642.64,372.49c0,1.9,5.82,3.44,13,3.44s13-1.54,13-3.44v10.56c-14.5,6.62-26,0-26,0Z" />
      <ellipse class="light" cx="655.64" cy="372.49" rx="13" ry="3.44" />
    </g>
    <g class="row-3 piece-3 contrast piece">
      <polygon class="standard" points="651 374.28 685.5 367.42 685.5 384.09 651 390.95 651 374.28" />
      <polygon class="dark" points="651 374.28 625 364.28 625 380.95 651 390.95 651 374.28" />
      <polygon class="light" points="625 364.28 651 374.28 685.5 367.42 659.5 357.42 625 364.28" />
      <path class="gradient" d="M642.64,356.13c0,1.9,5.82,3.44,13,3.44s13-1.54,13-3.44v10.56c-14.5,6.62-26,0-26,0Z" />
      <ellipse class="light" cx="655.64" cy="356.13" rx="13" ry="3.44" />
    </g>
    <g class="row-3 piece-4 primary piece">
      <polygon class="standard" points="582 404.64 651 390.64 651 407.31 582 421.31 582 404.64" />
      <polygon class="dark" points="582 404.64 556 394.64 556 411.31 582 421.31 582 404.64" />
      <polygon class="light" points="556 394.64 582 404.64 651 390.64 625 380.64 556 394.64" />
      <path class="gradient" d="M573.64,386.49c0,1.9,5.82,3.44,13,3.44s13-1.54,13-3.44v10.56c-14.5,6.62-26,0-26,0Z" />
      <ellipse class="light" cx="586.64" cy="386.49" rx="13" ry="3.44" />
      <path class="gradient" d="M609.58,379.74c0,1.9,5.82,3.44,13,3.44s13-1.54,13-3.44V390.3c-14.5,6.62-26,0-26,0Z" />
      <ellipse class="light" cx="622.58" cy="379.74" rx="13" ry="3.44" />
    </g>
    <g class="row-3 piece-5 primary piece">
      <polygon class="standard" points="582 387.97 651 373.97 651 390.64 582 404.64 582 387.97" />
      <polygon class="dark" points="582 387.97 556 377.97 556 394.64 582 404.64 582 387.97" />
      <polygon class="light" points="556 377.97 582 387.97 651 373.97 625 363.97 556 377.97" />
      <path class="gradient" d="M573.64,369.82c0,1.9,5.82,3.45,13,3.45s13-1.55,13-3.45v10.56c-14.5,6.63-26,0-26,0Z" />
      <ellipse class="light" cx="586.64" cy="369.82" rx="13" ry="3.44" />
      <path class="gradient" d="M609.58,363.07c0,1.9,5.82,3.45,13,3.45s13-1.55,13-3.45v10.56c-14.5,6.63-26,0-26,0Z" />
      <ellipse class="light" cx="622.58" cy="363.07" rx="13" ry="3.44" />
    </g>
    <g class="row-3 piece-6 contrast piece">
      <polygon class="standard" points="581 371.31 685.5 350.06 685.5 366.72 581 387.97 581 371.31" />
      <polygon class="dark" points="581 371.31 555 361.31 555 377.97 581 387.97 581 371.31" />
      <polygon class="light" points="555 361.31 581 371.31 685.5 350.06 659.5 340.06 555 361.31" />
      <path class="gradient" d="M608.58,346.41c0,1.9,5.82,3.44,13,3.44s13-1.54,13-3.44V357c-14.5,6.62-26,0-26,0Z" />
      <ellipse class="light" cx="621.58" cy="346.41" rx="13" ry="3.44" />
      <path class="gradient" d="M572.64,353.16c0,1.9,5.82,3.44,13,3.44s13-1.54,13-3.44v10.56c-14.5,6.62-26,0-26,0Z" />
      <ellipse class="light" cx="585.64" cy="353.16" rx="13" ry="3.44" />
      <path class="gradient" d="M644.08,339.15c0,1.91,5.82,3.45,13,3.45s13-1.54,13-3.45v10.56c-14.5,6.63-26,0-26,0Z" />
      <ellipse class="light" cx="657.08" cy="339.15" rx="13" ry="3.44" />
    </g>
    <g class="row-2 piece-4 top primary piece">
      <path class="gradient" d="M539.14,410.29c0,1.91,5.82,3.45,13,3.45s13-1.54,13-3.45v10.56c-14.5,6.63-26,0-26,0Z" />
      <ellipse class="light" cx="552.14" cy="410.29" rx="13" ry="3.44" />
    </g>
    <g class="meta">
      <rect class="background" x="217" y="122.41" width="614.5" height="139" />
      <g class="instruction">
        <text transform="translate(638.68 179.09)">3</text>
        <g class="piece contrast">
          <polygon class="standard" points="767 202.34 801.5 195.48 801.5 212.15 767 219.01 767 202.34" />
          <polygon class="dark" points="767 202.34 741 192.34 741 209.01 767 219.01 767 202.34" />
          <polygon class="light" points="741 192.34 767 202.34 801.5 195.48 775.5 185.48 741 192.34" />
          <path class="gradient" d="M758.64,184.19c0,1.9,5.82,3.45,13,3.45s13-1.55,13-3.45v10.56c-14.5,6.63-26,0-26,0Z" />
          <ellipse class="light" cx="771.64" cy="184.19" rx="13" ry="3.44" />
        </g>
        <g class="piece contrast">
          <polygon class="standard" points="767 185.99 801.5 179.13 801.5 195.79 767 202.65 767 185.99" />
          <polygon class="dark" points="767 185.99 741 175.99 741 192.65 767 202.65 767 185.99" />
          <polygon class="light" points="741 175.99 767 185.99 801.5 179.13 775.5 169.13 741 175.99" />
          <path class="gradient" d="M758.64,167.83c0,1.91,5.82,3.45,13,3.45s13-1.54,13-3.45v10.56c-14.5,6.63-26,0-26,0Z" />
          <ellipse class="light" cx="771.64" cy="167.83" rx="13" ry="3.44" />
        </g>
        <g class="piece primary">
          <polygon class="standard" points="698 216.34 767 202.34 767 219.01 698 233.01 698 216.34" />
          <polygon class="dark" points="698 216.34 672 206.34 672 223.01 698 233.01 698 216.34" />
          <polygon class="light" points="672 206.34 698 216.34 767 202.34 741 192.34 672 206.34" />
          <path class="gradient" d="M689.64,198.19c0,1.9,5.82,3.45,13,3.45s13-1.55,13-3.45v10.56c-14.5,6.63-26,0-26,0Z" />
          <ellipse class="light" cx="702.64" cy="198.19" rx="13" ry="3.44" />
          <path class="gradient" d="M725.58,191.44c0,1.9,5.82,3.45,13,3.45s13-1.55,13-3.45V202c-14.5,6.63-26,0-26,0Z" />
          <ellipse class="light" cx="738.58" cy="191.44" rx="13" ry="3.44" />
        </g>
        <g class="piece primary">
          <polygon class="standard" points="698 199.68 767 185.68 767 202.34 698 216.34 698 199.68" />
          <polygon class="dark" points="698 199.68 672 189.68 672 206.34 698 216.34 698 199.68" />
          <polygon class="light" points="672 189.68 698 199.68 767 185.68 741 175.68 672 189.68" />
          <path class="gradient" d="M689.64,181.53c0,1.9,5.82,3.44,13,3.44s13-1.54,13-3.44v10.55c-14.5,6.63-26,0-26,0Z" />
          <ellipse class="light" cx="702.64" cy="181.53" rx="13" ry="3.44" />
          <path class="gradient" d="M725.58,174.78c0,1.9,5.82,3.44,13,3.44s13-1.54,13-3.44v10.55c-14.5,6.63-26,0-26,0Z" />
          <ellipse class="light" cx="738.58" cy="174.78" rx="13" ry="3.44" />
        </g>
        <g class="piece contrast">
          <polygon class="standard" points="697 183.01 801.5 161.76 801.5 178.43 697 199.68 697 183.01" />
          <polygon class="dark" points="697 183.01 671 173.01 671 189.68 697 199.68 697 183.01" />
          <polygon class="light" points="671 173.01 697 183.01 801.5 161.76 775.5 151.76 671 173.01" />
          <path class="gradient" d="M724.58,158.11c0,1.9,5.82,3.44,13,3.44s13-1.54,13-3.44v10.56c-14.5,6.62-26,0-26,0Z" />
          <ellipse class="light" cx="737.58" cy="158.11" rx="13" ry="3.44" />
          <path class="gradient" d="M688.64,164.86c0,1.9,5.82,3.44,13,3.44s13-1.54,13-3.44v10.56c-14.5,6.62-26,0-26,0Z" />
          <ellipse class="light" cx="701.64" cy="164.86" rx="13" ry="3.44" />
          <path class="gradient" d="M760.08,150.86c0,1.9,5.82,3.44,13,3.44s13-1.54,13-3.44v10.56c-14.5,6.62-26,0-26,0Z" />
          <ellipse class="light" cx="773.08" cy="150.86" rx="13" ry="3.44" />
        </g>
      </g>
      <g class="instruction">
        <g class="piece contrast">
          <polygon class="standard" points="566.5 208.03 601 201.17 601 217.84 566.5 224.7 566.5 208.03" />
          <polygon class="dark" points="566.5 208.03 540.5 198.03 540.5 214.7 566.5 224.7 566.5 208.03" />
          <polygon class="light" points="540.5 198.03 566.5 208.03 601 201.17 575 191.17 540.5 198.03" />
          <path class="gradient" d="M558.14,189.88c0,1.9,5.82,3.44,13,3.44s13-1.54,13-3.44v10.56c-14.5,6.62-26,0-26,0Z" />
          <ellipse class="light" cx="571.14" cy="189.88" rx="13" ry="3.44" />
        </g>
        <g class="piece contrast">
          <polygon class="standard" points="566.5 191.67 601 184.81 601 201.48 566.5 208.34 566.5 191.67" />
          <polygon class="dark" points="566.5 191.67 540.5 181.67 540.5 198.34 566.5 208.34 566.5 191.67" />
          <polygon class="light" points="540.5 181.68 566.5 191.68 601 184.81 575 174.81 540.5 181.68" />
          <path class="gradient" d="M558.14,173.52c0,1.9,5.82,3.45,13,3.45s13-1.55,13-3.45v10.56c-14.5,6.63-26,0-26,0Z" />
          <ellipse class="light" cx="571.14" cy="173.52" rx="13" ry="3.44" />
        </g>
        <g class="piece primary">
          <polygon class="standard" points="497.5 222.03 566.5 208.03 566.5 224.7 497.5 238.7 497.5 222.03" />
          <polygon class="dark" points="497.5 222.03 471.5 212.03 471.5 228.7 497.5 238.7 497.5 222.03" />
          <polygon class="light" points="471.5 212.03 497.5 222.03 566.5 208.03 540.5 198.03 471.5 212.03" />
          <path class="gradient" d="M489.14,203.88c0,1.9,5.82,3.44,13,3.44s13-1.54,13-3.44v10.56c-14.5,6.62-26,0-26,0Z" />
          <ellipse class="light" cx="502.14" cy="203.88" rx="13" ry="3.44" />
          <path class="gradient" d="M525.08,197.13c0,1.9,5.82,3.44,13,3.44s13-1.54,13-3.44v10.56c-14.5,6.62-26,0-26,0Z" />
          <ellipse class="light" cx="538.08" cy="197.13" rx="13" ry="3.44" />
        </g>
        <g class="piece primary">
          <polygon class="standard" points="497.5 205.37 566.5 191.37 566.5 208.03 497.5 222.03 497.5 205.37" />
          <polygon class="dark" points="497.5 205.37 471.5 195.37 471.5 212.03 497.5 222.03 497.5 205.37" />
          <polygon class="light" points="471.5 195.37 497.5 205.37 566.5 191.37 540.5 181.37 471.5 195.37" />
          <path class="gradient" d="M489.14,187.21c0,1.91,5.82,3.45,13,3.45s13-1.54,13-3.45v10.56c-14.5,6.63-26,0-26,0Z" />
          <ellipse class="light" cx="502.14" cy="187.21" rx="13" ry="3.44" />
          <path class="gradient" d="M525.08,180.46c0,1.91,5.82,3.45,13,3.45s13-1.54,13-3.45V191c-14.5,6.63-26,0-26,0Z" />
          <ellipse class="light" cx="538.08" cy="180.46" rx="13" ry="3.44" />
        </g>
        <text transform="translate(440.12 179.09)">2</text>
      </g>
      <g class="instruction">
        <g class="piece contrast">
          <polygon class="standard" points="366.5 208.03 401 201.17 401 217.84 366.5 224.7 366.5 208.03" />
          <polygon class="dark" points="366.5 208.03 340.5 198.03 340.5 214.7 366.5 224.7 366.5 208.03" />
          <polygon class="light" points="340.5 198.03 366.5 208.03 401 201.17 375 191.17 340.5 198.03" />
          <path class="gradient" d="M358.14,189.88c0,1.9,5.82,3.44,13,3.44s13-1.54,13-3.44v10.56c-14.5,6.62-26,0-26,0Z" />
          <ellipse class="light" cx="371.14" cy="189.88" rx="13" ry="3.44" />
        </g>
        <g class="piece primary">
          <polygon class="standard" points="297.5 222.03 366.5 208.03 366.5 224.7 297.5 238.7 297.5 222.03" />
          <polygon class="dark" points="297.5 222.03 271.5 212.03 271.5 228.7 297.5 238.7 297.5 222.03" />
          <polygon class="light" points="271.5 212.03 297.5 222.03 366.5 208.03 340.5 198.03 271.5 212.03" />
          <path class="gradient" d="M289.14,203.88c0,1.9,5.82,3.44,13,3.44s13-1.54,13-3.44v10.56c-14.5,6.62-26,0-26,0Z" />
          <ellipse class="light" cx="302.14" cy="203.88" rx="13" ry="3.44" />
          <path class="gradient" d="M325.08,197.13c0,1.9,5.82,3.44,13,3.44s13-1.54,13-3.44v10.56c-14.5,6.62-26,0-26,0Z" />
          <ellipse class="light" cx="338.08" cy="197.13" rx="13" ry="3.44" />
        </g>
        <text transform="translate(239.62 179.09)">1</text>
      </g>
      <polygon points="621.75 324.65 621.75 260.91 621.25 260.91 621.25 324.65 617.14 324.65 621.5 340.91 625.86 324.65 621.75 324.65" />
    </g>
  </g>
  <g class="list">
    <rect class="background" x="10" y="100" width="123.5" height="232.5" />
    <text transform="translate(30 316.48)">1x</text>
    <g class="piece contrast">
      <polygon class="standard" points="46.9 282.14 114.83 268.32 114.83 279.16 46.9 292.97 46.9 282.14" />
      <polygon class="dark" points="46.9 282.14 30 275.64 30 286.47 46.9 292.97 46.9 282.14" />
      <polygon class="light" points="30 275.64 46.9 282.14 114.83 268.32 97.92 261.82 30 275.64" />
      <path class="gradient" d="M64.83,266c0,1.24,3.78,2.24,8.45,2.24s8.45-1,8.45-2.24v6.87a19.39,19.39,0,0,1-16.9,0Z" />
      <ellipse class="light" cx="73.28" cy="265.95" rx="8.45" ry="2.24" />
      <path class="gradient" d="M41.47,270.34c0,1.24,3.78,2.24,8.45,2.24s8.45-1,8.45-2.24v6.86a19.35,19.35,0,0,1-16.9,0Z" />
      <ellipse class="light" cx="49.92" cy="270.34" rx="8.45" ry="2.24" />
      <path class="gradient" d="M87.9,261.24c0,1.24,3.79,2.24,8.45,2.24s8.45-1,8.45-2.24v6.86a19.36,19.36,0,0,1-16.9,0Z" />
      <ellipse class="light" cx="96.35" cy="261.24" rx="8.45" ry="2.24" />
    </g>
    <text transform="translate(30 237.48)">2x</text>
    <g class="piece primary">
      <polygon class="standard" points="46.9 203.43 91.75 194.32 91.75 205.16 46.9 214.26 46.9 203.43" />
      <polygon class="dark" points="46.9 203.43 30 196.93 30 207.76 46.9 214.26 46.9 203.43" />
      <polygon class="light" points="30 196.93 46.9 203.43 91.75 194.32 74.85 187.82 30 196.93" />
      <path class="gradient" d="M64.83,187.24c0,1.24,3.78,2.24,8.45,2.24s8.45-1,8.45-2.24v6.86a19.35,19.35,0,0,1-16.9,0Z" />
      <ellipse class="light" cx="73.28" cy="187.24" rx="8.45" ry="2.24" />
      <path class="gradient" d="M41.47,191.63c0,1.23,3.78,2.23,8.45,2.23s8.45-1,8.45-2.23v6.86a19.35,19.35,0,0,1-16.9,0Z" />
      <ellipse class="light" cx="49.92" cy="191.63" rx="8.45" ry="2.24" />
    </g>
    <text transform="translate(30 163.48)">2x</text>
    <g class="piece contrast">
      <polygon class="standard" points="46.9 129.04 69.33 124.58 69.33 135.41 46.9 139.87 46.9 129.04" />
      <polygon class="dark" points="46.9 129.04 30 122.54 30 133.37 46.9 139.87 46.9 129.04" />
      <polygon class="light" points="30 122.54 46.9 129.04 69.33 124.58 52.42 118.08 30 122.54" />
      <path class="gradient" d="M41.47,117.24c0,1.24,3.78,2.24,8.45,2.24s8.45-1,8.45-2.24v6.86a19.35,19.35,0,0,1-16.9,0Z" />
      <ellipse class="light" cx="49.92" cy="117.24" rx="8.45" ry="2.24" />
    </g>
  </g>
  <text transform="translate(30 72.24)">4</text>
</svg>
