  <svg xmlns="http://www.w3.org/2000/svg" xmlns:xlink="http://www.w3.org/1999/xlink" viewBox="0 0 534.75 640.5">
    <defs>
      <linearGradient id="primary-gradient">
        <stop class="stop1" offset="0" />
        <stop class="stop2" offset="1" />
      </linearGradient>
      <linearGradient id="contrast-gradient">
        <stop class="stop1" offset="0" />
        <stop class="stop2" offset="1" />
      </linearGradient>
    </defs>
    <g class="row-1 piece-1 block primary">
      <polygon class="standard" points="402 496.35 471 482.35 471 532.35 402 546.35 402 496.35" />
      <polygon class="dark" points="402 496.35 376 486.35 376 536.35 402 546.35 402 496.35" />
      <polygon class="light" points="376 486.35 402 496.35 471 482.35 445 472.35 376 486.35" />
    </g>
    <g class="row-1 piece-2 block primary">
      <polygon class="standard" points="428 506.35 497 492.35 497 542.35 428 556.35 428 506.35" />
      <polygon class="dark" points="428 506.35 402 496.35 402 546.35 428 556.35 428 506.35" />
      <polygon class="light" points="402 496.35 428 506.35 497 492.35 471 482.35 402 496.35" />
    </g>
    <g class="row-1 piece-3 block primary">
      <polygon class="standard" points="359 520.35 428 506.35 428 556.35 359 570.35 359 520.35" />
      <polygon class="dark" points="359 520.35 333 510.35 333 560.35 359 570.35 359 520.35" />
      <polygon class="light" points="333 510.35 359 520.35 428 506.35 402 496.35 333 510.35" />
    </g>
    <g class="row-1 piece-4 block primary">
      <polygon class="standard" points="290 534.35 359 520.35 359 570.35 290 584.35 290 534.35" />
      <polygon class="dark" points="290 534.35 264 524.35 264 574.35 290 584.35 290 534.35" />
      <polygon class="light" points="264 524.35 290 534.35 359 520.35 333 510.35 264 524.35" />
    </g>
    <g class="row-1 piece-5 block primary">
      <polygon class="standard" points="221 548.35 290 534.35 290 584.35 221 598.35 221 548.35" />
      <polygon class="dark" points="221 548.35 195 538.35 195 588.35 221 598.35 221 548.35" />
      <polygon class="light" points="195 538.35 221 548.35 290 534.35 264 524.35 195 538.35" />
    </g>
    <g class="row-1 piece-6 block primary">
      <polygon class="standard" points="152 562.35 221 548.35 221 598.35 152 612.35 152 562.35" />
      <polygon class="dark" points="152 562.35 126 552.35 126 602.35 152 612.35 152 562.35" />
      <polygon class="light" points="126 552.35 152 562.35 221 548.35 195 538.35 126 552.35" />
    </g>
    <g class="row-1 piece-7 block primary">
      <polygon class="standard" points="83 576.35 152 562.35 152 612.35 83 626.35 83 576.35" />
      <polygon class="dark" points="83 576.35 57 566.35 57 616.35 83 626.35 83 576.35" />
      <polygon class="light" points="57 566.35 83 576.35 152 562.35 126 552.35 57 566.35" />
    </g>
    <g class="row-1 piece-1 top primary">
      <path id="gradient" d="M429.58,471.44c0,1.91,5.82,3.45,13,3.45s13-1.54,13-3.45V482c-14.5,6.63-26,0-26,0Z" />
      <ellipse class="light" cx="442.58" cy="471.44" rx="13" ry="3.44" />
    </g>
    <g class="row-1 piece-2 top primary">
      <path class="gradient" d="M455.58,481.44c0,1.91,5.82,3.45,13,3.45s13-1.54,13-3.45V492c-14.5,6.63-26,0-26,0Z" />
      <ellipse class="light" cx="468.58" cy="481.44" rx="13" ry="3.44" />
    </g>
    <g class="row-2 piece-1 block primary">
      <polygon class="standard" points="462.5 449.21 497 442.35 497 492.35 462.5 499.21 462.5 449.21" />
      <polygon class="dark" points="462.5 449.21 410.5 429.21 410.5 479.21 462.5 499.21 462.5 449.21" />
      <polygon class="light" points="410.5 429.21 462.5 449.21 497 442.35 445 422.35 410.5 429.21" />
    </g>
    <g class="row-1 piece-1 top primary">
      <path class="gradient" d="M393.64,478.19c0,1.91,5.82,3.45,13,3.45s13-1.54,13-3.45v10.56c-14.5,6.63-26,0-26,0Z" />
      <ellipse class="light" cx="406.64" cy="478.19" rx="13" ry="3.44" />
    </g>
    <g class="row-1 piece-2 top primary">
      <path class="gradient" d="M419.64,488.19c0,1.91,5.82,3.45,13,3.45s13-1.54,13-3.45v10.56c-14.5,6.63-26,0-26,0Z" />
      <ellipse class="light" cx="432.64" cy="488.19" rx="13" ry="3.44" />
    </g>
    <g class="row-2 piece-2 block contrast">
      <polygon class="standard" points="428 456.07 462.5 449.21 462.5 499.21 428 506.07 428 456.07" fill="#f3f3f3" stroke="#252525" stroke-linejoin="round" stroke-width="0.5" />
      <polygon class="dark" points="428 456.07 402 446.07 402 496.07 428 506.07 428 456.07" fill="#9b9b9b" stroke="#252525" stroke-linejoin="round" stroke-width="0.5" />
      <polygon class="light" points="402 446.07 428 456.07 462.5 449.21 436.5 439.21 402 446.07" fill="#fff" stroke="#252525" stroke-linejoin="round" stroke-width="0.5" />
    </g>
    <g class="row-1 piece-3 top primary">
      <path class="gradient" d="M386.58,495.44c0,1.91,5.82,3.45,13,3.45s13-1.54,13-3.45V506c-14.5,6.63-26,0-26,0Z" />
      <ellipse class="light" cx="399.58" cy="495.44" rx="13" ry="3.44" />
    </g>
    <g class="row-2 piece-3 block contrast">
      <polygon class="standard" points="393.5 463.21 428 456.35 428 506.35 393.5 513.21 393.5 463.21" fill="#f3f3f3" stroke="#252525" stroke-linejoin="round" stroke-width="0.5" />
      <polygon class="dark" points="393.5 463.21 367.5 453.21 367.5 503.21 393.5 513.21 393.5 463.21" fill="#9b9b9b" stroke="#252525" stroke-linejoin="round" stroke-width="0.5" />
      <polygon class="light" points="367.5 453.21 393.5 463.21 428 456.35 402 446.35 367.5 453.21" fill="#fff" stroke="#252525" stroke-linejoin="round" stroke-width="0.5" />
    </g>
    <g class="row-1 piece-3 top primary">
      <path class="gradient" d="M350.64,502.19c0,1.91,5.82,3.45,13,3.45s13-1.54,13-3.45v10.56c-14.5,6.63-26,0-26,0Z" />
      <ellipse class="light" cx="363.64" cy="502.19" rx="13" ry="3.44" />
    </g>
    <g class="row-2 piece-4 block contrast">
      <polygon class="standard" points="359 470.35 393.5 463.49 393.5 513.49 359 520.35 359 470.35" fill="#f3f3f3" stroke="#252525" stroke-linejoin="round" stroke-width="0.5" />
      <polygon class="dark" points="359 470.35 333 460.35 333 510.35 359 520.35 359 470.35" fill="#9b9b9b" stroke="#252525" stroke-linejoin="round" stroke-width="0.5" />
      <polygon class="light" points="333 460.35 359 470.35 393.5 463.49 367.5 453.49 333 460.35" fill="#fff" stroke="#252525" stroke-linejoin="round" stroke-width="0.5" />
    </g>
    <g class="row-1 piece-4 top primary">
      <path class="gradient" d="M317.58,509.44c0,1.91,5.82,3.45,13,3.45s13-1.54,13-3.45V520c-14.5,6.63-26,0-26,0Z" />
      <ellipse class="light" cx="330.58" cy="509.44" rx="13" ry="3.44" />
    </g>
    <g class="row-2 piece-5 block primary">
      <polygon class="standard" points="324.5 477.21 359 470.35 359 520.35 324.5 527.21 324.5 477.21" />
      <polygon class="dark" points="324.5 477.21 298.5 467.21 298.5 517.21 324.5 527.21 324.5 477.21" />
      <polygon class="light" points="298.5 467.21 324.5 477.21 359 470.35 333 460.35 298.5 467.21" />
    </g>
    <g class="row-1 piece-4 top primary">
      <path class="gradient" d="M281.64,516.19c0,1.91,5.82,3.45,13,3.45s13-1.54,13-3.45v10.56c-14.5,6.63-26,0-26,0Z" />
      <ellipse class="light" cx="294.64" cy="516.19" rx="13" ry="3.44" />
    </g>
    <g class="row-2 piece-6 block contrast">
      <polygon class="standard" points="290 484.07 324.5 477.21 324.5 527.21 290 534.07 290 484.07" fill="#f3f3f3" stroke="#252525" stroke-linejoin="round" stroke-width="0.5" />
      <polygon class="dark" points="290 484.07 264 474.07 264 524.07 290 534.07 290 484.07" fill="#9b9b9b" stroke="#252525" stroke-linejoin="round" stroke-width="0.5" />
      <polygon class="light" points="264 474.07 290 484.07 324.5 477.21 298.5 467.21 264 474.07" fill="#fff" stroke="#252525" stroke-linejoin="round" stroke-width="0.5" />
    </g>
    <g class="row-1 piece-5 top primary">
      <path class="gradient" d="M248.58,523.44c0,1.91,5.82,3.45,13,3.45s13-1.54,13-3.45V534c-14.5,6.63-26,0-26,0Z" />
      <ellipse class="light" cx="261.58" cy="523.44" rx="13" ry="3.44" />
    </g>
    <g class="row-2 piece-7 block contrast">
      <polygon class="standard" points="255.5 491.21 290 484.35 290 534.35 255.5 541.21 255.5 491.21" fill="#f3f3f3" stroke="#252525" stroke-linejoin="round" stroke-width="0.5" />
      <polygon class="dark" points="255.5 491.21 229.5 481.21 229.5 531.21 255.5 541.21 255.5 491.21" fill="#9b9b9b" stroke="#252525" stroke-linejoin="round" stroke-width="0.5" />
      <polygon class="light" points="229.5 481.21 255.5 491.21 290 484.35 264 474.35 229.5 481.21" fill="#fff" stroke="#252525" stroke-linejoin="round" stroke-width="0.5" />
    </g>
    <g class="row-1 piece-5 top primary">
      <path class="gradient" d="M212.64,530.19c0,1.91,5.82,3.45,13,3.45s13-1.54,13-3.45v10.56c-14.5,6.63-26,0-26,0Z" />
      <ellipse class="light" cx="225.64" cy="530.19" rx="13" ry="3.44" />
    </g>
    <g class="row-2 piece-8 block contrast">
      <polygon class="standard" points="221 498.35 255.5 491.49 255.5 541.49 221 548.35 221 498.35" fill="#f3f3f3" stroke="#252525" stroke-linejoin="round" stroke-width="0.5" />
      <polygon class="dark" points="221 498.35 195 488.35 195 538.35 221 548.35 221 498.35" fill="#9b9b9b" stroke="#252525" stroke-linejoin="round" stroke-width="0.5" />
      <polygon class="light" points="195 488.35 221 498.35 255.5 491.49 229.5 481.49 195 488.35" fill="#fff" stroke="#252525" stroke-linejoin="round" stroke-width="0.5" />
    </g>
    <g class="row-1 piece-6 top primary">
      <path class="gradient" d="M179.58,537.44c0,1.91,5.82,3.45,13,3.45s13-1.54,13-3.45V548c-14.5,6.63-26,0-26,0Z" />
      <ellipse class="light" cx="192.58" cy="537.44" rx="13" ry="3.44" />
    </g>
    <g class="row-2 piece-9 block primary">
      <polygon class="standard" points="186.5 505.49 221 498.63 221 548.63 186.5 555.49 186.5 505.49" />
      <polygon class="dark" points="186.5 505.49 160.5 495.49 160.5 545.49 186.5 555.49 186.5 505.49" />
      <polygon class="light" points="160.5 495.49 186.5 505.49 221 498.63 195 488.63 160.5 495.49" />
    </g>
    <g class="row-1 piece-6 top primary">
      <path class="gradient" d="M143.64,544.19c0,1.91,5.82,3.45,13,3.45s13-1.54,13-3.45v10.56c-14.5,6.63-26,0-26,0Z" />
      <ellipse class="light" cx="156.64" cy="544.19" rx="13" ry="3.44" />
    </g>
    <g class="row-1 piece-7 top primary">
      <path class="gradient" d="M110.58,551.44c0,1.91,5.82,3.45,13,3.45s13-1.54,13-3.45V562c-14.5,6.63-26,0-26,0Z" />
      <ellipse class="light" cx="123.58" cy="551.44" rx="13" ry="3.44" />
    </g>
    <g class="row-2 piece-10 block primary">
      <polygon class="standard" points="117.5 519.49 186.5 505.49 186.5 555.49 117.5 569.49 117.5 519.49" />
      <polygon class="dark" points="117.5 519.49 91.5 509.49 91.5 559.49 117.5 569.49 117.5 519.49" />
      <polygon class="light" points="91.5 509.49 117.5 519.49 186.5 505.49 160.5 495.49 91.5 509.49" />
    </g>
    <g class="row-1 piece-7 top primary">
      <path class="gradient" d="M74.64,558.19c0,1.91,5.82,3.45,13,3.45s13-1.54,13-3.45v10.56c-14.5,6.63-26,0-26,0Z" />
      <ellipse class="light" cx="87.64" cy="558.19" rx="13" ry="3.44" />
    </g>
    <g class="row-2 piece-11 block primary">
      <polygon class="standard" points="83 526.35 117.5 519.49 117.5 569.49 83 576.35 83 526.35" />
      <polygon class="dark" points="83 526.35 57 516.35 57 566.35 83 576.35 83 526.35" />
      <polygon class="light" points="57 516.35 83 526.35 117.5 519.49 91.5 509.49 57 516.35" />
    </g>
    <g class="row-2 piece-1 top primary">
      <path class="gradient" d="M428.14,421.05c0,1.91,5.82,3.45,13,3.45s13-1.54,13-3.45v10.56c-14.5,6.63-26,0-26,0Z" />
      <ellipse class="light" cx="441.14" cy="421.05" rx="13" ry="3.44" />
    </g>
    <g class="row-2 piece-1 top primary">
      <path class="gradient" d="M454.14,431.05c0,1.91,5.82,3.45,13,3.45s13-1.54,13-3.45v10.56c-14.5,6.63-26,0-26,0Z" />
      <ellipse class="light" cx="467.14" cy="431.05" rx="13" ry="3.44" />
    </g>
    <g class="row-3 piece-1 block primary">
      <polygon class="standard" points="462.5 399.21 497 392.35 497 442.35 462.5 449.21 462.5 399.21" />
      <polygon class="dark" points="462.5 399.21 436.5 389.21 436.5 439.21 462.5 449.21 462.5 399.21" />
      <polygon class="light" points="436.5 389.21 462.5 399.21 497 392.35 471 382.35 436.5 389.21" />
    </g>
    <g class="row-2 piece-2 top contrast">
      <path class="gradient" d="M419.64,437.91c0,1.91,5.82,3.45,13,3.45s13-1.54,13-3.45v10.56c-14.5,6.63-26,0-26,0Z" />
      <ellipse class="light" cx="432.64" cy="437.91" rx="13" ry="3.44" fill="#fff" stroke="#252525" stroke-linejoin="round" stroke-width="0.5" />
    </g>
    <g class="row-3 piece-2 block contrast">
      <polygon class="standard" points="428 406.07 462.5 399.21 462.5 449.21 428 456.07 428 406.07" fill="#f3f3f3" stroke="#252525" stroke-linejoin="round" stroke-width="0.5" />
      <polygon class="dark" points="428 406.07 402 396.07 402 446.07 428 456.07 428 406.07" fill="#9b9b9b" stroke="#252525" stroke-linejoin="round" stroke-width="0.5" />
      <polygon class="light" points="402 396.07 428 406.07 462.5 399.21 436.5 389.21 402 396.07" fill="#fff" stroke="#252525" stroke-linejoin="round" stroke-width="0.5" />
    </g>
    <g class="row-2 piece-3 top contrast">
      <path class="gradient" d="M385.14,445.05c0,1.91,5.82,3.45,13,3.45s13-1.54,13-3.45v10.56c-14.5,6.63-26,0-26,0Z" />
      <ellipse class="light" cx="398.14" cy="445.05" rx="13" ry="3.44" fill="#fff" stroke="#252525" stroke-linejoin="round" stroke-width="0.5" />
    </g>
    <g class="row-2 piece-4 top contrast">
      <path class="gradient" d="M350.64,452.19c0,1.91,5.82,3.45,13,3.45s13-1.54,13-3.45v10.56c-14.5,6.63-26,0-26,0Z" />
      <ellipse class="light" cx="363.64" cy="452.19" rx="13" ry="3.44" fill="#fff" stroke="#252525" stroke-linejoin="round" stroke-width="0.5" />
    </g>
    <g class="row-3 piece-3 block primary">
      <polygon class="standard" points="359 453.4 428 439.4 428 456.07 359 470.07 359 453.4" />
      <polygon class="dark" points="359 453.4 333 443.4 333 460.07 359 470.07 359 453.4" />
      <polygon class="light" points="333 443.4 359 453.4 428 439.4 402 429.4 333 443.4" />
      <path class="gradient" d="M350.64,435.25c0,1.9,5.82,3.44,13,3.44s13-1.54,13-3.44v10.56c-14.5,6.62-26,0-26,0Z" />
      <ellipse class="light" cx="363.64" cy="435.25" rx="13" ry="3.44" />
      <path class="gradient" d="M386.58,428.5c0,1.9,5.82,3.44,13,3.44s13-1.54,13-3.44v10.56c-14.5,6.62-26,0-26,0Z" />
      <ellipse class="light" cx="399.58" cy="428.5" rx="13" ry="3.44" />
    </g>
    <g class="row-3 piece-4 block primary">
      <polygon class="standard" points="359 436.73 428 422.73 428 439.4 359 453.4 359 436.73" />
      <polygon class="dark" points="359 436.73 333 426.73 333 443.4 359 453.4 359 436.73" />
      <polygon class="light" points="333 426.73 359 436.73 428 422.73 402 412.73 333 426.73" />
      <path class="gradient" d="M350.64,418.58c0,1.9,5.82,3.45,13,3.45s13-1.55,13-3.45v10.56c-14.5,6.63-26,0-26,0Z" />
      <ellipse class="light" cx="363.64" cy="418.58" rx="13" ry="3.44" />
      <path class="gradient" d="M386.58,411.83c0,1.9,5.82,3.45,13,3.45s13-1.55,13-3.45v10.56c-14.5,6.63-26,0-26,0Z" />
      <ellipse class="light" cx="399.58" cy="411.83" rx="13" ry="3.44" />
    </g>
    <g class="row-3 piece-5 block contrast">
      <polygon class="standard" points="359 420.07 428 406.07 428 422.73 359 436.73 359 420.07" fill="#f3f3f3" stroke="#252525" stroke-linejoin="round" stroke-width="0.5" />
      <polygon class="dark" points="359 420.07 333 410.07 333 426.73 359 436.73 359 420.07" fill="#9b9b9b" stroke="#252525" stroke-linejoin="round" stroke-width="0.5" />
      <polygon class="light" points="333 410.07 359 420.07 428 406.07 402 396.07 333 410.07" fill="#fff" stroke="#252525" stroke-linejoin="round" stroke-width="0.5" />
    </g>
    <g class="row-2 piece-5 top primary">
      <path class="gradient" d="M316.14,459.05c0,1.91,5.82,3.45,13,3.45s13-1.54,13-3.45v10.56c-14.5,6.63-26,0-26,0Z" />
      <ellipse class="light" cx="329.14" cy="459.05" rx="13" ry="3.44" />
    </g>
    <g class="row-3 piece-6 block primary">
      <polygon class="standard" points="324.5 427.21 359 420.35 359 470.35 324.5 477.21 324.5 427.21" />
      <polygon class="dark" points="324.5 427.21 298.5 417.21 298.5 467.21 324.5 477.21 324.5 427.21" />
      <polygon class="light" points="298.5 417.21 324.5 427.21 359 420.35 333 410.35 298.5 417.21" />
    </g>
    <g class="row-2 piece-6 top contrast">
      <path class="gradient" d="M281.64,465.91c0,1.91,5.82,3.45,13,3.45s13-1.54,13-3.45v10.56c-14.5,6.63-26,0-26,0Z" />
      <ellipse class="light" cx="294.64" cy="465.91" rx="13" ry="3.44" fill="#fff" stroke="#252525" stroke-linejoin="round" stroke-width="0.5" />
    </g>
    <g class="row-3 piece-7 block contrast">
      <polygon class="standard" points="290 434.07 324.5 427.21 324.5 477.21 290 484.07 290 434.07" fill="#f3f3f3" stroke="#252525" stroke-linejoin="round" stroke-width="0.5" />
      <polygon class="dark" points="290 434.07 264 424.07 264 474.07 290 484.07 290 434.07" fill="#9b9b9b" stroke="#252525" stroke-linejoin="round" stroke-width="0.5" />
      <polygon class="light" points="264 424.07 290 434.07 324.5 427.21 298.5 417.21 264 424.07" fill="#fff" stroke="#252525" stroke-linejoin="round" stroke-width="0.5" />
    </g>
    <g class="row-2 piece-7 top contrast">
      <path class="gradient" d="M247.14,473.05c0,1.91,5.82,3.45,13,3.45s13-1.54,13-3.45v10.56c-14.5,6.63-26,0-26,0Z" />
      <ellipse class="light" cx="260.14" cy="473.05" rx="13" ry="3.44" fill="#fff" stroke="#252525" stroke-linejoin="round" stroke-width="0.5" />
    </g>
    <g class="row-3 piece-8 block primary">
      <polygon class="standard" points="255.5 440.93 290 434.07 290 484.07 255.5 490.93 255.5 440.93" />
      <polygon class="dark" points="255.5 440.93 229.5 430.93 229.5 480.93 255.5 490.93 255.5 440.93" />
      <polygon class="light" points="229.5 430.93 255.5 440.93 290 434.07 264 424.07 229.5 430.93" />
    </g>
    <g class="row-2 piece-8 top contrast">
      <path class="gradient" d="M212.64,480.19c0,1.91,5.82,3.45,13,3.45s13-1.54,13-3.45v10.56c-14.5,6.63-26,0-26,0Z" />
      <ellipse class="light" cx="225.64" cy="480.19" rx="13" ry="3.44" fill="#fff" stroke="#252525" stroke-linejoin="round" stroke-width="0.5" />
    </g>
    <g class="row-3 piece-9 block contrast">
      <polygon class="standard" points="221 481.35 255.5 474.49 255.5 491.15 221 498.01 221 481.35" fill="#f3f3f3" stroke="#252525" stroke-linejoin="round" stroke-width="0.5" />
      <polygon class="dark" points="221 481.35 195 471.35 195 488.01 221 498.01 221 481.35" fill="#9b9b9b" stroke="#252525" stroke-linejoin="round" stroke-width="0.5" />
      <polygon class="light" points="195 471.35 221 481.35 255.5 474.49 229.5 464.49 195 471.35" fill="#fff" stroke="#252525" stroke-linejoin="round" stroke-width="0.5" />
      <path class="gradient" d="M212.64,463.19c0,1.91,5.82,3.45,13,3.45s13-1.54,13-3.45v10.56c-14.5,6.63-26,0-26,0Z" />
      <ellipse class="light" cx="225.64" cy="463.19" rx="13" ry="3.44" fill="#fff" stroke="#252525" stroke-linejoin="round" stroke-width="0.5" />
    </g>
    <g class="row-3 piece-10 block primary">
      <polygon class="standard" points="221 464.45 255.5 457.59 255.5 474.26 221 481.12 221 464.45" />
      <polygon class="dark" points="221 464.45 195 454.45 195 471.12 221 481.12 221 464.45" />
      <polygon class="light" points="195 454.45 221 464.45 255.5 457.59 229.5 447.59 195 454.45" />
      <path class="gradient" d="M212.64,446.3c0,1.9,5.82,3.45,13,3.45s13-1.55,13-3.45v10.56c-14.5,6.63-26,0-26,0Z" />
      <ellipse class="light" cx="225.64" cy="446.3" rx="13" ry="3.44" />
    </g>
    <g class="row-3 piece-11 block primary">
      <polygon class="standard" points="221 448.1 255.5 441.24 255.5 457.9 221 464.76 221 448.1" />
      <polygon class="dark" points="221 448.1 195 438.1 195 454.76 221 464.76 221 448.1" />
      <polygon class="light" points="195 438.1 221 448.1 255.5 441.24 229.5 431.24 195 438.1" />
    </g>
    <g class="row-2 piece-9 top primary">
      <path class="gradient" d="M178.14,487.33c0,1.91,5.82,3.45,13,3.45s13-1.54,13-3.45v10.56c-14.5,6.63-26,0-26,0Z" />
      <ellipse class="light" cx="191.14" cy="487.33" rx="13" ry="3.44" />
    </g>
    <g class="row-2 piece-10 top primary">
      <path class="gradient" d="M145.08,494.58c0,1.91,5.82,3.45,13,3.45s13-1.54,13-3.45v10.56c-14.5,6.63-26,0-26,0Z" />
      <ellipse class="light" cx="158.08" cy="494.58" rx="13" ry="3.44" />
    </g>
    <g class="row-3 piece-12 block primary">
      <polygon class="standard" points="152 462.35 221 448.35 221 498.35 152 512.35 152 462.35" />
      <polygon class="dark" points="152 462.35 126 452.35 126 502.35 152 512.35 152 462.35" />
      <polygon class="light" points="126 452.35 152 462.35 221 448.35 195 438.35 126 452.35" />
    </g>
    <g class="row-2 piece-10 top primary">
      <path class="gradient" d="M109.14,501.33c0,1.91,5.82,3.45,13,3.45s13-1.54,13-3.45v10.56c-14.5,6.63-26,0-26,0Z" />
      <ellipse class="light" cx="122.14" cy="501.33" rx="13" ry="3.44" />
    </g>
    <g class="row-2 piece-11 top primary">
      <path class="gradient" d="M74.64,508.19c0,1.91,5.82,3.45,13,3.45s13-1.54,13-3.45v10.56c-14.5,6.63-26,0-26,0Z" />
      <ellipse class="light" cx="87.64" cy="508.19" rx="13" ry="3.44" />
    </g>
    <g class="row-3 piece-13 block primary">
      <polygon class="standard" points="83 476.35 152 462.35 152 512.35 83 526.35 83 476.35" />
      <polygon class="dark" points="83 476.35 57 466.35 57 516.35 83 526.35 83 476.35" />
      <polygon class="light" points="57 466.35 83 476.35 152 462.35 126 452.35 57 466.35" />
    </g>
    <g class="row-3 piece-1 top primary">
      <path class="gradient" d="M454.14,381.05c0,1.91,5.82,3.45,13,3.45s13-1.54,13-3.45v10.56c-14.5,6.63-26,0-26,0Z" />
      <ellipse class="light" cx="467.14" cy="381.05" rx="13" ry="3.44" />
    </g>
    <g class="row-4 piece-1 block primary">
      <polygon class="standard" points="462.5 349.21 497 342.35 497 392.35 462.5 399.21 462.5 349.21" />
      <polygon class="dark" points="462.5 349.21 436.5 339.21 436.5 389.21 462.5 399.21 462.5 349.21" />
      <polygon class="light" points="436.5 339.21 462.5 349.21 497 342.35 471 332.35 436.5 339.21" />
    </g>
    <g class="row-3 piece-2 top contrast">
      <path class="gradient" d="M419.64,387.91c0,1.91,5.82,3.45,13,3.45s13-1.54,13-3.45v10.56c-14.5,6.63-26,0-26,0Z" />
      <ellipse class="light" cx="432.64" cy="387.91" rx="13" ry="3.44" fill="#fff" stroke="#252525" stroke-linejoin="round" stroke-width="0.5" />
    </g>
    <g class="row-3 piece-5 top contrast">
      <path class="gradient" d="M386.58,395.17c0,1.9,5.82,3.44,13,3.44s13-1.54,13-3.44v10.56c-14.5,6.62-26,0-26,0Z" />
      <ellipse class="light" cx="399.58" cy="395.17" rx="13" ry="3.44" fill="#fff" stroke="#252525" stroke-linejoin="round" stroke-width="0.5" />
    </g>
    <g class="row-4 piece-2 block contrast">
      <polygon class="standard" points="393.5 396.54 462.5 382.54 462.5 399.21 393.5 413.21 393.5 396.54" fill="#f3f3f3" stroke="#252525" stroke-linejoin="round" stroke-width="0.5" />
      <polygon class="dark" points="393.5 396.54 367.5 386.54 367.5 403.21 393.5 413.21 393.5 396.54" fill="#9b9b9b" stroke="#252525" stroke-linejoin="round" stroke-width="0.5" />
      <polygon class="light" points="367.5 386.54 393.5 396.54 462.5 382.54 436.5 372.54 367.5 386.54" fill="#fff" stroke="#252525" stroke-linejoin="round" stroke-width="0.5" />
      <path class="gradient" d="M385.14,378.39c0,1.9,5.82,3.44,13,3.44s13-1.54,13-3.44V389c-14.5,6.62-26,0-26,0Z" />
      <ellipse class="light" cx="398.14" cy="378.39" rx="13" ry="3.44" fill="#fff" stroke="#252525" stroke-linejoin="round" stroke-width="0.5" />
      <path class="gradient" d="M421.08,371.64c0,1.9,5.82,3.44,13,3.44s13-1.54,13-3.44V382.2c-14.5,6.62-26,0-26,0Z" />
      <ellipse class="light" cx="434.08" cy="371.64" rx="13" ry="3.44" fill="#fff" stroke="#252525" stroke-linejoin="round" stroke-width="0.5" />
    </g>
    <g class="row-4 piece-3 block primary">
      <polygon class="standard" points="393.5 379.87 462.5 365.87 462.5 382.54 393.5 396.54 393.5 379.87" />
      <polygon class="dark" points="393.5 379.87 367.5 369.87 367.5 386.54 393.5 396.54 393.5 379.87" />
      <polygon class="light" points="367.5 369.87 393.5 379.87 462.5 365.87 436.5 355.87 367.5 369.87" />
      <path class="gradient" d="M385.14,361.72c0,1.9,5.82,3.45,13,3.45s13-1.55,13-3.45v10.56c-14.5,6.63-26,0-26,0Z" />
      <ellipse class="light" cx="398.14" cy="361.72" rx="13" ry="3.44" />
      <path class="gradient" d="M421.08,355c0,1.9,5.82,3.45,13,3.45s13-1.55,13-3.45v10.56c-14.5,6.63-26,0-26,0Z" />
      <ellipse class="light" cx="434.08" cy="354.97" rx="13" ry="3.44" />
    </g>
    <g class="row-4 piece-4 block primary">
      <polygon class="standard" points="393.5 363.21 462.5 349.21 462.5 365.87 393.5 379.87 393.5 363.21" />
      <polygon class="dark" points="393.5 363.21 367.5 353.21 367.5 369.87 393.5 379.87 393.5 363.21" />
      <polygon class="light" points="367.5 353.21 393.5 363.21 462.5 349.21 436.5 339.21 367.5 353.21" />
    </g>
    <g class="row-3 piece-5 top contrast">
      <path class="gradient" d="M350.64,401.92c0,1.9,5.82,3.44,13,3.44s13-1.54,13-3.44v10.56c-14.5,6.62-26,0-26,0Z" />
      <ellipse class="light" cx="363.64" cy="401.92" rx="13" ry="3.44" fill="#fff" stroke="#252525" stroke-linejoin="round" stroke-width="0.5" />
    </g>
    <g class="row-4 piece-5 block contrast">
      <polygon class="standard" points="359 370.35 393.5 363.49 393.5 413.49 359 420.35 359 370.35" fill="#f3f3f3" stroke="#252525" stroke-linejoin="round" stroke-width="0.5" />
      <polygon class="dark" points="359 370.35 333 360.35 333 410.35 359 420.35 359 370.35" fill="#9b9b9b" stroke="#252525" stroke-linejoin="round" stroke-width="0.5" />
      <polygon class="light" points="333 360.35 359 370.35 393.5 363.49 367.5 353.49 333 360.35" fill="#fff" stroke="#252525" stroke-linejoin="round" stroke-width="0.5" />
    </g>
    <g class="row-3 piece-6 top primary">
      <path class="gradient" d="M316.14,409.05c0,1.91,5.82,3.45,13,3.45s13-1.54,13-3.45v10.56c-14.5,6.63-26,0-26,0Z" />
      <ellipse class="light" cx="329.14" cy="409.05" rx="13" ry="3.44" />
    </g>
    <g class="row-4 piece-6 block primary">
      <polygon class="standard" points="324.5 377.21 359 370.35 359 420.35 324.5 427.21 324.5 377.21" />
      <polygon class="dark" points="324.5 377.21 298.5 367.21 298.5 417.21 324.5 427.21 324.5 377.21" />
      <polygon class="light" points="298.5 367.21 324.5 377.21 359 370.35 333 360.35 298.5 367.21" />
    </g>
    <g class="row-3 piece-7 top contrast">
      <path class="gradient" d="M281.64,415.91c0,1.91,5.82,3.45,13,3.45s13-1.54,13-3.45v10.56c-14.5,6.63-26,0-26,0Z" />
      <ellipse class="light" cx="294.64" cy="415.91" rx="13" ry="3.44" fill="#fff" stroke="#252525" stroke-linejoin="round" stroke-width="0.5" />
    </g>
    <g class="row-4 piece-7 block contrast">
      <polygon class="standard" points="290 384.07 324.5 377.21 324.5 427.21 290 434.07 290 384.07" fill="#f3f3f3" stroke="#252525" stroke-linejoin="round" stroke-width="0.5" />
      <polygon class="dark" points="290 384.07 264 374.07 264 424.07 290 434.07 290 384.07" fill="#9b9b9b" stroke="#252525" stroke-linejoin="round" stroke-width="0.5" />
      <polygon class="light" points="264 374.07 290 384.07 324.5 377.21 298.5 367.21 264 374.07" fill="#fff" stroke="#252525" stroke-linejoin="round" stroke-width="0.5" />
    </g>
    <g class="row-3 piece-8 top primary">
      <path class="gradient" d="M247.14,422.77c0,1.91,5.82,3.45,13,3.45s13-1.54,13-3.45v10.56c-14.5,6.63-26,0-26,0Z" />
      <ellipse class="light" cx="260.14" cy="422.77" rx="13" ry="3.44" />
    </g>
    <g class="row-4 piece-8 block primary">
      <polygon class="standard" points="255.5 391.1 290 384.24 290 434.24 255.5 441.1 255.5 391.1" />
      <polygon class="dark" points="255.5 391.1 229.5 381.1 229.5 431.1 255.5 441.1 255.5 391.1" />
      <polygon class="light" points="229.5 381.1 255.5 391.1 290 384.24 264 374.24 229.5 381.1" />
    </g>
    <g class="row-3 piece-11 top primary">
      <path class="gradient" d="M212.64,429.94c0,1.91,5.82,3.45,13,3.45s13-1.54,13-3.45V440.5c-14.5,6.63-26,0-26,0Z" />
      <ellipse class="light" cx="225.64" cy="429.94" rx="13" ry="3.44" />
    </g>
    <g class="row-3 piece-12 top primary">
      <path class="gradient" d="M179.58,437.44c0,1.91,5.82,3.45,13,3.45s13-1.54,13-3.45V448c-14.5,6.63-26,0-26,0Z" />
      <ellipse class="light" cx="192.58" cy="437.44" rx="13" ry="3.44" />
    </g>
    <g class="row-4 piece-9 block primary">
      <polygon class="standard" points="186.5 405.21 255.5 391.21 255.5 441.21 186.5 455.21 186.5 405.21" />
      <polygon class="dark" points="186.5 405.21 160.5 395.21 160.5 445.21 186.5 455.21 186.5 405.21" />
      <polygon class="light" points="160.5 395.21 186.5 405.21 255.5 391.21 229.5 381.21 160.5 395.21" />
    </g>
    <g class="row-3 piece-12 top primary">
      <path class="gradient" d="M143.64,444.19c0,1.91,5.82,3.45,13,3.45s13-1.54,13-3.45v10.56c-14.5,6.63-26,0-26,0Z" />
      <ellipse class="light" cx="156.64" cy="444.19" rx="13" ry="3.44" />
    </g>
    <g class="row-3 piece-13 top primary">
      <path class="gradient" d="M110.58,451.44c0,1.91,5.82,3.45,13,3.45s13-1.54,13-3.45V462c-14.5,6.63-26,0-26,0Z" />
      <ellipse class="light" cx="123.58" cy="451.44" rx="13" ry="3.44" />
    </g>
    <g class="row-4 piece-10 block primary">
      <polygon class="standard" points="117.5 419.21 186.5 405.21 186.5 455.21 117.5 469.21 117.5 419.21" />
      <polygon class="dark" points="117.5 419.21 91.5 409.21 91.5 459.21 117.5 469.21 117.5 419.21" />
      <polygon class="light" points="91.5 409.21 117.5 419.21 186.5 405.21 160.5 395.21 91.5 409.21" />
    </g>
    <g class="row-3 piece-13 top primary">
      <path class="gradient" d="M74.64,458.19c0,1.91,5.82,3.45,13,3.45s13-1.54,13-3.45v10.56c-14.5,6.63-26,0-26,0Z" />
      <ellipse class="light" cx="87.64" cy="458.19" rx="13" ry="3.44" />
    </g>
    <g class="row-4 piece-11 block primary">
      <polygon class="standard" points="83 426.35 117.5 419.49 117.5 469.49 83 476.35 83 426.35" />
      <polygon class="dark" points="83 426.35 57 416.35 57 466.35 83 476.35 83 426.35" />
      <polygon class="light" points="57 416.35 83 426.35 117.5 419.49 91.5 409.49 57 416.35" />
    </g>
    <g class="row-4 piece-1 top primary">
      <path class="gradient" d="M454.14,331.05c0,1.91,5.82,3.45,13,3.45s13-1.54,13-3.45v10.56c-14.5,6.63-26,0-26,0Z" />
      <ellipse class="light" cx="467.14" cy="331.05" rx="13" ry="3.44" />
    </g>
    <g class="row-5 piece-1 block primary">
      <polygon class="standard" points="462.5 299.21 497 292.35 497 342.35 462.5 349.21 462.5 299.21" />
      <polygon class="dark" points="462.5 299.21 436.5 289.21 436.5 339.21 462.5 349.21 462.5 299.21" />
      <polygon class="light" points="436.5 289.21 462.5 299.21 497 292.35 471 282.35 436.5 289.21" />
      <path class="gradient" d="M454.14,281.05c0,1.91,5.82,3.45,13,3.45s13-1.54,13-3.45v10.56c-14.5,6.63-26,0-26,0Z" />
      <ellipse class="light" cx="467.14" cy="281.05" rx="13" ry="3.44" />
    </g>
    <g class="row-4 piece-4 top primary">
      <path class="gradient" d="M421.08,338.31c0,1.9,5.82,3.44,13,3.44s13-1.54,13-3.44v10.56c-14.5,6.62-26,0-26,0Z" />
      <ellipse class="light" cx="434.08" cy="338.31" rx="13" ry="3.44" />
    </g>
    <g class="row-5 piece-2 block contrast">
      <polygon class="standard" points="428 306.07 462.5 299.21 462.5 349.21 428 356.07 428 306.07" fill="#f3f3f3" stroke="#252525" stroke-linejoin="round" stroke-width="0.5" />
      <polygon class="dark" points="428 306.07 402 296.07 402 346.07 428 356.07 428 306.07" fill="#9b9b9b" stroke="#252525" stroke-linejoin="round" stroke-width="0.5" />
      <polygon class="light" points="402 296.07 428 306.07 462.5 299.21 436.5 289.21 402 296.07" fill="#fff" stroke="#252525" stroke-linejoin="round" stroke-width="0.5" />
    </g>
    <g class="row-4 piece-4 top primary">
      <path class="gradient" d="M385.14,345.06c0,1.9,5.82,3.44,13,3.44s13-1.54,13-3.44v10.56c-14.5,6.62-26,0-26,0Z" />
      <ellipse class="light" cx="398.14" cy="345.06" rx="13" ry="3.44" />
    </g>
    <g class="row-5 piece-3 block contrast">
      <polygon class="standard" points="393.5 313.21 428 306.35 428 356.35 393.5 363.21 393.5 313.21" fill="#f3f3f3" stroke="#252525" stroke-linejoin="round" stroke-width="0.5" />
      <polygon class="dark" points="393.5 313.21 367.5 303.21 367.5 353.21 393.5 363.21 393.5 313.21" fill="#9b9b9b" stroke="#252525" stroke-linejoin="round" stroke-width="0.5" />
      <polygon class="light" points="367.5 303.21 393.5 313.21 428 306.35 402 296.35 367.5 303.21" fill="#fff" stroke="#252525" stroke-linejoin="round" stroke-width="0.5" />
    </g>
    <g class="row-4 piece-5 top contrast">
      <path class="gradient" d="M350.64,352.19c0,1.91,5.82,3.45,13,3.45s13-1.54,13-3.45v10.56c-14.5,6.63-26,0-26,0Z" />
      <ellipse class="light" cx="363.64" cy="352.19" rx="13" ry="3.44" fill="#fff" stroke="#252525" stroke-linejoin="round" stroke-width="0.5" />
    </g>
    <g class="row-5 piece-4 block contrast">
      <polygon class="standard" points="359 320.35 393.5 313.49 393.5 363.49 359 370.35 359 320.35" fill="#f3f3f3" stroke="#252525" stroke-linejoin="round" stroke-width="0.5" />
      <polygon class="dark" points="359 320.35 333 310.35 333 360.35 359 370.35 359 320.35" fill="#9b9b9b" stroke="#252525" stroke-linejoin="round" stroke-width="0.5" />
      <polygon class="light" points="333 310.35 359 320.35 393.5 313.49 367.5 303.49 333 310.35" fill="#fff" stroke="#252525" stroke-linejoin="round" stroke-width="0.5" />
    </g>
    <g class="row-4 piece-6 top primary">
      <path class="gradient" d="M316.14,359.05c0,1.91,5.82,3.45,13,3.45s13-1.54,13-3.45v10.56c-14.5,6.63-26,0-26,0Z" />
      <ellipse class="light" cx="329.14" cy="359.05" rx="13" ry="3.44" />
    </g>
    <g class="row-5 piece-5 block primary">
      <polygon class="standard" points="324.5 327.21 359 320.35 359 370.35 324.5 377.21 324.5 327.21" />
      <polygon class="dark" points="324.5 327.21 298.5 317.21 298.5 367.21 324.5 377.21 324.5 327.21" />
      <polygon class="light" points="298.5 317.21 324.5 327.21 359 320.35 333 310.35 298.5 317.21" />
    </g>
    <g class="row-4 piece-7 top contrast">
      <path class="gradient" d="M281.64,365.91c0,1.91,5.82,3.45,13,3.45s13-1.54,13-3.45v10.56c-14.5,6.63-26,0-26,0Z" />
      <ellipse class="light" cx="294.64" cy="365.91" rx="13" ry="3.44" fill="#fff" stroke="#252525" stroke-linejoin="round" stroke-width="0.5" />
    </g>
    <g class="row-5 piece-6 block contrast">
      <polygon class="standard" points="290 334.07 324.5 327.21 324.5 377.21 290 384.07 290 334.07" fill="#f3f3f3" stroke="#252525" stroke-linejoin="round" stroke-width="0.5" />
      <polygon class="dark" points="290 334.07 264 324.07 264 374.07 290 384.07 290 334.07" fill="#9b9b9b" stroke="#252525" stroke-linejoin="round" stroke-width="0.5" />
      <polygon class="light" points="264 324.07 290 334.07 324.5 327.21 298.5 317.21 264 324.07" fill="#fff" stroke="#252525" stroke-linejoin="round" stroke-width="0.5" />
    </g>
    <g class="row-4 piece-8 top primary">
      <path class="gradient" d="M247.14,372.94c0,1.91,5.82,3.45,13,3.45s13-1.54,13-3.45V383.5c-14.5,6.63-26,0-26,0Z" />
      <ellipse class="light" cx="260.14" cy="372.94" rx="13" ry="3.44" />
    </g>
    <g class="row-4 piece-9 top primary">
      <path class="gradient" d="M214.08,380.3c0,1.91,5.82,3.45,13,3.45s13-1.54,13-3.45v10.56c-14.5,6.63-26,0-26,0Z" />
      <ellipse class="light" cx="227.08" cy="380.3" rx="13" ry="3.44" />
    </g>
    <g class="row-5 piece-7 block primary">
      <polygon class="standard" points="221 348.35 290 334.35 290 384.35 221 398.35 221 348.35" />
      <polygon class="dark" points="221 348.35 195 338.35 195 388.35 221 398.35 221 348.35" />
      <polygon class="light" points="195 338.35 221 348.35 290 334.35 264 324.35 195 338.35" />
    </g>
    <g class="row-4 piece-9 top primary">
      <path class="gradient" d="M178.14,387.05c0,1.91,5.82,3.45,13,3.45s13-1.54,13-3.45v10.56c-14.5,6.63-26,0-26,0Z" />
      <ellipse class="light" cx="191.14" cy="387.05" rx="13" ry="3.44" />
    </g>
    <g class="row-4 piece-10 top primary">
      <path class="gradient" d="M145.08,394.3c0,1.91,5.82,3.45,13,3.45s13-1.54,13-3.45v10.56c-14.5,6.63-26,0-26,0Z" />
      <ellipse class="light" cx="158.08" cy="394.3" rx="13" ry="3.44" />
    </g>
    <g class="row-5 piece-8 block primary">
      <polygon class="standard" points="152 362.35 221 348.35 221 398.35 152 412.35 152 362.35" />
      <polygon class="dark" points="152 362.35 126 352.35 126 402.35 152 412.35 152 362.35" />
      <polygon class="light" points="126 352.35 152 362.35 221 348.35 195 338.35 126 352.35" />
    </g>
    <g class="row-4 piece-10 top primary">
      <path class="gradient" d="M109.14,401.05c0,1.91,5.82,3.45,13,3.45s13-1.54,13-3.45v10.56c-14.5,6.63-26,0-26,0Z" />
      <ellipse class="light" cx="122.14" cy="401.05" rx="13" ry="3.44" />
    </g>
    <g class="row-4 piece-11 top primary">
      <path class="gradient" d="M74.64,408.19c0,1.91,5.82,3.45,13,3.45s13-1.54,13-3.45v10.56c-14.5,6.63-26,0-26,0Z" />
      <ellipse class="light" cx="87.64" cy="408.19" rx="13" ry="3.44" />
    </g>
    <g class="row-5 piece-9 block primary">
      <polygon class="standard" points="83 376.35 152 362.35 152 412.35 83 426.35 83 376.35" />
      <polygon class="dark" points="83 376.35 57 366.35 57 416.35 83 426.35 83 376.35" />
      <polygon class="light" points="57 366.35 83 376.35 152 362.35 126 352.35 57 366.35" />
    </g>
    <g class="row-6 piece-1 block primary">
      <polygon class="standard" points="462.5 249.21 497 242.35 497 292.35 462.5 299.21 462.5 249.21" />
      <polygon class="dark" points="462.5 249.21 436.5 239.21 436.5 289.21 462.5 299.21 462.5 249.21" />
      <polygon class="light" points="436.5 239.21 462.5 249.21 497 242.35 471 232.35 436.5 239.21" />
    </g>
    <g class="row-5 piece-2 top contrast">
      <path class="gradient" d="M419.64,287.91c0,1.91,5.82,3.45,13,3.45s13-1.54,13-3.45v10.56c-14.5,6.63-26,0-26,0Z" />
      <ellipse class="light" cx="432.64" cy="287.91" rx="13" ry="3.44" fill="#fff" stroke="#252525" stroke-linejoin="round" stroke-width="0.5" />
    </g>
    <g class="row-5 piece-3 top contrast">
      <path class="gradient" d="M385.14,295.05c0,1.91,5.82,3.45,13,3.45s13-1.54,13-3.45v10.56c-14.5,6.63-26,0-26,0Z" />
      <ellipse class="light" cx="398.14" cy="295.05" rx="13" ry="3.44" fill="#fff" stroke="#252525" stroke-linejoin="round" stroke-width="0.5" />
    </g>
    <g class="row-6 piece-2 block primary">
      <polygon class="standard" points="393.5 263.21 462.5 249.21 462.5 299.21 393.5 313.21 393.5 263.21" />
      <polygon class="dark" points="393.5 263.21 367.5 253.21 367.5 303.21 393.5 313.21 393.5 263.21" />
      <polygon class="light" points="367.5 253.21 393.5 263.21 462.5 249.21 436.5 239.21 367.5 253.21" />
    </g>
    <g class="row-5 piece-4 top contrast">
      <path class="gradient" d="M350.64,302.19c0,1.91,5.82,3.45,13,3.45s13-1.54,13-3.45v10.56c-14.5,6.63-26,0-26,0Z" />
      <ellipse class="light" cx="363.64" cy="302.19" rx="13" ry="3.44" fill="#fff" stroke="#252525" stroke-linejoin="round" stroke-width="0.5" />
    </g>
    <g class="row-5 piece-5 top primary">
      <path class="gradient" d="M316.14,309.05c0,1.91,5.82,3.45,13,3.45s13-1.54,13-3.45v10.56c-14.5,6.63-26,0-26,0Z" />
      <ellipse class="light" cx="329.14" cy="309.05" rx="13" ry="3.44" />
    </g>
    <g class="row-6 piece-3 block primary">
      <polygon class="standard" points="324.5 277.21 393.5 263.21 393.5 313.21 324.5 327.21 324.5 277.21" />
      <polygon class="dark" points="324.5 277.21 298.5 267.21 298.5 317.21 324.5 327.21 324.5 277.21" />
      <polygon class="light" points="298.5 267.21 324.5 277.21 393.5 263.21 367.5 253.21 298.5 267.21" />
    </g>
    <g class="row-5 piece-6 top contrast">
      <path class="gradient" d="M281.64,315.91c0,1.91,5.82,3.45,13,3.45s13-1.54,13-3.45v10.56c-14.5,6.63-26,0-26,0Z" />
      <ellipse class="light" cx="294.64" cy="315.91" rx="13" ry="3.44" fill="#fff" stroke="#252525" stroke-linejoin="round" stroke-width="0.5" />
    </g>
    <g class="row-5 piece-7 top primary">
      <path class="gradient" d="M248.58,323.44c0,1.91,5.82,3.45,13,3.45s13-1.54,13-3.45V334c-14.5,6.63-26,0-26,0Z" />
      <ellipse class="light" cx="261.58" cy="323.44" rx="13" ry="3.44" />
    </g>
    <g class="row-6 piece-4 block primary">
      <polygon class="standard" points="255.5 291.21 324.5 277.21 324.5 327.21 255.5 341.21 255.5 291.21" />
      <polygon class="dark" points="255.5 291.21 229.5 281.21 229.5 331.21 255.5 341.21 255.5 291.21" />
      <polygon class="light" points="229.5 281.21 255.5 291.21 324.5 277.21 298.5 267.21 229.5 281.21" />
    </g>
    <g class="row-5 piece-7 top primary">
      <path class="gradient" d="M212.64,330.19c0,1.91,5.82,3.45,13,3.45s13-1.54,13-3.45v10.56c-14.5,6.63-26,0-26,0Z" />
      <ellipse class="light" cx="225.64" cy="330.19" rx="13" ry="3.44" />
    </g>
    <g class="row-5 piece-8 top primary">
      <path class="gradient" d="M179.58,337.44c0,1.91,5.82,3.45,13,3.45s13-1.54,13-3.45V348c-14.5,6.63-26,0-26,0Z" />
      <ellipse class="light" cx="192.58" cy="337.44" rx="13" ry="3.44" />
    </g>
    <g class="row-6 piece-5 block primary">
      <polygon class="standard" points="186.5 305.21 255.5 291.21 255.5 341.21 186.5 355.21 186.5 305.21" />
      <polygon class="dark" points="186.5 305.21 160.5 295.21 160.5 345.21 186.5 355.21 186.5 305.21" />
      <polygon class="light" points="160.5 295.21 186.5 305.21 255.5 291.21 229.5 281.21 160.5 295.21" />
    </g>
    <g class="row-5 piece-8 top primary">
      <path class="gradient" d="M143.64,344.19c0,1.91,5.82,3.45,13,3.45s13-1.54,13-3.45v10.56c-14.5,6.63-26,0-26,0Z" />
      <ellipse class="light" cx="156.64" cy="344.19" rx="13" ry="3.44" />
    </g>
    <g class="row-5 piece-9 top primary">
      <path class="gradient" d="M110.58,351.44c0,1.91,5.82,3.45,13,3.45s13-1.54,13-3.45V362c-14.5,6.63-26,0-26,0Z" />
      <ellipse class="light" cx="123.58" cy="351.44" rx="13" ry="3.44" />
    </g>
    <g class="row-6 piece-6 block primary">
      <polygon class="standard" points="117.5 319.21 186.5 305.21 186.5 355.21 117.5 369.21 117.5 319.21" />
      <polygon class="dark" points="117.5 319.21 91.5 309.21 91.5 359.21 117.5 369.21 117.5 319.21" />
      <polygon class="light" points="91.5 309.21 117.5 319.21 186.5 305.21 160.5 295.21 91.5 309.21" />
    </g>
    <g class="row-5 piece-9 top primary">
      <path class="gradient" d="M74.64,358.19c0,1.91,5.82,3.45,13,3.45s13-1.54,13-3.45v10.56c-14.5,6.63-26,0-26,0Z" />
      <ellipse class="light" cx="87.64" cy="358.19" rx="13" ry="3.44" />
    </g>
    <g class="row-6 piece-7 block primary">
      <polygon class="standard" points="83 326.35 117.5 319.49 117.5 369.49 83 376.35 83 326.35" />
      <polygon class="dark" points="83 326.35 57 316.35 57 366.35 83 376.35 83 326.35" />
      <polygon class="light" points="57 316.35 83 326.35 117.5 319.49 91.5 309.49 57 316.35" />
    </g>
    <g class="row-6 piece-1 top primary">
      <path class="gradient" d="M454.14,231.05c0,1.91,5.82,3.45,13,3.45s13-1.54,13-3.45v10.56c-14.5,6.63-26,0-26,0Z" />
      <ellipse class="light" cx="467.14" cy="231.05" rx="13" ry="3.44" />
    </g>
    <g class="row-6 piece-2 top primary">
      <path class="gradient" d="M421.08,238.3c0,1.91,5.82,3.45,13,3.45s13-1.54,13-3.45v10.56c-14.5,6.63-26,0-26,0Z" />
      <ellipse class="light" cx="434.08" cy="238.3" rx="13" ry="3.44" />
    </g>
    <g class="row-7 piece-1 block primary">
      <polygon class="standard" points="428 206.35 497 192.35 497 242.35 428 256.35 428 206.35" />
      <polygon class="dark" points="428 206.35 402 196.35 402 246.35 428 256.35 428 206.35" />
      <polygon class="light" points="402 196.35 428 206.35 497 192.35 471 182.35 402 196.35" />
    </g>
    <g class="row-6 piece-2 top primary">
      <path class="gradient" d="M385.14,245.05c0,1.91,5.82,3.45,13,3.45s13-1.54,13-3.45v10.56c-14.5,6.63-26,0-26,0Z" />
      <ellipse class="light" cx="398.14" cy="245.05" rx="13" ry="3.44" />
    </g>
    <g class="row-6 piece-3 top primary">
      <path class="gradient" d="M352.08,252.3c0,1.91,5.82,3.45,13,3.45s13-1.54,13-3.45v10.56c-14.5,6.63-26,0-26,0Z" />
      <ellipse class="light" cx="365.08" cy="252.3" rx="13" ry="3.44" />
    </g>
    <g class="row-7 piece-2 block primary">
      <polygon class="standard" points="359 220.35 428 206.35 428 256.35 359 270.35 359 220.35" />
      <polygon class="dark" points="359 220.35 333 210.35 333 260.35 359 270.35 359 220.35" />
      <polygon class="light" points="333 210.35 359 220.35 428 206.35 402 196.35 333 210.35" />
    </g>
    <g class="row-6 piece-3 top primary">
      <path class="gradient" d="M316.14,259.05c0,1.91,5.82,3.45,13,3.45s13-1.54,13-3.45v10.56c-14.5,6.63-26,0-26,0Z" />
      <ellipse class="light" cx="329.14" cy="259.05" rx="13" ry="3.44" />
    </g>
    <g class="row-6 piece-4 top primary">
      <path class="gradient" d="M283.08,266.3c0,1.91,5.82,3.45,13,3.45s13-1.54,13-3.45v10.56c-14.5,6.63-26,0-26,0Z" />
      <ellipse class="light" cx="296.08" cy="266.3" rx="13" ry="3.44" />
    </g>
    <g class="row-7 piece-3 block primary">
      <polygon class="standard" points="290 234.35 359 220.35 359 270.35 290 284.35 290 234.35" />
      <polygon class="dark" points="290 234.35 264 224.35 264 274.35 290 284.35 290 234.35" />
      <polygon class="light" points="264 224.35 290 234.35 359 220.35 333 210.35 264 224.35" />
    </g>
    <g class="row-6 piece-4 top primary">
      <path class="gradient" d="M247.14,273.05c0,1.91,5.82,3.45,13,3.45s13-1.54,13-3.45v10.56c-14.5,6.63-26,0-26,0Z" />
      <ellipse class="light" cx="260.14" cy="273.05" rx="13" ry="3.44" />
    </g>
    <g class="row-6 piece-5 top primary">
      <path class="gradient" d="M214.08,280.3c0,1.91,5.82,3.45,13,3.45s13-1.54,13-3.45v10.56c-14.5,6.63-26,0-26,0Z" />
      <ellipse class="light" cx="227.08" cy="280.3" rx="13" ry="3.44" />
    </g>
    <g class="row-7 piece-4 block primary">
      <polygon class="standard" points="221 248.35 290 234.35 290 284.35 221 298.35 221 248.35" />
      <polygon class="dark" points="221 248.35 195 238.35 195 288.35 221 298.35 221 248.35" />
      <polygon class="light" points="195 238.35 221 248.35 290 234.35 264 224.35 195 238.35" />
    </g>
    <g class="row-6 piece-5 top primary">
      <path class="gradient" d="M178.14,287.05c0,1.91,5.82,3.45,13,3.45s13-1.54,13-3.45v10.56c-14.5,6.63-26,0-26,0Z" />
      <ellipse class="light" cx="191.14" cy="287.05" rx="13" ry="3.44" />
    </g>
    <g class="row-6 piece-6 top primary">
      <path class="gradient" d="M145.08,294.3c0,1.91,5.82,3.45,13,3.45s13-1.54,13-3.45v10.56c-14.5,6.63-26,0-26,0Z" />
      <ellipse class="light" cx="158.08" cy="294.3" rx="13" ry="3.44" />
    </g>
    <g class="row-7 piece-5 block primary">
      <polygon class="standard" points="152 262.35 221 248.35 221 298.35 152 312.35 152 262.35" />
      <polygon class="dark" points="152 262.35 126 252.35 126 302.35 152 312.35 152 262.35" />
      <polygon class="light" points="126 252.35 152 262.35 221 248.35 195 238.35 126 252.35" />
    </g>
    <g class="row-6 piece-6 top primary">
      <path class="gradient" d="M109.14,301.05c0,1.91,5.82,3.45,13,3.45s13-1.54,13-3.45v10.56c-14.5,6.63-26,0-26,0Z" />
      <ellipse class="light" cx="122.14" cy="301.05" rx="13" ry="3.44" />
    </g>
    <g class="row-6 piece-7 top primary">
      <path class="gradient" d="M74.64,308.19c0,1.91,5.82,3.45,13,3.45s13-1.54,13-3.45v10.56c-14.5,6.63-26,0-26,0Z" />
      <ellipse class="light" cx="87.64" cy="308.19" rx="13" ry="3.44" />
    </g>
    <g class="row-7 piece-6 block primary">
      <polygon class="standard" points="83 276.35 152 262.35 152 312.35 83 326.35 83 276.35" />
      <polygon class="dark" points="83 276.35 57 266.35 57 316.35 83 326.35 83 276.35" />
      <polygon class="light" points="57 266.35 83 276.35 152 262.35 126 252.35 57 266.35" />
    </g>
    <g class="row-7 piece-1 top primary">
      <path class="gradient" d="M455.58,181.44c0,1.91,5.82,3.45,13,3.45s13-1.54,13-3.45V192c-14.5,6.63-26,0-26,0Z" />
      <ellipse class="light" cx="468.58" cy="181.44" rx="13" ry="3.44" />
    </g>
    <g class="row-8 piece-1 block primary">
      <polygon class="standard" points="462.5 149.21 497 142.35 497 192.35 462.5 199.21 462.5 149.21" />
      <polygon class="dark" points="462.5 149.21 436.5 139.21 436.5 189.21 462.5 199.21 462.5 149.21" />
      <polygon class="light" points="436.5 139.21 462.5 149.21 497 142.35 471 132.35 436.5 139.21" />
    </g>
    <g class="row-7 piece-1 top primary">
      <path class="gradient" d="M419.64,188.19c0,1.91,5.82,3.45,13,3.45s13-1.54,13-3.45v10.56c-14.5,6.63-26,0-26,0Z" />
      <ellipse class="light" cx="432.64" cy="188.19" rx="13" ry="3.44" />
    </g>
    <g class="row-7 piece-2 top primary">
      <path class="gradient" d="M386.58,195.44c0,1.91,5.82,3.45,13,3.45s13-1.54,13-3.45V206c-14.5,6.63-26,0-26,0Z" />
      <ellipse class="light" cx="399.58" cy="195.44" rx="13" ry="3.44" />
    </g>
    <g class="row-8 piece-2 block primary">
      <polygon class="standard" points="393.5 163.21 462.5 149.21 462.5 199.21 393.5 213.21 393.5 163.21" />
      <polygon class="dark" points="393.5 163.21 367.5 153.21 367.5 203.21 393.5 213.21 393.5 163.21" />
      <polygon class="light" points="367.5 153.21 393.5 163.21 462.5 149.21 436.5 139.21 367.5 153.21" />
    </g>
    <g class="row-7 piece-2 top primary">
      <path class="gradient" d="M350.64,202.19c0,1.91,5.82,3.45,13,3.45s13-1.54,13-3.45v10.56c-14.5,6.63-26,0-26,0Z" />
      <ellipse class="light" cx="363.64" cy="202.19" rx="13" ry="3.44" />
    </g>
    <g class="row-7 piece-3 top primary">
      <path class="gradient" d="M317.58,209.44c0,1.91,5.82,3.45,13,3.45s13-1.54,13-3.45V220c-14.5,6.63-26,0-26,0Z" />
      <ellipse class="light" cx="330.58" cy="209.44" rx="13" ry="3.44" />
    </g>
    <g class="row-8 piece-3 block primary">
      <polygon class="standard" points="324.5 177.21 393.5 163.21 393.5 213.21 324.5 227.21 324.5 177.21" />
      <polygon class="dark" points="324.5 177.21 298.5 167.21 298.5 217.21 324.5 227.21 324.5 177.21" />
      <polygon class="light" points="298.5 167.21 324.5 177.21 393.5 163.21 367.5 153.21 298.5 167.21" />
    </g>
    <g class="row-7 piece-3 top primary">
      <path class="gradient" d="M281.64,216.19c0,1.91,5.82,3.45,13,3.45s13-1.54,13-3.45v10.56c-14.5,6.63-26,0-26,0Z" />
      <ellipse class="light" cx="294.64" cy="216.19" rx="13" ry="3.44" />
    </g>
    <g class="row-7 piece-4 top primary">
      <path class="gradient" d="M248.58,223.44c0,1.91,5.82,3.45,13,3.45s13-1.54,13-3.45V234c-14.5,6.63-26,0-26,0Z" />
      <ellipse class="light" cx="261.58" cy="223.44" rx="13" ry="3.44" />
    </g>
    <g class="row-8 piece-4 block primary">
      <polygon class="standard" points="255.5 191.21 324.5 177.21 324.5 227.21 255.5 241.21 255.5 191.21" />
      <polygon class="dark" points="255.5 191.21 229.5 181.21 229.5 231.21 255.5 241.21 255.5 191.21" />
      <polygon class="light" points="229.5 181.21 255.5 191.21 324.5 177.21 298.5 167.21 229.5 181.21" />
    </g>
    <g class="row-7 piece-4 top primary">
      <path class="gradient" d="M212.64,230.19c0,1.91,5.82,3.45,13,3.45s13-1.54,13-3.45v10.56c-14.5,6.63-26,0-26,0Z" />
      <ellipse class="light" cx="225.64" cy="230.19" rx="13" ry="3.44" />
    </g>
    <g class="row-7 piece-5 top primary">
      <path class="gradient" d="M179.58,237.44c0,1.91,5.82,3.45,13,3.45s13-1.54,13-3.45V248c-14.5,6.63-26,0-26,0Z" />
      <ellipse class="light" cx="192.58" cy="237.44" rx="13" ry="3.44" />
    </g>
    <g class="row-8 piece-5 block primary">
      <polygon class="standard" points="186.5 205.21 255.5 191.21 255.5 241.21 186.5 255.21 186.5 205.21" />
      <polygon class="dark" points="186.5 205.21 160.5 195.21 160.5 245.21 186.5 255.21 186.5 205.21" />
      <polygon class="light" points="160.5 195.21 186.5 205.21 255.5 191.21 229.5 181.21 160.5 195.21" />
    </g>
    <g class="row-7 piece-5 top primary">
      <path class="gradient" d="M143.64,244.19c0,1.91,5.82,3.45,13,3.45s13-1.54,13-3.45v10.56c-14.5,6.63-26,0-26,0Z" />
      <ellipse class="light" cx="156.64" cy="244.19" rx="13" ry="3.44" />
    </g>
    <g class="row-7 piece-6 top primary">
      <path class="gradient" d="M110.58,251.44c0,1.91,5.82,3.45,13,3.45s13-1.54,13-3.45V262c-14.5,6.63-26,0-26,0Z" />
      <ellipse class="light" cx="123.58" cy="251.44" rx="13" ry="3.44" />
    </g>
    <g class="row-8 piece-6 block primary">
      <polygon class="standard" points="117.5 219.21 186.5 205.21 186.5 255.21 117.5 269.21 117.5 219.21" />
      <polygon class="dark" points="117.5 219.21 91.5 209.21 91.5 259.21 117.5 269.21 117.5 219.21" />
      <polygon class="light" points="91.5 209.21 117.5 219.21 186.5 205.21 160.5 195.21 91.5 209.21" />
    </g>
    <g class="row-7 piece-6 top primary">
      <path class="gradient" d="M74.64,258.19c0,1.91,5.82,3.45,13,3.45s13-1.54,13-3.45v10.56c-14.5,6.63-26,0-26,0Z" />
      <ellipse class="light" cx="87.64" cy="258.19" rx="13" ry="3.44" />
    </g>
    <g class="row-8 piece-7 block primary">
      <polygon class="standard" points="83 226.35 117.5 219.49 117.5 269.49 83 276.35 83 226.35" />
      <polygon class="dark" points="83 226.35 57 216.35 57 266.35 83 276.35 83 226.35" />
      <polygon class="light" points="57 216.35 83 226.35 117.5 219.49 91.5 209.49 57 216.35" />
    </g>
    <g class="row-8 piece-1 top primary">
      <path class="gradient" d="M454.14,131.05c0,1.91,5.82,3.45,13,3.45s13-1.54,13-3.45v10.56c-14.5,6.63-26,0-26,0Z" />
      <ellipse class="light" cx="467.14" cy="131.05" rx="13" ry="3.44" />
    </g>
    <g class="row-8 piece-2 top primary">
      <path class="gradient" d="M421.08,138.3c0,1.91,5.82,3.45,13,3.45s13-1.54,13-3.45v10.56c-14.5,6.63-26,0-26,0Z" />
      <ellipse class="light" cx="434.08" cy="138.3" rx="13" ry="3.44" />
    </g>
    <g class="row-9 piece-1 block primary">
      <polygon class="standard" points="428 106.35 497 92.35 497 142.35 428 156.35 428 106.35" />
      <polygon class="dark" points="428 106.35 402 96.35 402 146.35 428 156.35 428 106.35" />
      <polygon class="light" points="402 96.35 428 106.35 497 92.35 471 82.35 402 96.35" />
    </g>
    <g class="row-8 piece-2 top primary">
      <path class="gradient" d="M385.14,145.05c0,1.91,5.82,3.45,13,3.45s13-1.54,13-3.45v10.56c-14.5,6.63-26,0-26,0Z" />
      <ellipse class="light" cx="398.14" cy="145.05" rx="13" ry="3.44" />
    </g>
    <g class="row-8 piece-3 top primary">
      <path class="gradient" d="M352.08,152.3c0,1.91,5.82,3.45,13,3.45s13-1.54,13-3.45v10.56c-14.5,6.63-26,0-26,0Z" />
      <ellipse class="light" cx="365.08" cy="152.3" rx="13" ry="3.44" />
    </g>
    <g class="row-9 piece-2 block primary">
      <polygon class="standard" points="359 120.35 428 106.35 428 156.35 359 170.35 359 120.35" />
      <polygon class="dark" points="359 120.35 333 110.35 333 160.35 359 170.35 359 120.35" />
      <polygon class="light" points="333 110.35 359 120.35 428 106.35 402 96.35 333 110.35" />
    </g>
    <g class="row-8 piece-3 top primary">
      <path class="gradient" d="M316.14,159.05c0,1.91,5.82,3.45,13,3.45s13-1.54,13-3.45v10.56c-14.5,6.63-26,0-26,0Z" />
      <ellipse class="light" cx="329.14" cy="159.05" rx="13" ry="3.44" />
    </g>
    <g class="row-8 piece-4 top primary">
      <path class="gradient" d="M283.08,166.3c0,1.91,5.82,3.45,13,3.45s13-1.54,13-3.45v10.56c-14.5,6.63-26,0-26,0Z" />
      <ellipse class="light" cx="296.08" cy="166.3" rx="13" ry="3.44" />
    </g>
    <g class="row-9 piece-3 block primary">
      <polygon class="standard" points="290 134.35 359 120.35 359 170.35 290 184.35 290 134.35" />
      <polygon class="dark" points="290 134.35 264 124.35 264 174.35 290 184.35 290 134.35" />
      <polygon class="light" points="264 124.35 290 134.35 359 120.35 333 110.35 264 124.35" />
    </g>
    <g class="row-8 piece-4 top primary">
      <path class="gradient" d="M247.14,173.05c0,1.91,5.82,3.45,13,3.45s13-1.54,13-3.45v10.56c-14.5,6.63-26,0-26,0Z" />
      <ellipse class="light" cx="260.14" cy="173.05" rx="13" ry="3.44" />
    </g>
    <g class="row-8 piece-5 top primary">
      <path class="gradient" d="M214.08,180.3c0,1.91,5.82,3.45,13,3.45s13-1.54,13-3.45v10.56c-14.5,6.63-26,0-26,0Z" />
      <ellipse class="light" cx="227.08" cy="180.3" rx="13" ry="3.44" />
    </g>
    <g class="row-9 piece-4 block primary">
      <polygon class="standard" points="221 148.35 290 134.35 290 184.35 221 198.35 221 148.35" />
      <polygon class="dark" points="221 148.35 195 138.35 195 188.35 221 198.35 221 148.35" />
      <polygon class="light" points="195 138.35 221 148.35 290 134.35 264 124.35 195 138.35" />
    </g>
    <g class="row-8 piece-5 top primary">
      <path class="gradient" d="M178.14,187.05c0,1.91,5.82,3.45,13,3.45s13-1.54,13-3.45v10.56c-14.5,6.63-26,0-26,0Z" />
      <ellipse class="light" cx="191.14" cy="187.05" rx="13" ry="3.44" />
    </g>
    <g class="row-8 piece-6 top primary">
      <path class="gradient" d="M145.08,194.3c0,1.91,5.82,3.45,13,3.45s13-1.54,13-3.45v10.56c-14.5,6.63-26,0-26,0Z" />
      <ellipse class="light" cx="158.08" cy="194.3" rx="13" ry="3.44" />
    </g>
    <g class="row-9 piece-5 block primary">
      <polygon class="standard" points="152 162.35 221 148.35 221 198.35 152 212.35 152 162.35" />
      <polygon class="dark" points="152 162.35 126 152.35 126 202.35 152 212.35 152 162.35" />
      <polygon class="light" points="126 152.35 152 162.35 221 148.35 195 138.35 126 152.35" />
    </g>
    <g class="row-8 piece-6 top primary">
      <path class="gradient" d="M109.14,201.05c0,1.91,5.82,3.45,13,3.45s13-1.54,13-3.45v10.56c-14.5,6.63-26,0-26,0Z" />
      <ellipse class="light" cx="122.14" cy="201.05" rx="13" ry="3.44" />
    </g>
    <g class="row-8 piece-7 top primary">
      <path class="gradient" d="M74.64,208.19c0,1.91,5.82,3.45,13,3.45s13-1.54,13-3.45v10.56c-14.5,6.63-26,0-26,0Z" />
      <ellipse class="light" cx="87.64" cy="208.19" rx="13" ry="3.44" />
    </g>
    <g class="row-9 piece-6 block primary">
      <polygon class="standard" points="83 176.35 152 162.35 152 212.35 83 226.35 83 176.35" />
      <polygon class="dark" points="83 176.35 57 166.35 57 216.35 83 226.35 83 176.35" />
      <polygon class="light" points="57 166.35 83 176.35 152 162.35 126 152.35 57 166.35" />
    </g>
    <g class="row-9 piece-1 top primary">
      <path class="gradient" d="M455.58,81.44c0,1.91,5.82,3.45,13,3.45s13-1.54,13-3.45V92c-14.5,6.63-26,0-26,0Z" />
      <ellipse class="light" cx="468.58" cy="81.44" rx="13" ry="3.44" />
    </g>
    <g class="row-10 piece-1 block primary">
      <polygon class="standard" points="462.5 49.21 497 42.35 497 92.35 462.5 99.21 462.5 49.21" />
      <polygon class="dark" points="462.5 49.21 436.5 39.21 436.5 89.21 462.5 99.21 462.5 49.21" />
      <polygon class="light" points="436.5 39.21 462.5 49.21 497 42.35 471 32.35 436.5 39.21" />
      <path class="gradient" d="M454.14,31.05c0,1.91,5.82,3.45,13,3.45s13-1.54,13-3.45V41.61c-14.5,6.63-26,0-26,0Z" />
      <ellipse class="light" cx="467.14" cy="31.05" rx="13" ry="3.44" />
    </g>
    <g class="row-9 piece-1 top primary">
      <path class="gradient" d="M419.64,88.19c0,1.91,5.82,3.45,13,3.45s13-1.54,13-3.45V98.75c-14.5,6.63-26,0-26,0Z" />
      <ellipse class="light" cx="432.64" cy="88.19" rx="13" ry="3.44" />
    </g>
    <g class="row-9 piece-2 top primary">
      <path class="gradient" d="M386.58,95.44c0,1.91,5.82,3.45,13,3.45s13-1.54,13-3.45V106c-14.5,6.63-26,0-26,0Z" />
      <ellipse class="light" cx="399.58" cy="95.44" rx="13" ry="3.44" />
    </g>
    <g class="row-10 piece-2 block primary">
      <polygon class="standard" points="393.5 63.21 462.5 49.21 462.5 99.21 393.5 113.21 393.5 63.21" />
      <polygon class="dark" points="393.5 63.21 367.5 53.21 367.5 103.21 393.5 113.21 393.5 63.21" />
      <polygon class="light" points="367.5 53.21 393.5 63.21 462.5 49.21 436.5 39.21 367.5 53.21" />
      <path class="gradient" d="M385.14,45.05c0,1.91,5.82,3.45,13,3.45s13-1.54,13-3.45V55.61c-14.5,6.63-26,0-26,0Z" />
      <ellipse class="light" cx="398.14" cy="45.05" rx="13" ry="3.44" />
      <path class="gradient" d="M421.08,38.3c0,1.91,5.82,3.45,13,3.45s13-1.54,13-3.45V48.86c-14.5,6.63-26,0-26,0Z" />
      <ellipse class="light" cx="434.08" cy="38.3" rx="13" ry="3.44" />
    </g>
    <g class="row-9 piece-2 top primary">
      <path class="gradient" d="M350.64,102.19c0,1.91,5.82,3.45,13,3.45s13-1.54,13-3.45v10.56c-14.5,6.63-26,0-26,0Z" />
      <ellipse class="light" cx="363.64" cy="102.19" rx="13" ry="3.44" />
    </g>
    <g class="row-9 piece-3 top primary">
      <path class="gradient" d="M317.58,109.44c0,1.91,5.82,3.45,13,3.45s13-1.54,13-3.45V120c-14.5,6.63-26,0-26,0Z" />
      <ellipse class="light" cx="330.58" cy="109.44" rx="13" ry="3.44" />
    </g>
    <g class="row-10 piece-3 block primary">
      <polygon class="standard" points="324.5 77.21 393.5 63.21 393.5 113.21 324.5 127.21 324.5 77.21" />
      <polygon class="dark" points="324.5 77.21 298.5 67.21 298.5 117.21 324.5 127.21 324.5 77.21" />
      <polygon class="light" points="298.5 67.21 324.5 77.21 393.5 63.21 367.5 53.21 298.5 67.21" />
      <path class="gradient" d="M316.14,59.05c0,1.91,5.82,3.45,13,3.45s13-1.54,13-3.45V69.61c-14.5,6.63-26,0-26,0Z" />
      <ellipse class="light" cx="329.14" cy="59.05" rx="13" ry="3.44" />
      <path class="gradient" d="M352.08,52.3c0,1.91,5.82,3.45,13,3.45s13-1.54,13-3.45V62.86c-14.5,6.63-26,0-26,0Z" />
      <ellipse class="light" cx="365.08" cy="52.3" rx="13" ry="3.44" />
    </g>
    <g class="row-9 piece-3 top primary">
      <path class="gradient" d="M281.64,116.19c0,1.91,5.82,3.45,13,3.45s13-1.54,13-3.45v10.56c-14.5,6.63-26,0-26,0Z" />
      <ellipse class="light" cx="294.64" cy="116.19" rx="13" ry="3.44" />
    </g>
    <g class="row-9 piece-4 top primary">
      <path class="gradient" d="M248.58,123.44c0,1.91,5.82,3.45,13,3.45s13-1.54,13-3.45V134c-14.5,6.63-26,0-26,0Z" />
      <ellipse class="light" cx="261.58" cy="123.44" rx="13" ry="3.44" />
    </g>
    <g class="row-10 piece-4 block primary">
      <polygon class="standard" points="255.5 91.21 324.5 77.21 324.5 127.21 255.5 141.21 255.5 91.21" />
      <polygon class="dark" points="255.5 91.21 229.5 81.21 229.5 131.21 255.5 141.21 255.5 91.21" />
      <polygon class="light" points="229.5 81.21 255.5 91.21 324.5 77.21 298.5 67.21 229.5 81.21" />
      <path class="gradient" d="M247.14,73.05c0,1.91,5.82,3.45,13,3.45s13-1.54,13-3.45V83.61c-14.5,6.63-26,0-26,0Z" />
      <ellipse class="light" cx="260.14" cy="73.05" rx="13" ry="3.44" />
      <path class="gradient" d="M283.08,66.3c0,1.91,5.82,3.45,13,3.45s13-1.54,13-3.45V76.86c-14.5,6.63-26,0-26,0Z" />
      <ellipse class="light" cx="296.08" cy="66.3" rx="13" ry="3.44" />
    </g>
    <g class="row-9 piece-4 top primary">
      <path class="gradient" d="M212.64,130.19c0,1.91,5.82,3.45,13,3.45s13-1.54,13-3.45v10.56c-14.5,6.63-26,0-26,0Z" />
      <ellipse class="light" cx="225.64" cy="130.19" rx="13" ry="3.44" />
    </g>
    <g class="row-9 piece-5 top primary">
      <path class="gradient" d="M179.58,137.44c0,1.91,5.82,3.45,13,3.45s13-1.54,13-3.45V148c-14.5,6.63-26,0-26,0Z" />
      <ellipse class="light" cx="192.58" cy="137.44" rx="13" ry="3.44" />
    </g>
    <g class="row-10 piece-5 block primary">
      <polygon class="standard" points="186.5 105.21 255.5 91.21 255.5 141.21 186.5 155.21 186.5 105.21" />
      <polygon class="dark" points="186.5 105.21 160.5 95.21 160.5 145.21 186.5 155.21 186.5 105.21" />
      <polygon class="light" points="160.5 95.21 186.5 105.21 255.5 91.21 229.5 81.21 160.5 95.21" />
      <path class="gradient" d="M178.14,87.05c0,1.91,5.82,3.45,13,3.45s13-1.54,13-3.45V97.61c-14.5,6.63-26,0-26,0Z" />
      <ellipse class="light" cx="191.14" cy="87.05" rx="13" ry="3.44" />
      <path class="gradient" d="M214.08,80.3c0,1.91,5.82,3.45,13,3.45s13-1.54,13-3.45V90.86c-14.5,6.63-26,0-26,0Z" />
      <ellipse class="light" cx="227.08" cy="80.3" rx="13" ry="3.44" />
    </g>
    <g class="row-9 piece-5 top primary">
      <path class="gradient" d="M143.64,144.19c0,1.91,5.82,3.45,13,3.45s13-1.54,13-3.45v10.56c-14.5,6.63-26,0-26,0Z" />
      <ellipse class="light" cx="156.64" cy="144.19" rx="13" ry="3.44" />
    </g>
    <g class="row-9 piece-6 top primary">
      <path class="gradient" d="M110.58,151.44c0,1.91,5.82,3.45,13,3.45s13-1.54,13-3.45V162c-14.5,6.63-26,0-26,0Z" />
      <ellipse class="light" cx="123.58" cy="151.44" rx="13" ry="3.44" />
    </g>
    <g class="row-10 piece-6 block primary">
      <polygon class="standard" points="117.5 119.21 186.5 105.21 186.5 155.21 117.5 169.21 117.5 119.21" />
      <polygon class="dark" points="117.5 119.21 91.5 109.21 91.5 159.21 117.5 169.21 117.5 119.21" />
      <polygon class="light" points="91.5 109.21 117.5 119.21 186.5 105.21 160.5 95.21 91.5 109.21" />
      <path class="gradient" d="M109.14,101.05c0,1.91,5.82,3.45,13,3.45s13-1.54,13-3.45v10.56c-14.5,6.63-26,0-26,0Z" />
      <ellipse class="light" cx="122.14" cy="101.05" rx="13" ry="3.44" />
      <path class="gradient" d="M145.08,94.3c0,1.91,5.82,3.45,13,3.45s13-1.54,13-3.45v10.56c-14.5,6.63-26,0-26,0Z" />
      <ellipse class="light" cx="158.08" cy="94.3" rx="13" ry="3.44" />
    </g>
    <g class="row-9 piece-6 top primary">
      <path class="gradient" d="M74.64,158.19c0,1.91,5.82,3.45,13,3.45s13-1.54,13-3.45v10.56c-14.5,6.63-26,0-26,0Z" />
      <ellipse class="light" cx="87.64" cy="158.19" rx="13" ry="3.44" />
    </g>
    <g class="row-10 piece-7 block primary">
      <polygon class="standard" points="83 126.35 117.5 119.49 117.5 169.49 83 176.35 83 126.35" />
      <polygon class="dark" points="83 126.35 57 116.35 57 166.35 83 176.35 83 126.35" />
      <polygon class="light" points="57 116.35 83 126.35 117.5 119.49 91.5 109.49 57 116.35" />
      <path class="gradient" d="M74.64,108.19c0,1.91,5.82,3.45,13,3.45s13-1.54,13-3.45v10.56c-14.5,6.63-26,0-26,0Z" />
      <ellipse class="light" cx="87.64" cy="108.19" rx="13" ry="3.44" />
    </g>
  </svg>
